<?xml version="1.0" encoding="UTF-8"?>
<svg id="Layer_2" data-name="Layer 2" xmlns="http://www.w3.org/2000/svg" xmlns:xlink="http://www.w3.org/1999/xlink" viewBox="0 0 119.68 26.35">
  <defs>
    <style>
      .cls-1 {
        fill: url(#linear-gradient);
      }
    </style>
    <linearGradient id="linear-gradient" x1="0" y1="13.18" x2="119.68" y2="13.18" gradientUnits="userSpaceOnUse">
      <stop offset="0" stop-color="#503ef7"/>
      <stop offset="1" stop-color="#519fff"/>
    </linearGradient>
  </defs>
  <g id="Layer_1-2" data-name="Layer 1">
    <path class="cls-1" d="M46.7,2.92c-1.6-.95-3.5-1.42-5.69-1.42s-4.09.47-5.69,1.42c-1.6.95-2.84,2.29-3.71,4.04-.88,1.74-1.31,3.81-1.31,6.19v.03c0,2.39.44,4.46,1.31,6.2.87,1.75,2.11,3.1,3.71,4.04s3.5,1.42,5.7,1.42,4.1-.47,5.69-1.42,2.83-2.3,3.7-4.04c.87-1.75,1.31-3.81,1.31-6.2v-.03c0-2.39-.44-4.45-1.31-6.19-.87-1.74-2.11-3.09-3.71-4.04ZM47.61,13.18c0,1.66-.27,3.1-.8,4.33-.53,1.23-1.29,2.17-2.28,2.85-.99.67-2.16,1.01-3.53,1.01s-2.51-.33-3.5-1c-.99-.67-1.75-1.61-2.29-2.84-.54-1.23-.81-2.67-.81-4.34v-.03c0-1.68.27-3.13.81-4.35.54-1.22,1.3-2.16,2.3-2.82,1-.66,2.16-.99,3.5-.99s2.51.33,3.5.99c.99.66,1.75,1.61,2.29,2.83.54,1.23.81,2.67.81,4.34v.03ZM68.93,3.2c-1.6-.88-3.52-1.31-5.77-1.31h-8.24v22.57h8.24c2.25,0,4.18-.45,5.78-1.35s2.83-2.19,3.68-3.89c.85-1.69,1.28-3.73,1.28-6.11v-.03c0-2.38-.43-4.4-1.28-6.07-.85-1.67-2.08-2.94-3.68-3.82ZM69.78,13.14c0,1.72-.27,3.17-.81,4.34s-1.33,2.06-2.38,2.67c-1.04.61-2.33.92-3.85.92h-3.79V5.28h3.79c1.5,0,2.78.3,3.82.9,1.05.6,1.85,1.48,2.39,2.65.55,1.17.82,2.59.82,4.27v.03ZM92.73,2.92c-1.6-.95-3.5-1.42-5.69-1.42s-4.09.47-5.69,1.42c-1.6.95-2.84,2.29-3.71,4.04-.88,1.74-1.31,3.81-1.31,6.19v.03c0,2.39.44,4.46,1.31,6.2.87,1.75,2.11,3.1,3.71,4.04s3.5,1.42,5.7,1.42,4.1-.47,5.69-1.42,2.83-2.3,3.7-4.04c.87-1.75,1.31-3.81,1.31-6.2v-.03c0-2.39-.44-4.45-1.31-6.19-.87-1.74-2.11-3.09-3.71-4.04ZM93.65,13.18c0,1.66-.27,3.1-.8,4.33-.53,1.23-1.29,2.17-2.28,2.85-.99.67-2.16,1.01-3.53,1.01s-2.51-.33-3.5-1c-.99-.67-1.75-1.61-2.29-2.84-.54-1.23-.81-2.67-.81-4.34v-.03c0-1.68.27-3.13.81-4.35.54-1.22,1.3-2.16,2.3-2.82,1-.66,2.16-.99,3.5-.99s2.51.33,3.5.99c.99.66,1.75,1.61,2.29,2.83.54,1.23.81,2.67.81,4.34v.03ZM119.68,1.89v22.57h-3.6l-11.03-15.89h-.09v15.89h-4V1.89h3.63l11.01,15.83h.09V1.89h4ZM11.49,0C5.78,0,0,1.83,0,5.34v15.67c0,3.67,5.96,5.34,11.49,5.34s11.49-1.67,11.49-5.34V5.34c0-3.51-5.78-5.34-11.49-5.34ZM19.99,21.01c0,.6-2.92,2.34-8.49,2.34s-8.49-1.74-8.49-2.34v-4.08c.08.04.18.07.26.11.17.08.34.15.52.22.12.05.25.09.37.14.18.06.35.12.54.18.14.04.27.08.41.12.18.05.37.1.56.15.14.04.29.07.44.1.19.04.39.08.59.12.15.03.3.06.45.08.2.03.41.07.62.1.15.02.3.04.45.06.22.03.44.05.66.07.14.01.28.03.43.04.25.02.49.03.74.05.12,0,.24.02.36.02.37.01.73.02,1.1.02s.73,0,1.1-.02c.12,0,.24-.01.36-.02.25-.01.49-.03.74-.05.14-.01.29-.03.43-.04.22-.02.44-.04.66-.07.15-.02.3-.04.45-.06.21-.03.42-.06.62-.1.15-.03.3-.05.45-.08.2-.04.39-.08.59-.12.15-.03.29-.07.44-.1.19-.05.37-.1.56-.15.14-.04.28-.08.41-.12.18-.06.36-.12.54-.18.13-.04.25-.09.37-.14.18-.07.35-.15.52-.22.09-.04.18-.07.26-.11v4.08ZM11.49,15.52c-5.57,0-8.49-1.74-8.49-2.34v-4.12c.08.04.17.07.26.11.16.07.33.15.5.22.11.05.23.09.35.13.19.07.38.14.58.2.1.03.2.06.31.09.24.07.48.14.73.2.07.02.13.03.2.05,1.72.41,3.65.62,5.57.62s3.85-.21,5.57-.62c.07-.02.13-.03.2-.05.25-.06.49-.13.73-.2.1-.03.21-.06.31-.09.2-.06.39-.13.58-.2.12-.04.23-.09.35-.13.17-.07.34-.14.5-.22.08-.04.18-.07.26-.11v4.12c0,.6-2.92,2.34-8.49,2.34ZM11.49,7.68c-5.57,0-8.49-1.74-8.49-2.34s2.92-2.34,8.49-2.34,8.49,1.74,8.49,2.34-2.92,2.34-8.49,2.34Z"/>
  </g>
</svg>