<?xml version="1.0" encoding="UTF-8" standalone="no"?>
<!-- Created with Inkscape (http://www.inkscape.org/) -->

<svg
   width="79.928299mm"
   height="33.833416mm"
   viewBox="0 0 79.928299 33.833416"
   version="1.1"
   id="svg1"
   inkscape:version="1.4.2 (ebf0e940, 2025-05-08)"
   sodipodi:docname="serve_data.svg"
   xmlns:inkscape="http://www.inkscape.org/namespaces/inkscape"
   xmlns:sodipodi="http://sodipodi.sourceforge.net/DTD/sodipodi-0.dtd"
   xmlns="http://www.w3.org/2000/svg"
   xmlns:svg="http://www.w3.org/2000/svg">
  <sodipodi:namedview
     id="namedview1"
     pagecolor="#ffffff"
     bordercolor="#000000"
     borderopacity="0.25"
     inkscape:showpageshadow="2"
     inkscape:pageopacity="0.0"
     inkscape:pagecheckerboard="0"
     inkscape:deskcolor="#d1d1d1"
     inkscape:document-units="mm"
     inkscape:zoom="0.89887065"
     inkscape:cx="150.74471"
     inkscape:cy="63.969159"
     inkscape:window-width="976"
     inkscape:window-height="1186"
     inkscape:window-x="0"
     inkscape:window-y="25"
     inkscape:window-maximized="0"
     inkscape:current-layer="layer1" />
  <defs
     id="defs1" />
  <g
     inkscape:label="Layer 1"
     inkscape:groupmode="layer"
     id="layer1"
     transform="translate(-65.087499,-131.49791)">
    <g
       id="g296"
       transform="translate(-38.89611,30.778877)">
      <g
         id="g270"
         transform="translate(4.2333335,4.7625002)">
        <path
           style="fill:none;stroke:#000000;stroke-width:0.799999;stroke-linecap:round;stroke-linejoin:round;stroke-dasharray:none"
           d="m 121.83719,106.77952 c 1.89193,1.66104 3.75473,3.47701 5.6944,6.1148 1.39106,1.89172 2.33127,3.21026 2.33127,3.21026 l -2.90453,1.758"
           id="path122"
           sodipodi:nodetypes="cscc" />
        <path
           style="fill:none;stroke:#000000;stroke-width:0.799999;stroke-linecap:round;stroke-linejoin:round;stroke-dasharray:none"
           d="m 121.12072,112.14881 0.81071,1.62143"
           id="path123" />
        <path
           style="fill:none;stroke:#000000;stroke-width:0.799999;stroke-linecap:round;stroke-linejoin:round;stroke-dasharray:none"
           d="m 112.09476,114.58095 c -1.36945,-0.87097 -3.35097,-0.62156 -4.32381,0.86477 -1.56902,2.3972 0.0539,5.04335 1.18905,5.99928 2.05381,1.72953 4.86429,1.35119 4.86429,1.35119 v 0.0541"
           id="path124"
           sodipodi:nodetypes="csscc" />
        <path
           style="fill:none;stroke:#000000;stroke-width:0.799999;stroke-linecap:round;stroke-linejoin:round;stroke-dasharray:none"
           d="m 109.87881,116.95905 c 1.75242,0.01 2.13565,1.01488 2.32405,2.1619"
           id="path125"
           sodipodi:nodetypes="cc" />
        <path
           style="fill:none;stroke:#000000;stroke-width:0.799999;stroke-linecap:round;stroke-linejoin:round;stroke-dasharray:none"
           d="m 128.39012,118.28322 c -0.0942,1.13664 -0.4891,4.15775 -1.75654,5.89119 -1.21477,1.66139 -3.49158,3.2942 -6.18846,3.2969 -3.54846,0.004 -5.97226,-2.54024 -5.97226,-2.54024"
           id="path126"
           sodipodi:nodetypes="cssc" />
        <path
           style="fill:none;stroke:#000000;stroke-width:0.6;stroke-linecap:round;stroke-linejoin:round;stroke-dasharray:none"
           d="m 127.71452,120.71536 c 0,0 -1.16202,2.08084 -3.1888,2.40512 -2.02679,0.32428 -4.03775,-0.89567 -4.97239,-3.05369"
           id="path127"
           sodipodi:nodetypes="csc" />
        <path
           style="fill:none;stroke:#000000;stroke-width:0.8;stroke-linecap:round;stroke-linejoin:round;stroke-dasharray:none"
           d="m 122.63405,105.555 -1.67548,-3.67524 -2.37809,2.48619 c 0,0 -6.48572,-2.97261 -6.37762,-2.70238 0.10809,0.27024 0.59452,4.81024 0.59452,4.81024 l -7.18833,-0.70262 1.83762,4.70215 -5.94524,2.32404 3.35095,3.78333 -4.70214,7.45858 5.08047,-0.32429 0.54048,5.675 4.05357,-4.05357 2.16191,1.08095"
           id="path128" />
      </g>
      <g
         id="g295">
        <path
           style="fill:none;stroke:#000000;stroke-width:0.799999;stroke-linecap:round;stroke-linejoin:round;stroke-dasharray:none"
           d="m 135.28119,116.04024 h 41.50857"
           id="path129" />
        <path
           style="fill:none;stroke:#000000;stroke-width:0.799999;stroke-linecap:round;stroke-linejoin:round;stroke-dasharray:none"
           d="m 142.35996,116.56319 c 0,0 1.47137,1.45226 2.23572,2.71344 0.76435,1.26117 1.45226,3.26759 1.45226,3.26759"
           id="path130" />
        <path
           style="fill:none;stroke:#000000;stroke-width:0.799999;stroke-linecap:round;stroke-linejoin:round;stroke-dasharray:none"
           d="m 154.91439,116.04725 c -0.47772,0.0191 -0.80257,0.13376 -1.60514,0.93633 -0.80256,0.80257 -1.65391,1.63825 -2.73254,2.38859 -0.77184,0.53692 -2.14017,0.68791 -3.00007,-0.26753 -1.03952,-1.15502 -2.56405,-2.20642 -3.21027,-2.52235 -0.85989,-0.42039 -1.89176,-0.19108 -1.89176,-0.19108"
           id="path131"
           sodipodi:nodetypes="cssssc" />
        <path
           style="fill:none;stroke:#000000;stroke-width:0.799999;stroke-linecap:round;stroke-linejoin:round;stroke-dasharray:none"
           d="m 157.75933,116.14935 c 0,0 -1.99409,1.82867 -3.48457,4.27459 -1.49048,2.44591 -4.17577,3.87828 -4.17577,3.87828"
           id="path132"
           sodipodi:nodetypes="csc" />
        <path
           style="fill:none;stroke:#000000;stroke-width:0.799999;stroke-linecap:round;stroke-linejoin:round;stroke-dasharray:none"
           d="m 139.79939,127.41694 6.03835,-4.77718 4.96827,2.02552 -5.65618,8.17854 c -1.12689,-1.58168 -1.7021,-2.97239 -5.35044,-5.42688 z"
           id="path133"
           sodipodi:nodetypes="ccccc" />
        <path
           style="fill:none;stroke:#000000;stroke-width:0.6;stroke-linecap:round;stroke-linejoin:round;stroke-dasharray:none"
           d="m 156.38679,116.09429 c -0.43238,0.18916 -0.43238,-0.1081 -1.54036,0.97285 -1.10798,1.08096 -2.81047,2.40512 -3.81035,2.70238 -0.99989,0.29727 -2.18893,0.13513 -2.18893,0.13513"
           id="path146"
           sodipodi:nodetypes="cssc" />
      </g>
      <g
         id="g294">
        <path
           style="fill:none;stroke:#000000;stroke-width:0.757569;stroke-linecap:round;stroke-linejoin:round;stroke-dasharray:none;stroke-opacity:1"
           d="m 161.62395,101.09782 h -24.11059 v 13.06999"
           id="path229"
           sodipodi:nodetypes="ccc" />
        <path
           style="fill:none;stroke:#000000;stroke-width:0.568177;stroke-linecap:round;stroke-linejoin:round;stroke-dasharray:none;stroke-opacity:1"
           d="m 137.46006,103.14706 h 23.33182"
           id="path230"
           sodipodi:nodetypes="cc" />
        <path
           style="fill:none;stroke:#000000;stroke-width:0.568177;stroke-linecap:round;stroke-linejoin:round;stroke-dasharray:none;stroke-opacity:1"
           d="m 137.46006,105.35182 h 23.42286"
           id="path231"
           sodipodi:nodetypes="cc" />
        <path
           style="fill:none;stroke:#000000;stroke-width:0.568177;stroke-linecap:round;stroke-linejoin:round;stroke-dasharray:none;stroke-opacity:1"
           d="m 137.46006,107.55657 h 23.3688"
           id="path232"
           sodipodi:nodetypes="cc" />
        <path
           style="fill:none;stroke:#000000;stroke-width:0.568177;stroke-linecap:round;stroke-linejoin:round;stroke-dasharray:none;stroke-opacity:1"
           d="m 137.46006,109.76131 h 23.29503"
           id="path233"
           sodipodi:nodetypes="cc" />
        <path
           style="fill:none;stroke:#000000;stroke-width:0.568177;stroke-linecap:round;stroke-linejoin:round;stroke-dasharray:none;stroke-opacity:1"
           d="m 137.46006,111.96606 h 23.24717"
           id="path234"
           sodipodi:nodetypes="cc" />
        <path
           style="fill:none;stroke:#000000;stroke-width:0.6;stroke-linecap:round;stroke-linejoin:round;stroke-dasharray:none;stroke-opacity:1"
           d="m 143.10917,101.35297 v 12.77292"
           id="path239"
           sodipodi:nodetypes="cc" />
        <path
           style="fill:none;stroke:#000000;stroke-width:0.6;stroke-linecap:round;stroke-linejoin:round;stroke-dasharray:none;stroke-opacity:1"
           d="m 148.78571,101.35297 v 12.77292"
           id="path240"
           sodipodi:nodetypes="cc" />
        <path
           style="fill:none;stroke:#000000;stroke-width:0.6;stroke-linecap:round;stroke-linejoin:round;stroke-dasharray:none;stroke-opacity:1"
           d="m 154.46225,101.35297 v 12.81125"
           id="path241"
           sodipodi:nodetypes="cc" />
        <path
           style="fill:none;stroke:#000000;stroke-width:0.3;stroke-linecap:round;stroke-linejoin:round;stroke-dasharray:none;stroke-opacity:1"
           d="m 158.62686,111.96606 h 23.24717"
           id="path263"
           sodipodi:nodetypes="cc" />
        <path
           style="fill:none;stroke:#000000;stroke-width:0.3;stroke-linecap:round;stroke-linejoin:round;stroke-dasharray:none;stroke-opacity:1"
           d="m 158.62686,109.79533 h 23.24717"
           id="path264"
           sodipodi:nodetypes="cc" />
        <path
           style="fill:none;stroke:#000000;stroke-width:0.3;stroke-linecap:round;stroke-linejoin:round;stroke-dasharray:none;stroke-opacity:1"
           d="m 158.62686,107.57056 h 23.24717"
           id="path265"
           sodipodi:nodetypes="cc" />
        <path
           style="fill:none;stroke:#000000;stroke-width:0.3;stroke-linecap:round;stroke-linejoin:round;stroke-dasharray:none;stroke-opacity:1"
           d="m 158.62686,105.36761 h 23.24717"
           id="path266"
           sodipodi:nodetypes="cc" />
        <path
           style="fill:none;stroke:#000000;stroke-width:0.3;stroke-linecap:round;stroke-linejoin:round;stroke-dasharray:none;stroke-opacity:1"
           d="m 158.62686,103.15538 h 23.24717"
           id="path267"
           sodipodi:nodetypes="cc" />
        <path
           style="fill:none;stroke:#000000;stroke-width:0.3;stroke-linecap:round;stroke-linejoin:round;stroke-dasharray:none;stroke-opacity:1"
           d="m 158.62686,101.09603 h 23.24717"
           id="path268"
           sodipodi:nodetypes="cc" />
        <path
           style="fill:none;stroke:#000000;stroke-width:0.3;stroke-linecap:round;stroke-linejoin:round;stroke-dasharray:none;stroke-opacity:1"
           d="m 137.76448,114.08274 h 44.10955"
           id="path269"
           sodipodi:nodetypes="cc" />
        <rect
           style="fill:#ffffff;fill-opacity:1;stroke:#000000;stroke-width:0.27145;stroke-linecap:round;stroke-linejoin:round;stroke-dasharray:none"
           id="rect269"
           width="3.4875979"
           height="8.7775431"
           x="162.72311"
           y="105.33126"
           ry="0" />
        <rect
           style="fill:#ffffff;fill-opacity:1;stroke:#000000;stroke-width:0.236224;stroke-linecap:round;stroke-linejoin:round;stroke-dasharray:none"
           id="rect270"
           width="3.5228236"
           height="6.5807929"
           x="167.04462"
           y="107.54562"
           ry="0" />
        <path
           style="fill:none;fill-opacity:1;stroke:#000000;stroke-width:0.3;stroke-linecap:round;stroke-linejoin:round;stroke-dasharray:none"
           d="m 164.95333,111.85596 c 0,0 2.37939,-2.5057 4.07484,-4.26863 1.92061,-1.99706 4.49171,-1.86578 6.14017,-0.21732 1.64845,1.64845 3.59425,0.0267 5.29666,-1.72953 2.41744,-2.49387 3.29691,-3.35095 3.29691,-3.35095"
           id="path270"
           sodipodi:nodetypes="csssc" />
      </g>
    </g>
  </g>
</svg>
