<?xml version="1.0" encoding="UTF-8"?>
<svg id="Layer_2" data-name="Layer 2" xmlns="http://www.w3.org/2000/svg" viewBox="0 0 529.68 195.35">
  <defs>
    <style>
      .cls-1 {
        fill: #320a17;
      }

      .cls-2 {
        fill: #fdc6cf;
      }

      .cls-3 {
        fill: #2d091d;
      }

      .cls-4 {
        fill: #f83247;
      }

      .cls-5 {
        fill: #8ca7fc;
      }

      .cls-6 {
        fill: #310a1b;
      }

      .cls-7 {
        fill: #f56379;
      }

      .cls-8 {
        fill: #17c93a;
      }

      .cls-9 {
        fill: #682df3;
      }

      .cls-10 {
        fill: #fefefe;
      }

      .cls-11 {
        fill: #fdfdfd;
      }
    </style>
  </defs>
  <g id="Layer_1-2" data-name="Layer 1">
    <path class="cls-10" d="M192.28,181.41c.13.6.96,1.2.48,2-5.78,4.37-20.73,5.22-28.06,5.26-16.84.1-33.44-2-49.32-7.42-5.31-1.81-10.01-4.11-13.95-7.59,2.62-3.83,4.82-7.93,7.27-12.21,8.06.12,21.07,1.67,27.35-2.84-8.74.42-16.58.17-24.96-1.29,3.15-6.39,6.87-12.08,10.36-18.19l6.16-10.77c.73,5.51,3.74,9.99,8.54,13.19,16.9,11.24,34.84,5.39,37.7,12.86,3.59,9.37,8.67,17.91,15.65,25.08.89.91,1.7,1.74,2.77,1.91Z"/>
    <path class="cls-10" d="M428.45,172.69c-3.9,3.4-8.29,5.58-13.17,7.29-15.91,5.57-32.61,7.72-49.53,7.69-9.36-.02-21.23-.85-29.04-5.29-.13-.56.54-1.09.54-1.58.98-.18,1.79-.96,2.65-1.82,7.27-7.27,12.52-16.06,16.2-25.67,2.81-7.35,20.38-1.39,37.67-12.77,4.69-3.09,7.57-7.4,8.56-12.71l5.83,10.19c3.43,5.99,7.04,11.49,10.41,18.21-8.41,1.67-16.7,1.8-25.4,1.32,4.24,2.49,8.99,3.14,13.98,3.16l13.91-.21c2.5,4.35,4.55,8.56,7.41,12.2Z"/>
    <path class="cls-1" d="M192.76,183.41c.48-.8-.35-1.4-.48-2-1.59-7.19-4.38-14.06-6.8-21.29-2.14-6.42-4.07-12.62-6.53-18.86-.68-1.73-2.06-2.77-3.96-2.11-10.05,3.48-20.76,2.56-30.32-1.98-5.99-2.84-11.15-6.56-14.9-12.18-1.33,1.22-1.57,2.36-2.15,3.38l-6.16,10.77c-3.5,6.11-7.22,11.8-10.36,18.19,8.38,1.45,16.22,1.71,24.96,1.29-6.28,4.51-19.3,2.96-27.35,2.84-2.45,4.28-4.65,8.38-7.27,12.21-.77.02-1.67.15-1.91-.41-2.04-4.68,2.39-8.25,3.75-12.45-15.09-2.21-29.16-5.88-41.62-13.98l-34.06-1.12c-2.92-.1-5.4-1.51-6.95-3.79l-14.44-21.24c-.92-1.36-2.55-4.72-.86-5.74,1.89-1.14,5.03-.56,7.44-.33,22.5,2.15,44.6,3.03,67.11,3.76l16.4.53c4.21.14,8.34.46,12.42,1.29,3.16.65,5,2.79,6.94,5.18l5.47,6.77c2.63-3.59,4.28-6.87,6.95-9.9.98-1.11,3.22-.68,4.32.28,6.31,5.53,13.35,9.75,21.46,12.19,6.88,2.07,13.77,1.64,20.61,0,3.49-.84,6.43,1.03,7.54,4.35,4.74,14.15,8.44,28.42,11.42,43.08.12.59.72.99.1,1.23-.23.09-.63-.08-.78.03ZM60.39,127.2l7.85.1c-.34-1.4-1.84-1.86-1.86-3.64l3.64,3.89,8.9.69c-.24-1.71-1.76-2.55-1.7-4.2l3.37,4.01c12.24,3.9,11.43-5.32,20.44.98,2.13,1.49,5.76-.57,8.48.79l-6.99,1.28,1.34,4.16c2.39.33,4.61-.14,6.91.43-2.33,1.81-7.52-.12-6.83,1.26.17.34,9.16,2.35,11.3,3.78,1.42-1.29,2.06-2.72,3.21-4.38-2.53-3.46-4.41-7.06-6.41-10.9-1.04-1.99-3.59-2.62-5.72-2.98-7.57-1.27-15-1.08-22.67-1.26l-11.61-.28c-21.53-.51-42.62-1.53-64.61-4.13,2.2,4.1,5,6.92,7.53,10.31,2.96,3.96,5.94,7.73,8.51,11.93s8.97,3.65,14.57,3.79l19.17.51c-.78-1.46-1.74-2.29-2.76-3.48-2.16,1.14-4.24,1.45-6.43.56-4.42-1.79-1.64-6.32-6.98-5.34-.1.71.54,1.1-.15,1.68-1.18-3.6-9.37-.83-12.45-3.42l9.75-.1c-7.31-10.13-3.58-3.3-12.75-7.22l6.74-.64c-.52-1.29-1.86-1.86-1.5-3.3,1.14,1.18,1.8,2.42,3.13,3.61l24.4,1.2c-.08-1.68-1.67-2.24-1.52-3.94,1.73.89,2.11,2.84,3.67,4.22ZM43.61,133.45c.39-2.24-.03-3.74,1.12-5.08-3.19-.59-5.87-.48-9.27-.57,1.19,2.08,2.4,4.02,4.2,5.64.74.67,3.78.99,3.95.01ZM62.77,133.49l-2.74-4.37c-1.27-.43-2.43-.68-3.82-.16.86,1.5,1.4,2.92,1.69,4.74,1.7.26,3.29.35,4.87-.21ZM73.5,134.03c-1.25-1.75-2.11-3.49-3.47-4.35-2.6-1.06-5.69-.75-8.39-.52.97,1.81,1.84,3.28,3.06,4.75,3.15-.06,5.93.58,8.8.12ZM82.49,134.7c-.81-2.52-1.71-3.42-2.54-5.16l-8.36-.07c4.93,6.64,2.71,4.72,10.9,5.24ZM88.57,134.61c-.03-1.54-.25-3.09.26-4.52-2.49-.55-4.62-.53-7.07-.19.96,1.64,1.51,3.35,2.84,4.67.82.81,3.54.9,3.97.04ZM101.19,136.35c-.27-4.52-4.04-7.29-7.83-6.07-1.59.49-2.43,1.9-1.74,3.55,1.52,3.62,6.17,4.93,9.57,2.53ZM54.51,133.98c-1.04-1.91-3.54-2.42-5.36-1.41-.1,2.2,1.49,4.69,3.89,4.7,1.21,0,2.02-2.29,1.47-3.29ZM85.33,136.1c.87,3.03,3.09,4.9,3.43,8.07-2.86-1.99-3.21-5.61-5.55-7.89-1.22-1.05-4.46-.35-5.88,0-.55.14-.34,1.43-.88.97-.17-.14-.57-.86-.81-.9-3.08-.49-6.12-.29-9.38-.44l1.57,4.14c-4.91-4.72-.91-4.55-10.14-4.49-.73,0-1.65,2.25-.98,2.86,2.05,1.87,4.62,4.71,7.65,4.96,9.93.81,19.57.98,29.5,2.31,5.7.76,11.08.64,16.72.48.53-.01.84.56,1.16.22.18-.19.75-1.02.28-1.14-3.91-1.03-7.22-2.72-10.16-5.78-4.58,3.02-10.06,1.1-12.77-3.32-.67-.85-2.98-.38-3.75-.05ZM108.83,151.01c-12.66-1.55-24.75-3.16-37.05-3.66,11.21,4.91,22.52,7.31,34.16,9.29,1.12-2.05,2.28-3.35,2.89-5.63Z"/>
    <path class="cls-3" d="M109.9,99.71c-11.61,1.17-22.52,1.59-34.06,1.78,2.33,2.89,5.25,4.87,8.22,7.03.61.44.31,1.39-.01,1.67-.36.32-1.15.75-1.95.72l-47.79-2.14c-1.01-.05-1.76-.57-2.05-1.14-1.88-3.62,3.12-2.82,5.54-7.62-9.44-.63-21.67,1.09-30.95.06-3.8-.42-7.1-2.72-6.82-7.05l2.05-31.74c.92-14.2,1.06-27.93-.51-42.1-.2-1.83.05-3.77,1.06-5.25,2.64-3.83,13.78-2.64,18.39-2.49l14.45.48c13.35.45,26.4.63,39.79.02,11.93-.54,23.47-.34,35.4-.23,2.6.02,8.14,1.25,8.84,5.16,2.3,12.83.47,31.35-.79,44.57-.31,3.19-.2,6.09-.05,9.21l.56,11.73c.33,6.84-.58,16.44-9.32,17.32ZM114.16,92.5c-.38-13.5.81-25.78,2.43-39.27.78-6.5,1.53-29.61-.5-35.96-.92-2.06-5.16-2.34-7.21-2.41-9.74-.31-18.89-.3-28.62,0-17.24.53-34.12.5-51.35,0-7.21-.21-14.01-.55-21.18-.25-1.07.04-2.29.55-2.9,1.02-.73.56-.83,1.96-.7,3.06,1.28,10.11,1.95,19.83,1.4,30.1-.77,14.2-1.58,27.93-1.57,42.08,0,1.39-.59,3.15.86,4.06,1.77,1.11,4.2,1.3,6.42,1.32l26.26.24,9.46.34,13.23.63c4.36.21,8.39.09,12.76-.01,6.4-.14,39.41.46,41.22-4.93ZM76.43,108.5c-2.49-2.41-4.04-4.01-4.26-7.08-9.74.09-19-.8-28.88-1.6-.74,2.18-1.84,3.89-3.13,5.93l36.26,2.75Z"/>
    <path class="cls-3" d="M446.21,106.9c2.89-1.71,5.37-3.67,7.75-6.41-11.3-.24-22.31-.69-33.68-1.73-9.91-.91-10.25-11.45-9.78-19.42s.99-13.71.14-21.97c-1.28-12.48-2.19-24.73-1.1-37.23.2-2.31.22-5.14,1.92-6.78,1.86-1.79,5.08-2.59,7.78-2.64,11.8-.22,23.12-.29,34.89.19,13.43.54,26.53.44,39.94,0l14.82-.49c4.82-.16,15.56-1.36,18.28,2.71,1.01,1.51,1.04,3.69.85,5.56-1.18,11.68-1.68,23.02-.88,34.75l2.49,36.51c.18,2.69-.11,5.93-2.45,7.52-2.69,1.84-6.25,1.94-9.51,1.88l-25.69-.46c1.91,4.65,6.94,3.98,5.56,7.52-.22.56-.95,1.26-2.02,1.31l-48.15,2.18c-.84.04-1.64-.57-1.9-.96-.4-.59-.04-1.58.73-2.04ZM520.48,95.07c1.62-.02,4.84-.54,5.06-2.09.64-4.45.2-8.95.06-13.41l-.45-14.39-.96-19.02c-.34-6.71-.02-17.8.87-24.3.29-2.1,1.11-5.14-.06-6.98-1.02-1.6-4.04-1.43-5.74-1.4l-18.65.34c-17.25.32-34.17.52-51.44,0-9.54-.29-18.56-.27-28.08,0-2.2.06-6.14.31-7.28,2.17-2.35,4.91-1.32,31.58-.63,36.84,1.71,13.09,2.71,25.95,2.49,39.02,2.17,1.93,4.44,2.53,7.14,2.91,11.41,1.58,22.66,1.41,34.18,1.63,4.21.08,8.07.22,12.28.02l13.23-.61,9.93-.37,28.07-.38ZM489.54,104.69c-1.37-1.8-2.29-3.59-3.06-5.84l-28.79,1.52c-.47,3.16-2.15,5.19-5.08,7.26l36.93-2.94Z"/>
    <path class="cls-6" d="M387.36,122.13c-5.65,3.63-12.54,5.05-18.97,4.37-2.23-.24-3.97-.73-6.3-.69-5.95.09-11.56-2.3-15.32-7.22-8.78-11.48-9.2-28.12-.71-40.09,9.89-13.95,32.57-20.79,47.1-9.72,4.88,3.72,7.6,9.81,8.39,15.91,1.21,9.3-1.36,18.35-5.57,26.58-2.14,4.17-4.42,8.17-8.62,10.87ZM369.21,68.63c-8.77,2.25-17.02,8.27-21.34,16.69-5.93,11.56-2.8,30.88,8.34,35.66,6.75,2.9,14.06,3.03,21.21,1.81,4.74-.81,8.54-3.27,11.56-6.85,2.06-2.44,3.25-5.15,4.72-8.08,3.71-7.39,5.63-15.91,4.07-24.37-2.61-14.14-16.34-18.36-28.56-14.86Z"/>
    <path class="cls-6" d="M174.58,122.85c-13.68,5.46-30.49,5.34-40.61-7.01-5.15-6.28-6.47-13.38-7.03-21.43-.66-9.29,3.35-18.55,10.27-24.61,14.32-12.53,46.85-3.31,52.29,16.77,1.84,8.92.08,17.43-3.9,25.44-2.46,4.95-5.72,8.73-11.01,10.84ZM149.98,67.13c-14.72,1.26-20.25,19.14-19.71,31.61,1.28,2.42,2.02,4.59,2.81,7.13,2.38,7.63,8.34,14.14,16.47,16.23,7.38,1.89,15.08.63,21.83-2.49,4.81-2.22,8.11-5.76,10.34-10.47,3.09-6.51,4.87-13.58,3.6-20.84-2.5-14.3-22.01-23.4-35.34-21.16Z"/>
    <path class="cls-3" d="M269.97,191.24l-.23-79.06-.49-22.02-.5-19.26-.49-18.55c-.38-14.51-.65-28.77-.06-43.27.12-3.06-.26-6.03,1.17-9.1,1.76,10.62,2.15,20.64,2.25,30.99l.21,20.84.26,49.03c.16,30.35,1.04,60.21,2.67,90.41.08,1.42-.95,3.69-1.96,4.08-1.22-.16-2.81-2.17-2.81-4.11Z"/>
    <path class="cls-3" d="M151.12,42.48c1.13,7.49-3.95,11.95-10.78,14.43,1.72-4.42,5.71-7.43,6.62-12.59l-4.43-2.51c-3.25-1.84-3.29-5.6-1.45-8.75.94-1.61,2.66-3.65,2.18-5.64-.78-3.23-6.92-5.83-4.11-11.57,1.04-2.11,6.49-12.84,9.43-12.46-.66,4.36-6.03,11.09-7.16,16.28,1.24,4.16,6.65,4.14,6.2,9.13-.7,7.82-8.6,9.38-2.44,11.15,1.96.56,4.72.68,5.97,2.52Z"/>
    <path class="cls-3" d="M169.33,60.33c1.13-3.65.87-9.94-1.59-13.01-.45-.57-.68-1.55-.55-2.14.4-1.79,5.79-2.55,8.43-3.21,4.62-1.15.35-7.88.83-10.49,1.07-5.88,5.95-10.68,11.82-12.3,2.83,1.15-6.38,11.87-7.63,12.85-.33,1.2.49,2.85.87,4.04.99,3.14.95,7.38-1.96,9.43-2.01,1.42-4.75.47-7.33,1.31,2.49,2.53,2.51,12.97-2.9,13.5Z"/>
    <path class="cls-3" d="M198.99,67.95c-5.92-2.08-6.3-.25-12.37,4.27-.59-5.21,3.43-9.6,8.64-9.44,1.94.06,3.9,3.23,5.45,2.41,1.33-.71.94-5.95,2.35-7.85,2.23-3.01,6.68-2.85,9.7-.65,3.29-.9,4.56-8.94,7.07-8.79,2.65,3.19-2.14,8.21-4.28,10.88-4.06,5.05-9.19-1.6-11.53,6.43-.28.96-.99,1.91-1.49,2.44-.65.68-2.49.67-3.53.3Z"/>
    <path class="cls-2" d="M192.28,181.41c-1.06-.17-1.88-1-2.77-1.91-6.98-7.17-12.06-15.71-15.65-25.08-2.86-7.47-20.8-1.62-37.7-12.86-4.8-3.19-7.81-7.68-8.54-13.19.58-1.02.82-2.16,2.15-3.38,3.76,5.62,8.91,9.34,14.9,12.18,9.56,4.53,20.27,5.45,30.32,1.98,1.9-.66,3.28.38,3.96,2.11,2.46,6.24,4.39,12.44,6.53,18.86,2.41,7.23,5.2,14.1,6.8,21.29Z"/>
    <path class="cls-2" d="M402.31,127.82c-.99,5.31-3.86,9.63-8.56,12.71-17.29,11.38-34.86,5.42-37.67,12.77-3.68,9.61-8.92,18.4-16.2,25.67-.86.86-1.67,1.63-2.65,1.82,0-1.71.69-3.29,1.33-5.14l12.02-35.2c.59-1.71,1.97-3.03,3.8-2.39,9.96,3.45,20.53,2.74,30.11-1.67,6.13-2.82,11.5-6.54,15.31-12.35,1.47,1.17,1.82,2.55,2.51,3.79Z"/>
    <path class="cls-4" d="M60.39,127.2c-1.56-1.37-1.94-3.33-3.67-4.22-.15,1.7,1.44,2.25,1.52,3.94l-24.4-1.2c-1.33-1.19-1.99-2.43-3.13-3.61-.37,1.44.98,2.01,1.5,3.3l-6.74.64c9.17,3.92,5.44-2.92,12.75,7.22l-9.75.1c3.08,2.6,11.27-.18,12.45,3.42.69-.59.04-.98.15-1.68,5.34-.99,2.56,3.54,6.98,5.34,2.19.89,4.27.58,6.43-.56,1.02,1.19,1.98,2.03,2.76,3.48l-19.17-.51c-5.6-.15-12.03.36-14.57-3.79s-5.55-7.97-8.51-11.93c-2.53-3.39-5.33-6.22-7.53-10.31,21.99,2.6,43.08,3.62,64.61,4.13l11.61.28c7.68.18,15.1,0,22.67,1.26,2.13.36,4.68.98,5.72,2.98,2,3.84,3.87,7.44,6.41,10.9-1.16,1.67-1.79,3.09-3.21,4.38-2.14-1.42-11.13-3.44-11.3-3.78-.69-1.38,4.5.55,6.83-1.26-2.3-.58-4.52-.1-6.91-.43l-1.34-4.16,6.99-1.28c-2.72-1.36-6.34.7-8.48-.79-9.01-6.3-8.2,2.92-20.44-.98l-3.37-4.01c-.06,1.65,1.46,2.48,1.7,4.2l-8.9-.69-3.64-3.89c.03,1.77,1.53,2.23,1.86,3.64l-7.85-.1ZM26.91,132.38c-2.72-4.58-6.07-8.58-10.07-12.24,2.78,4.6,6.02,8.5,10.07,12.24ZM42.26,137.5c0-.24-.2-.44-.44-.44s-.44.2-.44.44.2.44.44.44.44-.2.44-.44Z"/>
    <path class="cls-4" d="M85.33,136.1c.76-.33,3.08-.8,3.75.05,2.72,4.42,8.19,6.34,12.77,3.32,2.93,3.06,6.25,4.75,10.16,5.78.47.12-.11.95-.28,1.14-.31.34-.63-.23-1.16-.22-5.64.16-11.02.28-16.72-.48-9.93-1.32-19.57-1.5-29.5-2.31-3.03-.25-5.6-3.09-7.65-4.96-.67-.61.24-2.86.98-2.86,9.23-.06,5.23-.23,10.14,4.49l-1.57-4.14c3.26.15,6.31-.06,9.38.44.24.04.64.76.81.9.54.46.33-.83.88-.97,1.42-.36,4.65-1.06,5.88,0,2.34,2.28,2.7,5.9,5.55,7.89-.33-3.17-2.56-5.05-3.43-8.07Z"/>
    <path class="cls-2" d="M101.19,136.35c-3.39,2.41-8.04,1.09-9.57-2.53-.69-1.65.15-3.06,1.74-3.55,3.78-1.22,7.56,1.55,7.83,6.07Z"/>
    <path class="cls-4" d="M73.5,134.03c-2.87.46-5.65-.18-8.8-.12-1.23-1.47-2.1-2.94-3.06-4.75,2.7-.23,5.79-.54,8.39.52,1.36.87,2.22,2.61,3.47,4.35Z"/>
    <path class="cls-4" d="M82.49,134.7c-8.19-.51-5.97,1.41-10.9-5.24l8.36.07c.83,1.75,1.74,2.64,2.54,5.16Z"/>
    <path class="cls-4" d="M43.61,133.45c-.17.98-3.2.66-3.95-.01-1.8-1.62-3.01-3.56-4.2-5.64,3.39.09,6.07-.02,9.27.57-1.15,1.34-.73,2.84-1.12,5.08Z"/>
    <path class="cls-4" d="M88.57,134.61c-.43.86-3.15.77-3.97-.04-1.33-1.32-1.88-3.03-2.84-4.67,2.45-.34,4.57-.36,7.07.19-.51,1.43-.29,2.98-.26,4.52Z"/>
    <path class="cls-2" d="M54.51,133.98c.55,1-.27,3.29-1.47,3.29-2.4,0-3.98-2.5-3.89-4.7,1.82-1,4.32-.49,5.36,1.41Z"/>
    <path class="cls-4" d="M62.77,133.49c-1.58.56-3.17.46-4.87.21-.29-1.82-.83-3.24-1.69-4.74,1.39-.52,2.55-.27,3.82.16l2.74,4.37Z"/>
    <path class="cls-4" d="M473.3,121.73c-5.88,4.4.16,4.77-11.71,4.49l1.98-3.6c-1.94.89-2.46,2.84-4.12,4l-8.59.47c.02-1.18,1.19-1.7.96-3.02-1.45.69-1.53,1.98-2.77,3.24-2.52-.11-6.31,1.43-8.76.44-4.02-2.55-7.72-2.43-11.77.3-2.23,1.5-5.83-.68-8.61.78,2.38,1.05,4.89.58,7.43.92l-1.53,4.49c-2.43.12-4.46.07-6.64.49,2.24,1.6,4.4.08,6.87,1.07-4.03,1.55-7.89,1.97-11.76,3.96-.96-1.49-2.77-3.07-2.76-4.7,1.97-3.35,4.11-6.28,5.6-9.82.7-1.66,2.18-2.87,3.97-3.29,4.54-1.07,9.09-1.42,13.77-1.52l22.9-.51c21.46-.48,42.38-1.53,64.2-4.11-1.38,3.32-3.52,5.31-5.35,7.8l-11.71,15.9c-1.4,1.9-4.89,1.94-7.08,2.01l-25.35.8c.74-1.27,1.58-2.46,2.89-3.46,2.12,1.22,4.04,1.37,6.17.55,4.64-1.77,1.73-6.77,7.11-5.14-.05,1.24-1.48,1.5-.97,2.72,1.14-.77,1.51-2.74,3.01-3,3.5-.61,7.12.2,10.48-1.6-3.32-1.19-6.08.52-9.6-.19,6.85-9.99,3.66-3.38,12.57-7.14-2.14-.93-4.2-.14-6.34-.48-.27-1.15.96-1.64.97-2.97-1.28.71-1.7,1.89-2.77,3.03l-24.69,1.24,1.96-4.17ZM502.65,131.44c4.18-3.74,7.42-7.83,10.2-12.34-4.14,3.79-7.45,7.84-10.2,12.34ZM452.41,123.47c0-.14-.11-.26-.26-.26s-.26.11-.26.26.11.26.26.26.26-.11.26-.26Z"/>
    <path class="cls-4" d="M440.45,135.32c.73-1.13,2.86-.49,3.83-.23-.73,2.91-2.98,4.86-3.41,8.09,2.84-1.95,3.25-5.69,5.65-7.98,1.62-1.01,4.43.05,6.12-.11.22.67-.39.88-.03,1.51,1.08-1.16,2.2-1.54,3.86-1.56l7.03-.08c-.23,1.29-1.24,2.13-1.34,3.57l3.4-3.6c1.17-1.23,4.26-.39,6.18-.46.8-.03,2.04,2.22,1.3,2.86-1.97,1.7-4.57,4.79-7.42,5.01-10.82.85-21.25,1.14-31.96,2.55-2.21.29-15.68.45-15.67.45-.31-.07-.66-.6-.57-1.14,3.94-.77,7.51-2.72,10.38-5.73,4.45,2.95,9.85,1.18,12.65-3.15Z"/>
    <path class="cls-2" d="M438.16,131.13c.37,2.68-1.81,4.16-3.33,4.88-1.74.82-5.08.8-6.03-.7-.66-3.3,2.6-6.37,5.73-6.35,1.42,0,3.41.5,3.64,2.17Z"/>
    <path class="cls-4" d="M465.06,132.48c-2.93,1.08-5.99.4-9.11.8,1.2-1.56,2.17-3.82,3.86-4.63,2.49-1.14,5.51-.63,8.25-.56-.91,1.19-1.48,3.48-3,4.39Z"/>
    <path class="cls-4" d="M458.2,128.37c-5.34,6.91-2.4,4.55-11,5.41.57-2.34,1.65-3.38,2.51-5.23l8.49-.19Z"/>
    <path class="cls-4" d="M494.27,126.78c-3,4.17-3.23,6.78-8.25,6.13-.17-2.15.14-3.83-1.06-5.6,3.34-.49,6-.49,9.32-.53Z"/>
    <path class="cls-4" d="M445.46,133.47c-1.52.79-3.08.77-4.53.37.47-1.73.32-3.2-.15-4.74,2.46-.59,4.78-.54,7.09-.07l-2.41,4.44Z"/>
    <path class="cls-2" d="M480.58,131.67c-.11,2.28-1.61,4.45-3.81,4.59-1.34.08-2.27-2.42-1.54-3.45,1.18-1.67,3.39-2.43,5.35-1.14Z"/>
    <path class="cls-4" d="M471.67,132.21c-.83,1.38-3.54.45-4.81.36.94-1.57,1.6-3.05,2.83-4.33.9-.94,2.66-.75,3.77-.11-1.1,1.3-.96,2.68-1.79,4.07Z"/>
    <path class="cls-9" d="M114.16,92.5c-1.81,5.4-34.82,4.79-41.22,4.93-4.38.1-8.4.22-12.76.01l-13.23-.63-9.46-.34-26.26-.24c-2.22-.02-4.65-.2-6.42-1.32-1.45-.91-.86-2.67-.86-4.06,0-14.15.81-27.88,1.57-42.08.56-10.27-.12-19.99-1.4-30.1-.14-1.1-.03-2.5.7-3.06.61-.47,1.83-.97,2.9-1.02,7.17-.3,13.97.04,21.18.25,17.23.5,34.11.53,51.35,0,9.72-.3,18.88-.31,28.62,0,2.05.07,6.29.35,7.21,2.41,2.04,6.35,1.29,29.45.5,35.96-1.62,13.5-2.81,25.77-2.43,39.27ZM63.79,93.41l30.55.39c4.09.05,7.98.01,11.87-1.11,2.09-.6,3.45-2.66,3.95-4.71,2.44-9.84,1.51-22.29.55-32.57s3.14-23.34,3.51-32.69c.07-1.78-2.42-2.93-4.12-3.13-17.12-2.01-34.1-2.76-51.41-1.82l-21.67,1.18-22.12.91c-2.16.09-4.94,1.39-5.65,3.35-1.51,4.17-.91,8.37-.67,12.77.68,12.7,1.12,25.03.48,37.71-.36,7.1-2.52,16.9,5.24,18,8.82,1.25,17.56,1.4,26.49,1.66,2.86.08,5.48.32,8.3.08,4.86-.42,9.57-.1,14.7-.04Z"/>
    <path class="cls-9" d="M76.43,108.5l-36.26-2.75c1.29-2.04,2.38-3.75,3.13-5.93,9.88.8,19.14,1.69,28.88,1.6.22,3.07,1.77,4.67,4.26,7.08Z"/>
    <path class="cls-9" d="M520.48,95.07l-28.07.38-9.93.37-13.23.61c-4.21.19-8.06.06-12.28-.02-11.52-.22-22.77-.04-34.18-1.63-2.7-.37-4.97-.98-7.14-2.91.22-13.07-.78-25.93-2.49-39.02-.69-5.27-1.71-31.93.63-36.84,1.14-1.86,5.08-2.11,7.28-2.17,9.53-.27,18.55-.3,28.08,0,17.27.53,34.19.32,51.44,0l18.65-.34c1.7-.03,4.72-.2,5.74,1.4,1.17,1.84.35,4.88.06,6.98-.89,6.5-1.21,17.58-.87,24.3l.96,19.02.45,14.39c.14,4.46.58,8.96-.06,13.41-.22,1.55-3.44,2.07-5.06,2.09ZM480.55,92.42c3.05.25,5.72,0,8.59-.09,8.79-.25,17.38-.43,26.04-1.64,6.58-.92,6.35-7.62,5.82-13.54-1.11-12.4-.71-24.6-.1-37.08.25-5.07.69-9.75.37-14.77-.22-3.38-2.29-6.21-6.02-6.38l-25.65-1.18c-23.47-1.08-46.56-1.76-69.83.77-1.67.18-4.23,1.33-4.26,2.93-.11,6.64,4.15,21.92,3.57,31.39-.61,9.83-2.22,25.56.63,34.76.77,2.48,2.61,4.07,5.2,4.5,3.72.62,7.34.75,11.19.7l29.83-.4c4.86-.06,9.56-.38,14.62.03Z"/>
    <path class="cls-9" d="M489.54,104.69l-36.93,2.94c2.94-2.06,4.61-4.09,5.08-7.26l28.79-1.52c.77,2.24,1.69,4.03,3.06,5.84Z"/>
    <path class="cls-11" d="M393.7,107.85c-1.33-.03-2.11,1.13-3.43,1.74-8.39,3.88-15.8,6.28-24.75,2.56-6.92-2.88-11.02-9.41-12.64-16.35-2.74-11.76,4.68-18.65,13.44-24.5,1.18-.79,2.41-1.45,2.91-2.67,12.22-3.5,25.95.72,28.56,14.86,1.56,8.46-.36,16.97-4.07,24.37ZM390.04,82.6c-1.03-1.38-3.64-2.06-4.53-.22-.99,2.04,1.02,6.96,3.53,6.87,2.29-.66,2.2-5.04,1.01-6.65ZM378.87,93.66c3.08-2.66,1.29-9.03-1.25-9.22-.89-.07-2.75-.03-2.95,1.21-.51,3.17,1.33,6.6,4.2,8.01ZM381.02,103.03c1.97,1.95,3.9.84,5.8.4,4.13-.96,6.5-5.06,4.7-9.08-1.33,1.07-1.06,2.35-1.83,3.3-2.25,2.77-5.31,4.5-8.67,5.38Z"/>
    <path class="cls-2" d="M369.21,68.63c-.49,1.21-1.72,1.88-2.91,2.67-8.75,5.85-16.17,12.75-13.44,24.5,1.62,6.94,5.72,13.48,12.64,16.35,8.95,3.72,16.37,1.32,24.75-2.56,1.33-.61,2.11-1.78,3.43-1.74-1.47,2.93-2.67,5.64-4.72,8.08-3.02,3.58-6.82,6.04-11.56,6.85-7.14,1.22-14.46,1.09-21.21-1.81-11.14-4.78-14.27-24.1-8.34-35.66,4.32-8.42,12.57-14.44,21.34-16.69Z"/>
    <path class="cls-11" d="M149.98,67.13c.36.92,1.59.23,2.56.44,3.2.7,6.61,1.67,9.26,3.49,6.41,4.43,15.02,10.03,15.67,19.03s-4.03,18.84-12.64,22.94c-2.22,1.06-5.74,1.82-8.21,1.91-8.18.31-17.81-3.8-23.53-9.08-.79-2.54-1.54-4.71-2.81-7.13-.54-12.47,4.99-30.35,19.71-31.61ZM141.25,84.97c-.46-1.51-1.77-1.21-2.66-1.07-.79.12-.84.98-1.4,2.06-.75,1.47-.19,5.21,2.06,4.95,1.99-.23,2.5-4.26,2-5.93ZM152.26,85.81c-.73-1.18-2.13-1.44-2.74-1.12-.87.45-1.26,1.13-1.55,2.41-.35,1.53.14,5.36,2.53,4.92,1.93-.35,2.66-4.75,1.76-6.2ZM153.66,108.6c1.19-2.15,1.19-4.79-.17-6.25-3.77-4.05-14.28-1.93-15.44,2.94,5.53-1.56,11.28-2.37,15.61,3.3Z"/>
    <path class="cls-2" d="M133.08,105.87c5.73,5.28,15.35,9.39,23.53,9.08,2.46-.09,5.99-.86,8.21-1.91,8.61-4.1,13.32-13.62,12.64-22.94s-9.26-14.6-15.67-19.03c-2.64-1.83-6.05-2.79-9.26-3.49-.97-.21-2.2.48-2.56-.44,13.33-2.24,32.84,6.86,35.34,21.16,1.27,7.26-.52,14.33-3.6,20.84-2.23,4.71-5.53,8.25-10.34,10.47-6.75,3.12-14.45,4.38-21.83,2.49-8.13-2.08-14.09-8.59-16.47-16.23Z"/>
    <path class="cls-1" d="M26.91,132.38c-4.06-3.75-7.3-7.64-10.07-12.24,4,3.66,7.36,7.66,10.07,12.24Z"/>
    <circle class="cls-1" cx="41.82" cy="137.5" r=".44"/>
    <path class="cls-1" d="M502.65,131.44c2.75-4.5,6.06-8.55,10.2-12.34-2.77,4.51-6.02,8.6-10.2,12.34Z"/>
    <path class="cls-1" d="M428.45,172.69c-2.86-3.64-4.91-7.85-7.41-12.2l-13.91.21c-4.99-.02-9.74-.67-13.98-3.16,8.7.48,16.99.35,25.4-1.32-3.37-6.73-6.98-12.22-10.41-18.21l-5.83-10.19c-.69-1.23-1.04-2.61-2.51-3.79-3.82,5.82-9.19,9.53-15.31,12.35-9.57,4.41-20.15,5.12-30.11,1.67-1.83-.64-3.21.68-3.8,2.39l-12.02,35.2c-.63,1.86-1.33,3.43-1.33,5.14,0,.49-.67,1.02-.54,1.58-.84.11-1.22-.01-.85-.64l.77-3.43c.72-3.19,1.5-6.21,2.11-9.18.06-.28.04-.45.03-.51.7-.38.34-1.37.41-2.04l6.51-22.6c.88-3.05,1.64-6.15,3.6-8.73,3.82-5.01,12.13,3.46,28.32-2.11,7.46-2.57,13.94-6.61,19.81-11.76,1.42-1.24,3.46-1.17,4.55.22,2.39,3.05,4.3,6.22,6.52,9.53l8.28-9.87c3.33-3.97,25.98-3.67,32.33-3.87,22.67-.72,44.87-1.55,67.52-3.77,2.5-.25,5.85-.78,7.73.43,1.7,1.1-.09,4.43-.99,5.76l-13.98,20.63c-1.63,2.41-3.88,4.1-7.02,4.21l-34.47,1.18c-12.3,8.25-27.05,11.84-41.54,13.98,1.56,4.21,5.63,7.57,3.9,12.25-.28.76-1.31.59-1.78.64ZM473.3,121.73l-1.96,4.17,24.69-1.24c1.07-1.14,1.49-2.31,2.77-3.03,0,1.33-1.24,1.82-.97,2.97,2.14.34,4.2-.45,6.34.48-8.92,3.76-5.72-2.85-12.57,7.14,3.52.71,6.28-1,9.6.19-3.36,1.8-6.98.99-10.48,1.6-1.49.26-1.87,2.23-3.01,3-.51-1.22.92-1.48.97-2.72-5.38-1.63-2.47,3.37-7.11,5.14-2.13.81-4.05.67-6.17-.55-1.31,1.01-2.16,2.19-2.89,3.46l25.35-.8c2.19-.07,5.68-.11,7.08-2.01l11.71-15.9c1.84-2.49,3.97-4.48,5.35-7.8-21.82,2.58-42.74,3.63-64.2,4.11l-22.9.51c-4.68.11-9.24.46-13.77,1.52-1.79.42-3.27,1.63-3.97,3.29-1.49,3.54-3.63,6.47-5.6,9.82-.01,1.63,1.8,3.21,2.76,4.7,3.86-1.99,7.73-2.41,11.76-3.96-2.47-.98-4.63.54-6.87-1.07,2.18-.43,4.21-.37,6.64-.49l1.53-4.49c-2.54-.34-5.05.13-7.43-.92,2.78-1.46,6.38.72,8.61-.78,4.05-2.73,7.75-2.85,11.77-.3,2.45.99,6.24-.55,8.76-.44,1.24-1.26,1.33-2.55,2.77-3.24.22,1.32-.94,1.84-.96,3.02l8.59-.47c1.67-1.16,2.18-3.11,4.12-4l-1.98,3.6c11.88.27,5.83-.09,11.71-4.49ZM494.27,126.78c-3.32.04-5.97.04-9.32.53,1.2,1.77.9,3.46,1.06,5.6,5.02.65,5.25-1.96,8.25-6.13ZM465.06,132.48c1.53-.91,2.09-3.2,3-4.39-2.74-.06-5.76-.58-8.25.56-1.69.81-2.67,3.06-3.86,4.63,3.11-.4,6.17.28,9.11-.8ZM471.67,132.21c.84-1.39.69-2.78,1.79-4.07-1.11-.64-2.87-.83-3.77.11-1.23,1.27-1.89,2.76-2.83,4.33,1.27.09,3.98,1.01,4.81-.36ZM458.2,128.37l-8.49.19c-.86,1.84-1.94,2.88-2.51,5.23,8.6-.86,5.66,1.49,11-5.41ZM438.16,131.13c-.23-1.67-2.22-2.16-3.64-2.17-3.13-.02-6.39,3.04-5.73,6.35.95,1.5,4.29,1.52,6.03.7,1.52-.72,3.7-2.19,3.33-4.88ZM445.46,133.47l2.41-4.44c-2.31-.47-4.62-.52-7.09.07.47,1.54.62,3.02.15,4.74,1.45.4,3,.42,4.53-.37ZM480.58,131.67c-1.96-1.29-4.17-.53-5.35,1.14-.73,1.03.2,3.53,1.54,3.45,2.2-.14,3.69-2.31,3.81-4.59ZM440.45,135.32c-2.8,4.33-8.2,6.1-12.65,3.15-2.87,3-6.44,4.96-10.38,5.73-.1.54.26,1.07.57,1.14-.01,0,13.46-.16,15.67-.45,10.71-1.41,21.13-1.69,31.96-2.55,2.85-.22,5.45-3.31,7.42-5.01.74-.64-.5-2.89-1.3-2.86-1.92.08-5.02-.77-6.18.46l-3.4,3.6c.11-1.44,1.11-2.28,1.34-3.57l-7.03.08c-1.66.02-2.77.4-3.86,1.56-.36-.63.25-.84.03-1.51-1.69.16-4.5-.9-6.12.11-2.4,2.29-2.81,6.04-5.65,7.98.43-3.22,2.68-5.18,3.41-8.09-.97-.27-3.1-.91-3.83.23ZM424.06,155.64c11.77-2.23,22.71-4.38,33.62-9.24-12.35.41-24.46,1.97-36.88,3.66.89,2.13,1.6,3.84,3.26,5.58Z"/>
    <circle class="cls-1" cx="452.15" cy="123.47" r=".26"/>
    <path class="cls-3" d="M63.79,93.41c-5.13-.07-9.84-.38-14.7.04-2.83.24-5.44,0-8.3-.08-8.93-.26-17.67-.41-26.49-1.66-7.76-1.1-5.6-10.9-5.24-18,.64-12.68.2-25.01-.48-37.71-.23-4.4-.84-8.6.67-12.77.71-1.96,3.49-3.27,5.65-3.35l22.12-.91,21.67-1.18c17.31-.94,34.29-.19,51.41,1.82,1.7.2,4.19,1.35,4.12,3.13-.37,9.35-4.46,22.51-3.51,32.69s1.89,22.73-.55,32.57c-.51,2.05-1.86,4.11-3.95,4.71-3.89,1.12-7.78,1.16-11.87,1.11l-30.55-.39ZM57.36,89.51l24.77.48c7.09.14,13.94.58,20.95-.29,6.3-.78,2.78-4.63,4.59-14.88,1.31-7.39.74-14.25.29-21.62-.61-9.94,1.23-19.62,2.43-29.33-10.49-2.52-36.47-2.39-47.65-1.78l-31.63,1.72-7.67.23c-3.9.12-7.77-.71-11.52.92-.77,4.71-.2,9.32.22,14.11.99,11.32,1.72,22.3.99,33.64-.22,3.4-1.77,13.12.05,14.58,3.89,3.12,37.19,2.08,44.16,2.22Z"/>
    <path class="cls-3" d="M480.55,92.42c-5.05-.41-9.76-.1-14.62-.03l-29.83.4c-3.85.05-7.47-.07-11.19-.7-2.6-.44-4.43-2.02-5.2-4.5-2.85-9.2-1.24-24.93-.63-34.76.59-9.48-3.68-24.76-3.57-31.39.03-1.61,2.59-2.75,4.26-2.93,23.27-2.52,46.36-1.85,69.83-.77l25.65,1.18c3.73.17,5.8,3,6.02,6.38.32,5.02-.12,9.69-.37,14.77-.61,12.49-1,24.69.1,37.08.53,5.92.76,12.62-5.82,13.54-8.66,1.21-17.25,1.39-26.04,1.64-2.87.08-5.54.33-8.59.09ZM486.09,88.66c9.61.14,19.02-.15,28.47-1.59,1.85-.28,2.72-1.27,2.78-3.12.12-4.17-.54-8.09-.81-12.29-.77-11.67.06-22.98,1.08-34.64.39-4.47.89-8.81.09-13.15-3.72-1.56-7.46-.84-11.22-.89-6.27-.09-12.06-.25-18.41-.71-20.01-1.45-39.72-2.08-59.69-.8-3.18.2-6.25.23-9.13,1.28,1.25,9.78,3.02,19.23,2.48,29.03-.43,7.76-1.05,15,.37,22.67.72,3.84.51,7.62.55,11.48.01.85,1.57,2.26,2.41,2.43,4.3.86,8.66.88,13.09.79l34.14-.69,13.81.2Z"/>
    <path class="cls-6" d="M378.87,93.66c-2.88-1.41-4.71-4.84-4.2-8.01.2-1.24,2.06-1.27,2.95-1.21,2.54.19,4.34,6.56,1.25,9.22Z"/>
    <path class="cls-6" d="M381.02,103.03c3.36-.88,6.43-2.61,8.67-5.38.77-.95.5-2.22,1.83-3.3,1.8,4.01-.57,8.12-4.7,9.08-1.9.44-3.83,1.55-5.8-.4Z"/>
    <path class="cls-6" d="M390.04,82.6c1.2,1.61,1.28,5.99-1.01,6.65-2.5.09-4.51-4.83-3.53-6.87.89-1.84,3.51-1.16,4.53.22Z"/>
    <path class="cls-6" d="M153.66,108.6c-4.33-5.67-10.08-4.86-15.61-3.3,1.17-4.87,11.67-7,15.44-2.94,1.35,1.46,1.36,4.1.17,6.25Z"/>
    <path class="cls-6" d="M152.26,85.81c.91,1.46.18,5.85-1.76,6.2-2.39.44-2.89-3.39-2.53-4.92.3-1.28.68-1.96,1.55-2.41.61-.31,2-.05,2.74,1.12Z"/>
    <path class="cls-6" d="M141.25,84.97c.51,1.67,0,5.7-2,5.93-2.25.26-2.82-3.48-2.06-4.95.55-1.08.61-1.93,1.4-2.06.89-.14,2.2-.44,2.66,1.07Z"/>
    <path class="cls-5" d="M57.36,89.51c-6.97-.13-40.27.91-44.16-2.22-1.82-1.47-.27-11.19-.05-14.58.73-11.34,0-22.32-.99-33.64-.42-4.79-.99-9.4-.22-14.11,3.75-1.63,7.62-.8,11.52-.92l7.67-.23,31.63-1.72c11.17-.61,37.15-.74,47.65,1.78-1.2,9.71-3.04,19.39-2.43,29.33.45,7.37,1.01,14.23-.29,21.62-1.81,10.25,1.7,14.1-4.59,14.88-7.01.87-13.86.43-20.95.29l-24.77-.48ZM34.04,39.66c.62-2.35.14-4.59-1.25-6.13s-3.54-2.07-5.77-1.61c-2.38.49-3.99,2.29-4.44,3.99-.66,2.49.1,4.31,1.65,6.01s3.52,2.87,5.99,2.07c1.6-.51,3.19-1.95,3.82-4.34ZM53.73,40.31c5.6,3.66,7.43-3.25,13.58-.82,1.9.75,4.07.57,5.9-.27,5.98-2.77,5.22,2.95,14.34-.91,1.75-.74,3.69.21,5.43-1.19-4.83-4.99-8.78,2.01-12.56.13-6.71-3.34-7.97,1.67-13.08-.17-6.29-2.26-8.28,3.51-12.42.69-5.93-4.05-7.8,1.85-12.83-.04,2.16,5.91,6.54-.75,11.64,2.58ZM31.6,64.66c2.81-.49,3.93-3.31,4.01-5.68.09-2.77-1.29-5.15-3.51-5.85s-5.13-.34-6.39,1.89c-1.1,1.93-.89,4.95.58,6.81.99,1.26,3.03,3.23,5.32,2.83ZM58.56,61.43c8.98,3.91,10.23-3.67,18.48-1.06,1.41.45,3.35.85,4.77.23,3.35-1.47,6.62-1.61,10.33-2.23-3-2.44-6.63-1.37-9.49-.26-5.51,2.14-7.67-2.75-14.74.49-7.94,3.64-10.41-4.01-19.71.26-1.8.83-3.68,1.12-5.73,1.19,3.68,4.94,7.83-2.2,16.08,1.39ZM32.42,82.35c4.38-.4,6.29-5.87,4.36-9.2s-6.74-3.62-9.03-.83c-1.46,1.78-1.11,4.45-.29,6.37.62,1.46,2.43,3.89,4.96,3.66ZM60.17,79.96c5.33.61,6.74-4.33,15.01-1.34s8.85-4.42,15.78-1.69c1.18.47,2.87.67,3.61-.71-11.15-6.58-10.61,3.54-18.84.31-9.56-3.76-10.23,2.22-17.74,1.05-2.11-.33-13.45-2.37-12.6,1.02,3.18-.88,10.01.81,14.77,1.36Z"/>
    <path class="cls-5" d="M486.09,88.66l-13.81-.2-34.14.69c-4.43.09-8.79.06-13.09-.79-.84-.17-2.4-1.58-2.41-2.43-.05-3.86.16-7.64-.55-11.48-1.43-7.67-.8-14.91-.37-22.67.54-9.8-1.22-19.25-2.48-29.03,2.89-1.05,5.95-1.08,9.13-1.28,19.97-1.28,39.68-.65,59.69.8,6.35.46,12.14.62,18.41.71,3.76.05,7.5-.66,11.22.89.8,4.33.3,8.68-.09,13.15-1.02,11.66-1.85,22.97-1.08,34.64.28,4.2.94,8.11.81,12.29-.05,1.84-.92,2.84-2.78,3.12-9.45,1.44-18.86,1.73-28.47,1.59ZM438.38,43.37c3.44-2.17,3.52-6.03,2.46-9.45.18-2.06,2.63-4.12,1.79-6.78-3.8,1.36-2.42,5.52-5.93,4.67-2.12-.52-4.32.31-5.58,1.56-3.07,3.04-1.3,8.77,1.87,10.12,1.79.76,3.87.83,5.38-.12ZM458.73,39.2c5.92,3.61,7.99-2.84,12.86-1,6.44,2.44,7.49-2.25,12.37-.26,5.62,2.3,6.82-1.27,14.18-1.37-1.48-3.25-5.18-2.49-7.62-1.13-5.87,3.27-6.14-2.46-12.74.39-5.13,2.21-6.51-2.43-12.87,1.04-1.72.94-3.28.89-4.89-.22-5.85-4.02-8.53,2.4-12.32-.16-.49.82-.05,1.77.86,2.19,4.32,2.02,5.56-2.32,10.18.51ZM438.19,63.22c3.08-.88,4.33-4.37,3.77-7.19-.97-4.94,2.04-4.67.78-8.22l-3.83,4.41c-2.84-.85-6.14-.29-7.51,2.43-1.12,2.23-.53,4.68,1.11,6.5,1.16,1.29,3.15,2.79,5.67,2.07ZM463.72,60.4c9.04,3.98,10.31-3.75,18.76-.99,1.78.58,3.83.62,5.54-.15,2.99-1.36,5.97-1.32,9.46-1.79-4.87-4.28-10.25,1.49-14.38-.05-3.47-1.3-7.22-1.22-10.58.37-6.8,3.22-10.3-4.1-18.88-.03-1.87.89-3.86,1.08-5.86,1.41,3.86,4.58,7.93-2.3,15.94,1.23ZM440.78,81.37c3.47-2.13,4-6.83,1.64-10.09.5-1.96,1.56-3.29,1.39-5.38-2.55.46-1.56,4.71-4.95,4.13-2.53-.44-5.01.83-6.04,2.72-1.23,2.27-.67,4.54.79,6.61,1.61,2.27,4.56,3.62,7.18,2.01ZM465.13,78.92c5.75.74,6.8-4.39,15.39-1.29,7.73,2.79,8.99-4.26,15.2-1.86,1.33.51,2.99.89,4.23-.57-11.48-6.59-10.8,3.63-19.04.28-8.77-3.57-10.62,1.86-16.67,1.16-2.63-.31-14.38-2.5-13.62.97,2.44-.94,10.37.78,14.51,1.31Z"/>
    <path class="cls-3" d="M53.73,40.31c-5.09-3.33-9.47,3.34-11.64-2.58,5.03,1.88,6.9-4.01,12.83.04,4.14,2.82,6.12-2.96,12.42-.69,5.11,1.84,6.37-3.17,13.08.17,3.77,1.88,7.73-5.12,12.56-.13-1.74,1.4-3.69.45-5.43,1.19-9.12,3.86-8.36-1.86-14.34.91-1.83.85-3.99,1.02-5.9.27-6.16-2.43-7.98,4.48-13.58.82Z"/>
    <path class="cls-3" d="M58.56,61.43c-8.26-3.59-12.41,3.55-16.08-1.39,2.05-.07,3.93-.36,5.73-1.19,9.3-4.27,11.77,3.38,19.71-.26,7.07-3.25,9.23,1.65,14.74-.49,2.86-1.11,6.49-2.18,9.49.26-3.71.62-6.98.76-10.33,2.23-1.42.62-3.36.22-4.77-.23-8.25-2.61-9.5,4.97-18.48,1.06Z"/>
    <path class="cls-3" d="M60.17,79.96c-4.76-.54-11.59-2.24-14.77-1.36-.85-3.39,10.49-1.35,12.6-1.02,7.51,1.17,8.17-4.81,17.74-1.05,8.23,3.23,7.7-6.89,18.84-.31-.74,1.38-2.43,1.18-3.61.71-6.93-2.73-7.76,4.58-15.78,1.69s-9.68,1.95-15.01,1.34Z"/>
    <path class="cls-6" d="M34.04,39.66c-.63,2.39-2.23,3.83-3.82,4.34-2.47.79-4.4-.32-5.99-2.07s-2.31-3.52-1.65-6.01c.45-1.7,2.07-3.5,4.44-3.99,2.23-.46,4.41.09,5.77,1.61s1.87,3.78,1.25,6.13ZM31.23,35.59c-1.36-1.64-3.66-1.42-5.17-.42-1.3.86-2.52,2.66-1.74,4.63.84,2.13,4.12,2.81,5.82,1.6s2.67-3.91,1.09-5.81Z"/>
    <path class="cls-6" d="M32.42,82.35c-2.53.23-4.35-2.2-4.96-3.66-.81-1.92-1.17-4.59.29-6.37,2.29-2.78,7.14-2.43,9.03.83s.02,8.8-4.36,9.2ZM33.95,78.89c1.17-1.55,1.54-3.76-.07-4.84s-3.75-.87-4.75.47c-1.1,1.47-1.17,3.55.69,4.77,1.13.74,2.7,1.48,4.12-.4Z"/>
    <path class="cls-6" d="M31.6,64.66c-2.29.4-4.33-1.57-5.32-2.83-1.46-1.86-1.67-4.88-.58-6.81,1.27-2.23,4.14-2.6,6.39-1.89s3.59,3.08,3.51,5.85c-.08,2.37-1.2,5.19-4.01,5.68ZM33.58,58.71c-.09-2.67-2.2-3.51-4.01-3.06-1.99.5-2.76,2.18-2.37,4.27.34,1.82,2,3.08,3.63,2.91,1.77-.19,2.81-1.99,2.74-4.12Z"/>
    <path class="cls-3" d="M458.73,39.2c-4.63-2.82-5.87,1.52-10.18-.51-.9-.42-1.34-1.37-.86-2.19,3.79,2.56,6.47-3.86,12.32.16,1.61,1.11,3.17,1.16,4.89.22,6.36-3.47,7.74,1.17,12.87-1.04,6.61-2.85,6.87,2.88,12.74-.39,2.44-1.36,6.14-2.13,7.62,1.13-7.36.1-8.56,3.68-14.18,1.37-4.88-2-5.93,2.69-12.37.26-4.87-1.84-6.94,4.61-12.86,1Z"/>
    <path class="cls-3" d="M463.72,60.4c-8.01-3.52-12.08,3.35-15.94-1.23,1.99-.33,3.99-.53,5.86-1.41,8.58-4.07,12.08,3.24,18.88.03,3.36-1.59,7.12-1.67,10.58-.37,4.13,1.55,9.51-4.23,14.38.05-3.5.47-6.48.43-9.46,1.79-1.71.78-3.75.74-5.54.15-8.45-2.76-9.72,4.97-18.76.99Z"/>
    <path class="cls-3" d="M465.13,78.92c-4.14-.54-12.07-2.25-14.51-1.31-.76-3.47,10.99-1.27,13.62-.97,6.05.7,7.9-4.72,16.67-1.16,8.24,3.35,7.56-6.87,19.04-.28-1.24,1.46-2.9,1.08-4.23.57-6.21-2.4-7.47,4.65-15.2,1.86-8.59-3.1-9.64,2.03-15.39,1.29Z"/>
    <path class="cls-6" d="M438.38,43.37c-1.51.95-3.59.88-5.38.12-3.17-1.35-4.94-7.08-1.87-10.12,1.26-1.25,3.45-2.07,5.58-1.56,3.51.85,2.12-3.31,5.93-4.67.84,2.66-1.61,4.71-1.79,6.78,1.05,3.42.98,7.28-2.46,9.45ZM433.07,37.54c1.48-.08,2.03.38,2.36.22.83-.89,1.05-1.99,1.51-3.11-1.84-.65-3.72-.35-4.98,1.01-1,1.08-1.57,2.95-.38,4.27,1.54,1.71,3.52,2.72,5.41,1.67,1.55-.86,2.75-2.92,1.94-4.59-.84,1.29-1.26,3.45-2.88,3.65s-2.81-2.1-2.97-3.12Z"/>
    <path class="cls-6" d="M438.19,63.22c-2.52.72-4.51-.78-5.67-2.07-1.64-1.82-2.24-4.27-1.11-6.5,1.37-2.72,4.66-3.28,7.51-2.43l3.83-4.41c1.26,3.55-1.76,3.28-.78,8.22.56,2.83-.69,6.31-3.77,7.19ZM434.65,57.15c1.5.32,2.64-.87,2.57-1.82-1.28-.91-3.43.03-4.18,1.3-.82,1.39-.34,3.2,1.02,4.05,1.27.79,3.02.82,4.09-.6-2.23.06-3.57-1.15-3.5-2.92Z"/>
    <path class="cls-6" d="M440.78,81.37c-2.62,1.61-5.57.26-7.18-2.01-1.46-2.06-2.02-4.34-.79-6.61,1.03-1.89,3.51-3.16,6.04-2.72,3.4.59,2.4-3.66,4.95-4.13.18,2.09-.89,3.42-1.39,5.38,2.36,3.26,1.82,7.96-1.64,10.09ZM438.02,78.31c-1.47-.18-2.18-1.99-2.12-2.77.93-.05,1.65.35,2.02-.14s.6-1.07.87-1.96c-1.48-.83-3.67-.05-4.42,1.35-.84,1.55-.47,3.62,1.08,4.48,1.63.91,3.32.8,4.53-.36,1.08-1.03,1.74-2.8.97-4.11-1.03,1.18-1.25,3.71-2.93,3.51Z"/>
    <path class="cls-7" d="M31.23,35.59c1.58,1.9.6,4.62-1.09,5.81s-4.97.53-5.82-1.6c-.78-1.97.43-3.77,1.74-4.63,1.51-1,3.81-1.22,5.17.42Z"/>
    <path class="cls-7" d="M33.95,78.89c-1.43,1.88-3,1.15-4.12.4-1.87-1.23-1.8-3.3-.69-4.77,1-1.33,3.15-1.54,4.75-.47s1.24,3.29.07,4.84Z"/>
    <path class="cls-7" d="M33.58,58.71c.07,2.13-.98,3.93-2.74,4.12-1.63.17-3.29-1.09-3.63-2.91-.39-2.09.38-3.77,2.37-4.27,1.81-.45,3.93.39,4.01,3.06Z"/>
    <path class="cls-8" d="M433.07,37.54c.16,1.02,1.28,3.32,2.97,3.12s2.04-2.35,2.88-3.65c.81,1.67-.38,3.72-1.94,4.59-1.89,1.05-3.87.04-5.41-1.67-1.18-1.32-.62-3.19.38-4.27,1.26-1.36,3.14-1.66,4.98-1.01-.46,1.13-.69,2.22-1.51,3.11-.33.16-.87-.3-2.36-.22Z"/>
    <path class="cls-8" d="M434.65,57.15c-.07,1.78,1.27,2.98,3.5,2.92-1.06,1.42-2.82,1.39-4.09.6-1.36-.85-1.85-2.66-1.02-4.05.75-1.27,2.9-2.21,4.18-1.3.07.96-1.07,2.15-2.57,1.82Z"/>
    <path class="cls-8" d="M438.02,78.31c1.67.2,1.9-2.34,2.93-3.51.77,1.31.1,3.07-.97,4.11-1.21,1.16-2.9,1.27-4.53.36-1.54-.86-1.92-2.93-1.08-4.48.76-1.39,2.94-2.18,4.42-1.35-.27.89-.51,1.48-.87,1.96s-1.09.09-2.02.14c-.06.78.64,2.6,2.12,2.77Z"/>
  </g>
</svg>