<?xml version="1.0" encoding="UTF-8"?>
<svg id="Layer_2" data-name="Layer 2" xmlns="http://www.w3.org/2000/svg" viewBox="0 0 39.1 38.22">
  <defs>
    <style>
      .cls-1 {
        fill: #2d091d;
      }
    </style>
  </defs>
  <g id="Layer_1-2" data-name="Layer 1">
    <path class="cls-1" d="M1.32,37.93c-.47.35-.83.36-1.1.12-.21-.19-.24-.58-.21-1.2,2.08-2.97,4.25-5.75,6.79-8.39l10.36-10.78C15.01,16.12,1.06,1.66.98.83c-.33-3.39,9.59,6.23,10.15,6.77l8.41,7.87C22.01,13.31,35.86-.94,37.54.05c.42.25.42,1.11-.06,1.63l-14.99,16.27c4.78,5.54,9.61,10.55,14.92,15.36.84.76,1.23,1.94,1.69,3.08-.92.88-1.79.31-2.51-.27-5.92-4.84-10.95-10.15-16.57-15.75-2.95,3.47-6.19,6.29-9.42,9.37-3,2.86-5.64,5.8-9.28,8.2Z"/>
  </g>
</svg>