<?xml version="1.0" encoding="UTF-8"?>
<svg id="Layer_2" data-name="Layer 2" xmlns="http://www.w3.org/2000/svg" viewBox="0 0 118.66 118.22">
  <defs>
    <style>
      .cls-1 {
        fill: #6a2efc;
      }

      .cls-2 {
        fill: #320a17;
      }

      .cls-3 {
        fill: #2d091d;
      }

      .cls-4 {
        fill: #b0c0f7;
      }

      .cls-5 {
        fill: #310a1b;
      }

      .cls-6 {
        fill: #fdcb2a;
      }

      .cls-7 {
        fill: #fd9c20;
      }

      .cls-8 {
        fill: #fdfdfd;
      }
    </style>
  </defs>
  <g id="Layer_1-2" data-name="Layer 1">
    <g>
      <path class="cls-3" d="M95,107.55c-10.83,7.63-25.39,11.04-38.56,10.65-21.02-.64-39.62-12.94-49.38-31.59-8.73-16.69-9.72-35.64-.99-53.77C12.97,18.51,26.77,6.59,43.85,2.08c15.07-3.98,30.75-2.28,44.58,5.3,33.3,18.26,39.84,61.87,15.87,90.92-2.7,3.28-5.57,6.62-9.29,9.24ZM32.84,84.68l25.57-25.21,39.88-39.79C72.32-4.74,30.55.52,11.45,30.74-1.88,51.84,1.9,80.08,19.38,98.41c4.29-4.87,8.46-9.24,13.46-13.73ZM70.81,114.5c9.13-2.16,16.14-7.41,23.58-12.33,24.18-19.55,27.87-57.51,5.88-80.45l-59.22,59.64-19.42,19.35c13.41,12.05,31.55,17.95,49.18,13.79Z"/>
      <path class="cls-4" d="M70.81,114.5c-17.62,4.16-35.77-1.74-49.18-13.79l19.42-19.35,59.22-59.64c21.99,22.94,18.29,60.9-5.88,80.45-7.44,4.92-14.44,10.18-23.58,12.33ZM104.88,46.83c.22-.38-1.35-.6-1.62-.07-2.7,5.41-7.01,10.09-8.33,16.22,4.46-4.99,6.77-10.63,9.96-16.16ZM85.38,49.51c-1.41,2.67-1.65,5.37-.68,7.77.91-2.67,1.5-5.07.68-7.77ZM74.24,60.93c.85-1.11.34-1.98-.18-2.81-.38-.61-1.06-1.65-2.14-.75.92,1.4,1.25,2.56,2.32,3.56ZM92.26,88.63c4.26-4.77,5.47-11.58,3.01-17.21-2.91-6.66-10.52-9.35-17.22-7.6-4.46,1.16-7.77,3.96-9.4,7.54-1.96,4.31-1.72,8.82.57,12.81.58,1.01.63,2.2,1.35,3.2,5.1,7,15.66,8.03,21.69,1.27ZM63.35,73.82c-2.14-1.52-4.2-1.87-6.43-1.51,1.7,1.72,4.21,2.56,6.43,1.51ZM106.01,72.12c-2.5-.5-5.01-.18-6.73,1.4,2.36.68,4.81.35,6.73-1.4ZM64.58,82.92c-.95-.5-15.23.92-14.67,2.42.6,1.62,17.37-.99,14.67-2.42ZM101.75,88.06c-1.63-1.27-3.07-1.63-4.67-1.06,1.06,1.72,3.05,2.49,4.67,1.06ZM67.4,91.72c-.19.03-.72.14-.93.35l-9.17,9.16c-.43.43-.22,1.21.07,1.33.65.29,12.84-11.26,10.04-10.84ZM91,100.09c.43-2.21-.84-4.32-2.62-4.98.29,1.99.98,3.6,2.62,4.98ZM78.64,98.16c-.28-.09-.73-.04-.91.56-.38,1.28-2.95,10.24-1.2,9.68.38-.12,3.25-9.87,2.11-10.24Z"/>
      <path class="cls-1" d="M32.84,84.68c-4.99,4.49-9.16,8.86-13.46,13.73C1.9,80.08-1.88,51.84,11.45,30.74,30.55.52,72.32-4.74,98.29,19.68l-39.88,39.79-25.57,25.21ZM13.96,44.72c.93,6.61,5.71,12.99,11.99,15.25,8.24,2.97,17.76,1.12,24.55-4.19,8.89-6.96,11.02-20.61,2.31-30.39-4.19-4.71-15.69-9.97-17.47-6-1.22,2.72,2.04,2.83,2.51,9.58.34,4.88-1.57,8.48-5.14,11.56-3.89,3.36-9.18,4.36-14.1,2.6-1.2-.43-4.94-.55-4.64,1.59Z"/>
      <path class="cls-2" d="M92.26,88.63c-6.04,6.76-16.6,5.73-21.69-1.27-.73-1-.78-2.19-1.35-3.2-2.28-3.98-2.53-8.5-.57-12.81,1.63-3.58,4.95-6.38,9.4-7.54,6.7-1.75,14.3.94,17.22,7.6,2.46,5.63,1.25,12.44-3.01,17.21ZM92.75,78.96c.26-2.64,0-5.45-2.02-7.6-2.17-2.32-5.21-3.67-8.67-3.62-4.72.06-9.91,2.79-11.18,7.78-.94,3.69,1.16,7.52,3.42,10.18,4.2,4.93,11.29,4.85,15.43.07,1.67-1.93,2.79-3.95,3.02-6.8Z"/>
      <path class="cls-5" d="M104.88,46.83c-3.18,5.52-5.5,11.17-9.96,16.16,1.33-6.14,5.63-10.81,8.33-16.22.27-.53,1.84-.31,1.62.07Z"/>
      <path class="cls-5" d="M64.58,82.92c2.7,1.43-14.07,4.05-14.67,2.42-.56-1.51,13.72-2.93,14.67-2.42Z"/>
      <path class="cls-5" d="M67.4,91.72c2.81-.41-9.39,11.13-10.04,10.84-.29-.13-.5-.9-.07-1.33l9.17-9.16c.21-.21.75-.33.93-.35Z"/>
      <path class="cls-5" d="M78.64,98.16c1.14.37-1.73,10.12-2.11,10.24-1.75.56.83-8.4,1.2-9.68.18-.6.63-.65.91-.56Z"/>
      <path class="cls-5" d="M85.38,49.51c.82,2.7.23,5.09-.68,7.77-.97-2.39-.73-5.1.68-7.77Z"/>
      <path class="cls-5" d="M63.35,73.82c-2.21,1.04-4.73.2-6.43-1.51,2.22-.36,4.29,0,6.43,1.51Z"/>
      <path class="cls-5" d="M106.01,72.12c-1.92,1.76-4.37,2.09-6.73,1.4,1.72-1.58,4.22-1.91,6.73-1.4Z"/>
      <path class="cls-5" d="M91,100.09c-1.64-1.38-2.33-2.99-2.62-4.98,1.78.66,3.06,2.77,2.62,4.98Z"/>
      <path class="cls-5" d="M101.75,88.06c-1.63,1.43-3.61.66-4.67-1.06,1.61-.57,3.04-.2,4.67,1.06Z"/>
      <path class="cls-5" d="M74.24,60.93c-1.07-1-1.4-2.16-2.32-3.56,1.08-.89,1.75.15,2.14.75.52.82,1.03,1.69.18,2.81Z"/>
      <path class="cls-5" d="M13.96,44.72c-.3-2.14,3.45-2.02,4.64-1.59,4.92,1.77,10.21.76,14.1-2.6,3.57-3.08,5.49-6.68,5.14-11.56-.47-6.75-3.73-6.86-2.51-9.58,1.79-3.98,13.28,1.29,17.47,6,8.71,9.79,6.58,23.44-2.31,30.39-6.79,5.31-16.31,7.15-24.55,4.19-6.28-2.26-11.06-8.64-11.99-15.25ZM36.56,42.43c-5.31,4.61-11.79,6.49-19.02,3.88,1.67,4.08,4.41,7.72,8.16,9.42,8.51,3.84,18.46,1.17,24.1-5.76,3.81-4.68,6.07-10.26,2.93-17.01-2.3-4.93-7.31-9.13-13.12-10.13,2.94,7.11,2.05,14.22-3.05,19.6Z"/>
      <path class="cls-6" d="M92.75,78.96c-1.54,2.46-3.44,5.16-6.61,5.59-4.09.55-7.32-1.74-9.06-5.13-2.02-3.93-.79-8.17,3.21-10.28.7-.37,1.4-.84,1.78-1.41,3.46-.05,6.51,1.3,8.67,3.62,2.02,2.16,2.28,4.96,2.02,7.6Z"/>
      <path class="cls-7" d="M82.05,67.74c-.38.56-1.08,1.04-1.78,1.41-4,2.1-5.23,6.35-3.21,10.28,1.74,3.38,4.98,5.68,9.06,5.13,3.18-.43,5.07-3.13,6.61-5.59-.23,2.84-1.34,4.87-3.02,6.8-4.14,4.78-11.24,4.86-15.43-.07-2.26-2.66-4.37-6.48-3.42-10.18,1.27-4.99,6.46-7.71,11.18-7.78Z"/>
      <path class="cls-8" d="M49.8,49.97c-3.01.48-7.57,2.52-10.82-.37-2.12-1.88-2.27-4.66-2.42-7.17,5.1-5.37,5.99-12.49,3.05-19.6,5.81,1,10.83,5.19,13.12,10.13,3.14,6.75.89,12.33-2.93,17.01Z"/>
      <path class="cls-4" d="M49.8,49.97c-5.64,6.93-15.59,9.6-24.1,5.76-3.76-1.69-6.5-5.34-8.16-9.42,7.23,2.61,13.7.73,19.02-3.88.15,2.51.31,5.29,2.42,7.17,3.25,2.89,7.82.85,10.82.37Z"/>
    </g>
  </g>
</svg>