<?xml version="1.0" encoding="UTF-8"?>
<svg id="Layer_2" data-name="Layer 2" xmlns="http://www.w3.org/2000/svg" viewBox="0 0 112.89 123.74">
  <defs>
    <style>
      .cls-1 {
        fill: #fdc6cf;
      }

      .cls-2 {
        fill: #310a1b;
      }

      .cls-3 {
        fill: #fefefe;
      }

      .cls-4 {
        fill: #fdfdfd;
      }
    </style>
  </defs>
  <g id="Layer_1-2" data-name="Layer 1">
    <g>
      <path class="cls-3" d="M98.28,74.98l4.54,11.66c2.1,5.38,5.92,16.94,9.48,20.61-2.86,7.36-18.45,11.79-25.53,13.34-19.63,4.3-46.16,4.79-64.84-2.27l11.09-15.77c1.92-2.73,4.35-4.62,7.47-5.84,4.16-1.63,8.27-3.07,12.61-4.23,6.93-1.85,13.35-4.16,20.17-6.45,8.86-2.97,17.04-6.65,25-11.06Z"/>
      <path class="cls-2" d="M112.3,107.25c-3.56-3.68-7.39-15.23-9.48-20.61l-4.54-11.66c-.7-1.8-.89-4.03-2.12-5.7-.47-.65-1.97.25-2.43.64-5.39,4.55-11.36,7.83-18.18,9.78-9.34,3.28-18.78,3.65-28.6,2.56-6.69-.75-12.96-1.84-18.8-5.28l-12.42,37.87c-.35-.01-.75-.12-.84-.38-.18-.55,3.11-12.23,3.74-14.82l3.46-14.41c-5.41-4.5-10.82-8.49-15.74-13.4-7.13-7.12-7.98-14.26-3.96-23.54,1.3-2.99,3.11-5.72,3.92-8.87C1.92,34.51-.82,27.49,3.53,22c3.44-4.34,9.28-3.79,13.73-2.04,3.49-6.99,8.67-12.82,15.84-16.31C48.2-3.69,66.41.22,76.6,13.77c7.73,10.28,8.62,23.8,3.61,35.42-4.37,10.12-13.1,17.39-22.57,19.79-20.23,5.14-38.9-7.3-43.71-28.21-1.7-.07-2.97.3-4.67-.37-3.4,6.26-9.91,15.99-5.06,23.28,2.95,4.44,14.18,11.54,18.78,17.05,1.29-2.17.88-4.22,1.79-6,1.27-2.48,4.04-1.95,6.07-.77,5.24,3.07,11.13,3.34,17.15,3.86,15.89,1.37,31.02-3,43.87-12.22,1.44-1.03,3.8-1.03,5.13-.55,1.5.54,2.46,2.04,2.97,3.81,1.69,5.83,4.25,11.06,6.23,16.8l6.56,18.99c.43,1.25-.17,1.94-.43,2.62ZM30.47,8.97c-4.76,2.91-8.73,7.16-11.35,12.33,5.14,4.33,2.6,13.32-1.91,17.09,1.07,8.09,5.01,15.38,11.1,20.57,14.77,12.61,36.53,9.1,46.72-7.38,6.17-9.99,7.22-22.81.67-33.26C66.1,3.03,45.65-.81,30.47,8.97ZM14.79,36.29c3.21-1.68,5.21-6.75,3.71-10.43-1.35-3.33-5.89-4.6-9.4-3.63-3.32.92-5.2,3.78-4.64,7.57.45,3.05,2.26,6.54,5.05,8.14,1.68.96,4.03-.6,5.28-1.64Z"/>
      <path class="cls-1" d="M98.28,74.98c-7.97,4.41-16.15,8.08-25,11.06-6.82,2.29-13.23,4.6-20.17,6.45-4.35,1.16-8.45,2.6-12.61,4.23-3.11,1.22-5.55,3.11-7.47,5.84l-11.09,15.77c-2.2-.83-4.54-1.87-6.2-3.48l12.42-37.87c5.84,3.43,12.11,4.53,18.8,5.28,9.82,1.1,19.26.73,28.6-2.56,6.82-1.95,12.78-5.23,18.18-9.78.45-.38,1.95-1.29,2.43-.64,1.22,1.67,1.41,3.9,2.12,5.7Z"/>
      <path class="cls-4" d="M75.02,51.59c-4.53,2.17-8.57,5.49-13.96,6.4-7.47,1.27-15.86.13-22.26-3.7-10.49-6.28-15.07-17.71-12.27-29.17l3.94-16.15c15.18-9.78,35.63-5.94,45.21,9.35,6.55,10.45,5.51,23.28-.67,33.26ZM66.13,30.15c1.75-1.31,2.9-4.49,2-6.35-1.08-2.23-3.95-1.79-5.09-.7-1.84,1.75-1.88,3.77-.28,5.68.64.77,2.01,2.39,3.37,1.36ZM41.46,34.34c2.69-1.42,4.52-4.42,3.13-7.04-1.11-2.1-5.6-1.79-6.66.46-1.19,2.53.68,6.04,3.53,6.58ZM65.09,45.43c.1,1.94-.54,2.92.86,3.99,2.37-2,4.11-5.17,3.66-8.36-.16-1.15-2.28-1.51-3.3-1.22l-19.96,5.61c-.42.12-.16,1.28.19,1.25.31-.02.96.22,1.42.26,5.86.52,11.37-.88,17.13-1.52Z"/>
      <path class="cls-1" d="M75.02,51.59c-10.19,16.48-31.94,19.98-46.72,7.38-6.08-5.19-10.03-12.48-11.1-20.57,4.51-3.77,7.05-12.75,1.91-17.09,2.62-5.18,6.6-9.42,11.35-12.33l-3.94,16.15c-2.8,11.46,1.78,22.89,12.27,29.17,6.4,3.83,14.79,4.97,22.26,3.7,5.38-.91,9.43-4.23,13.96-6.4Z"/>
      <path class="cls-4" d="M14.79,36.29c-4.92-5-6.1-6.78-5.69-14.06,3.5-.97,8.04.3,9.4,3.63,1.5,3.68-.5,8.76-3.71,10.43Z"/>
      <path class="cls-1" d="M14.79,36.29c-1.24,1.04-3.6,2.6-5.28,1.64-2.79-1.59-4.6-5.09-5.05-8.14-.56-3.79,1.32-6.65,4.64-7.57-.42,7.29.77,9.06,5.69,14.06Z"/>
      <path class="cls-2" d="M65.09,45.43c-5.76.64-11.27,2.04-17.13,1.52-.46-.04-1.11-.28-1.42-.26-.35.02-.61-1.14-.19-1.25l19.96-5.61c1.02-.29,3.14.07,3.3,1.22.44,3.2-1.29,6.36-3.66,8.36-1.4-1.07-.77-2.05-.86-3.99Z"/>
      <path class="cls-2" d="M41.46,34.34c-2.85-.54-4.72-4.05-3.53-6.58,1.06-2.25,5.54-2.55,6.66-.46,1.39,2.62-.43,5.62-3.13,7.04Z"/>
      <path class="cls-2" d="M66.13,30.15c-1.37,1.02-2.73-.59-3.37-1.36-1.6-1.92-1.55-3.93.28-5.68,1.14-1.09,4-1.52,5.09.7.9,1.85-.25,5.04-2,6.35Z"/>
    </g>
  </g>
</svg>