<?xml version="1.0" encoding="UTF-8"?>
<svg id="Layer_2" data-name="Layer 2" xmlns="http://www.w3.org/2000/svg" viewBox="0 0 493.39 195.35">
  <defs>
    <style>
      .cls-1 {
        fill: #fdc6cf;
      }

      .cls-2 {
        fill: #2d091d;
      }

      .cls-3 {
        fill: #310a1b;
      }

      .cls-4 {
        fill: #f56379;
      }

      .cls-5 {
        fill: #17c93a;
      }

      .cls-6 {
        fill: #fefefe;
      }

      .cls-7 {
        fill: #fdfdfd;
      }
    </style>
  </defs>
  <g id="Layer_1-2" data-name="Layer 1">
    <path class="cls-2" d="M262.99,191.24l-.23-79.06-.49-22.02-.5-19.26-.49-18.55c-.38-14.51-.65-28.77-.06-43.27.12-3.06-.26-6.03,1.17-9.1,1.76,10.62,2.15,20.64,2.25,30.99l.21,20.84.26,49.03c.16,30.35,1.04,60.21,2.67,90.41.08,1.42-.95,3.69-1.96,4.08-1.22-.16-2.81-2.17-2.81-4.11Z"/>
    <g>
      <path class="cls-3" d="M154.87,164.89c-1.31-.45-2.22-1.55-3.31-2.61-7.48-7.27-13.9-11.97-20.98-20.71-2.89,2.76-3.71,6.06-6.74,8.34-.59-1.63-.03-3.42.57-4.72,1-2.15,3.06-4.13,3.49-6.68.23-1.37-1.6-3.19-2.38-3.9-2.33,1.17-3.08,2.98-4.73,4.44-6.8,5.99-15.75,9.16-25,8.69-8.64-.44-16.76-2.35-24.95-4.75-4.1-1.2-8.02-.07-10.23,3.58,1.66,1.45,3.97,1.55,5.08,3.87-2.62.23-4.17-1.61-6.57-1.93-5.48,7.63-10.64,15.23-16.75,22.18-.76.87-1.58,1.6-2.53,1.53,2.45-5.49,5.64-10.19,8.85-15.09l6.64-10.15-21.08-9.27c-3.07-1.35-5.41-4.47-5.13-7.87.39-4.63,8.44-12.23,12.1-18.03.55-.88-.21-2.37-.6-3.21-2.34-5.13-1.09-11.18,3.61-14.41,2.71-1.86,5.95-2.45,9.22-2.38,1.18-4.09,2.47-7.78,4.84-11.53-4.66-1.88-4.43-6.24-8.06-3.72-1.11-.47-.24-1.72.18-2.32.57-.82,1.91-1.18,3-1,1.91.31,2.79,2.06,4.12,2.93,2.12,1.39,3.97-.35,5.36-1.78,9.2-9.43,22.43-13.04,35.41-10.62,4.09-4.4,10.46-5.13,15.27-1.65,3.74,2.71,4.67,7.55,3.36,12.04,3.54,3.52,5.75,7.47,7.73,11.94,4.23-1.83,8.99-1.05,11.72,2.5,2.35,3.06,2.27,7,.93,10.83,5.67,3.25,10.34,7.82,13.29,13.7,1.04,2.07.29,4.42-1.18,6.15l-16.54,19.4c6.36,7.57,15.25,13.16,21.89,19.31,1.2,1.11,1.86,2.1,1.88,3.65s-.36,2.65-1.8,3.21ZM109.02,78.38c4.88-1.65,7.29-7.54,4.84-11.93-1.72-3.08-5.16-4.22-8.52-3.82-2.85.34-5.9,2.38-6.96,5.52-.93,2.75-.37,5.66,1.7,7.42,2.52,2.14,5.24,4.07,8.94,2.82ZM83.59,68.28c-5.67.86-11.01,3.49-15.64,7.31,2.89,2.54,2.53,4.2,4.16,4.78.48.17.78-.41,1.19-.48,1.06-.18,2.16-.71,3.23-1.3,3.26-1.79,6.47-.67,8.46,2.34.78,1.18,2.21,2.31,1.53,4.05-2.53-.57-3.85-2.93-5.95-4.18s-6.32,3.61-9.79,2.64c-2.47-1.61-2.41-4.73-4.43-5-3.55-.47-9.36,11.56-9.12,14.84,5.87,3.92,4.02,11.65.71,16.66,5.15,15.99,20.73,26.25,37.47,23.58,10.09-1.61,18.95-7.92,23.81-16.94,2.06-3.82,4.75-8.27,4.43-13.02-2.09-1.1-4.32-2.68-5.08-4.56-1.73-4.3-.26-7.25,2.73-11.1-1.47-3.75-3.56-7.02-6.49-9.87-2.46,2.86-5.45,4.1-9.02,3.77-6.66-.62-10.1-7.25-9.49-13.7-4.35-.9-8.36-.85-12.71.15ZM127.42,90.08c-2.46.24-4.66,1.88-5.92,4.3-.95,1.83-.52,4.67,1.57,5.54,2.36.99,5.26,1.61,7.8,1.13s3.83-3.2,3.79-5.82c-.02-1.12.18-2.51-.77-3.57-1.58-1.78-4.17-2.39-6.48-1.57ZM46.79,97.36c-3.12,1.26-4.6,4.51-4.1,7.97.4,2.76,1.41,4.84,3.74,5.67,2.63.94,5-.08,6.99-2.13,3.39-3.47,5.53-8.88,2.38-11.57-2.65-2.26-6.01-1.51-9.01.05ZM57,144.63c3.29-5.65,8.93-7.43,14.91-6.22,9.11,1.86,18.06,3.24,27.47,2.67,7.76-.76,14.58-3.91,21-8.05,1.78-1.15,4.3-2.23,6.3-1.4,1.66.68,1.95,2.69,3.53,3.84,5.82-8.54,11.49-12.55,18.25-19.96-2.24-4.49-9.02-8.28-12.95-12.83-2.63,2.31-5.87,2.86-9.26,1.64-1.14,9.17-4.89,17.57-11.54,23.94-13.15,12.57-33.21,13.13-47.33,1.79-5.7-4.58-9.66-10.35-12.37-17.39-3.56,1.78-7.68,3.42-10.93.13l-10.08,14.46c-.75,1.08-1.21,2.47-.8,3.57.31.84,1.18,1.84,2.21,2.38l21.6,11.43Z"/>
      <path class="cls-6" d="M154.87,164.89c-.16,1.07-1.42,1.68-2.14,2.49-1.79,2.02-3.44,3.76-6.01,4.89-5.52,2.42-11.07,4-17.15,5.2-20.28,3.99-40.75,5.35-61.39,4.07-7.14-.44-13.86-1.2-20.31-3.3,6.39-5.54,13-10.8,18.97-17.12,3.08-3.26,7.11-4.25,11.59-4.37,16.37-.44,31.54-4.6,45.97-11.56-.6,1.3-1.16,3.09-.57,4.72,3.03-2.28,3.85-5.57,6.74-8.34,7.08,8.74,13.5,13.44,20.98,20.71,1.09,1.06,2.01,2.16,3.31,2.61Z"/>
      <path class="cls-1" d="M124.41,145.19c-14.43,6.96-29.6,11.11-45.97,11.56-4.48.12-8.51,1.12-11.59,4.37-5.97,6.32-12.58,11.58-18.97,17.12-3.13-1.02-7.74-2.29-8.04-6.02.95.08,1.77-.66,2.53-1.53,6.11-6.96,11.27-14.56,16.75-22.18,2.4.32,3.95,2.16,6.57,1.93-1.11-2.32-3.42-2.41-5.08-3.87,2.21-3.65,6.13-4.78,10.23-3.58,8.18,2.4,16.31,4.31,24.95,4.75,9.26.47,18.2-2.7,25-8.69,1.66-1.46,2.4-3.27,4.73-4.44.78.71,2.62,2.53,2.38,3.9-.43,2.55-2.5,4.53-3.49,6.68Z"/>
      <path class="cls-4" d="M170.93,89.95c-4.08,1.86-8.81-6.61-10.93-9.44-2.74,2.31-4.32,9.1-7.3,7.07-4.82-3.28-8.88-7.42-11.77-12.32-2.85,1.52-1.05,4.6-3.3,7.91-3.05-1.34-2.42-4.03-2.11-6.63.47-4.05,4.54-7.93,8.4-6.07.37,3.8,6.1,10.17,9.36,11.6,3.3-4.36,3.43-7.21,7.44-7.18,2.22.02,5.23,8.16,8.41,9.58.75-2.54,3.77-5.04,5.99-3.22,1.84,1.5-.35,4.64-1.94,5.55-1.16.67-.94,2.54-2.26,3.14Z"/>
      <path class="cls-4" d="M8.79,115.84c-1.84,2.55-6.96,2.43-7.95.71-.46-.8-1.48-2.99-.29-3.22l4.78-.96c2.14-.43.62-7.74,1.86-8.57,3.21-2.13,9.41,1.75,12.79,4.42,2.4-3.15,4.18-14.16,6.3-14.91.93-.33,2.07-.67,3.08-.01,2.03,1.31,4.23,2.42,5.97,4.19.94.95-.11,2.91-.84,3.86l-6.19-3.44c-1.16,3.22-4.77,15.76-7.32,16.12s-4.54-4.45-9.74-5.4c-.83,2.51-.91,5.07-2.46,7.22Z"/>
      <path class="cls-4" d="M125.49,49.59c-1.4-.36-2.53-3.16-1.42-4.08,2.3-1.9,5.01-2.23,7.98-3.92-2.12-1.63-3.7-3.47-4.68-5.94s.12-4.41,2.53-5.22c2.13-.72,4.4-.63,6.56-1.22,2.73-.74-5.31-4.92-5.07-10.79.13-3.1,3.77-6.45,6.21-4.49,1.76,1.4-1.22,3.86-1.52,5.21-.37,1.7,1.72,3.19,2.77,4.28,2.83,2.93,3.55,7.71,0,10.18-1.71,1.19-4.44.34-6.63,1.3.51,2.44,3.3,2.66,4.82,4.31,1.43,1.55.39,5.3-1.65,6.1-3.43,1.34-6.92,2.66-9.92,4.3Z"/>
      <path class="cls-4" d="M55.94,59.15c-3.35-2.09-8.06,5.08-12.25-.18-2.02-2.54-3.04-5.71-4.54-8.97-3.19.72-9.35,7.35-12.5,5.53-1.7-.98-2.69-3.28-2.56-5.2.09-1.25,1.45-1.22,2.08-1.43,1.13-.37,1.89.86,2.79,1.34l7.8-4.73c1.3-.79,2.8-.79,4.14-.28,2.54.96,3.3,8.4,6.23,10.93,2.75-.97,5.15-1.88,7.83-2.21s4.76,1.23,5.04,3.99c.43,4.27,2.9,6.82.2,8.03-2.94,1.31-3.49-5.56-4.27-6.83Z"/>
      <path class="cls-2" d="M132.84,58.91l-4.37,5.68c-1,1.3-3.51,1.2-5.12.27-1.07-.61-2.88-1.74-2.79-3.65,2.11.71,4.13,2.38,6.14,1.12s3.27-5.78,5.71-6.14c3.15-.46,5.28,3.26,7.02,2.09,1.83-1.23,2.79-3.36,4.45-4.77,2.94-2.47,6.29.83,8.13.28,1.47-.44,3.25-5.42,6.17-6.25,3.49-.99,7.52,1.23,8.7,4.8-2.31.5-6.49-4.71-9.32-.91-1.06,1.43-1.91,3.1-3.15,4.39-2.74,2.84-6.77-1.84-8.93-.26-1.1.81-2.12,2.16-2.83,3.29-1.6,2.52-4.48,2.76-6.75,1.19-.65-.45-2.38-2.02-3.06-1.14Z"/>
      <path class="cls-2" d="M114.71,47.69c-1.88,1.67-4.41,1.21-5.91-.77-3.43-4.54-6.28-.33-12.12.37-5.4.65-5.51-7.2-9.05-4.25l-3.89,3.25c-1.21,1.01-3.01,1.48-4.23.3l-3.36-3.26c-.65-.63-1.33-.92-2.06-.95-2.14-.09-2.65,2.9-4.02,2.32.02-1.9,1.43-4.28,3.46-4.69,4.09-.81,5.84,3.98,7.32,4.64,2.55,1.12,5.12-4.97,8.97-4.4.85.13,1.97.99,2.58,2.05,3.37,5.8,7.71.15,13.51-.3,2.42-.19,3.62,1.94,5.42,2.97,2,1.14,5.63-2.44,6.48-1.95,1.51.86-1.95,3.66-3.1,4.69Z"/>
      <path class="cls-3" d="M60.4,48.63c-2.65,1.63-5.5,1.65-8.11.5-5.02-2.22-6.33-10.17-2.07-15.1,1.9-2.21,5.14-3.53,8.42-3.16,4.4.49,7.84,4.13,7.39,8.68-.37,3.69-2.41,7.11-5.64,9.09ZM63.19,37.69c-1.06-4.18-5.97-4.6-9.05-3.21-2.85,1.28-4.61,3.81-4.39,6.88.18,2.51,2.07,5.61,5.33,5.84,4.63.32,9.33-4.69,8.11-9.51Z"/>
      <path class="cls-3" d="M42.01,79.72c-2.73,1.59-5.7,1.38-8.44-.06-4.78-2.51-6.54-9.88-2.67-14.52,1.79-2.14,4.68-3.24,7.78-2.99,4.55.37,8.43,3.77,8.51,8.52.06,3.63-1.96,7.18-5.18,9.05ZM36.01,77.99c2.88.86,5.21-.62,6.63-2.18,1.61-1.78,2.37-4.25,1.47-6.61-.95-2.5-3.62-3.95-5.76-4.07-2.73-.16-5.42.64-6.78,3.19-1.91,3.59.36,8.46,4.43,9.68Z"/>
      <path class="cls-7" d="M119.21,116.61c-4.93,1.86-9.3,5.31-14.84,6.41-6.82,1.35-14.33.35-20.31-2.49,2.97.56,3.49-4.44,6.08-4.62,1.51-.11,1.93,4.03,4.85,3.74,2.37-.23,3.44-5.34,5.09-4.3,1.36.86,2.07,2.49,3.66,2.42,4.33-.2,2.39-2.84,8.09-3.57,1.06-.71-.03-3.42-1.26-3.77-2.71-.78-4.57,2.02-6.57,2.58-1.55-1.16-2.87-3.09-5.23-2.41-1.69.48-3.16,1.88-4.07,3.5-1.44-1.42-2.9-3.3-5.28-2.75-1.81.42-3.44,1.47-4.6,3.96-1.42-1.79-2.9-2.24-4.7-1.99-1.67.24-3.19.72-4.14,2.18-3.28-2.74-5.48-6.42-7.27-10.28,3.91-2.83,15.71-4.58,15.66-10.85-1.59-1.77-4.35-2.41-6.63-2.57l-10.1-.71c.07-2.74,2.47-5.29,3.14-7.64,3.47.96,7.77-3.84,9.79-2.64s3.42,3.62,5.95,4.18c.69-1.75-.74-2.87-1.53-4.05-1.99-3.01-5.2-4.13-8.46-2.34-1.07.59-2.17,1.11-3.23,1.3,2.35-2.99,4.64-6.07,7.56-8.8,1.03-.96,2.29-1.6,2.72-2.81,4.35-.99,8.36-1.05,12.71-.15-.61,6.45,2.83,13.08,9.49,13.7,3.57.33,6.56-.91,9.02-3.77,2.93,2.85,5.02,6.11,6.49,9.87-2.99,3.85-4.46,6.8-2.73,11.1.75,1.88,2.99,3.46,5.08,4.56.32,4.75-2.37,9.2-4.43,13.02ZM104.97,96.35l9.7-2.81c.6-.18.94-.87.74-1.23s-.74-.41-1.25-.36l-10.34,1.08c.32-1.77,8.19-7.18,6.43-7.56-.34-.07-.77-.07-1.08.16-3.2,2.38-6.37,4.4-9.69,6.61-.91.61-2.14,1.71-2.15,2.88-.01,6.88,11.87,5.94,16.55,6.47.75.09,3.2-.27,2.47-1.35-3.27-2.62-7.75-2.84-11.38-3.89Z"/>
      <path class="cls-1" d="M70.78,83.45c-.67,2.34-3.07,4.9-3.14,7.64-.96-.07-2.05-.32-3.11.4.65.66,1.38,1.37,2.21,1.55l-.07,4.15c-.5.13-1.68.48-1.88,1-.65,1.73,5.48.28,7.91.8-.82.56-15.51,8.18-3.98,6.23,1.79,3.86,4,7.54,7.27,10.28.13,1.21-.41,2.66.03,4.35,1.56-.93,2.15-2.23,3.27-2.31,2.84-.21,2.84,2.07,4.78,2.99,5.98,2.84,13.49,3.85,20.31,2.49,5.54-1.1,9.91-4.55,14.84-6.41-4.86,9.02-13.72,15.33-23.81,16.94-16.74,2.67-32.32-7.59-37.47-23.58,3.31-5.01,5.16-12.74-.71-16.66-.24-3.28,5.57-15.31,9.12-14.84,2.02.27,1.96,3.39,4.43,5Z"/>
      <path class="cls-4" d="M109.02,78.38c-3.7,1.25-6.41-.68-8.94-2.82-2.07-1.76-2.63-4.67-1.7-7.42,1.06-3.13,4.1-5.18,6.96-5.52,3.36-.4,6.8.74,8.52,3.82,2.45,4.39.04,10.28-4.84,11.93Z"/>
      <path class="cls-7" d="M53.42,108.88c-5.69-1.27-6.03-6.72-6.63-11.52,3-1.56,6.36-2.32,9.01-.05,3.15,2.69,1.01,8.1-2.38,11.57Z"/>
      <path class="cls-1" d="M127.42,90.08c-.3,1.67-.99,4,.87,5.14,1.97,1.21,4.38.3,6.37,0,.04,2.63-1.18,5.33-3.79,5.82s-5.44-.14-7.8-1.13c-2.09-.88-2.52-3.71-1.57-5.54,1.25-2.42,3.46-4.06,5.92-4.3Z"/>
      <path class="cls-1" d="M53.42,108.88c-2,2.05-4.37,3.07-6.99,2.13-2.33-.83-3.34-2.92-3.74-5.67-.5-3.46.98-6.71,4.1-7.97.61,4.8.94,10.25,6.63,11.52Z"/>
      <path class="cls-1" d="M83.59,68.28c-.43,1.22-1.69,1.86-2.72,2.81-2.92,2.73-5.21,5.82-7.56,8.8-.41.07-.71.65-1.19.48-1.64-.58-1.27-2.25-4.16-4.78,4.63-3.82,9.97-6.45,15.64-7.31Z"/>
      <path class="cls-7" d="M134.66,95.22c-1.99.29-4.4,1.2-6.37,0-1.86-1.14-1.17-3.46-.87-5.14,2.3-.81,4.89-.21,6.48,1.57.94,1.06.75,2.46.77,3.57Z"/>
      <path class="cls-4" d="M63.19,37.69c1.22,4.81-3.48,9.83-8.11,9.51-3.26-.23-5.14-3.33-5.33-5.84-.23-3.07,1.54-5.59,4.39-6.88,3.09-1.39,7.99-.97,9.05,3.21Z"/>
      <path class="cls-4" d="M36.01,77.99c-4.07-1.22-6.34-6.08-4.43-9.68,1.36-2.55,4.05-3.35,6.78-3.19,2.14.13,4.81,1.58,5.76,4.07.89,2.36.14,4.83-1.47,6.61-1.42,1.57-3.75,3.05-6.63,2.18Z"/>
      <path class="cls-3" d="M84.06,120.53c-1.94-.92-1.94-3.2-4.78-2.99-1.11.08-1.71,1.38-3.27,2.31-.44-1.69.1-3.14-.03-4.35.95-1.45,2.47-1.94,4.14-2.18,1.8-.25,3.28.2,4.7,1.99,1.16-2.5,2.79-3.55,4.6-3.96,2.38-.55,3.84,1.33,5.28,2.75.92-1.62,2.39-3.02,4.07-3.5,2.36-.67,3.67,1.26,5.23,2.41,2-.57,3.85-3.36,6.57-2.58,1.22.35,2.31,3.06,1.26,3.77-5.7.74-3.76,3.37-8.09,3.57-1.59.07-2.3-1.56-3.66-2.42-1.66-1.04-2.72,4.07-5.09,4.3-2.92.29-3.34-3.85-4.85-3.74-2.58.19-3.11,5.19-6.08,4.62Z"/>
      <path class="cls-3" d="M67.64,91.09l10.1.71c2.28.16,5.04.79,6.63,2.57.05,6.27-11.75,8.02-15.66,10.85-11.53,1.96,3.17-5.67,3.98-6.23-2.42-.53-8.56.93-7.91-.8.2-.52,1.37-.87,1.88-1,1.94-.5,7.47-1.96,10.38-2.31-3.75-.83-6.97-1.62-10.3-1.84-.83-.18-1.56-.88-2.21-1.55,1.06-.72,2.15-.46,3.11-.4Z"/>
      <path class="cls-3" d="M104.97,96.35c3.63,1.05,8.11,1.27,11.38,3.89.72,1.08-1.72,1.43-2.47,1.35-4.68-.53-16.56.41-16.55-6.47,0-1.17,1.23-2.28,2.15-2.88,3.32-2.21,6.49-4.22,9.69-6.61.32-.24.74-.24,1.08-.16,1.76.38-6.11,5.79-6.43,7.56l10.34-1.08c.51-.05,1.05,0,1.25.36s-.14,1.06-.74,1.23l-9.7,2.81Z"/>
      <path class="cls-7" d="M66.67,97.18l.07-4.15c3.33.22,6.55,1.01,10.3,1.84-2.91.35-8.44,1.8-10.38,2.31Z"/>
    </g>
    <g>
      <path class="cls-6" d="M460.33,128.51c5.79,11.72,12.76,24.14,21.21,34.13-.85,7.22-13.15,12.46-18.99,14.38-20.83,6.85-50.55,8.74-71.57,2.79-3.52-1-6.35-2.28-8.95-4.22,7.82-7.17,12.78-16.91,16.23-27.29,4.48-1.65,9.03-.82,13.84-1.32,17.64-1.84,33.92-8.6,48.24-18.47Z"/>
      <path class="cls-3" d="M481.54,162.64c-8.45-9.99-15.42-22.41-21.21-34.13-.95-1.92-1.58-4.04-2.85-6.02-.62-.97-2.23-.69-3.15-.09-16.24,10.79-42.31,17.37-59.06,5.18-.61-.44-1.54-.49-1.87-.1-.3.37-.71.91-.83,1.58-2.48,13.67-6.67,26.69-13.94,38.53-.71,1.16-1.22,2.26-2.22,2.8-1.32-.87,1.95-5.94,1.71-7.86-2.91,1.82-6.05,1.96-8.13.07s-3.14-5.01-1.77-7.66l2.55-4.94-3.78-8.92c-.4-.95-.59-1.76-.19-2.5s.94-.9,1.89-1.25c7.52-2.79,15.26-6.07,21.5-11.21,1.89-1.56,3.09-3.75,6.21-2.01,10.61,5.91,22.82,5.99,34.63,3.11,7.51-1.84,14.19-5.03,20.97-8.51,2.18-1.12,4.6-1.38,7.04-.76l25.99,6.63c1.98.51,4.21,1.49,5.22,3.17,2.34,3.92-4.72,11.18-5.04,15.19-.19,2.34.92,4.37-.62,6.84-1.35,2.16-3.06,4-6.28,3.78l3.83,7.31c.44.83-.03,1.56-.59,1.78ZM486.67,129.98c-1.77-.95-3.22-1.45-4.81-1.9-7.23-2.08-13.83-4.87-21.04-7.92l10.84,21.36c2.45-3.6,6.61-4.46,10.34-2.72l4.67-8.82ZM374.65,149.45c2.17-.86,3.72-.86,5.27.17.86.58,1.57,1.81,2.32,3.49,2.69-7.27,4.91-14.56,6.69-22.73-5.74,4.22-11.09,8.26-18.05,10.3l3.77,8.77ZM476.86,142.42c-1.21.04-2.34.91-2.15,2.46.23,1.82,1.23,3.5,2.81,4.42.91.53,1.83.24,2.63-.25.75-.46,1.01-1.27,1.23-2.59.15-.89,1.01-2.17.03-3.13-1.16-1.14-2.98-1.74-4.56-.91ZM376.07,159.37c1.36-1.11,3.91-4.57,2.07-6.1-2.16-1.8-6,1.08-6.89,3.19-.68,1.62-.21,2.85.86,3.53,1.24.79,2.39.65,3.96-.63Z"/>
      <path class="cls-1" d="M460.33,128.51c-14.32,9.86-30.6,16.63-48.24,18.47-4.81.5-9.36-.33-13.84,1.32-3.45,10.39-8.41,20.12-16.23,27.29-2.18-1.63-5.27-2.38-5.61-5.2,1.01-.53,1.51-1.63,2.22-2.8,7.27-11.84,11.46-24.86,13.94-38.53.12-.66.52-1.21.83-1.58.33-.39,1.26-.34,1.87.1,16.76,12.19,42.82,5.6,59.06-5.18.92-.61,2.53-.89,3.15.09,1.27,1.98,1.9,4.1,2.85,6.02Z"/>
      <path class="cls-3" d="M443.09,114.41c-9.82,11.29-25.35,13.21-37.91,6.26-6.38-3.53-11.14-8.02-14.46-14.48-9.12-17.74-.25-39.02,18.95-44.77,9.72-2.91,19.69-1.6,28.28,4.11,16.57,11.01,18,34.08,5.14,48.88ZM408.01,66.31c-8.37,3.85-15.45,10.17-17.13,20.32-2.02,12.22,3.68,25.29,14.97,31.31,7.35,3.92,20.51,4.11,26.64-1.06,13.48-6.51,19.32-24.39,12.42-37.99s-23.72-18.65-36.91-12.59Z"/>
      <path class="cls-2" d="M479.18,47.39c-.04,2.45-12.63,4.41-15.19,5.22-1.18,4.13-4.5,7.69-9.09,7.9-5.2.23-8.92-3.95-9.03-8.97-.07-3.09,1.12-5.91,3.24-7.59,2.47-1.95,5.7-2.53,8.61-1.33,3.29,1.35,5.53,3.78,6.32,7.52l10.21-2.61c1.66-.43,3.33-.81,4.92-.15ZM452.72,47.25c2.01-.67,2.51,3.16,1.68,4.97,2.51.18,4.57-.86,7.08-1.43-.21-2.51-1.92-4.56-3.74-5.42-2.34-1.1-4.76-1.09-7,.19-2.56,1.45-3.73,4.96-2.62,7.86.92,2.41,3.41,4.81,6.42,4.64,2.67-.15,5.72-1.93,6.43-4.66-2.81-.03-5.97,2.31-8.35.92-1.63-.95-1.63-6.36.1-7.07Z"/>
      <path class="cls-2" d="M400.9,39.18c-1.85,2.31-4.27,3.34-6.93,3.25s-4.74-1.62-6.43-4.1c-2.25-3.3-2.27-7.47.12-10.51s6.6-3.93,10.32-2.35c.87.37,1.6-.1,2.07-.8,1.47-2.2,8.84-13.28,10.75-12.67.27.09.39.77.09,1.21l-9.59,14.29c2.58,3.63,2.54,8.02-.39,11.67ZM391.53,31.27c1.15-.37,2.08.92,3.19.87,1.1-1.17,2.11-2.34,2.63-3.96-3.73-1.79-8.24-.18-9.35,3.57-1.05,3.54,1.14,7.35,5.27,8.04,2.43.41,4.79-.86,6.1-2.69,1.39-1.95,2.09-4.5.46-6.73l-3.39,4.5c-.59.79-1.49,1.09-2.34.78-.79-.29-4.07-3.91-2.57-4.39Z"/>
      <path class="cls-2" d="M357.59,91.39c-3.53-2.08-5.39-5.91-4.6-9.49.86-3.94,4.34-6.26,8.67-6.8l.44-6.2c.1-1.48.34-9.83,2.28-9.45,1.57.3,0,13.49.14,16.07,3.79,1.36,5.68,4.77,5.67,8.67-.01,3.1-1.42,5.84-3.67,7.25-2.8,1.76-5.94,1.72-8.93-.04ZM361.09,85.41c-1.42-.53-2.55-1.46-3.67-2.21.59-1.62,2.03-.3,3.16-.73s1.51-3.59.55-4.35c-3.11.19-6.15,3.26-5.97,6.31s2.42,5.29,4.68,5.8c2.98.67,5.76-.47,7.09-3.11,1.58-3.15,1.05-7-2.41-8.68l-.57,4.58c-.16,1.26-1.28,2.98-2.85,2.39Z"/>
      <path class="cls-5" d="M366.27,124.78c-2.36-2.46-5.28-5.28-5.95-8.6.71-.98,3.03-1.17,3.7-.34l2.54,3.12,6.85-17.4c.77-1.96,3.45-4.23,5.23-2.31,1.51,1.63-1.17,3.86-1.88,5.26-2.49,4.96-3.94,9.96-5.95,15.07-.12.3-.13,5.3-2.07,5.7-.89.19-1.76.25-2.48-.51Z"/>
      <path class="cls-5" d="M367.16,49.34l-4.33-4.58c-.49-.52-.67-1.35-.39-1.89.32-.62,1.3-1.01,2.11-.74l3.38,1.11c.9-2.87,1.69-5.51,2.83-8.15,1.62-3.74,2.42-7.44,3.5-11.4.4-1.46,3.28-1.89,4.11-.91,1.15,1.37-.1,2.67-.48,3.9-.99,3.17-1.8,6.13-3.03,9.21-1.1,2.76-2.32,5.46-2.82,8.51-.38,2.29,0,5.3-2.06,6.77-.88.63-2.18-1.16-2.82-1.84Z"/>
      <path class="cls-2" d="M427.75,35.29c-1.02.95-2.37,1.2-3.41.99-2.22-.46-2.94-3.57-4.91-3.71-2.26-.16-4.79,5.13-7.81,4.41-2.71-.64-4.32-4.13-4.42-6.48,2.18.28,2.66,2.9,4.59,3.49s4.21-4.21,7.56-4c3.17.2,3.94,3.81,5.68,3.79,2.3-.02,4.34-4.62,8.19-5.21,2.36-.36,4.43,1.23,5.78,3.03,2.08,2.76,3.38-.35,7.04-2.65,2.81-1.76,7.07-.11,7.96,3.2-1.45,2.19-4.26-4.37-8.8.56-1.29,1.4-3.39,3.43-5.53,2.8s-4.64-7.04-8.11-3.79l-3.8,3.56Z"/>
      <path class="cls-2" d="M490.38,88.13c-2.61-.12-1.62-5.95-3.15-7.24-2.22-1.87-7.71-.49-9.47-2.54s-.04-5.1-1.07-6.49c-1.56-2.1-6.49.31-9-1.99-1.67-1.53-1.05-4.1-1.34-6.15-.34-2.36-2.96-2.02-5.09-1.69.65-2.8,3.32-3.04,5.06-2.55,4.58,1.29,1.9,5.92,3.06,7.87s6.23-1.17,9.66,2.85c1.33,1.56.86,3.65.8,5.81,2,.86,4.09.8,6.09,1.2,7.22,1.44,3.04,7.58,7.47,9.85-.95,1.26-1.91,1.11-3,1.06Z"/>
      <path class="cls-5" d="M466.22,109.99c-2.15.85-5.24-7.84-5.66-9.53-.29-1.17,1.51-1.35,2.17-1.31,2.11.12,1.8,3.22,3.57,4.3,2.34-2.36,11.9-17.72,15.22-14.11,1.27,1.37-.62,3.69-1.82,4.82-4.7,4.44-8.05,9.56-12,14.57-.43.54-1.01,1.08-1.49,1.27Z"/>
      <path class="cls-5" d="M470.64,40.99c-2.1,1.7-4.97-6.89-5.32-9.36-.15-1.06,1.88-.82,2.58-.85.97-.03,1.21,1.35,2.01,2.6l9.09-14.47c.94-1.5,3.63-2.66,4.81-1.03s-.88,3.4-1.79,4.63c-4.12,5.58-7.36,11.41-10.87,17.33-.24.4-.26.94-.51,1.14Z"/>
      <path class="cls-2" d="M380.19,67.32c-.64,3.67-.99,7.49-4.87,6.92-1.2-.18-2.24-.1-3.26.68-.68.52-.85,1.67-1.46,3.14-1.36-1.55-1.06-3.72-.34-4.94,1.31-2.22,3.48-1.73,5.67-2.24,1.29-.3,1.46-3.23,1.67-4.39,1.12-6.36,6.73-3.03,8.49-4.64,1.15-1.05,1.65-2.81,2.03-4.27.78-2.94,3.24-4.35,6.24-3.46.51.15,1.11.11,1.57-.04,1.39-.46.49-3.46,1.97-3.62,1.3,1.36,1.49,4.05.33,5.62-1.55,2.1-5.09-.19-6.56.77s-1.35,5.83-3.71,7.74-7.08-1.25-7.77,2.72Z"/>
      <path class="cls-1" d="M376.07,159.37c-1.57,1.28-2.72,1.42-3.96.63-1.07-.68-1.53-1.91-.86-3.53.88-2.11,4.73-4.99,6.89-3.19,1.84,1.53-.71,4.99-2.07,6.1Z"/>
      <path class="cls-1" d="M476.86,142.42c1.02,1.76,2.46,3.69,4.53,4.04-.22,1.32-.48,2.13-1.23,2.59-.8.49-1.72.78-2.63.25-1.58-.92-2.59-2.6-2.81-4.42-.19-1.55.94-2.42,2.15-2.46Z"/>
      <path class="cls-7" d="M481.38,146.46c-2.07-.35-3.51-2.28-4.53-4.04,1.58-.83,3.4-.23,4.56.91.98.96.12,2.24-.03,3.13Z"/>
      <path class="cls-7" d="M432.49,116.89c-5.47,2.02-11.06,2.17-16.9,1.09-4.24-.78-7.01-2.38-10.12-5.41-5.86-5.7-10.17-13.42-8.81-21.99,1.42-8.94,7.81-16.8,11.35-24.27,13.19-6.06,29.96-1.11,36.91,12.59s1.06,31.48-12.42,37.99ZM435.87,87.02c1.21-2.99-.3-6.5-2.82-7.92-2.16-1.21-4.99-.83-6.96.85-1.38,1.18-3.06,3.63-2.55,6.06,2.07-2,3.68-3.99,6.37-3.94,2.94.06,4.01,2.56,5.96,4.95ZM408.45,82.94c2.02.37,2.88,2.56,4.8,3.44.97-2.08-.02-4.55-1.43-5.86s-3.71-1.78-5.76-1.06c-3.05,1.06-5.45,4.43-4.79,7.75,2.21-1.98,4.06-4.85,7.17-4.27ZM427.65,109.65c6.14-4.01,9.37-10.54,10.12-17.37-10.61-1.2-24.31,1.7-35.4,3.22-.19,6.38,3.18,12.11,8.84,14.94,4.99,2.5,11.5,2.44,16.44-.79Z"/>
      <path class="cls-1" d="M408.01,66.31c-3.54,7.47-9.93,15.33-11.35,24.27-1.36,8.58,2.95,16.29,8.81,21.99,3.12,3.03,5.88,4.62,10.12,5.41,5.84,1.08,11.42.93,16.9-1.09-6.13,5.17-19.29,4.98-26.64,1.06-11.29-6.02-16.99-19.1-14.97-31.31,1.68-10.15,8.75-16.48,17.13-20.32Z"/>
      <path class="cls-5" d="M452.72,47.25c-1.73.71-1.73,6.12-.1,7.07,2.37,1.39,5.53-.96,8.35-.92-.71,2.73-3.76,4.51-6.43,4.66-3.02.16-5.51-2.23-6.42-4.64-1.1-2.9.06-6.4,2.62-7.86,2.25-1.27,4.66-1.29,7-.19,1.82.86,3.53,2.91,3.74,5.42-2.51.58-4.56,1.61-7.08,1.43.83-1.82.33-5.64-1.68-4.97Z"/>
      <path class="cls-5" d="M391.53,31.27c-1.49.48,1.78,4.1,2.57,4.39.85.31,1.74,0,2.34-.78l3.39-4.5c1.63,2.24.94,4.78-.46,6.73-1.31,1.83-3.67,3.1-6.1,2.69-4.13-.69-6.32-4.5-5.27-8.04,1.11-3.75,5.62-5.35,9.35-3.57-.52,1.62-1.54,2.79-2.63,3.96-1.11.04-2.04-1.24-3.19-.87Z"/>
      <path class="cls-5" d="M361.09,85.41c1.57.59,2.69-1.14,2.85-2.39l.57-4.58c3.46,1.68,3.99,5.53,2.41,8.68-1.32,2.64-4.11,3.78-7.09,3.11-2.26-.51-4.51-2.86-4.68-5.8s2.86-6.12,5.97-6.31c.96.76.63,3.9-.55,4.35s-2.58-.89-3.16.73c1.12.75,2.25,1.67,3.67,2.21Z"/>
      <path class="cls-3" d="M427.65,109.65c-4.93,3.22-11.44,3.28-16.44.79-5.66-2.83-9.03-8.56-8.84-14.94,11.09-1.51,24.78-4.41,35.4-3.22-.76,6.83-3.98,13.36-10.12,17.37ZM424.29,98.93l8.6-1.21c.87-.12,1.45-2.36.77-2.32-3.15.19-5.85.91-8.85.89-.88.7-1.15,1.88-.52,2.64ZM413.01,100.54c1-.85.59-2.87.6-3.95-2.99-.02-5.45-.27-8.25.17,1.07,1.56,1.14,3.9,2.66,4.62,1.37.4,4,0,4.98-.83ZM421.85,99.05c.76-.35.74-2.16.52-2.64l-6.79.13c-.58,1.14-.71,2.41-.37,3.93,2.24-.55,4.57-.47,6.64-1.42ZM413.55,106.43c-.84-.91-.52-2.06-.39-3.52-1.29-.25-2.63-.11-4.22.33,3.7,5.96,11.38,7.7,17.34,3.72,2.53-1.69,4.47-4.03,5.72-6.91l-8.49,1.64c-.84,2.13-.29,4.18-1.77,6.25-1.18-1.98-.05-3.8-.18-5.91-2.21-.06-4.5.17-6.72.56-.53,1.41-.3,2.72-1.28,3.84Z"/>
      <path class="cls-3" d="M435.87,87.02c-1.95-2.38-3.03-4.89-5.96-4.95-2.68-.05-4.3,1.94-6.37,3.94-.51-2.43,1.17-4.88,2.55-6.06,1.97-1.69,4.8-2.07,6.96-.85,2.52,1.41,4.03,4.92,2.82,7.92Z"/>
      <path class="cls-3" d="M408.45,82.94c-3.11-.58-4.96,2.28-7.17,4.27-.66-3.31,1.74-6.69,4.79-7.75,2.04-.71,4.32-.26,5.76,1.06s2.39,3.78,1.43,5.86c-1.92-.88-2.78-3.07-4.8-3.44Z"/>
      <path class="cls-7" d="M413.55,106.43c.98-1.12.75-2.43,1.28-3.84,2.23-.39,4.51-.62,6.72-.56.14,2.11-.99,3.94.18,5.91,1.48-2.08.92-4.12,1.77-6.25l8.49-1.64c-1.26,2.89-3.19,5.22-5.72,6.91-5.95,3.98-13.64,2.24-17.34-3.72,1.6-.45,2.93-.59,4.22-.33-.13,1.47-.45,2.61.39,3.52Z"/>
      <path class="cls-7" d="M413.01,100.54c-.98.83-3.61,1.24-4.98.83-1.52-.71-1.59-3.06-2.66-4.62,2.79-.43,5.26-.19,8.25-.17-.01,1.08.39,3.1-.6,3.95Z"/>
      <path class="cls-7" d="M421.85,99.05c-2.07.95-4.4.87-6.64,1.42-.34-1.53-.21-2.79.37-3.93l6.79-.13c.22.48.24,2.29-.52,2.64Z"/>
      <path class="cls-7" d="M424.29,98.93c-.62-.76-.36-1.94.52-2.64,2.99.02,5.69-.69,8.85-.89.68-.04.1,2.2-.77,2.32l-8.6,1.21Z"/>
    </g>
  </g>
</svg>