<?xml version="1.0" encoding="UTF-8"?>
<svg id="Layer_2" data-name="Layer 2" xmlns="http://www.w3.org/2000/svg" viewBox="0 0 155.75 156.12">
  <defs>
    <style>
      .cls-1 {
        fill: #320a17;
      }

      .cls-2 {
        fill: #f83247;
      }

      .cls-3 {
        fill: #fdcb2a;
      }

      .cls-4 {
        fill: #fd9c20;
      }
    </style>
  </defs>
  <g id="Layer_1-2" data-name="Layer 1">
    <g>
      <path class="cls-2" d="M124.67,37.79c-.6.92-2.3,1.68-2.55,2.87-1.45.43-2.3,1.94-2.98,3.11-4.7,3.68-8.27,8.6-12.92,12.7-.75.66-1.34,1.38-1.42,2.22-2.79,2.24-5.53,4.73-7.63,7.62-3.97,3.03-7.11,6.93-11.18,10.8l24.23,26.57c3.56,3.9,6.78,7.84,10.88,10.67.35,1.69,2.58,2.45,3.56,3.49,2.69,3.28,5.87,6.16,9.1,9.28l13.26,12.82,5.37,7.24c1.8,2.43,3.25,5.66,1.96,8.74-4.22-3.36-7.22-7.05-10.74-10.64-7.26-7.38-14.14-14.97-21.83-21.49-.66-1.48-2.67-2.68-3.71-3.88-5.17-5.95-10.97-11.25-17.01-16.73l-21.52-19.5-8.39,8.11c-2.47,2.39-4.47,5.07-6.75,7.12-8.16,7.33-16.61,14.71-23.94,22.81-1.04,1.1-3.61,1.44-3.65,3.45-1.24.11-2.07,1.26-3.1,2.2l-21.88,19.89c-3.28,2.98-5.98,6.27-9.67,8.81-.8.55-2.67-2.14-2.02-2.84l11.19-12.12,19.24-21.36c.81-.9,1.96-2.13,2.79-2.99l28.72-29.87,9.9-10.2c-2.29-2.2-4.15-4.4-6.52-6.36-4.43-3.67-7.8-8.41-12.27-11.7-4.74-5.54-10.17-10.59-15.36-15.74-.99-.98-1.56-2.02-2.83-2.68-.99-.52-1.35-3.2-3-3.1-1.31-2.29-3.55-4.11-5.47-6.29L3.59,4.87C2.66,3.82.75,2.54,1.39,1.05c.67-1.58,2.19-.14,3.01.46,13.18,9.55,24.77,20.57,37.1,30.76.8,1,2.12,2.54,3.22,3.28.83.56,2.31,1.87,2.95,2.63,1.4,1.7,4.48,4.63,6.3,6.37l17.25,16.57c2.51,2.41,4.56,5.91,7.83,8.24,3.22-2.09,5.54-5.7,8.26-8.26,7.51-7.08,15.21-14.12,22.09-21.76.99-1.09,3.19-1.77,3.63-3.52,1.27-.28,2.1-1.87,2.99-2.69l24.01-22.33c3.31-3.07,6.42-5.66,9.59-8.94,1.23-1.27,4.37-2.94,5.72-.9,1.44,2.19-1.22,4.88-2.69,6.49l-15.69,17.04c-1.76,1.91-3.46,3.62-5.12,5.58-2.35,2.79-5.26,4.83-7.16,7.72Z"/>
      <path class="cls-1" d="M116.02,33.12c-.88.82-1.72,2.41-2.99,2.69-4.72-1.59-9.49-2.82-14.98-3.33,1.25,1.74,2.42,2.91,3.27,4.69l8.08,2.16c-6.88,7.64-14.58,14.68-22.09,21.76-5.37.22-10.73.34-16.09.02l-17.25-16.57c-1.82-1.75-4.89-4.67-6.3-6.37,2.01-1.62,8.6-1.4,8.76-3.32.04-.43.15-1.79-.6-1.76-4,.21-7.54,1.52-11.11,2.44-1.1-.74-2.42-2.28-3.22-3.28,3.68-1.29,7.43-2.12,11.56-3.06l-2.63-3.85c-3.75-5.5,2.23-8.8,1.32-15.1-.31-2.15-2.67-2.67-3.55-4.95,2.62.1,5.72,1.94,6.85,4.44,2.47,5.48-2.95,10.64-2.05,13.02.81,2.15,2.42,3.96,3.95,5.8l13.1-1.21c1.31-7.71,5.33-9.9,5.21-19.24-.02-1.47-1.65-2.37-1.35-4.02,7.03,2.3,4.37,13.04,1.54,17.95-.84,1.45-1.57,2.64-2.15,4.93l17.02.66c-.02-7.71,5.1-8.39,3.01-17.62-.45-1.98-2.85-2.84-2.39-5.19,7.51,4.62,7.67,11.96,3.84,18.7-.69,1.21-1.27,3.11-.51,4.38,7.4,1.24,15.11,2.11,21.75,5.21ZM59.88,35.3l13.68-.89c-.43-.94-1.2-2.47-2.12-3.11-4.03-.07-7.83.54-11.86,1-.13,1.07-.21,2.03.3,3ZM96.01,36.02l-4.01-4.25c-5.6-.74-10.96-.91-16.53-.68.76,1.12,1.75,2.87,2.95,3.28l17.59,1.65Z"/>
      <path class="cls-1" d="M124.66,117.81c-.99-1.04-3.21-1.8-3.56-3.49.81-1.25.71-2.62.71-4.21l.03-20.9,1.82-33.16c.08-1.53.64-2.98.15-4.7-5.9,4.18-12.4,6.36-19.02,7.32.08-.83.67-1.55,1.42-2.22,4.65-4.1,8.22-9.02,12.92-12.7,1.49.31,2.33,1.61,3.26,3.37,1.15-.82,1.61-2.19,1.68-3.15.13-1.74-.71-2.68-1.96-3.33.25-1.19,1.95-1.95,2.55-2.87,3.6,2.42,3.34,12.43,3.49,17.48,3.87-3.2,8-5.21,12.81-5.15,10.65.15,13.23,11.76,12.13,20.72-1.89,15.44-11.01,28.42-24.31,36.25-4.96,5.87-3,3.27-4.13,10.72ZM144.12,80.06c-3.84,7.9-8.63,15.11-16.27,19.97-.7,1.58-2.33,2.17-2.47,4.48,4.45-2.04,7.95-5.3,11.49-8.67,4.98-4.73,8.45-10.17,10.75-16.72s3.95-12.96,1.81-19.71c-1.37-4.34-5.41-6.94-9.79-5.69s-7.57,3.66-10.42,6.86c-1.07,1.2-2.07,2.48-1.62,4.07,2.98-2.55,6.01-4.58,9.75-5.05,4.72-.6,8.06,2.22,8.66,6.81s-.31,9.08-1.9,13.66ZM125.72,97.03c9.08-6.2,14.79-15.28,17.12-25.38.16-2.78.46-5.43-.9-7.88-4.94-2.89-10.08,3.23-14.93,5.45l-1.29,27.81Z"/>
      <path class="cls-1" d="M35,40.18c-.92.66-2.06,1.32-2.71,2.54-.77,1.46.13,3.44,1.31,4.13,1.46-1.7,2.49-3.36,4.23-3.99,5.18,5.15,10.61,10.2,15.36,15.74-7.46-1.22-16.23-3.18-22.11-8.6-.18,4.66-.02,8.85.03,13.34l.17,15.68.23,11.25c.16,7.9.33,15.51-.08,23.39.23,1.28,1.58,2.07,1.93,3.07-.83.86-1.98,2.09-2.79,2.99-1.09-3.44-3.24-2.06-3.34-7.05l-.59-28.54v-20.41c0-6.42-.07-12.65,1.72-18.87-.6-3.31,1.24-6.03,3.65-7.78,1.64-.09,2.01,2.59,3,3.1Z"/>
      <path class="cls-1" d="M121.77,123.76c-4.46,3.14-9.46,5.39-15.22,6.56-19.39,3.95-39.35,3.44-58.62-.98-4.17-.96-7.6-2.51-11.13-4.2.04-2.02,2.61-2.35,3.65-3.45,6.96,3.1,14.56,4.21,22.07,5.22,15.46,2.09,42.17,2.26,55.54-7.03,1.04,1.2,3.05,2.4,3.71,3.88Z"/>
      <path class="cls-3" d="M118.06,119.88c-13.37,9.29-40.09,9.12-55.54,7.03,2.31-10.43-.39-18,1.87-28.03,2.28-2.05,4.28-4.73,6.75-7.12l8.39-8.11,21.52,19.5c6.05,5.48,11.85,10.78,17.01,16.73Z"/>
      <path class="cls-4" d="M53.19,58.6c4.48,3.3,7.85,8.04,12.27,11.7,2.37,1.96,4.22,4.17,6.52,6.36l-9.9,10.2-28.72,29.87c-.35-1-1.7-1.79-1.93-3.07.41-7.87.24-15.49.08-23.39l-.23-11.25-.17-15.68c-.05-4.49-.21-8.68-.03-13.34,5.88,5.42,14.66,7.38,22.11,8.6Z"/>
      <path class="cls-3" d="M123.66,56.05l-1.82,33.16-.03,20.9c0,1.6.09,2.96-.71,4.21-4.11-2.83-7.33-6.76-10.88-10.67l-24.23-26.57c4.07-3.87,7.2-7.77,11.18-10.8,1.37-.16,2.89-1.06,4.39-1.59,8.78-3.1,13.09-2.45,22.11-8.65Z"/>
      <path class="cls-4" d="M64.39,98.88c-2.27,10.03.44,17.6-1.87,28.03-7.5-1.01-15.11-2.12-22.07-5.22,7.32-8.11,15.78-15.49,23.94-22.81Z"/>
      <path class="cls-4" d="M123.66,56.05c-9.02,6.21-13.32,5.56-22.11,8.65-1.5.53-3.02,1.42-4.39,1.59,2.1-2.9,4.84-5.38,7.63-7.62,6.61-.97,13.12-3.15,19.02-7.32.49,1.72-.07,3.18-.15,4.7Z"/>
      <path class="cls-4" d="M87.31,61.09c-2.72,2.56-5.04,6.17-8.26,8.26-3.27-2.34-5.32-5.83-7.83-8.24,5.37.32,10.72.21,16.09-.02Z"/>
      <path class="cls-4" d="M113.03,35.81c-.44,1.76-2.64,2.43-3.63,3.52l-8.08-2.16c-.85-1.78-2.02-2.96-3.27-4.69,5.49.51,10.26,1.74,14.98,3.33Z"/>
      <path class="cls-4" d="M47.67,38.17c-.63-.77-2.12-2.08-2.95-2.63,3.57-.93,7.12-2.23,11.11-2.44.74-.04.63,1.33.6,1.76-.16,1.92-6.76,1.7-8.76,3.32Z"/>
      <path class="cls-4" d="M37.84,42.86c-1.74.63-2.77,2.29-4.23,3.99-1.18-.69-2.08-2.67-1.31-4.13.64-1.21,1.79-1.88,2.71-2.54,1.27.66,1.85,1.7,2.83,2.68Z"/>
      <path class="cls-4" d="M122.12,40.65c1.24.64,2.08,1.58,1.96,3.33-.07.96-.53,2.33-1.68,3.15-.93-1.77-1.77-3.07-3.26-3.37.68-1.16,1.53-2.68,2.98-3.11Z"/>
      <path class="cls-4" d="M96.01,36.02l-17.59-1.65c-1.2-.41-2.2-2.16-2.95-3.28,5.58-.23,10.93-.06,16.53.68l4.01,4.25Z"/>
      <path class="cls-4" d="M59.88,35.3c-.51-.97-.43-1.93-.3-3,4.03-.46,7.83-1.07,11.86-1,.92.64,1.69,2.17,2.12,3.11l-13.68.89Z"/>
      <path class="cls-3" d="M147.62,79.12c-1.24.03-2.3,1.48-3.5.94,1.59-4.58,2.49-9.04,1.9-13.66s-3.93-7.41-8.66-6.81c-3.74.48-6.77,2.5-9.75,5.05-.45-1.59.55-2.87,1.62-4.07,2.85-3.2,6.21-5.66,10.42-6.86s8.41,1.35,9.79,5.69c2.13,6.75.4,13.4-1.81,19.71Z"/>
      <path class="cls-4" d="M144.12,80.06c1.19.54,2.26-.91,3.5-.94-2.3,6.55-5.76,11.99-10.75,16.72-3.55,3.37-7.04,6.63-11.49,8.67.14-2.31,1.77-2.9,2.47-4.48,7.65-4.86,12.44-12.07,16.27-19.97Z"/>
    </g>
  </g>
</svg>