<?xml version="1.0" encoding="UTF-8"?>
<svg id="Layer_2" data-name="Layer 2" xmlns="http://www.w3.org/2000/svg" viewBox="0 0 174.81 147.92">
  <defs>
    <style>
      .cls-1 {
        fill: #320a17;
      }

      .cls-2 {
        fill: #fdc6cf;
      }

      .cls-3 {
        fill: #2d091d;
      }

      .cls-4 {
        fill: #f83247;
      }

      .cls-5 {
        fill: #8ca7fc;
      }

      .cls-6 {
        fill: #310a1b;
      }

      .cls-7 {
        fill: #fdcb2a;
      }

      .cls-8 {
        fill: #682df3;
      }

      .cls-9 {
        fill: #fd9c20;
      }

      .cls-10 {
        fill: #fdfdfd;
      }
    </style>
  </defs>
  <g id="Layer_1-2" data-name="Layer 1">
    <g>
      <path class="cls-1" d="M98.32,145.54c-33.96.12-53.9,4.14-89.74,1.47-2.47-.18-4.5-.05-6.75-1.29.01-4.59-1.22-8.92-.98-13.42.52-9.81.5-19.22.12-29.07L.09,80.83,0,62.9c-.02-4.6.52-10.02,3.57-13.68,7.93-9.53,26.79-19.56,37.93-25.71L80.22,2.17c9.11-5.02,11.08-.1,15.69,2.59l30.89,18.02c14.12,8.23,28.08,16.04,41.59,25.16,3.9,2.64,5.23,5.68,5.36,10.48.42,15.99,1.26,31.79,1.02,47.83l-.2,13.23-.25,20.46c-.07,5.92-10.59,5.37-15.57,5.39l-60.43.21ZM95.61,52.53l12.97.22c18.25.31,36.11.05,54.93-1.44l-23.65-15.13-25.88-16.48-13.63-8.72c-3.5-2.24-6.86-4.3-10.19-6.76-2.01-1.49-4.47-1.73-6.68-.5l-38.57,21.47c-13.27,7.39-25.91,15.16-37.02,26.18l29.72-.15,15.23.24,42.77,1.08ZM126.32,66.32c4.92-.05,14.95-1.23,15.71,6.42.79,7.92,1.43,15.88.02,23.8-3.67,8.45-8.72,14.68-13.27,22.27-1.04,1.73-2.95,2.18-4.71,2.07l-11.58-.75c-5.23,6.14-12.45,9.6-20.67,11.01,2.36,4.09,4.31,7.77,7.56,10.77l50.09-.16,13.11-.28c2.84-.06,5.69-.17,8.18-1.57l.21-18.25.26-12.84c.37-18.28-.34-36.22-1.28-54.61-19.89,1.7-38.82,2.15-58.35,1.71l-44.41-1.01c-18.04-.47-35.52-.92-53.54-.06-3.12.15-6.88.05-9.19,2.06-1.95,1.7-1.19,5.21-1.32,7.55-.53,9.24.37,17.87.74,27.06l1.17,29.08-.52,20.4c-.02.85.31,2.45,1.49,2.5l21.4,1c3.55-10.4,6.61-20.65,9.57-31.21,2.21-7.88,9.45-2.39,18.46-2.24,14.16.23,12.87-11.2,21.5-3.14,3.44-.48,7.57-2.55,11.49-1.94l4.37-6.38-.81-24.35c-.13-3.81,1.59-6.66,5.43-7.55,3.57-.83,7.28-1.15,11.07-1.19l17.83-.17ZM132.52,99.16c1.8-.32,5.29-1.07,5.73-3.28,1.46-7.26.97-14.66.68-22.01-.07-1.85-1.23-3.18-3.1-3.44-4.3-.6-8.6-.08-13.02.04-5.9.17-23.8-.73-26.96,2.77.35,7.74-.49,15.18-.83,22.9-.12,2.78,3.94,3.74,6.07,3.81,6.25.22,26.13.14,31.43-.8ZM112.56,111.42c-.47-1.97-.33-2.89.54-3.86,1.36-1.52,5.45-1.87,7.09.63.83,1.27.24,2.81-.44,4.25-.74,1.57-1.84,1.96-3.44,1.69-.74.52-1.18,1.95-1.33,2.69l8.87.37c1.17.05,2.26-.44,2.86-1.41,2.55-4.15,5.25-7.92,7.56-12.59-11.67.62-22.62.87-33.93.62-1.75-.04-3.35-.88-4.87-.79-1,.5-1.58,2.28-1.95,3.01,1.97,1.01,3.22.63,4.89,0s4.47-.35,5.15,1.69c.73,2.18-.7,5.7-2.78,6.58-2.33.99-3.82-1.45-5.27-2.54-1.36-1.02-4.11-1.87-5.76-1.26-2.34.87-3.97,3.08-5.27,5.28,8.41.48,15.96.82,24.13.85,2.19,0,4.42-3.17,3.94-5.2ZM33.43,144.33c4.19.32,8.37.1,12.88-.14l33.62-1.79,14.32-.34-6.9-10.54c-2.21-.06-11.37-.31-11.64-3.86,3.31.2,6.05.42,9.16-.32l-9.86-16.17c-.45-.73-.89-1.21-1.68-1.72-.37-.24-.36-1.08-.93-1.1-3.42-.1-3.6,4.22-13.08,5.35-10.19,1.21-18.82-5.07-19.81-.45l-3.8,17.76c-.98,4.59-2.33,8.83-4.63,13.16.62.36,1.31.2,2.34.15ZM81.71,115.54c.97-2,2.26-3.44,3.62-5.54-2.28-.4-4.45-.82-7.12-.01l3.5,5.55ZM105.61,120.12l-17.71-1.34-4.3-.55,5.51,8.68c6.05-.93,11.79-2.94,16.5-6.78Z"/>
      <path class="cls-7" d="M126.32,66.32l-17.83.17c-3.79.04-7.5.36-11.07,1.19-3.84.89-5.56,3.74-5.43,7.55l.81,24.35-4.37,6.38c-3.92-.61-8.04,1.46-11.49,1.94-8.63-8.06-7.34,3.37-21.5,3.14-9.02-.15-16.25-5.64-18.46,2.24-2.97,10.56-6.02,20.81-9.57,31.21l-21.4-1c-1.18-.06-1.51-1.66-1.49-2.5l.52-20.4-1.17-29.08c-.37-9.18-1.27-17.81-.74-27.06.13-2.34-.63-5.85,1.32-7.55,2.31-2.01,6.07-1.91,9.19-2.06,18.02-.85,35.49-.41,53.54.06l44.41,1.01c19.53.44,38.46,0,58.35-1.71.94,18.39,1.65,36.33,1.28,54.61l-.26,12.84-.21,18.25c-2.49,1.4-5.34,1.51-8.18,1.57l-13.11.28-50.09.16c-3.25-3-5.2-6.69-7.56-10.77,8.22-1.41,15.44-4.87,20.67-11.01l11.58.75c1.77.11,3.67-.34,4.71-2.07,4.56-7.59,9.61-13.82,13.27-22.27,1.41-7.92.77-15.88-.02-23.8-.76-7.65-10.79-6.47-15.71-6.42ZM53.68,107.14c9.48.77,16.92-5.69,18.65-14.56,1.17-6.02-.38-12.12-4.47-16.32s-10-6.05-15.89-5.07c-11.16,1.85-17.22,12.04-14.21,23.01,1.91,6.93,8.16,12.32,15.91,12.95Z"/>
      <path class="cls-9" d="M95.61,52.53l-42.77-1.08-15.23-.24-29.72.15c11.11-11.01,23.75-18.79,37.02-26.18L83.47,3.71c2.21-1.23,4.67-.99,6.68.5,3.32,2.46,6.69,4.52,10.19,6.76l13.63,8.72,25.88,16.48,23.65,15.13c-18.82,1.49-36.68,1.76-54.93,1.44l-12.97-.22Z"/>
      <path class="cls-10" d="M33.43,144.33c6.8-6.4,9.96-14.67,11.91-24.35,10.18.95,24.57.8,28-10.53.79.5,1.23.99,1.68,1.72l9.86,16.17c-3.1.75-5.85.53-9.16.32.26,3.55,9.43,3.8,11.64,3.86l6.9,10.54-14.32.34-33.62,1.79c-4.51.24-8.69.46-12.88.14Z"/>
      <path class="cls-8" d="M132.52,99.16c-5.3.94-25.18,1.02-31.43.8-2.12-.07-6.19-1.04-6.07-3.81.34-7.73,1.18-15.17.83-22.9,3.16-3.5,21.06-2.6,26.96-2.77,4.42-.13,8.72-.64,13.02-.04,1.87.26,3.03,1.6,3.1,3.44.29,7.34.78,14.75-.68,22.01-.44,2.21-3.93,2.96-5.73,3.28ZM123.63,96.84c3.79-.14,7.34-.23,10.72-1.43,1.81-.64,2.23-2.88,1.99-4.58-.99-6.98,1.83-17.89-6.39-17.71l-15.45.33c-4.06.09-15.85.03-15.79,5.81l.16,14.25c.03,2.77,3.05,4.15,5.55,4.06l19.22-.73Z"/>
      <path class="cls-4" d="M112.56,111.42c.48,2.02-1.75,5.21-3.94,5.2-8.17-.03-15.72-.37-24.13-.85,1.3-2.2,2.94-4.42,5.27-5.28,1.65-.61,4.4.24,5.76,1.26,1.46,1.09,2.94,3.53,5.27,2.54,2.07-.88,3.5-4.4,2.78-6.58-.68-2.04-3.42-2.34-5.15-1.69s-2.92,1.02-4.89,0c.37-.73.95-2.51,1.95-3.01,1.52-.09,3.12.75,4.87.79,11.32.25,22.26,0,33.93-.62-2.31,4.67-5.01,8.44-7.56,12.59-.6.97-1.69,1.46-2.86,1.41l-8.87-.37c.15-.74.59-2.18,1.33-2.69,1.6.27,2.69-.11,3.44-1.69.68-1.44,1.27-2.98.44-4.25-1.63-2.49-5.73-2.15-7.09-.63-.87.97-1.01,1.89-.54,3.86Z"/>
      <path class="cls-2" d="M73.33,109.44c-3.44,11.33-17.83,11.48-28,10.53-1.94,9.68-5.11,17.96-11.91,24.35-1.04.05-1.72.21-2.34-.15,2.3-4.33,3.64-8.57,4.63-13.16l3.8-17.76c.99-4.62,9.62,1.67,19.81.45,9.48-1.13,9.67-5.46,13.08-5.35.56.02.55.86.93,1.1Z"/>
      <path class="cls-7" d="M105.61,120.12c-4.71,3.84-10.45,5.85-16.5,6.78l-5.51-8.68,4.3.55,17.71,1.34Z"/>
      <path class="cls-7" d="M81.71,115.54l-3.5-5.55c2.66-.81,4.83-.39,7.12.01-1.36,2.1-2.65,3.54-3.62,5.54Z"/>
      <path class="cls-1" d="M53.68,107.14c-7.75-.63-14.01-6.01-15.91-12.95-3.02-10.97,3.05-21.16,14.21-23.01,5.89-.97,11.78.86,15.89,5.07s5.64,10.3,4.47,16.32c-1.73,8.87-9.17,15.33-18.65,14.56ZM68.27,95.61c2.57-4.41,2.53-10.12-.17-14.76-2.53-4.34-7.46-7.17-13.12-7.14-7.65.04-15.15,5.52-15.81,13.7-.46,5.59,2.81,11.04,7.13,14.1,7.76,5.51,17.92,2.5,21.97-5.9Z"/>
      <path class="cls-3" d="M123.63,96.84l-19.22.73c-2.5.1-5.52-1.29-5.55-4.06l-.16-14.25c-.07-5.78,11.73-5.72,15.79-5.81l15.45-.33c8.22-.18,5.4,10.73,6.39,17.71.24,1.71-.17,3.94-1.99,4.58-3.37,1.19-6.92,1.28-10.72,1.43ZM131.77,93.27c1.84-.21,1.82-1.51,1.82-2.79v-11.74c.01-2.08-1.44-3.59-3.69-3.48l-19.36.98c-3.22.16-6.24.92-8.96,2.6l-1.38,12.14c-.26,2.3,1.58,3.69,3.69,3.71,9.33.11,18.44-.32,27.86-1.41Z"/>
      <path class="cls-10" d="M68.27,95.61c-.86.13-1.46.75-2.34,1.37-4.57,3.21-10.56,4.69-15.89,2.42-4.22-1.8-6.43-6.37-6.12-10.98.32-4.62,2.04-10.32,5.94-12.22l5.13-2.5c5.67-.03,10.6,2.8,13.12,7.14,2.7,4.64,2.74,10.35.17,14.76ZM58.52,89.87c1.97.56,2.39-1.84,2.47-3.18.07-1.04-1.45-2.49-3.02-1.84-1.36.57-1.04,4.57.54,5.02ZM67.58,85.12c-.82-.85-2.7-1.18-3.28-.04s.09,3.89,1.46,4.08c1.85.26,2.95-2.87,1.83-4.04Z"/>
      <path class="cls-2" d="M54.98,73.71l-5.13,2.5c-3.9,1.9-5.62,7.6-5.94,12.22-.31,4.61,1.9,9.18,6.12,10.98,5.34,2.28,11.32.79,15.89-2.42.88-.62,1.48-1.24,2.34-1.37-4.05,8.4-14.21,11.41-21.97,5.9-4.32-3.06-7.59-8.51-7.13-14.1.67-8.18,8.17-13.66,15.81-13.7Z"/>
      <path class="cls-5" d="M131.77,93.27c-9.43,1.1-18.53,1.52-27.86,1.41-2.12-.02-3.95-1.42-3.69-3.71l1.38-12.14c2.72-1.67,5.74-2.43,8.96-2.6l19.36-.98c2.24-.11,3.7,1.39,3.7,3.48v11.74c-.01,1.29,0,2.58-1.84,2.79Z"/>
      <path class="cls-6" d="M58.52,89.87c-1.58-.45-1.9-4.45-.54-5.02,1.57-.65,3.08.8,3.02,1.84-.09,1.35-.5,3.74-2.47,3.18Z"/>
      <path class="cls-6" d="M67.58,85.12c1.12,1.17.02,4.3-1.83,4.04-1.37-.19-2.03-2.98-1.46-4.08s2.46-.81,3.28.04Z"/>
    </g>
  </g>
</svg>