<?xml version="1.0" encoding="UTF-8"?>
<svg id="Layer_2" data-name="Layer 2" xmlns="http://www.w3.org/2000/svg" viewBox="0 0 160.32 178.39">
  <defs>
    <style>
      .cls-1 {
        fill: #fdc6cf;
      }

      .cls-2 {
        fill: #2d091d;
      }

      .cls-3 {
        fill: #310a1b;
      }

      .cls-4 {
        fill: #fdfdfd;
      }
    </style>
  </defs>
  <g id="Layer_1-2" data-name="Layer 1">
    <g>
      <path class="cls-2" d="M84.96,3.63c-7.25-.14-14,1.45-20.52,4.07l-24.45,9.83c-10.93,4.39-20.46,11.01-28.08,19.98-.61.72-.34,2-.86,2.74-3.59,5.06-5.79,10.61-6.54,16.87-1.21,10.09-1.45,20.02-.88,30.15l.99,17.56c.49,8.76,4.64,16.21,10.43,22.59,3.73,4.11,7.98,7.19,13.46,8.7,8.09,2.23,15.63,5.37,22.88,9.67,4.7,2.79,9.44,4.79,15.02,4.97,4.36.14,8.88.76,13.3-.02,8.86-1.57,17.41-4.26,25.57-8.06,9.19-4.28,15.55-11.43,23.52-18.5-4.39,10.5-13.16,18.83-23.12,23.7-8.03,3.93-16.55,5.95-25.18,7.64-3.38.66-6.51.1-9.74.1-7.25,0-13.78-1.64-19.93-5.41-20.89-12.81-29.41-6.88-41.91-24.17-5.01-6.92-7.8-14.41-8.14-23.05l-.47-12.19c-.44-11.48-.56-22.7.94-34.08.91-6.94,3.28-13.09,7.15-18.79.59-.87.22-2.2.97-3.06,8.05-9.21,17.98-15.91,29.34-20.49l23.62-9.53c5.84-2.36,11.64-3.77,17.86-4.58,21.08-2.73,29.12,17.68,48,28.42,6.44,3.66,12.68,7.04,18.57,11.49,5.15,3.89,9.02,8.78,10.94,15.02,2.84,9.22,3.28,18.74,1.78,28.32-1.06,6.77-1.43,13.06-1.57,19.92-.38,18.86-9.24,32.53-25.24,42l-36.14,21.37c-8.17,4.83-16.71,8.54-25.79,10.92-5.14,1.35-10.01.7-14.41-1.84-10.16-5.88-15.69-12.34-28.38-17.35,4.65-2.51,9.59-.21,13.37,2.47l14.29,10.1c4.81,3.4,10.08,4.2,15.81,2.51,9.6-2.83,18.41-7.1,27.08-12.22l27.91-16.46c16.02-9.44,27.53-20.81,27.89-40.63.13-7.25.54-14.09,1.66-21.33,1.3-8.39,1.07-16.72-1-24.82-1.49-5.83-4.64-10.31-9.32-13.92-15.25-11.76-20.4-9.66-37.49-26.79-6.4-6.42-13.57-13.63-23.21-13.81Z"/>
      <path class="cls-3" d="M73.95,137.65c-11.67-.45-22.17-4.6-30.75-12.49-9.64-8.86-15.99-21.28-17.03-34.45-2.07-26.34,16.29-48.88,41.94-53.55,31.49-5.73,61.1,19.22,59.99,51.45-.72,20.89-14.35,38.61-33.66,46.02-6.8,2.61-12.85,3.31-20.5,3.01ZM53.94,46.34c-14.09,7.45-23.56,21.8-24.1,38.28,1.68.86,3.5.24,5.38.8-.46,2.75-2.54,4.23-5.22,4.82,2.32,23.6,20.99,42.56,45.07,44.51.35-2.06-.38-5.86,1.72-6.61,2.42.3,2.43,4,2.16,6.33,24.32-.75,40.74-18.37,44.19-41.86.14-.93.61-2.99-.05-3.73-1.79-1.05-3.88-1.47-4.5-3.68,1.61-.68,3-.55,4.91-.57,0-24.75-20.22-43.16-44.19-44.28,0,2.74-.28,4.85-2.1,6.72-2.15-1.47-2.24-3.89-2.31-6.69-7.3.21-14.43,2.27-20.96,5.97Z"/>
      <path class="cls-2" d="M130.51,119.94c3.23-7.39,5.87-14.45,7.83-22.03,1.98-7.67,1.86-15.12.78-22.89-.83-5.97-3.1-11.06-4.65-17.34,7.31,8.54,10.07,19.94,9.7,30.94-.4,11.91-5.16,22.94-11.57,32.53-.29.43-1.22.3-1.46.44-.32.19-1-.82-.63-1.65Z"/>
      <path class="cls-2" d="M131.18,53.19c.41.66-.1,1.54-.07,1.87.04.44-1.05.62-1.64.22-6.44-4.31-12.47-8.78-18.55-13.56-3.48-2.74-7.26-4.54-10.79-7.96,10.09.88,25.67,10.8,31.05,19.42Z"/>
      <path class="cls-2" d="M77.88,27.56c-4.49-1.43-8.48-2.8-13.03-3.03-.65-.03-1.4-.46-1.46-1.28,10.48-1.72,21.43-.42,30.95,4.52.82.42,1.2.97,1.36,1.44s-.18,2.02-1.06,1.87c-5.61-.94-11.16-1.73-16.76-3.52Z"/>
      <path class="cls-2" d="M26.14,158.52c1.4,1.6,5.74,11.03,3.96,11.66-.21.07-.81.09-1.05-.23l-7.48-10.16c-.62-.84-.88-1.89-.66-2.95.61-2.98,8.1-4.6,10.86-5.61.71-.26,2.02-1.15,2.52-.4-1.08,4.69-6.05,5.03-8.16,7.68Z"/>
      <path class="cls-2" d="M44.39,32.29c-1.38.3-2.69,1.65-3.87.12,4.89-3.9,10.24-6.42,16.03-8.78.86,2.02-.88,3.11-2.27,4.07-3.05,2.12-5.98,3.74-9.89,4.58Z"/>
      <path class="cls-2" d="M35.14,36.76c1.45,2.53-5.27,12.24-9.27,9.68,2.35-4.19,5.71-7.11,9.27-9.68Z"/>
      <path class="cls-2" d="M15.89,79.12c-2.17-.91-.18-11.22,1.33-12.23,1.95-.71,1.72,10.29-1.33,12.23Z"/>
      <path class="cls-2" d="M19.91,61.95c-.23.52-.87.47-.99.62-2.04,2.64.39-9.61,2.29-10.32.84,3.4.03,6.7-1.31,9.7Z"/>
      <path class="cls-2" d="M13.82,84.59c1.54-1.17,3.31,7.98,1.04,9.42-2.48-2.51-2.31-6.28-1.04-9.42Z"/>
      <path class="cls-2" d="M16.46,99.53c2.67,1.54,4.17,9.21,2.52,8.39-1.86-.92-3.24-6.65-2.52-8.39Z"/>
      <path class="cls-2" d="M25.16,119.57c-2.62-.94-3.31-3.88-3.31-6.29,1.69-.18,2.5,1.17,3.18,1.93,1.04,1.18.91,2.78.13,4.36Z"/>
      <path class="cls-2" d="M33.69,126.07c.46.6.12,2.87-.8,2.79-1.97-.17-3.13-2.7-3.3-4.58,1.6-.3,3.14.54,4.1,1.79Z"/>
      <path class="cls-4" d="M123.14,92.61l-11.1,8.72c-5.89,4.63-12.41,8.78-19.85,10.62-6.68,1.66-21.74-.62-21.45-2.98.04-.29.06-1.03-.2-1.25-1.53-.18-2.96.65-4.65-.41,7.4-7.91,7.88-7.45,12.83-16.87.89-1.7,3.39-3.4,2.25-5.7-.51-1.03-1.46-1.75-1.14-3.35.84-4.2.41-8.43.24-12.68l-.52-13.01c1.08.05,2.51.93,2.74.18.92-2.98-4.28-6.23-5.17-6.18-2.57.15-6.04,5.94-3.9,6.96.79.38,1.37-.54,2.18-1.24.56,1.36.61,2.91.58,4.65-.12,7.73.23,15.63.9,23.2-1.25.75-1.88,1.61-2.31,2.27-.66.99.96,2.86.59,3.63-2.43,4.91-6.23,8.85-9.09,13.31-1.01-.75-1.68-1.24-2.41-.77-.61.39-.88,1.41-1.1,2.14-7.95-6.91-12.92-17.54-12.98-28.48-.06-10.13,2.1-19.61,4.42-29.04,6.53-3.7,13.66-5.76,20.96-5.97.07,2.8.16,5.22,2.31,6.69,1.82-1.87,2.1-3.98,2.1-6.72,23.97,1.12,44.2,19.53,44.19,44.28-1.91.03-3.3-.11-4.91.57.61,2.21,2.7,2.63,4.5,3.68.67.74.19,2.8.05,3.73Z"/>
      <path class="cls-1" d="M62.51,103.86c-.71,2.3-.81,5.23,1.76,6.44,2.31,1.09,4.62-.13,6.47-1.31-.3,2.36,14.76,4.63,21.45,2.98,7.44-1.84,13.96-5.99,19.85-10.62l11.1-8.72c-3.45,23.5-19.87,41.11-44.19,41.86.27-2.34.26-6.03-2.16-6.33-2.1.75-1.37,4.55-1.72,6.61-24.09-1.94-42.75-20.91-45.07-44.51,2.68-.59,4.76-2.07,5.22-4.82-1.87-.56-3.7.05-5.38-.8.54-16.48,10.01-30.83,24.1-38.28-2.32,9.42-4.48,18.9-4.42,29.04.07,10.94,5.03,21.57,12.98,28.48Z"/>
      <path class="cls-3" d="M70.74,108.98c-1.85,1.19-4.16,2.4-6.47,1.31-2.57-1.21-2.47-4.14-1.76-6.44.23-.73.49-1.75,1.1-2.14.74-.47,1.41.03,2.41.77,2.86-4.46,6.67-8.4,9.09-13.31.38-.76-1.25-2.64-.59-3.63.44-.66,1.06-1.52,2.31-2.27-.67-7.58-1.02-15.47-.9-23.2.03-1.74-.02-3.29-.58-4.65-.8.7-1.38,1.62-2.18,1.24-2.13-1.02,1.33-6.81,3.9-6.96.9-.05,6.09,3.19,5.17,6.18-.23.75-1.66-.13-2.74-.18l.52,13.01c.17,4.25.6,8.47-.24,12.68-.32,1.6.63,2.32,1.14,3.35,1.15,2.3-1.35,4-2.25,5.7-4.94,9.42-5.43,8.96-12.83,16.87,1.69,1.06,3.12.22,4.65.41.27.22.24.96.2,1.25Z"/>
    </g>
  </g>
</svg>