<?xml version="1.0" encoding="UTF-8"?>
<svg id="Layer_2" data-name="Layer 2" xmlns="http://www.w3.org/2000/svg" viewBox="0 0 239.67 171.73">
  <defs>
    <style>
      .cls-1 {
        fill: #320a17;
      }

      .cls-2 {
        fill: #fdc6cf;
      }

      .cls-3 {
        fill: #2d091d;
      }

      .cls-4 {
        fill: #f83247;
      }

      .cls-5 {
        fill: #8ca7fc;
      }

      .cls-6 {
        fill: #310a1b;
      }

      .cls-7 {
        fill: #682df3;
      }

      .cls-8 {
        fill: #fefefe;
      }

      .cls-9 {
        fill: #fdfdfd;
      }
    </style>
  </defs>
  <g id="Layer_1-2" data-name="Layer 1">
    <g>
      <path class="cls-8" d="M133.02,158.3c-3.29,5.37-22.06,8.92-28.12,9.86-23.6,3.66-47.23,4.45-71.03,2.64-8.91-.68-25.14-2.71-32.1-7.51.23-.4.21-.98.47-1.36,5.62-8.34,8.74-18.15,12.11-27.85.93-2.67,2.39-5.26,4.79-6.75s5.59-1.23,8.38-.38c16.66,5.13,33.9,5.38,50.76.83,12.72-3.43,30.05-9.91,37.56-21.2.32-.47.88-.64,1.22-.78l6.6,24.09,7.82,25.25c.37,1.2,1.65,2,1.54,3.15Z"/>
      <path class="cls-6" d="M133.02,158.3c.11-1.16-1.16-1.95-1.54-3.15l-7.82-25.25-6.6-24.09c-.44-1.61.09-3.73-1.28-5.57-7.86,6.6-11.14,10.62-21.94,13.42-9.29,2.41-18.48,3.76-28.08,3.14-16.08-1.04-28.34-2.12-40.83-13.18l-10.6-9.39c-.45-.4-1.09-.76-1.53-.67-2.19.47-5.75,39.34-6.18,44.15-.75,8.42-2.55,16.27-4.38,24.22-.26.39-.24.96-.47,1.36-1.51-.61-1.9-2.43-1.75-3.97l2.52-27.03c1.22-13.06,3.91-25.57,6.8-38.25.34-1.47,1.19-2.92,2.14-3.24,1.36-.45,2.95-.07,4.1.83l11.97,9.41c4.87,3.83,10.28,6.82,16.53,8.04,11.11,2.16,22.3,3.07,33.56,2.24,5.97-.44,11.53-1.63,17.19-3.2,13.26-3.68,16.7-13.92,22.2-12.61,3.73.89,3.26,6.62,5.21,9.96,1.73-1.19,2.38-3.27,3.7-4.53,2.33-2.23,1.7-4.73,1.26-7.48-.89-5.54-.23-11.12-.43-16.73l-.21-6.16c-.28-8.04-2.69-42.51-.22-48.53.42-1.03,2.53-1.51,3.65-1.55l15.49-.45,20.92-.48c4.68-.11,9.18-.45,13.94-.41,10.34.09,20.38.15,30.65.39l20.98.48c1.81.04,4.56.51,5.27,2.26,1.96,4.8,1.63,9.87,1.94,14.96.64,10.52.56,20.72.16,31.32l-1.04,26.94.04,4.62c-2.03,5.04-4.57,9.54-7.39,14.12-4.22,6.85-7.94,13.64-11.52,20.94l-35.53,1.95c-14.44.79-28.43,1.05-42.83-.05-3.25-.25-6.26.04-9.56.11l4.49,13.89c.74,2.29-.1,8.19-3,7.23ZM167.56,97.9l19.73-.47,46.01-1.35c1.64-.05,2.52-1.03,2.55-2.53l.34-16.66c.31-15.35.53-30.4,0-45.73-.09-2.65-.27-5.21-1.19-7.53-.47-.46-1.88-.52-2.63-.52l-23.28-.16-32.84-.6-32.64.44c-5.16.07-10.15.41-15.24.74l-.26,12.84c-.3,14.91,1.5,23.71,1.69,34.18l.34,18.25c.04,2.12.49,6.32,2.79,7.19,6.74,2.55,26.37,2.11,34.64,1.91ZM130.25,132.94c4.56.02,8-.59,11.83-.03,12.03,1.75,23.76,2.48,35.91,1.71l39.34-2.48c4.22-12.57,12.18-21.05,17.29-33l-34.61.83-38.03,1.15c-8.9.27-17.2.13-26.06-1.05-1.45-.19-4.3.33-5.02,1.58-2.03,3.56-4.26,6.42-7.37,9.21l6.72,22.09Z"/>
      <path class="cls-6" d="M62.23,99.53l-11.74-1.78c-21.87-3.32-39.32-21.61-41.22-43.97-1.16-13.65,4.24-26.89,13.57-36.65,21.34-22.33,58.71-23.14,80.31-.55,12.15,12.7,15.61,30.32,10.19,46.84-6.72,20.49-24.81,34.59-46.5,35.4-1.31.05-3.18.94-4.61.72ZM41.66,7.74c-8.82,3.13-16.43,9.7-21.87,17.62-14.25,20.71-6.24,47.51,13.34,61.38,6.25,4.43,13.01,6.9,20.38,8.74,3.5.88,6.88.63,10.2.42,18.35-1.12,34.22-11.28,43.2-26.82,10.89-18.84,6.16-43.11-12.24-56.35C79.44,1.77,58.95-.24,41.66,7.74Z"/>
      <path class="cls-2" d="M117.07,105.8c-.34.14-.91.31-1.22.78-7.52,11.28-24.85,17.76-37.56,21.2-16.85,4.55-34.1,4.3-50.76-.83-2.78-.86-5.97-1.12-8.38.38s-3.86,4.08-4.79,6.75c-3.37,9.71-6.49,19.51-12.11,27.85,1.83-7.95,3.63-15.8,4.38-24.22.43-4.82,3.99-43.69,6.18-44.15.44-.09,1.08.27,1.53.67l10.6,9.39c12.48,11.06,24.75,12.14,40.83,13.18,9.6.62,18.79-.73,28.08-3.14,10.8-2.8,14.08-6.82,21.94-13.42,1.37,1.85.84,3.97,1.28,5.57Z"/>
      <path class="cls-4" d="M130.25,132.94l-6.72-22.09c3.11-2.79,5.34-5.65,7.37-9.21.72-1.25,3.57-1.77,5.02-1.58,8.86,1.18,17.16,1.32,26.06,1.05l38.03-1.15,34.61-.83c-5.11,11.95-13.08,20.43-17.29,33l-39.34,2.48c-12.14.77-23.88.04-35.91-1.71-3.83-.56-7.27.06-11.83.03ZM214.47,115.26c3.58-4.23,6.84-8.22,9.21-13.34-3.6,4-6.79,8.47-9.21,13.34ZM147.13,126.9c-1.13,1.95-2.09,2.38-2.13,3.91,1.59-1.17,2.09-2.65,3.37-3.98l16.07.99c.36.97-.48,1.33-.59,2.31l2.37-2.27,22.93.04c.13,1.2-1.19,1.44-.41,2.43.81-1.32,1.5-2.53,3.28-2.42,5.48.34,10.73.47,15.89-.44-5.5-1.27-11.95.19-16.04-1.5,1.42-2.53,2.43-4.74,4.16-6.49,7.03-.16,13.66.32,20.63-1.17l-19.76-.56c1.74-2.48,2.91-6.04,5.19-7.88,2.27-1.27,10.03.48,11.46-1.43l-10.78-.1c.73-1.88,1.99-3.16,2.46-5.13-1.58,1.43-2.33,3.3-3.64,5.17l-20.3.19c.51-1.46,1.84-1.89,1.43-3.37-1.03,1.12-1.45,2.37-2.75,3.47l-18.5.24c.44-1.39,1.78-2.06,1.66-3.56-1.53.86-1.92,2.67-3.3,3.82l-14.96.25c1.02-2.01,2.73-2.71,3.32-4.69-2.12.79-2.75,3.08-4.45,4.27-1.91,1.33-4.31-.24-6.6.75,1.42,1.43,3.23.35,4.97.95l-12.37,14.93c2.92-1.27,3.77-4.39,6.29-6.1l16.31-.04-4.22,6.23-4.99-.16c-2.35-.07-4.54-.72-6.68-.18,1.7,1.49,8.22.49,10.7,1.53Z"/>
      <path class="cls-7" d="M167.56,97.9c-8.27.2-27.9.63-34.64-1.91-2.31-.87-2.75-5.07-2.79-7.19l-.34-18.25c-.19-10.47-1.99-19.27-1.69-34.18l.26-12.84c5.09-.32,10.09-.67,15.24-.74l32.64-.44,32.84.6,23.28.16c.75,0,2.16.07,2.63.52.92,2.32,1.1,4.88,1.19,7.53.52,15.32.31,30.38,0,45.73l-.34,16.66c-.03,1.5-.91,2.48-2.55,2.53l-46.01,1.35-19.73.47ZM140.53,91.83c3.03.16,5.87.51,8.75.51l25.83-.03,31.74-.45c7.05-.1,13.77-.57,20.72-1.04,1.52-.1,2.93-.81,3.1-2.46,1.82-17.36,2.26-34.46,1.11-51.9-.23-3.5.24-6.77-1.21-10.03-10.89-1.17-21.5-1-32.39-.28-6.4.42-12.37.99-18.74.81l-30.76-.85c-4.78-.13-9.27-1.03-13.98-.16-2.34,10.86-1.18,22.52-.99,33.47l.25,14.24c.09,4.97.12,9.92,1.56,14.55.72,2.33,2.42,3.49,4.99,3.62Z"/>
      <path class="cls-9" d="M106.91,69.08l-15.55,9.03c-4.71,2.73-9.7,4.9-15.24,5.52-20.29,2.28-43.12-7.82-48.32-28.79,3.39,1.41,6.76,2.89,10.71,3.13,9.3.56,15.34-5.94,14.55-7.92-.64-1.62-5.05,2.99-10.61,3.62s-11.82-.19-16.11-3.34c.16-4.31-.89-8.83.77-13.21,3.74-9.9,9.13-18.82,14.14-28.09.28-.53.43-.87.41-1.28C58.95-.24,79.44,1.77,94.67,12.74c18.39,13.24,23.12,37.5,12.24,56.35ZM51.4,48.23c.96-.3,2.11-1.59,1.19-2.29s-2.46-.22-3.44-.77c1.22-2.64,1.19-5.66-1.67-7.2,1.14-.71,5.62-.85,5.06-2.82-.09-.33-.59-.55-1.25-.59-7.09-.44-14.04-.03-20.97,1.32-.47.09-.25,1.24.05,1.38,2.8,1.32,9.81.59,13.88.9-1.67,2.08-1.55,4.36-.7,7.28l-12.86,1.53c-.53.06-.52.68-.45.91.07.21.18.67.69.74,5.06.65,15.56,1.14,20.48-.38ZM94.32,45.82c-.07-1.4-3.4-.53-4.64-1.07,1.31-2.24,1.41-4.62-.3-6.59,1.71-.44,4.59-1.44,3.69-2.83s-21.06.15-21.31,1.34c-.48,2.27,10.45,1.78,13.08,1.96-1.57,1.78-1.08,3.75-.1,6.25-2.12.73-15.45.21-13.93,2.98,1.2,2.19,23.68,1.22,23.52-2.04ZM72.94,52.33c4.84,3.84,10.6,4.9,16.66,4.92,5.04.02,10.45-3.17,10.7-8.43.06-1.26-2.3.1-2.93.71-5.28,5.04-18.04,4.43-23.66,1.2-.49-.28-1.26-.09-1.45.26-.15.28.09.86.68,1.34ZM76.2,75.95c.68-.22.9-1.22.86-1.55s-.64-.67-1.26-.71c-6.8-.5-13.31-.13-19.87,1.59-.68.18-1.03.56-.84,1.16.08.25.32.58.9.69,6.75,1.24,13.6.99,20.22-1.18Z"/>
      <path class="cls-2" d="M41.66,7.74c.02.41-.13.76-.41,1.28-5,9.27-10.39,18.18-14.14,28.09-1.66,4.38-.61,8.9-.77,13.21-.81.13-1.76-.57-2.64.26,1.03,2.02,2.79,2.65,4.11,4.26,5.2,20.97,28.02,31.06,48.32,28.79,5.54-.62,10.53-2.79,15.24-5.52l15.55-9.03c-8.98,15.55-24.85,25.7-43.2,26.82-3.33.2-6.7.45-10.2-.42-7.37-1.84-14.13-4.32-20.38-8.74-19.58-13.86-27.59-40.67-13.34-61.38,5.44-7.92,13.05-14.49,21.87-17.62Z"/>
      <path class="cls-1" d="M170.56,121.57c.02.83-.58,1.54-1.4,1.63-.09-1.37.95-1.26,1.4-1.63Z"/>
      <path class="cls-1" d="M147.13,126.9c-2.48-1.04-9-.04-10.7-1.53,2.14-.53,4.33.11,6.68.18l4.99.16,4.22-6.23-16.31.04c-2.52,1.71-3.37,4.82-6.29,6.1l12.37-14.93c-1.74-.6-3.54.48-4.97-.95,2.29-.99,4.69.58,6.6-.75,1.69-1.18,2.33-3.48,4.45-4.27-.59,1.98-2.29,2.68-3.32,4.69l14.96-.25c1.38-1.15,1.77-2.96,3.3-3.82.12,1.5-1.22,2.17-1.66,3.56l18.5-.24c1.31-1.1,1.73-2.34,2.75-3.47.41,1.48-.92,1.91-1.43,3.37l20.3-.19c1.31-1.87,2.05-3.74,3.64-5.17-.46,1.97-1.73,3.25-2.46,5.13l10.78.1c-1.42,1.91-9.18.16-11.46,1.43-2.28,1.84-3.45,5.39-5.19,7.88l19.76.56c-6.96,1.49-13.6,1.01-20.63,1.17-1.74,1.75-2.74,3.96-4.16,6.49,4.1,1.69,10.55.24,16.04,1.5-5.17.91-10.41.78-15.89.44-1.78-.11-2.46,1.1-3.28,2.42-.78-.99.55-1.24.41-2.43l-22.93-.04-2.37,2.27c.11-.98.95-1.34.59-2.31l-16.07-.99c-1.28,1.33-1.79,2.81-3.37,3.98.05-1.53,1-1.96,2.13-3.91ZM158.4,112.03c-.1-.49.41-.93.11-1.54-5.09.06-9.93-.56-14.69.34-2.04.62-3.09,3.69-4.35,5.08-.87.97-2.24,1.19-2.43,2.74l16.15-.32c1.54-1.05,1.71-3.25,3.64-3.97-.16,1.64-1.51,2.29-2.18,3.83,2.76.52,5.47.1,8.32.04l9.59-.2c1.84-1.7,2.45-4.01,4.81-5.46-.4,2.53-2.58,3.18-3.38,5.62l22.02-.35,4.38-7.83h-20.23s-2.79,3.16-2.79,3.16c-.68-1.31.61-1.55.82-2.74-5.93-.39-11.89-.09-17.99.25-.64.04-1.11,1.61-1.81,1.35ZM169.17,123.2c-.01,1.12-.98,1.76-1.56,3.03l15.31.09c2.16.01,5.32,1.07,7.13-.12,1.95-1.29,2.76-4.21,4.27-6.28-6.48-.78-12.61.41-19.08-.03-1.95-.13-3.11.4-4.67,1.68-.02-.78.02-1.35-.29-1.47-.1-.04-15.13-.73-16.82-.36-1.49,1.98-2.9,3.72-4.18,5.95,5.84.34,11.43,1.02,17.11.38,1.07-.5,1.53-2.8,2.79-2.87Z"/>
      <path class="cls-1" d="M156.84,114.36c.09-.91.39-1.85,1.57-2.33-.08,1.32-.71,2.01-1.57,2.33Z"/>
      <path class="cls-1" d="M214.47,115.26c2.42-4.87,5.61-9.34,9.21-13.34-2.37,5.11-5.63,9.11-9.21,13.34Z"/>
      <path class="cls-3" d="M140.53,91.83c-2.57-.13-4.27-1.29-4.99-3.62-1.43-4.63-1.47-9.58-1.56-14.55l-.25-14.24c-.19-10.95-1.35-22.6.99-33.47,4.71-.87,9.2.03,13.98.16l30.76.85c6.36.17,12.34-.39,18.74-.81,10.89-.72,21.5-.89,32.39.28,1.45,3.25.98,6.53,1.21,10.03,1.14,17.44.71,34.54-1.11,51.9-.17,1.65-1.58,2.36-3.1,2.46-6.95.47-13.68.94-20.72,1.04l-31.74.45-25.83.03c-2.87,0-5.71-.35-8.75-.51ZM229.06,65.68l.02-20.27-.31-14.64c-.01-.62-.18-1.21-.43-1.47-.43-.44-1.05.16-1.65.12-21.22-1.24-36.8,1.96-58.83.65-10.4-.62-20.39-.88-31.22-2.19-2.74,14.31,2.43,35.5,1.71,49.33l-.57,10.92c6.9,1.07,13.52,1.12,20.43,1.03l34.05-.45,35.75-.52,1.05-22.53Z"/>
      <path class="cls-6" d="M51.4,48.23c-4.92,1.52-15.42,1.03-20.48.38-.5-.06-.62-.53-.69-.74-.08-.23-.08-.85.45-.91l12.86-1.53c-.85-2.92-.97-5.2.7-7.28-4.07-.31-11.08.42-13.88-.9-.3-.14-.52-1.29-.05-1.38,6.94-1.34,13.89-1.76,20.97-1.32.67.04,1.16.27,1.25.59.56,1.98-3.92,2.12-5.06,2.82,2.86,1.54,2.89,4.56,1.67,7.2.98.55,2.5.06,3.44.77s-.24,1.99-1.19,2.29Z"/>
      <path class="cls-6" d="M94.32,45.82c.16,3.26-22.32,4.23-23.52,2.04-1.52-2.77,11.81-2.25,13.93-2.98-.98-2.5-1.47-4.47.1-6.25-2.63-.18-13.56.31-13.08-1.96.25-1.19,20.39-2.78,21.31-1.34s-1.98,2.39-3.69,2.83c1.71,1.97,1.61,4.35.3,6.59,1.25.54,4.57-.33,4.64,1.07Z"/>
      <path class="cls-6" d="M27.8,54.84c-1.32-1.6-3.08-2.23-4.11-4.26.88-.83,1.83-.13,2.64-.26,4.29,3.15,10.58,3.97,16.11,3.34s9.97-5.23,10.61-3.62c.79,1.99-5.25,8.48-14.55,7.92-3.95-.24-7.32-1.72-10.71-3.13Z"/>
      <path class="cls-6" d="M72.94,52.33c-.6-.47-.83-1.05-.68-1.34.19-.35.95-.54,1.45-.26,5.62,3.23,18.38,3.84,23.66-1.2.64-.61,2.99-1.97,2.93-.71-.25,5.26-5.66,8.45-10.7,8.43-6.06-.03-11.82-1.09-16.66-4.92Z"/>
      <path class="cls-6" d="M76.2,75.95c-6.62,2.17-13.47,2.42-20.22,1.18-.58-.11-.82-.44-.9-.69-.19-.6.17-.99.84-1.16,6.57-1.72,13.07-2.09,19.87-1.59.62.05,1.21.38,1.26.71s-.18,1.33-.86,1.55Z"/>
      <path class="cls-4" d="M156.84,114.36c.85-.32,1.49-1.01,1.57-2.33.7.26,1.18-1.31,1.81-1.35,6.1-.35,12.06-.64,17.99-.25-.22,1.19-1.51,1.43-.82,2.74l2.79-3.16h20.23s-4.38,7.83-4.38,7.83l-22.02.35c.81-2.44,2.98-3.09,3.38-5.62-2.36,1.45-2.97,3.76-4.81,5.46l-9.59.2c-2.85.06-5.56.48-8.32-.04.67-1.54,2.02-2.19,2.18-3.83Z"/>
      <path class="cls-4" d="M158.4,112.03c-1.18.48-1.48,1.42-1.57,2.33-1.93.73-2.1,2.92-3.64,3.97l-16.15.32c.19-1.55,1.55-1.77,2.43-2.74,1.25-1.39,2.31-4.46,4.35-5.08,4.76-.9,9.6-.28,14.69-.34.31.61-.21,1.04-.11,1.54Z"/>
      <path class="cls-4" d="M170.56,121.57c-.45.37-1.49.26-1.4,1.63-1.26.07-1.71,2.37-2.79,2.87-5.68.64-11.27-.04-17.11-.38,1.28-2.24,2.69-3.97,4.18-5.95,1.69-.37,16.72.32,16.82.36.31.12.27.69.29,1.47Z"/>
      <path class="cls-4" d="M169.17,123.2c.82-.09,1.41-.8,1.4-1.63,1.56-1.28,2.72-1.81,4.67-1.68,6.47.44,12.6-.74,19.08.03-1.5,2.07-2.31,4.98-4.27,6.28-1.81,1.2-4.97.14-7.13.12l-15.31-.09c.58-1.26,1.55-1.9,1.56-3.03Z"/>
      <path class="cls-5" d="M229.06,65.68l-1.05,22.53-35.75.52-34.05.45c-6.91.09-13.53.03-20.43-1.03l.57-10.92c.72-13.83-4.45-35.03-1.71-49.33,10.83,1.31,20.82,1.58,31.22,2.19,22.03,1.31,37.61-1.89,58.83-.65.6.03,1.21-.56,1.65-.12.25.25.42.84.43,1.47l.31,14.64-.02,20.27ZM192.18,48.42c3.88,1.59,7.63.94,10.94-1.42,1.82-1.29,4.13-.19,6.04.22,3.22.68,6.36,1.02,9.68,1.3.26-1.94-1.37-2.17-2.75-2.95-3.95-2.26-9.46-3.75-13.61-1.21-2.82,1.72-5.17,2.56-8.31.63-4.56-2.8-10.36-3.37-15.27-.7-3.25,1.77-6.22,1.74-9.67.16-12.22-5.59-12.66,5.53-22.39-1.18,1.33,5.22,7.3,6.41,11.48,4.2,4.92-2.6,7.78.82,13.61,2.75,7.53,2.5,10.24-5.92,20.24-1.81ZM199.42,73.34c2.88,1.97,6.77,3.29,10.1,2,3.03-1.17,4.9-4.03,6.57-6.74-2.3-1.54-5.24,5.49-12.16,1.91-6.38-3.3-8.63-5.17-15.55-1.91s-8.19,2.41-15.36-.3c-9.66-3.65-10.64,5.93-20.98,1.09-1.47-.69-3.09-1.49-4.82-1.27.78,3.4,3.73,5.35,6.4,6.1,9.01,2.53,10.36-6.64,17.23-2.78,16.56,9.31,16.94-6.06,28.58,1.9Z"/>
      <path class="cls-6" d="M192.18,48.42c-10-4.11-12.71,4.31-20.24,1.81-5.83-1.93-8.69-5.36-13.61-2.75-4.19,2.21-10.16,1.02-11.48-4.2,9.73,6.7,10.17-4.42,22.39,1.18,3.45,1.58,6.42,1.61,9.67-.16,4.91-2.68,10.71-2.1,15.27.7,3.15,1.93,5.5,1.09,8.31-.63,4.16-2.54,9.66-1.05,13.61,1.21,1.37.79,3,1.02,2.75,2.95-3.32-.28-6.46-.62-9.68-1.3-1.91-.4-4.23-1.51-6.04-.22-3.31,2.36-7.06,3.01-10.94,1.42Z"/>
      <path class="cls-6" d="M199.42,73.34c-11.64-7.97-12.02,7.4-28.58-1.9-6.87-3.86-8.21,5.31-17.23,2.78-2.67-.75-5.61-2.69-6.4-6.1,1.73-.22,3.35.58,4.82,1.27,10.34,4.84,11.32-4.73,20.98-1.09,7.17,2.71,8.46,3.56,15.36.3s9.18-1.39,15.55,1.91c6.92,3.58,9.86-3.45,12.16-1.91-1.67,2.71-3.54,5.57-6.57,6.74-3.33,1.29-7.22-.03-10.1-2Z"/>
    </g>
  </g>
</svg>