<?xml version="1.0" encoding="UTF-8"?>
<svg id="Layer_1" data-name="Layer 1" xmlns="http://www.w3.org/2000/svg" xmlns:xlink="http://www.w3.org/1999/xlink" viewBox="0 0 1366 768">
  <defs>
    <style>
      .cls-1 {
        fill: url(#linear-gradient);
      }
    </style>
    <linearGradient id="linear-gradient" x1="275.25" y1="400.47" x2="1117.77" y2="400.47" gradientUnits="userSpaceOnUse">
      <stop offset="0" stop-color="#503ef7"/>
      <stop offset="1" stop-color="#519fff"/>
    </linearGradient>
  </defs>
  <path class="cls-1" d="M960.5,650.42c-33.34-21.87-55.61-37.66-80.53-69.92,5.26-7.82,8.33-17.22,8.33-27.32,0-11.94-4.29-22.9-11.41-31.42l29.44-37.51c1.19-1.52.93-3.72-.59-4.92-1.52-1.19-3.72-.93-4.92.59l-28.84,36.75c-8.7-7.82-20.19-12.58-32.78-12.58-27.07,0-49.09,22.02-49.09,49.09s20.1,47.1,45.5,48.94c12.62,46.93,29.02,73.14,49.12,102.46.67.97,1.76,1.52,2.89,1.52.38,0,.76-.06,1.13-.19,1.49-.51,2.45-1.94,2.36-3.51l-.33-5.65c-1.02-17.45-2.07-35.46-1.47-58.09l68.37,18.07c1.66.44,3.39-.39,4.09-1.96s.16-3.41-1.28-4.35ZM797.11,553.17c0-23.21,18.88-42.09,42.09-42.09,10.96,0,20.95,4.21,28.45,11.1l-29.97,38.19-8.84-19.53c-.8-1.76-2.87-2.54-4.63-1.75-1.76.8-2.54,2.87-1.75,4.63l11.22,24.79c.5,1.12,1.55,1.89,2.77,2.03.14.02.28.03.42.03,1.07,0,2.09-.49,2.75-1.34l32.83-41.83c5.53,7.13,8.84,16.06,8.84,25.76,0,23.21-18.88,42.09-42.09,42.09s-42.09-18.88-42.09-42.09ZM886.84,630.76c-1.03-.27-2.13-.06-2.98.57-.85.63-1.37,1.62-1.41,2.69-.76,21.91,0,39.48.94,56.07-16.26-24.49-29.79-48.83-40.53-87.99,12.9-.96,24.43-6.91,32.65-15.93,20.5,26.25,39.27,41.7,63.65,58.42l-52.32-13.83ZM542.99,346.01c0-1.93,1.57-3.5,3.5-3.5h41.86c1.93,0,3.5,1.57,3.5,3.5s-1.57,3.5-3.5,3.5h-41.86c-1.93,0-3.5-1.57-3.5-3.5ZM542.99,374.45c0-1.93,1.57-3.5,3.5-3.5h41.86c1.93,0,3.5,1.57,3.5,3.5s-1.57,3.5-3.5,3.5h-41.86c-1.93,0-3.5-1.57-3.5-3.5ZM591.85,405.23c0,1.93-1.57,3.5-3.5,3.5h-41.86c-1.93,0-3.5-1.57-3.5-3.5s1.57-3.5,3.5-3.5h41.86c1.93,0,3.5,1.57,3.5,3.5ZM542.99,436c0-1.93,1.57-3.5,3.5-3.5h41.86c1.93,0,3.5,1.57,3.5,3.5s-1.57,3.5-3.5,3.5h-41.86c-1.93,0-3.5-1.57-3.5-3.5ZM591.85,466.78c0,1.93-1.57,3.5-3.5,3.5h-41.86c-1.93,0-3.5-1.57-3.5-3.5s1.57-3.5,3.5-3.5h41.86c1.93,0,3.5,1.57,3.5,3.5ZM591.85,497.56c0,1.93-1.57,3.5-3.5,3.5h-41.86c-1.93,0-3.5-1.57-3.5-3.5s1.57-3.5,3.5-3.5h41.86c1.93,0,3.5,1.57,3.5,3.5ZM591.85,528.33c0,1.93-1.57,3.5-3.5,3.5h-41.86c-1.93,0-3.5-1.57-3.5-3.5s1.57-3.5,3.5-3.5h41.86c1.93,0,3.5,1.57,3.5,3.5ZM591.85,559.11c0,1.93-1.57,3.5-3.5,3.5h-41.86c-1.93,0-3.5-1.57-3.5-3.5s1.57-3.5,3.5-3.5h41.86c1.93,0,3.5,1.57,3.5,3.5ZM678.95,346.01c0,1.93-1.57,3.5-3.5,3.5h-41.86c-1.93,0-3.5-1.57-3.5-3.5s1.57-3.5,3.5-3.5h41.86c1.93,0,3.5,1.57,3.5,3.5ZM630.08,374.45c0-1.93,1.57-3.5,3.5-3.5h41.86c1.93,0,3.5,1.57,3.5,3.5s-1.57,3.5-3.5,3.5h-41.86c-1.93,0-3.5-1.57-3.5-3.5ZM678.95,405.23c0,1.93-1.57,3.5-3.5,3.5h-41.86c-1.93,0-3.5-1.57-3.5-3.5s1.57-3.5,3.5-3.5h41.86c1.93,0,3.5,1.57,3.5,3.5ZM678.95,436c0,1.93-1.57,3.5-3.5,3.5h-41.86c-1.93,0-3.5-1.57-3.5-3.5s1.57-3.5,3.5-3.5h41.86c1.93,0,3.5,1.57,3.5,3.5ZM678.95,466.78c0,1.93-1.57,3.5-3.5,3.5h-41.86c-1.93,0-3.5-1.57-3.5-3.5s1.57-3.5,3.5-3.5h41.86c1.93,0,3.5,1.57,3.5,3.5ZM630.08,497.56c0-1.93,1.57-3.5,3.5-3.5h41.86c1.93,0,3.5,1.57,3.5,3.5s-1.57,3.5-3.5,3.5h-41.86c-1.93,0-3.5-1.57-3.5-3.5ZM630.08,528.33c0-1.93,1.57-3.5,3.5-3.5h41.86c1.93,0,3.5,1.57,3.5,3.5s-1.57,3.5-3.5,3.5h-41.86c-1.93,0-3.5-1.57-3.5-3.5ZM630.08,559.11c0-1.93,1.57-3.5,3.5-3.5h41.86c1.93,0,3.5,1.57,3.5,3.5s-1.57,3.5-3.5,3.5h-41.86c-1.93,0-3.5-1.57-3.5-3.5ZM766.88,346.01c0,1.93-1.57,3.5-3.5,3.5h-41.86c-1.93,0-3.5-1.57-3.5-3.5s1.57-3.5,3.5-3.5h41.86c1.93,0,3.5,1.57,3.5,3.5ZM766.88,374.45c0,1.93-1.57,3.5-3.5,3.5h-41.86c-1.93,0-3.5-1.57-3.5-3.5s1.57-3.5,3.5-3.5h41.86c1.93,0,3.5,1.57,3.5,3.5ZM766.88,405.23c0,1.93-1.57,3.5-3.5,3.5h-41.86c-1.93,0-3.5-1.57-3.5-3.5s1.57-3.5,3.5-3.5h41.86c1.93,0,3.5,1.57,3.5,3.5ZM766.88,436c0,1.93-1.57,3.5-3.5,3.5h-41.86c-1.93,0-3.5-1.57-3.5-3.5s1.57-3.5,3.5-3.5h41.86c1.93,0,3.5,1.57,3.5,3.5ZM718.01,466.78c0-1.93,1.57-3.5,3.5-3.5h41.86c1.93,0,3.5,1.57,3.5,3.5s-1.57,3.5-3.5,3.5h-41.86c-1.93,0-3.5-1.57-3.5-3.5ZM763.38,494.06c1.93,0,3.5,1.57,3.5,3.5s-1.57,3.5-3.5,3.5h-41.86c-1.93,0-3.5-1.57-3.5-3.5s1.57-3.5,3.5-3.5h41.86ZM801.55,346.01c0-1.93,1.57-3.5,3.5-3.5h41.86c1.93,0,3.5,1.57,3.5,3.5s-1.57,3.5-3.5,3.5h-41.86c-1.93,0-3.5-1.57-3.5-3.5ZM801.55,374.45c0-1.93,1.57-3.5,3.5-3.5h41.86c1.93,0,3.5,1.57,3.5,3.5s-1.57,3.5-3.5,3.5h-41.86c-1.93,0-3.5-1.57-3.5-3.5ZM801.55,405.23c0-1.93,1.57-3.5,3.5-3.5h41.86c1.93,0,3.5,1.57,3.5,3.5s-1.57,3.5-3.5,3.5h-41.86c-1.93,0-3.5-1.57-3.5-3.5ZM801.55,436c0-1.93,1.57-3.5,3.5-3.5h41.86c1.93,0,3.5,1.57,3.5,3.5s-1.57,3.5-3.5,3.5h-41.86c-1.93,0-3.5-1.57-3.5-3.5ZM501.19,386.47c-1.52-1.19-3.72-.93-4.91.59l-21.37,27.23c-6.67-5.72-15.33-9.19-24.79-9.19-21.03,0-38.14,17.11-38.14,38.14s17.11,38.14,38.14,38.14,38.14-17.11,38.14-38.14c0-9.03-3.16-17.34-8.43-23.88l21.95-27.98c1.19-1.52.93-3.72-.59-4.92ZM481.26,443.24c0,17.17-13.97,31.14-31.14,31.14s-31.14-13.97-31.14-31.14,13.97-31.14,31.14-31.14c7.83,0,14.99,2.91,20.46,7.7l-21.43,27.31-6.14-13.58c-.8-1.76-2.87-2.54-4.63-1.75-1.76.8-2.54,2.87-1.75,4.63l8.52,18.84c.5,1.12,1.55,1.89,2.77,2.03.14.02.28.03.42.03,1.07,0,2.08-.49,2.75-1.34l24.27-30.92c3.7,5.12,5.89,11.41,5.89,18.2ZM293.86,301.18c0-1.93,1.57-3.5,3.5-3.5h31.81c1.93,0,3.5,1.57,3.5,3.5s-1.57,3.5-3.5,3.5h-31.81c-1.93,0-3.5-1.57-3.5-3.5ZM293.86,322.79c0-1.93,1.57-3.5,3.5-3.5h31.81c1.93,0,3.5,1.57,3.5,3.5s-1.57,3.5-3.5,3.5h-31.81c-1.93,0-3.5-1.57-3.5-3.5ZM293.86,346.17c0-1.93,1.57-3.5,3.5-3.5h31.81c1.93,0,3.5,1.57,3.5,3.5s-1.57,3.5-3.5,3.5h-31.81c-1.93,0-3.5-1.57-3.5-3.5ZM293.86,369.56c0-1.93,1.57-3.5,3.5-3.5h31.81c1.93,0,3.5,1.57,3.5,3.5s-1.57,3.5-3.5,3.5h-31.81c-1.93,0-3.5-1.57-3.5-3.5ZM293.86,392.94c0-1.93,1.57-3.5,3.5-3.5h31.81c1.93,0,3.5,1.57,3.5,3.5s-1.57,3.5-3.5,3.5h-31.81c-1.93,0-3.5-1.57-3.5-3.5ZM293.86,416.33c0-1.93,1.57-3.5,3.5-3.5h31.81c1.93,0,3.5,1.57,3.5,3.5s-1.57,3.5-3.5,3.5h-31.81c-1.93,0-3.5-1.57-3.5-3.5ZM293.86,439.71c0-1.93,1.57-3.5,3.5-3.5h31.81c1.93,0,3.5,1.57,3.5,3.5s-1.57,3.5-3.5,3.5h-31.81c-1.93,0-3.5-1.57-3.5-3.5ZM293.86,463.1c0-1.93,1.57-3.5,3.5-3.5h31.81c1.93,0,3.5,1.57,3.5,3.5s-1.57,3.5-3.5,3.5h-31.81c-1.93,0-3.5-1.57-3.5-3.5ZM395.35,297.68c1.93,0,3.5,1.57,3.5,3.5s-1.57,3.5-3.5,3.5h-31.81c-1.93,0-3.5-1.57-3.5-3.5s1.57-3.5,3.5-3.5h31.81ZM395.35,319.29c1.93,0,3.5,1.57,3.5,3.5s-1.57,3.5-3.5,3.5h-31.81c-1.93,0-3.5-1.57-3.5-3.5s1.57-3.5,3.5-3.5h31.81ZM395.35,342.67c1.93,0,3.5,1.57,3.5,3.5s-1.57,3.5-3.5,3.5h-31.81c-1.93,0-3.5-1.57-3.5-3.5s1.57-3.5,3.5-3.5h31.81ZM395.35,366.06c1.93,0,3.5,1.57,3.5,3.5s-1.57,3.5-3.5,3.5h-31.81c-1.93,0-3.5-1.57-3.5-3.5s1.57-3.5,3.5-3.5h31.81ZM395.35,389.44c1.93,0,3.5,1.57,3.5,3.5s-1.57,3.5-3.5,3.5h-31.81c-1.93,0-3.5-1.57-3.5-3.5s1.57-3.5,3.5-3.5h31.81ZM398.85,416.33c0,1.93-1.57,3.5-3.5,3.5h-31.81c-1.93,0-3.5-1.57-3.5-3.5s1.57-3.5,3.5-3.5h31.81c1.93,0,3.5,1.57,3.5,3.5ZM398.85,439.71c0,1.93-1.57,3.5-3.5,3.5h-31.81c-1.93,0-3.5-1.57-3.5-3.5s1.57-3.5,3.5-3.5h31.81c1.93,0,3.5,1.57,3.5,3.5ZM398.85,463.1c0,1.93-1.57,3.5-3.5,3.5h-31.81c-1.93,0-3.5-1.57-3.5-3.5s1.57-3.5,3.5-3.5h31.81c1.93,0,3.5,1.57,3.5,3.5ZM788.54,260.25c0,16.85,13.71,30.55,30.55,30.55s30.55-13.71,30.55-30.55c0-7.02-2.38-13.48-6.38-18.65l16.77-21.37c1.19-1.52.93-3.72-.59-4.92-1.52-1.19-3.72-.93-4.92.59l-16.2,20.64c-5.26-4.28-11.95-6.84-19.24-6.84-16.85,0-30.55,13.7-30.55,30.55ZM807.86,255.24l6.66,14.71c.5,1.12,1.55,1.89,2.77,2.03.14.02.28.03.42.03,1.07,0,2.09-.49,2.75-1.34l18.31-23.33c2.44,3.71,3.87,8.15,3.87,12.92,0,12.99-10.56,23.55-23.55,23.55s-23.55-10.56-23.55-23.55,10.56-23.55,23.55-23.55c5.66,0,10.86,2.01,14.92,5.35l-15.5,19.75-4.28-9.45c-.8-1.76-2.87-2.54-4.63-1.75-1.76.8-2.54,2.87-1.75,4.63ZM469.98,194.9c0,13.94,11.34,25.28,25.28,25.28s25.28-11.34,25.28-25.28c0-5.62-1.84-10.81-4.95-15.01l13.18-16.8c1.19-1.52.93-3.72-.59-4.92-1.52-1.19-3.72-.93-4.91.59l-12.62,16.08c-4.26-3.28-9.6-5.24-15.38-5.24-13.94,0-25.28,11.34-25.28,25.28ZM485.6,191.14l5.36,11.85c.5,1.12,1.55,1.89,2.77,2.03.14.02.28.03.42.03,1.07,0,2.08-.49,2.75-1.34l14.13-18.01c1.59,2.71,2.51,5.85,2.51,9.2,0,10.08-8.2,18.28-18.28,18.28s-18.28-8.2-18.28-18.28,8.2-18.28,18.28-18.28c4.16,0,7.98,1.41,11.05,3.75l-11.36,14.48-2.98-6.59c-.8-1.76-2.87-2.54-4.63-1.75s-2.54,2.87-1.75,4.63ZM1116.43,221.04c-1.52-1.19-3.72-.93-4.91.59l-12.62,16.08c-4.27-3.28-9.6-5.24-15.38-5.24-13.94,0-25.28,11.34-25.28,25.28s11.34,25.28,25.28,25.28,25.29-11.34,25.29-25.28c0-5.62-1.84-10.81-4.96-15.01l13.18-16.8c1.19-1.52.93-3.72-.59-4.91ZM1101.8,257.77c0,10.08-8.2,18.28-18.29,18.28s-18.28-8.2-18.28-18.28,8.2-18.28,18.28-18.28c4.16,0,7.98,1.41,11.05,3.75l-11.36,14.47-2.98-6.59c-.8-1.76-2.87-2.54-4.63-1.75-1.76.8-2.54,2.87-1.75,4.63l5.36,11.85c.5,1.12,1.55,1.89,2.77,2.03.14.02.28.03.42.03,1.07,0,2.08-.49,2.75-1.34l14.13-18.01c1.59,2.71,2.51,5.85,2.51,9.21ZM1059.99,274.32h-38.47v-7.71h19.58c1.93,0,3.5-1.57,3.5-3.5s-1.57-3.5-3.5-3.5h-19.58v-7.71h24.21c1.93,0,3.5-1.57,3.5-3.5s-1.57-3.5-3.5-3.5h-24.21v-7.71h37.95c1.93,0,3.5-1.57,3.5-3.5s-1.57-3.5-3.5-3.5h-37.95v-7.71h46.75c1.93,0,3.5-1.57,3.5-3.5s-1.57-3.5-3.5-3.5h-46.75v-7.71h32.57v4.18c0,1.93,1.57,3.5,3.5,3.5s3.5-1.57,3.5-3.5v-4.66c1.05-.6,1.77-1.73,1.77-3.02s-.72-2.42-1.77-3.02v-8.18h5.32c1.93,0,3.5-1.57,3.5-3.5s-1.57-3.5-3.5-3.5h-5.32v-7.71h5.15c1.93,0,3.5-1.57,3.5-3.5s-1.57-3.5-3.5-3.5h-5.15v-6.67h13.43c1.93,0,3.5-1.57,3.5-3.5s-1.57-3.5-3.5-3.5h-98.38c-1.93,0-3.5,1.57-3.5,3.5v.8c-.08.29-.13.59-.13.9v10.63c-.17.41-.27.86-.27,1.33s.1.92.27,1.33v12.04c-.17.41-.27.86-.27,1.33s.1.92.27,1.33v12.04c-.03.07-.04.14-.07.21l-29.29-18.69c-1.63-1.04-3.79-.56-4.83,1.07-1.04,1.63-.56,3.79,1.07,4.83l21.3,13.59c-14.57,1.92-44.17,9.41-69.59,38.25-23.69,26.88-35.34,82.33-35.83,84.68-.03.17-.04.33-.05.5h-332.38c-1.93,0-3.5,1.57-3.5,3.5v26.36c-.51.61-.83,1.39-.83,2.24s.32,1.64.83,2.24v26.29c-.51.61-.83,1.39-.83,2.24s.32,1.64.83,2.24v26.29c-.51.61-.83,1.39-.83,2.24s.32,1.64.83,2.24v26.29c-.51.61-.83,1.39-.83,2.24s.32,1.64.83,2.24v26.29c-.51.61-.83,1.39-.83,2.24s.32,1.64.83,2.24v26.29c-.51.61-.83,1.39-.83,2.24s.32,1.64.83,2.24v19.49c-.29.21-.56.46-.78.77-.46.65-47.21,64.92-105.37,57.65-25.13-3.14-44.83-16.87-58.55-40.8-8.76-15.28-12.98-31.03-14.99-41.69l18.79,15.92c1.48,1.25,3.69,1.07,4.93-.41,1.25-1.47,1.07-3.68-.41-4.93l-24.87-21.07c-.02-.24-.05-.46-.07-.67-.02-.17-.06-.34-.1-.5h55.91c1.93,0,3.5-1.57,3.5-3.5s-1.57-3.5-3.5-3.5h-44.35v-13.76h63.24c1.93,0,3.5-1.57,3.5-3.5s-1.57-3.5-3.5-3.5h-63.24v-16.38h33.19c1.93,0,3.5-1.57,3.5-3.5s-1.57-3.5-3.5-3.5h-33.19v-16.38h40.57c1.93,0,3.5-1.57,3.5-3.5s-1.57-3.5-3.5-3.5h-40.57v-16.38h62.41c1.93,0,3.5-1.57,3.5-3.5s-1.57-3.5-3.5-3.5h-62.41v-16.38h76.4c1.93,0,3.5-1.57,3.5-3.5s-1.57-3.5-3.5-3.5h-76.4v-16.38h62.23c1.93,0,3.5-1.57,3.5-3.5s-1.57-3.5-3.5-3.5h-62.23v-16.38h73.45c1.93,0,3.5-1.57,3.5-3.5s-1.57-3.5-3.5-3.5h-73.45v-16.38h73.18c1.93,0,3.5-1.57,3.5-3.5s-1.57-3.5-3.5-3.5h-73.18v-14.74h86.33c1.93,0,3.5-1.57,3.5-3.5s-1.57-3.5-3.5-3.5h-96.44c-.23-.24-.49-.45-.8-.62-1.59-.86-38.73-21.56-28.12-64.02,4.41-17.64,16.59-29.77,36.21-36.03,10.3-3.29,20.09-4.04,25.28-4.18l-18.35,16.61c-1.43,1.3-1.54,3.51-.25,4.94.69.76,1.64,1.15,2.6,1.15.84,0,1.68-.3,2.35-.91l25.74-23.31c.08-.07.14-.16.21-.24v4.6c-.17.41-.27.86-.27,1.33s.1.92.27,1.33v12.04c-.17.41-.27.86-.27,1.33s.1.92.27,1.33v12.04c-.17.41-.27.86-.27,1.33s.1.92.27,1.33v11.4c0,.54.13,1.05.35,1.51.49,1.34,1.77,2.31,3.28,2.31h71.98c1.93,0,3.5-1.57,3.5-3.5s-1.57-3.5-3.5-3.5h-26.59v-6.06h38.47c1.93,0,3.5-1.57,3.5-3.5s-1.57-3.5-3.5-3.5h-38.47v-7.71h19.58c1.93,0,3.5-1.57,3.5-3.5s-1.57-3.5-3.5-3.5h-19.58v-7.71h24.21c1.93,0,3.5-1.57,3.5-3.5s-1.57-3.5-3.5-3.5h-24.21v-7.71h37.95c1.93,0,3.5-1.57,3.5-3.5s-1.57-3.5-3.5-3.5h-37.95v-7.71h46.75c1.93,0,3.5-1.57,3.5-3.5s-1.57-3.5-3.5-3.5h-46.75v-7.71h32.57v4.18c0,1.93,1.57,3.5,3.5,3.5s3.5-1.57,3.5-3.5v-4.66c1.05-.6,1.77-1.73,1.77-3.03s-.72-2.42-1.77-3.03v-8.18h5.32c1.93,0,3.5-1.57,3.5-3.5s-1.57-3.5-3.5-3.5h-5.32v-7.71h5.15c1.93,0,3.5-1.57,3.5-3.5s-1.57-3.5-3.5-3.5h-5.15v-6.67h13.43c1.93,0,3.5-1.57,3.5-3.5s-1.57-3.5-3.5-3.5h-98.38c-1.93,0-3.5,1.57-3.5,3.5v.8c-.08.29-.13.59-.13.91v10.63c-.17.41-.27.86-.27,1.33s.1.92.27,1.33v12.04c-.17.41-.27.86-.27,1.33s.1.92.27,1.33v12.04c-.17.41-.27.86-.27,1.33s.1.92.27,1.33v12.04c-.17.41-.27.86-.27,1.33s.1.92.27,1.33v12.04c-.17.41-.27.86-.27,1.33s.1.92.27,1.33v2.7c-.2-.21-.42-.41-.67-.57l-30.49-19.45c-1.63-1.04-3.79-.56-4.83,1.07-1.04,1.63-.56,3.79,1.07,4.83l21.36,13.63c-5.79.22-15.53,1.13-25.94,4.42-21.89,6.93-36.09,21.13-41.08,41.07-6.25,25,2.69,43.24,11.28,54.14,4.13,5.24,8.54,9.3,12.2,12.2h-47.77c-1.93,0-3.5,1.57-3.5,3.5v1.55c-.13.36-.21.75-.21,1.16v17.4c-.26.49-.42,1.04-.42,1.63s.16,1.14.42,1.63v20.12c-.26.49-.42,1.04-.42,1.63s.16,1.14.42,1.63v20.12c-.26.49-.42,1.04-.42,1.63s.16,1.14.42,1.63v20.12c-.26.49-.42,1.04-.42,1.63s.16,1.14.42,1.63v20.12c-.26.49-.42,1.04-.42,1.63s.16,1.14.42,1.63v20.12c-.26.49-.42,1.04-.42,1.63s.16,1.14.42,1.63v20.12c-.26.49-.42,1.04-.42,1.63s.16,1.14.42,1.63v20.12c-.26.49-.42,1.04-.42,1.63s.16,1.14.42,1.63v18.62c0,.58.15,1.12.4,1.6.46,1.4,1.76,2.41,3.31,2.41h51.77c-.07.3-.11.61-.1.93,0,.02-.02.03-.03.05l-15.27,32.78c-.82,1.75-.06,3.83,1.7,4.65.48.22.98.33,1.48.33,1.32,0,2.58-.75,3.18-2.02l10.78-23.15c2.17,11.21,6.62,27.47,15.68,43.26,14.87,25.95,36.32,40.84,63.75,44.27,3.31.41,6.65.62,10.01.62,22.92,0,46.85-9.58,69.81-28.05,12.46-10.03,21.81-20.34,27.13-26.74.02.03.05.06.07.09v26.29c-.51.61-.83,1.39-.83,2.24s.32,1.64.83,2.24v25.08c0,1.93,1.57,3.5,3.5,3.5h263.79c1.93,0,3.5-1.57,3.5-3.5s-1.57-3.5-3.5-3.5h-84.71v-20.32h77.19c1.93,0,3.5-1.57,3.5-3.5s-1.57-3.5-3.5-3.5h-77.19v-23.78h67.18c1.93,0,3.5-1.57,3.5-3.5s-1.57-3.5-3.5-3.5h-67.18v-23.78h83.87c1.93,0,3.5-1.57,3.5-3.5s-1.57-3.5-3.5-3.5h-83.87v-23.78h80.93v5.69c0,1.93,1.57,3.5,3.5,3.5s3.5-1.57,3.5-3.5v-5.69h74.41c1.93,0,3.5-1.57,3.5-3.5s-1.57-3.5-3.5-3.5h-74.41v-23.78h76.54v15.22c0,1.93,1.57,3.5,3.5,3.5s3.5-1.57,3.5-3.5v-15.22h43.47c1.93,0,3.5-1.57,3.5-3.5s-1.57-3.5-3.5-3.5h-43.47v-23.78h43.47c1.93,0,3.5-1.57,3.5-3.5s-1.57-3.5-3.5-3.5h-43.47v-23.78h43.47c1.93,0,3.5-1.57,3.5-3.5s-1.57-3.5-3.5-3.5h-43.47v-23.78h43.47c1.93,0,3.5-1.57,3.5-3.5s-1.57-3.5-3.5-3.5h-43.47v-21.54s0-.04,0-.06h44.31c1.93,0,3.5-1.57,3.5-3.5s-1.57-3.5-3.5-3.5h-55.36c1.62-7.32,13.15-56.87,34.03-80.55,25.44-28.86,55.92-34.92,67.95-36.19l-16.98,21.4c-1.2,1.51-.95,3.72.57,4.92.64.51,1.41.76,2.17.76,1.03,0,2.05-.45,2.74-1.32l19.72-24.85v6.11c-.17.41-.27.86-.27,1.33s.1.92.27,1.33v12.04c-.17.41-.27.86-.27,1.33s.1.92.27,1.33v12.04c-.17.41-.27.86-.27,1.33s.1.92.27,1.33v12.04c-.17.41-.27.86-.27,1.33s.1.92.27,1.33v12.04c-.17.41-.27.86-.27,1.33s.1.92.27,1.33v11.4c0,.54.13,1.05.35,1.51.49,1.35,1.77,2.31,3.28,2.31h71.98c1.93,0,3.5-1.57,3.5-3.5s-1.57-3.5-3.5-3.5h-26.59v-6.06h38.47c1.93,0,3.5-1.57,3.5-3.5s-1.57-3.5-3.5-3.5ZM391.38,130.21h34.88v7.71h-34.88v-7.71ZM391.38,123.21v-7.71h34.88v7.71h-34.88ZM426.27,224.5h-34.88v-6.06h34.88v6.06ZM426.27,211.45h-34.88v-7.71h34.88v7.71ZM426.27,196.74h-34.88v-7.71h34.88v7.71ZM426.27,182.04h-34.88v-7.71h34.88v7.71ZM426.27,167.33h-34.88v-7.71h34.88v7.71ZM426.27,152.63h-34.88v-7.71h34.88v7.71ZM465.84,137.92h-32.57v-7.71h32.57v7.71ZM465.84,123.21h-32.57v-7.71h32.57v7.71ZM465.84,108.51h-32.57v-6.67h32.57v6.67ZM426.27,101.84v6.67h-34.88v-6.67h34.88ZM342.48,471.62h-59.6v-16.38h59.6v16.38ZM342.48,448.24h-59.6v-16.38h59.6v16.38ZM342.48,424.85h-59.6v-16.38h59.6v16.38ZM342.48,401.47h-59.6v-16.38h59.6v16.38ZM342.48,378.08h-59.6v-16.38h59.6v16.38ZM342.48,354.7h-59.6v-16.38h59.6v16.38ZM342.48,331.32h-59.6v-16.38h59.6v16.38ZM342.48,293.2v14.74h-59.6v-14.74h59.6ZM282.88,478.62h59.6v13.76h-59.6v-13.76ZM782.84,356h-80.93v-21.54s0-.04,0-.06h80.94s0,.04,0,.06v21.54ZM694.91,356h-80.93v-21.54s0-.04,0-.06h80.94s0,.04,0,.06v21.54ZM694.91,363v23.78h-80.93v-23.78h80.93ZM526.32,417.55v-23.78h80.65v23.78h-80.65ZM606.98,424.55v23.78h-80.65v-23.78h80.65ZM613.98,393.78h80.93v23.78h-80.93v-23.78ZM606.98,386.78h-80.65v-23.78h80.65v23.78ZM526.32,547.66h80.65v23.78h-80.65v-23.78ZM526.32,540.66v-23.78h80.65v23.78h-80.65ZM526.32,509.88v-23.78h80.65v23.78h-80.65ZM526.32,479.11v-23.78h80.65v23.78h-80.65ZM613.98,455.33h80.93v23.78h-80.93v-23.78ZM613.98,448.33v-23.78h80.93v23.78h-80.93ZM701.91,424.55h80.93v23.78h-80.93v-23.78ZM701.91,417.55v-23.78h80.93v23.78h-80.93ZM701.91,386.78v-23.78h80.93v23.78h-80.93ZM606.98,334.4s0,.04,0,.06v21.54h-80.65v-21.6h80.66ZM526.32,578.43h80.65v20.32h-80.65v-20.32ZM694.91,598.76h-80.93v-20.32h80.93v20.32ZM694.91,571.43h-80.93v-23.78h80.93v23.78ZM694.91,540.66h-80.93v-23.78h80.93v23.78ZM694.91,509.88h-80.93v-23.78h80.93v23.78ZM782.84,479.11h-80.93v-23.78h80.93v23.78ZM866.37,448.33h-76.54v-23.78h76.54v23.78ZM866.37,417.55h-76.54v-23.78h76.54v23.78ZM866.37,386.78h-76.54v-23.78h76.54v23.78ZM866.37,334.46v21.54h-76.54v-21.54s0-.04,0-.06h76.55s0,.04,0,.06ZM1014.52,274.32h-34.88v-7.71h34.88v7.71ZM979.64,193.08h34.88v7.71h-34.88v-7.71ZM979.64,186.08v-7.71h34.88v7.71h-34.88ZM1014.52,259.61h-34.88v-7.71h34.88v7.71ZM1014.52,244.9h-34.88v-7.71h34.88v7.71ZM1014.52,230.2h-34.88v-7.71h34.88v7.71ZM1014.52,215.49h-34.88v-7.71h34.88v7.71ZM1054.09,200.79h-32.57v-7.71h32.57v7.71ZM1054.09,186.08h-32.57v-7.71h32.57v7.71ZM1054.09,171.38h-32.57v-6.67h32.57v6.67ZM1014.52,164.71v6.67h-34.88v-6.67h34.88ZM1014.52,287.37h-34.88v-6.06h34.88v6.06ZM506.38,281.55c-2.67,6.76-5.19,13.14-9.01,17.95-19.44,24.52-41.08,28.21-41.29,28.24-1.91.29-3.22,2.08-2.93,3.99.26,1.73,1.76,2.97,3.46,2.97.18,0,.35-.01.53-.04.99-.15,24.47-4.01,45.71-30.82,4.46-5.62,7.17-12.47,10.03-19.72,4.55-11.51,9.25-23.4,21.56-31.61,9.69-6.46,31.45-8.49,40.17-9.06l-16.02,18.69c-1.26,1.47-1.09,3.68.38,4.94.66.57,1.47.84,2.28.84.99,0,1.97-.41,2.66-1.22l21.62-25.21s.02-.04.04-.05v2.34c-.21.45-.33.94-.33,1.46s.12,1.02.33,1.46v15.34c-.21.45-.33.94-.33,1.46s.12,1.02.33,1.46v15.34c-.21.45-.33.94-.33,1.46s.12,1.02.33,1.46v14.35c0,.56.14,1.08.37,1.54.48,1.37,1.76,2.35,3.29,2.35h215.12c1.93,0,3.5-1.57,3.5-3.5s-1.57-3.5-3.5-3.5h-54.09v-9.21h35.18c1.93,0,3.5-1.57,3.5-3.5s-1.57-3.5-3.5-3.5h-35.18v-11.26h11.4c1.93,0,3.5-1.57,3.5-3.5s-1.57-3.5-3.5-3.5h-11.4v-11.26h22.88c1.93,0,3.5-1.57,3.5-3.5s-1.57-3.5-3.5-3.5h-22.88v-11.26h54.54c1.93,0,3.5-1.57,3.5-3.5s-1.57-3.5-3.5-3.5h-54.54v-11.26h54.99c1.93,0,3.5-1.57,3.5-3.5s-1.57-3.5-3.5-3.5h-54.99v-11.26h55.67c1.93,0,3.5-1.57,3.5-3.5s-1.57-3.5-3.5-3.5h-55.67v-11.26h56.17c1.93,0,3.5-1.57,3.5-3.5s-1.57-3.5-3.5-3.5h-56.17v-11.26h55.33c1.93,0,3.5-1.57,3.5-3.5s-1.57-3.5-3.5-3.5h-55.33v-9.97h63.06c1.93,0,3.5-1.57,3.5-3.5s-1.57-3.5-3.5-3.5h-224.09c-1.93,0-3.5,1.57-3.5,3.5v1.1c-.1.32-.17.66-.17,1.01v13.4c-.21.45-.33.94-.33,1.46s.12,1.02.33,1.46v15.34c-.21.45-.33.94-.33,1.46s.12,1.02.33,1.46v15.34c-.21.45-.33.94-.33,1.46s.12,1.02.33,1.46v15.34c-.21.45-.33.94-.33,1.46s.12,1.02.33,1.46v15.34c-.21.45-.33.94-.33,1.46s.12,1.02.33,1.46v8.56c-.08-.1-.16-.2-.25-.3l-23.18-22.62c-1.38-1.35-3.6-1.32-4.95.06-1.35,1.38-1.32,3.6.06,4.95l17.75,17.32c-8.66.51-32.91,2.6-44.43,10.28-14.13,9.42-19.47,22.94-24.18,34.86ZM690.5,157.43v11.26h-45.76v-11.26h45.76ZM644.74,150.43v-9.97h45.76v9.97h-45.76ZM644.74,278.26v-11.26h45.76v11.26h-45.76ZM690.5,285.26v9.21h-45.76v-9.21h45.76ZM592.73,248.74h45.01v11.26h-45.01v-11.26ZM592.73,241.74v-11.26h45.01v11.26h-45.01ZM592.73,223.47v-11.26h45.01v11.26h-45.01ZM592.73,205.21v-11.26h45.01v11.26h-45.01ZM592.73,186.95v-11.26h45.01v11.26h-45.01ZM592.73,267h45.01v11.26h-45.01v-11.26ZM644.74,260v-11.26h45.76v11.26h-45.76ZM644.74,241.74v-11.26h45.76v11.26h-45.76ZM644.74,223.47v-11.26h45.76v11.26h-45.76ZM644.74,205.21v-11.26h45.76v11.26h-45.76ZM644.74,186.95v-11.26h45.76v11.26h-45.76ZM637.74,168.69h-45.01v-11.26h45.01v11.26ZM592.73,285.26h45.01v9.21h-45.01v-9.21ZM743.25,294.47h-45.76v-9.21h45.76v9.21ZM743.25,278.26h-45.76v-11.26h45.76v11.26ZM743.25,260h-45.76v-11.26h45.76v11.26ZM743.25,241.74h-45.76v-11.26h45.76v11.26ZM743.25,223.47h-45.76v-11.26h45.76v11.26ZM743.25,205.21h-45.76v-11.26h45.76v11.26ZM743.25,186.95h-45.76v-11.26h45.76v11.26ZM743.25,168.69h-45.76v-11.26h45.76v11.26ZM743.25,150.43h-45.76v-9.97h45.76v9.97ZM637.74,140.46v9.97h-45.01v-9.97h45.01Z"/>
</svg>