<svg width="843" height="612" viewBox="0 0 843 612" fill="none" xmlns="http://www.w3.org/2000/svg">
<path d="M685.25 555.71C651.91 533.84 629.64 518.05 604.72 485.79C609.98 477.97 613.05 468.57 613.05 458.47C613.05 446.53 608.76 435.57 601.64 427.05L631.08 389.54C632.27 388.02 632.01 385.82 630.49 384.62C628.97 383.43 626.77 383.69 625.57 385.21L596.73 421.96C588.03 414.14 576.54 409.38 563.95 409.38C536.88 409.38 514.86 431.4 514.86 458.47C514.86 485.54 534.96 505.57 560.36 507.41C572.98 554.34 589.38 580.55 609.48 609.87C610.15 610.84 611.24 611.39 612.37 611.39C612.75 611.39 613.13 611.33 613.5 611.2C614.99 610.69 615.95 609.26 615.86 607.69L615.53 602.04C614.51 584.59 613.46 566.58 614.06 543.95L682.43 562.02C684.09 562.46 685.82 561.63 686.52 560.06C687.22 558.49 686.68 556.65 685.24 555.71H685.25ZM521.87 458.46C521.87 435.25 540.75 416.37 563.96 416.37C574.92 416.37 584.91 420.58 592.41 427.47L562.44 465.66L553.6 446.13C552.8 444.37 550.73 443.59 548.97 444.38C547.21 445.18 546.43 447.25 547.22 449.01L558.44 473.8C558.94 474.92 559.99 475.69 561.21 475.83C561.35 475.85 561.49 475.86 561.63 475.86C562.7 475.86 563.72 475.37 564.38 474.52L597.21 432.69C602.74 439.82 606.05 448.75 606.05 458.45C606.05 481.66 587.17 500.54 563.96 500.54C540.75 500.54 521.87 481.66 521.87 458.45V458.46ZM611.6 536.05C610.57 535.78 609.47 535.99 608.62 536.62C607.77 537.25 607.25 538.24 607.21 539.31C606.45 561.22 607.21 578.79 608.15 595.38C591.89 570.89 578.36 546.55 567.62 507.39C580.52 506.43 592.05 500.48 600.27 491.46C620.77 517.71 639.54 533.16 663.92 549.88L611.6 536.05ZM267.74 251.3C267.74 249.37 269.31 247.8 271.24 247.8H313.1C315.03 247.8 316.6 249.37 316.6 251.3C316.6 253.23 315.03 254.8 313.1 254.8H271.24C269.31 254.8 267.74 253.23 267.74 251.3ZM267.74 279.74C267.74 277.81 269.31 276.24 271.24 276.24H313.1C315.03 276.24 316.6 277.81 316.6 279.74C316.6 281.67 315.03 283.24 313.1 283.24H271.24C269.31 283.24 267.74 281.67 267.74 279.74ZM316.6 310.52C316.6 312.45 315.03 314.02 313.1 314.02H271.24C269.31 314.02 267.74 312.45 267.74 310.52C267.74 308.59 269.31 307.02 271.24 307.02H313.1C315.03 307.02 316.6 308.59 316.6 310.52ZM267.74 341.3C267.74 339.37 269.31 337.8 271.24 337.8H313.1C315.03 337.8 316.6 339.37 316.6 341.3C316.6 343.23 315.03 344.8 313.1 344.8H271.24C269.31 344.8 267.74 343.23 267.74 341.3ZM316.6 372.07C316.6 374 315.03 375.57 313.1 375.57H271.24C269.31 375.57 267.74 374 267.74 372.07C267.74 370.14 269.31 368.57 271.24 368.57H313.1C315.03 368.57 316.6 370.14 316.6 372.07ZM316.6 402.85C316.6 404.78 315.03 406.35 313.1 406.35H271.24C269.31 406.35 267.74 404.78 267.74 402.85C267.74 400.92 269.31 399.35 271.24 399.35H313.1C315.03 399.35 316.6 400.92 316.6 402.85ZM316.6 433.62C316.6 435.55 315.03 437.12 313.1 437.12H271.24C269.31 437.12 267.74 435.55 267.74 433.62C267.74 431.69 269.31 430.12 271.24 430.12H313.1C315.03 430.12 316.6 431.69 316.6 433.62ZM316.6 464.4C316.6 466.33 315.03 467.9 313.1 467.9H271.24C269.31 467.9 267.74 466.33 267.74 464.4C267.74 462.47 269.31 460.9 271.24 460.9H313.1C315.03 460.9 316.6 462.47 316.6 464.4ZM403.7 251.3C403.7 253.23 402.13 254.8 400.2 254.8H358.34C356.41 254.8 354.84 253.23 354.84 251.3C354.84 249.37 356.41 247.8 358.34 247.8H400.2C402.13 247.8 403.7 249.37 403.7 251.3ZM354.83 279.74C354.83 277.81 356.4 276.24 358.33 276.24H400.19C402.12 276.24 403.69 277.81 403.69 279.74C403.69 281.67 402.12 283.24 400.19 283.24H358.33C356.4 283.24 354.83 281.67 354.83 279.74ZM403.7 310.52C403.7 312.45 402.13 314.02 400.2 314.02H358.34C356.41 314.02 354.84 312.45 354.84 310.52C354.84 308.59 356.41 307.02 358.34 307.02H400.2C402.13 307.02 403.7 308.59 403.7 310.52ZM403.7 341.3C403.7 343.23 402.13 344.8 400.2 344.8H358.34C356.41 344.8 354.84 343.23 354.84 341.3C354.84 339.37 356.41 337.8 358.34 337.8H400.2C402.13 337.8 403.7 339.37 403.7 341.3ZM403.7 372.07C403.7 374 402.13 375.57 400.2 375.57H358.34C356.41 375.57 354.84 374 354.84 372.07C354.84 370.14 356.41 368.57 358.34 368.57H400.2C402.13 368.57 403.7 370.14 403.7 372.07ZM354.83 402.85C354.83 400.92 356.4 399.35 358.33 399.35H400.19C402.12 399.35 403.69 400.92 403.69 402.85C403.69 404.78 402.12 406.35 400.19 406.35H358.33C356.4 406.35 354.83 404.78 354.83 402.85ZM354.83 433.62C354.83 431.69 356.4 430.12 358.33 430.12H400.19C402.12 430.12 403.69 431.69 403.69 433.62C403.69 435.55 402.12 437.12 400.19 437.12H358.33C356.4 437.12 354.83 435.55 354.83 433.62ZM354.83 464.4C354.83 462.47 356.4 460.9 358.33 460.9H400.19C402.12 460.9 403.69 462.47 403.69 464.4C403.69 466.33 402.12 467.9 400.19 467.9H358.33C356.4 467.9 354.83 466.33 354.83 464.4ZM491.63 251.3C491.63 253.23 490.06 254.8 488.13 254.8H446.27C444.34 254.8 442.77 253.23 442.77 251.3C442.77 249.37 444.34 247.8 446.27 247.8H488.13C490.06 247.8 491.63 249.37 491.63 251.3ZM491.63 279.74C491.63 281.67 490.06 283.24 488.13 283.24H446.27C444.34 283.24 442.77 281.67 442.77 279.74C442.77 277.81 444.34 276.24 446.27 276.24H488.13C490.06 276.24 491.63 277.81 491.63 279.74ZM491.63 310.52C491.63 312.45 490.06 314.02 488.13 314.02H446.27C444.34 314.02 442.77 312.45 442.77 310.52C442.77 308.59 444.34 307.02 446.27 307.02H488.13C490.06 307.02 491.63 308.59 491.63 310.52ZM491.63 341.3C491.63 343.23 490.06 344.8 488.13 344.8H446.27C444.34 344.8 442.77 343.23 442.77 341.3C442.77 339.37 444.34 337.8 446.27 337.8H488.13C490.06 337.8 491.63 339.37 491.63 341.3ZM442.76 372.07C442.76 370.14 444.33 368.57 446.26 368.57H488.12C490.05 368.57 491.62 370.14 491.62 372.07C491.62 374 490.05 375.57 488.12 375.57H446.26C444.33 375.57 442.76 374 442.76 372.07ZM488.13 399.35C490.06 399.35 491.63 400.92 491.63 402.85C491.63 404.78 490.06 406.35 488.13 406.35H446.27C444.34 406.35 442.77 404.78 442.77 402.85C442.77 400.92 444.34 399.35 446.27 399.35H488.13ZM526.3 251.3C526.3 249.37 527.87 247.8 529.8 247.8H571.66C573.59 247.8 575.16 249.37 575.16 251.3C575.16 253.23 573.59 254.8 571.66 254.8H529.8C527.87 254.8 526.3 253.23 526.3 251.3ZM526.3 279.74C526.3 277.81 527.87 276.24 529.8 276.24H571.66C573.59 276.24 575.16 277.81 575.16 279.74C575.16 281.67 573.59 283.24 571.66 283.24H529.8C527.87 283.24 526.3 281.67 526.3 279.74ZM526.3 310.52C526.3 308.59 527.87 307.02 529.8 307.02H571.66C573.59 307.02 575.16 308.59 575.16 310.52C575.16 312.45 573.59 314.02 571.66 314.02H529.8C527.87 314.02 526.3 312.45 526.3 310.52ZM526.3 341.3C526.3 339.37 527.87 337.8 529.8 337.8H571.66C573.59 337.8 575.16 339.37 575.16 341.3C575.16 343.23 573.59 344.8 571.66 344.8H529.8C527.87 344.8 526.3 343.23 526.3 341.3ZM225.94 291.76C224.42 290.57 222.22 290.83 221.03 292.35L199.66 319.58C192.99 313.86 184.33 310.39 174.87 310.39C153.84 310.39 136.73 327.5 136.73 348.53C136.73 369.56 153.84 386.67 174.87 386.67C195.9 386.67 213.01 369.56 213.01 348.53C213.01 339.5 209.85 331.19 204.58 324.65L226.53 296.67C227.72 295.15 227.46 292.95 225.94 291.75V291.76ZM206.02 348.53C206.02 365.7 192.05 379.67 174.88 379.67C157.71 379.67 143.74 365.7 143.74 348.53C143.74 331.36 157.71 317.39 174.88 317.39C182.71 317.39 189.87 320.3 195.34 325.09L173.91 352.4L167.77 338.82C166.97 337.06 164.9 336.28 163.14 337.07C161.38 337.87 160.6 339.94 161.39 341.7L169.91 360.54C170.41 361.66 171.46 362.43 172.68 362.57C172.82 362.59 172.96 362.6 173.1 362.6C174.17 362.6 175.18 362.11 175.85 361.26L200.12 330.34C203.82 335.46 206.01 341.75 206.01 348.54L206.02 348.53ZM18.61 206.47C18.61 204.54 20.18 202.97 22.11 202.97H53.92C55.85 202.97 57.42 204.54 57.42 206.47C57.42 208.4 55.85 209.97 53.92 209.97H22.11C20.18 209.97 18.61 208.4 18.61 206.47ZM18.61 228.08C18.61 226.15 20.18 224.58 22.11 224.58H53.92C55.85 224.58 57.42 226.15 57.42 228.08C57.42 230.01 55.85 231.58 53.92 231.58H22.11C20.18 231.58 18.61 230.01 18.61 228.08ZM18.61 251.46C18.61 249.53 20.18 247.96 22.11 247.96H53.92C55.85 247.96 57.42 249.53 57.42 251.46C57.42 253.39 55.85 254.96 53.92 254.96H22.11C20.18 254.96 18.61 253.39 18.61 251.46ZM18.61 274.85C18.61 272.92 20.18 271.35 22.11 271.35H53.92C55.85 271.35 57.42 272.92 57.42 274.85C57.42 276.78 55.85 278.35 53.92 278.35H22.11C20.18 278.35 18.61 276.78 18.61 274.85ZM18.61 298.23C18.61 296.3 20.18 294.73 22.11 294.73H53.92C55.85 294.73 57.42 296.3 57.42 298.23C57.42 300.16 55.85 301.73 53.92 301.73H22.11C20.18 301.73 18.61 300.16 18.61 298.23ZM18.61 321.62C18.61 319.69 20.18 318.12 22.11 318.12H53.92C55.85 318.12 57.42 319.69 57.42 321.62C57.42 323.55 55.85 325.12 53.92 325.12H22.11C20.18 325.12 18.61 323.55 18.61 321.62ZM18.61 345C18.61 343.07 20.18 341.5 22.11 341.5H53.92C55.85 341.5 57.42 343.07 57.42 345C57.42 346.93 55.85 348.5 53.92 348.5H22.11C20.18 348.5 18.61 346.93 18.61 345ZM18.61 368.39C18.61 366.46 20.18 364.89 22.11 364.89H53.92C55.85 364.89 57.42 366.46 57.42 368.39C57.42 370.32 55.85 371.89 53.92 371.89H22.11C20.18 371.89 18.61 370.32 18.61 368.39ZM120.1 202.97C122.03 202.97 123.6 204.54 123.6 206.47C123.6 208.4 122.03 209.97 120.1 209.97H88.29C86.36 209.97 84.79 208.4 84.79 206.47C84.79 204.54 86.36 202.97 88.29 202.97H120.1ZM120.1 224.58C122.03 224.58 123.6 226.15 123.6 228.08C123.6 230.01 122.03 231.58 120.1 231.58H88.29C86.36 231.58 84.79 230.01 84.79 228.08C84.79 226.15 86.36 224.58 88.29 224.58H120.1ZM120.1 247.96C122.03 247.96 123.6 249.53 123.6 251.46C123.6 253.39 122.03 254.96 120.1 254.96H88.29C86.36 254.96 84.79 253.39 84.79 251.46C84.79 249.53 86.36 247.96 88.29 247.96H120.1ZM120.1 271.35C122.03 271.35 123.6 272.92 123.6 274.85C123.6 276.78 122.03 278.35 120.1 278.35H88.29C86.36 278.35 84.79 276.78 84.79 274.85C84.79 272.92 86.36 271.35 88.29 271.35H120.1ZM120.1 294.73C122.03 294.73 123.6 296.3 123.6 298.23C123.6 300.16 122.03 301.73 120.1 301.73H88.29C86.36 301.73 84.79 300.16 84.79 298.23C84.79 296.3 86.36 294.73 88.29 294.73H120.1ZM123.6 321.62C123.6 323.55 122.03 325.12 120.1 325.12H88.29C86.36 325.12 84.79 323.55 84.79 321.62C84.79 319.69 86.36 318.12 88.29 318.12H120.1C122.03 318.12 123.6 319.69 123.6 321.62ZM123.6 345C123.6 346.93 122.03 348.5 120.1 348.5H88.29C86.36 348.5 84.79 346.93 84.79 345C84.79 343.07 86.36 341.5 88.29 341.5H120.1C122.03 341.5 123.6 343.07 123.6 345ZM123.6 368.39C123.6 370.32 122.03 371.89 120.1 371.89H88.29C86.36 371.89 84.79 370.32 84.79 368.39C84.79 366.46 86.36 364.89 88.29 364.89H120.1C122.03 364.89 123.6 366.46 123.6 368.39ZM513.29 165.54C513.29 182.39 527 196.09 543.84 196.09C560.68 196.09 574.39 182.38 574.39 165.54C574.39 158.52 572.01 152.06 568.01 146.89L584.78 125.52C585.97 124 585.71 121.8 584.19 120.6C582.67 119.41 580.47 119.67 579.27 121.19L563.07 141.83C557.81 137.55 551.12 134.99 543.83 134.99C526.98 134.99 513.28 148.69 513.28 165.54H513.29ZM532.61 160.53L539.27 175.24C539.77 176.36 540.82 177.13 542.04 177.27C542.18 177.29 542.32 177.3 542.46 177.3C543.53 177.3 544.55 176.81 545.21 175.96L563.52 152.63C565.96 156.34 567.39 160.78 567.39 165.55C567.39 178.54 556.83 189.1 543.84 189.1C530.85 189.1 520.29 178.54 520.29 165.55C520.29 152.56 530.85 142 543.84 142C549.5 142 554.7 144.01 558.76 147.35L543.26 167.1L538.98 157.65C538.18 155.89 536.11 155.11 534.35 155.9C532.59 156.7 531.81 158.77 532.6 160.53H532.61ZM194.73 100.19C194.73 114.13 206.07 125.47 220.01 125.47C233.95 125.47 245.29 114.13 245.29 100.19C245.29 94.57 243.45 89.38 240.34 85.18L253.52 68.38C254.71 66.86 254.45 64.66 252.93 63.46C251.41 62.27 249.21 62.53 248.02 64.05L235.4 80.13C231.14 76.85 225.8 74.89 220.02 74.89C206.08 74.89 194.74 86.23 194.74 100.17L194.73 100.19ZM210.35 96.43L215.71 108.28C216.21 109.4 217.26 110.17 218.48 110.31C218.62 110.33 218.76 110.34 218.9 110.34C219.97 110.34 220.98 109.85 221.65 109L235.78 90.99C237.37 93.7 238.29 96.84 238.29 100.19C238.29 110.27 230.09 118.47 220.01 118.47C209.93 118.47 201.73 110.27 201.73 100.19C201.73 90.11 209.93 81.91 220.01 81.91C224.17 81.91 227.99 83.32 231.06 85.66L219.7 100.14L216.72 93.55C215.92 91.79 213.85 91.01 212.09 91.8C210.33 92.59 209.55 94.67 210.34 96.43H210.35ZM841.18 126.33C839.66 125.14 837.46 125.4 836.27 126.92L823.65 143C819.38 139.72 814.05 137.76 808.27 137.76C794.33 137.76 782.99 149.1 782.99 163.04C782.99 176.98 794.33 188.32 808.27 188.32C822.21 188.32 833.56 176.98 833.56 163.04C833.56 157.42 831.72 152.23 828.6 148.03L841.78 131.23C842.97 129.71 842.71 127.51 841.19 126.32L841.18 126.33ZM826.55 163.06C826.55 173.14 818.35 181.34 808.26 181.34C798.17 181.34 789.98 173.14 789.98 163.06C789.98 152.98 798.18 144.78 808.26 144.78C812.42 144.78 816.24 146.19 819.31 148.53L807.95 163L804.97 156.41C804.17 154.65 802.1 153.87 800.34 154.66C798.58 155.46 797.8 157.53 798.59 159.29L803.95 171.14C804.45 172.26 805.5 173.03 806.72 173.17C806.86 173.19 807 173.2 807.14 173.2C808.21 173.2 809.22 172.71 809.89 171.86L824.02 153.85C825.61 156.56 826.53 159.7 826.53 163.06H826.55ZM784.74 179.61H746.27V171.9H765.85C767.78 171.9 769.35 170.33 769.35 168.4C769.35 166.47 767.78 164.9 765.85 164.9H746.27V157.19H770.48C772.41 157.19 773.98 155.62 773.98 153.69C773.98 151.76 772.41 150.19 770.48 150.19H746.27V142.48H784.22C786.15 142.48 787.72 140.91 787.72 138.98C787.72 137.05 786.15 135.48 784.22 135.48H746.27V127.77H793.02C794.95 127.77 796.52 126.2 796.52 124.27C796.52 122.34 794.95 120.77 793.02 120.77H746.27V113.06H778.84V117.24C778.84 119.17 780.41 120.74 782.34 120.74C784.27 120.74 785.84 119.17 785.84 117.24V112.58C786.89 111.98 787.61 110.85 787.61 109.56C787.61 108.27 786.89 107.14 785.84 106.54V98.36H791.16C793.09 98.36 794.66 96.79 794.66 94.86C794.66 92.93 793.09 91.36 791.16 91.36H785.84V83.65H790.99C792.92 83.65 794.49 82.08 794.49 80.15C794.49 78.22 792.92 76.65 790.99 76.65H785.84V69.98H799.27C801.2 69.98 802.77 68.41 802.77 66.48C802.77 64.55 801.2 62.98 799.27 62.98H700.89C698.96 62.98 697.39 64.55 697.39 66.48V67.28C697.31 67.57 697.26 67.87 697.26 68.18V78.81C697.09 79.22 696.99 79.67 696.99 80.14C696.99 80.61 697.09 81.06 697.26 81.47V93.51C697.09 93.92 696.99 94.37 696.99 94.84C696.99 95.31 697.09 95.76 697.26 96.17V108.21C697.23 108.28 697.22 108.35 697.19 108.42L667.9 89.73C666.27 88.69 664.11 89.17 663.07 90.8C662.03 92.43 662.51 94.59 664.14 95.63L685.44 109.22C670.87 111.14 641.27 118.63 615.85 147.47C592.16 174.35 580.51 229.8 580.02 232.15C579.99 232.32 579.98 232.48 579.97 232.65H247.58C245.65 232.65 244.08 234.22 244.08 236.15V262.51C243.57 263.12 243.25 263.9 243.25 264.75C243.25 265.6 243.57 266.39 244.08 266.99V293.28C243.57 293.89 243.25 294.67 243.25 295.52C243.25 296.37 243.57 297.16 244.08 297.76V324.05C243.57 324.66 243.25 325.44 243.25 326.29C243.25 327.14 243.57 327.93 244.08 328.53V354.82C243.57 355.43 243.25 356.21 243.25 357.06C243.25 357.91 243.57 358.7 244.08 359.3V385.59C243.57 386.2 243.25 386.98 243.25 387.83C243.25 388.68 243.57 389.47 244.08 390.07V416.36C243.57 416.97 243.25 417.75 243.25 418.6C243.25 419.45 243.57 420.24 244.08 420.84V440.33C243.79 440.54 243.52 440.79 243.3 441.1C242.84 441.75 196.09 506.02 137.93 498.75C112.8 495.61 93.1 481.88 79.38 457.95C70.62 442.67 66.4 426.92 64.39 416.26L83.18 432.18C84.66 433.43 86.87 433.25 88.11 431.77C89.36 430.3 89.18 428.09 87.7 426.84L62.83 405.77C62.81 405.53 62.78 405.31 62.76 405.1C62.74 404.93 62.7 404.76 62.66 404.6H118.57C120.5 404.6 122.07 403.03 122.07 401.1C122.07 399.17 120.5 397.6 118.57 397.6H74.22V383.84H137.46C139.39 383.84 140.96 382.27 140.96 380.34C140.96 378.41 139.39 376.84 137.46 376.84H74.22V360.46H107.41C109.34 360.46 110.91 358.89 110.91 356.96C110.91 355.03 109.34 353.46 107.41 353.46H74.22V337.08H114.79C116.72 337.08 118.29 335.51 118.29 333.58C118.29 331.65 116.72 330.08 114.79 330.08H74.22V313.7H136.63C138.56 313.7 140.13 312.13 140.13 310.2C140.13 308.27 138.56 306.7 136.63 306.7H74.22V290.32H150.62C152.55 290.32 154.12 288.75 154.12 286.82C154.12 284.89 152.55 283.32 150.62 283.32H74.22V266.94H136.45C138.38 266.94 139.95 265.37 139.95 263.44C139.95 261.51 138.38 259.94 136.45 259.94H74.22V243.56H147.67C149.6 243.56 151.17 241.99 151.17 240.06C151.17 238.13 149.6 236.56 147.67 236.56H74.22V220.18H147.4C149.33 220.18 150.9 218.61 150.9 216.68C150.9 214.75 149.33 213.18 147.4 213.18H74.22V198.44H160.55C162.48 198.44 164.05 196.87 164.05 194.94C164.05 193.01 162.48 191.44 160.55 191.44H64.11C63.88 191.2 63.62 190.99 63.31 190.82C61.72 189.96 24.58 169.26 35.19 126.8C39.6 109.16 51.78 97.03 71.4 90.77C81.7 87.48 91.49 86.73 96.68 86.59L78.33 103.2C76.9 104.5 76.79 106.71 78.08 108.14C78.77 108.9 79.72 109.29 80.68 109.29C81.52 109.29 82.36 108.99 83.03 108.38L108.77 85.07C108.85 85 108.91 84.91 108.98 84.83V89.43C108.81 89.84 108.71 90.29 108.71 90.76C108.71 91.23 108.81 91.68 108.98 92.09V104.13C108.81 104.54 108.71 104.99 108.71 105.46C108.71 105.93 108.81 106.38 108.98 106.79V118.83C108.81 119.24 108.71 119.69 108.71 120.16C108.71 120.63 108.81 121.08 108.98 121.49V132.89C108.98 133.43 109.11 133.94 109.33 134.4C109.82 135.74 111.1 136.71 112.61 136.71H184.59C186.52 136.71 188.09 135.14 188.09 133.21C188.09 131.28 186.52 129.71 184.59 129.71H158V123.65H196.47C198.4 123.65 199.97 122.08 199.97 120.15C199.97 118.22 198.4 116.65 196.47 116.65H158V108.94H177.58C179.51 108.94 181.08 107.37 181.08 105.44C181.08 103.51 179.51 101.94 177.58 101.94H158V94.23H182.21C184.14 94.23 185.71 92.66 185.71 90.73C185.71 88.8 184.14 87.23 182.21 87.23H158V79.52H195.95C197.88 79.52 199.45 77.95 199.45 76.02C199.45 74.09 197.88 72.52 195.95 72.52H158V64.81H204.75C206.68 64.81 208.25 63.24 208.25 61.31C208.25 59.38 206.68 57.81 204.75 57.81H158V50.1H190.57V54.28C190.57 56.21 192.14 57.78 194.07 57.78C196 57.78 197.57 56.21 197.57 54.28V49.62C198.62 49.02 199.34 47.89 199.34 46.59C199.34 45.29 198.62 44.17 197.57 43.56V35.38H202.89C204.82 35.38 206.39 33.81 206.39 31.88C206.39 29.95 204.82 28.38 202.89 28.38H197.57V20.67H202.72C204.65 20.67 206.22 19.1 206.22 17.17C206.22 15.24 204.65 13.67 202.72 13.67H197.57V7H211C212.93 7 214.5 5.43 214.5 3.5C214.5 1.57 212.93 0 211 0H112.62C110.69 0 109.12 1.57 109.12 3.5V4.3C109.04 4.59 108.99 4.89 108.99 5.21V15.84C108.82 16.25 108.72 16.7 108.72 17.17C108.72 17.64 108.82 18.09 108.99 18.5V30.54C108.82 30.95 108.72 31.4 108.72 31.87C108.72 32.34 108.82 32.79 108.99 33.2V45.24C108.82 45.65 108.72 46.1 108.72 46.57C108.72 47.04 108.82 47.49 108.99 47.9V59.94C108.82 60.35 108.72 60.8 108.72 61.27C108.72 61.74 108.82 62.19 108.99 62.6V74.64C108.82 75.05 108.72 75.5 108.72 75.97C108.72 76.44 108.82 76.89 108.99 77.3V80C108.79 79.79 108.57 79.59 108.32 79.43L77.83 59.98C76.2 58.94 74.04 59.42 73 61.05C71.96 62.68 72.44 64.84 74.07 65.88L95.43 79.51C89.64 79.73 79.9 80.64 69.49 83.93C47.6 90.86 33.4 105.06 28.41 125C22.16 150 31.1 168.24 39.69 179.14C43.82 184.38 48.23 188.44 51.89 191.34H4.13C2.2 191.34 0.63 192.91 0.63 194.84V196.39C0.5 196.75 0.42 197.14 0.42 197.55V214.95C0.16 215.44 0 215.99 0 216.58C0 217.17 0.16 217.72 0.42 218.21V238.33C0.16 238.82 0 239.37 0 239.96C0 240.55 0.16 241.1 0.42 241.59V261.71C0.16 262.2 0 262.75 0 263.34C0 263.93 0.16 264.48 0.42 264.97V285.09C0.16 285.58 0 286.13 0 286.72C0 287.31 0.16 287.86 0.42 288.35V308.47C0.16 308.96 0 309.51 0 310.1C0 310.69 0.16 311.24 0.42 311.73V331.85C0.16 332.34 0 332.89 0 333.48C0 334.07 0.16 334.62 0.42 335.11V355.23C0.16 355.72 0 356.27 0 356.86C0 357.45 0.16 358 0.42 358.49V378.61C0.16 379.1 0 379.65 0 380.24C0 380.83 0.16 381.38 0.42 381.87V400.49C0.42 401.07 0.57 401.61 0.82 402.09C1.28 403.49 2.58 404.5 4.13 404.5H55.9C55.83 404.8 55.79 405.11 55.8 405.43C55.8 405.45 55.78 405.46 55.77 405.48L40.5 438.26C39.68 440.01 40.44 442.09 42.2 442.91C42.68 443.13 43.18 443.24 43.68 443.24C45 443.24 46.26 442.49 46.86 441.22L57.64 418.07C59.81 429.28 64.26 445.54 73.32 461.33C88.19 487.28 109.64 502.17 137.07 505.6C140.38 506.01 143.72 506.22 147.08 506.22C170 506.22 193.93 496.64 216.89 478.17C229.35 468.14 238.7 457.83 244.02 451.43C244.04 451.46 244.07 451.49 244.09 451.52V477.81C243.58 478.42 243.26 479.2 243.26 480.05C243.26 480.9 243.58 481.69 244.09 482.29V507.37C244.09 509.3 245.66 510.87 247.59 510.87H511.38C513.31 510.87 514.88 509.3 514.88 507.37C514.88 505.44 513.31 503.87 511.38 503.87H426.67V483.55H503.86C505.79 483.55 507.36 481.98 507.36 480.05C507.36 478.12 505.79 476.55 503.86 476.55H426.67V452.77H493.85C495.78 452.77 497.35 451.2 497.35 449.27C497.35 447.34 495.78 445.77 493.85 445.77H426.67V421.99H510.54C512.47 421.99 514.04 420.42 514.04 418.49C514.04 416.56 512.47 414.99 510.54 414.99H426.67V391.21H507.6V396.9C507.6 398.83 509.17 400.4 511.1 400.4C513.03 400.4 514.6 398.83 514.6 396.9V391.21H589.01C590.94 391.21 592.51 389.64 592.51 387.71C592.51 385.78 590.94 384.21 589.01 384.21H514.6V360.43H591.14V375.65C591.14 377.58 592.71 379.15 594.64 379.15C596.57 379.15 598.14 377.58 598.14 375.65V360.43H641.61C643.54 360.43 645.11 358.86 645.11 356.93C645.11 355 643.54 353.43 641.61 353.43H598.14V329.65H641.61C643.54 329.65 645.11 328.08 645.11 326.15C645.11 324.22 643.54 322.65 641.61 322.65H598.14V298.87H641.61C643.54 298.87 645.11 297.3 645.11 295.37C645.11 293.44 643.54 291.87 641.61 291.87H598.14V268.09H641.61C643.54 268.09 645.11 266.52 645.11 264.59C645.11 262.66 643.54 261.09 641.61 261.09H598.14V239.55C598.14 239.55 598.14 239.51 598.14 239.49H642.45C644.38 239.49 645.95 237.92 645.95 235.99C645.95 234.06 644.38 232.49 642.45 232.49H587.09C588.71 225.17 600.24 175.62 621.12 151.94C646.56 123.08 677.04 117.02 689.07 115.75L672.09 137.15C670.89 138.66 671.14 140.87 672.66 142.07C673.3 142.58 674.07 142.83 674.83 142.83C675.86 142.83 676.88 142.38 677.57 141.51L697.29 116.66V122.77C697.12 123.18 697.02 123.63 697.02 124.1C697.02 124.57 697.12 125.02 697.29 125.43V137.47C697.12 137.88 697.02 138.33 697.02 138.8C697.02 139.27 697.12 139.72 697.29 140.13V152.17C697.12 152.58 697.02 153.03 697.02 153.5C697.02 153.97 697.12 154.42 697.29 154.83V166.87C697.12 167.28 697.02 167.73 697.02 168.2C697.02 168.67 697.12 169.12 697.29 169.53V181.57C697.12 181.98 697.02 182.43 697.02 182.9C697.02 183.37 697.12 183.82 697.29 184.23V195.63C697.29 196.17 697.42 196.68 697.64 197.14C698.13 198.49 699.41 199.45 700.92 199.45H772.9C774.83 199.45 776.4 197.88 776.4 195.95C776.4 194.02 774.83 192.45 772.9 192.45H746.31V186.39H784.78C786.71 186.39 788.28 184.82 788.28 182.89C788.28 180.96 786.71 179.39 784.78 179.39L784.74 179.61ZM116.14 35.5H151.02V43.21H116.14V35.5ZM116.14 28.5V20.79H151.02V28.5H116.14ZM151.02 129.8H116.14V123.74H151.02V129.8ZM151.02 116.74H116.14V109.03H151.02V116.74ZM151.02 102.03H116.14V94.32H151.02V102.03ZM151.02 87.33H116.14V79.62H151.02V87.33ZM151.02 72.62H116.14V64.91H151.02V72.62ZM151.02 57.92H116.14V50.21H151.02V57.92ZM190.59 43.21H158.02V35.5H190.59V43.21ZM190.59 28.5H158.02V20.79H190.59V28.5ZM190.59 13.8H158.02V7.13H190.59V13.8ZM151.02 7.13V13.8H116.14V7.13H151.02ZM67.23 376.91H7.63V360.53H67.23V376.91ZM67.23 353.53H7.63V337.15H67.23V353.53ZM67.23 330.14H7.63V313.76H67.23V330.14ZM67.23 306.76H7.63V290.38H67.23V306.76ZM67.23 283.37H7.63V266.99H67.23V283.37ZM67.23 259.99H7.63V243.61H67.23V259.99ZM67.23 236.61H7.63V220.23H67.23V236.61ZM67.23 198.49V213.23H7.63V198.49H67.23ZM7.63 383.91H67.23V397.67H7.63V383.91ZM426.66 261.29V239.75C426.66 239.75 426.66 239.71 426.66 239.69H507.6C507.6 239.69 507.6 239.73 507.6 239.75V261.29H426.66ZM338.73 261.29V239.75C338.73 239.75 338.73 239.71 338.73 239.69H419.67C419.67 239.69 419.67 239.73 419.67 239.75V261.29H338.73ZM419.66 268.29V292.07H338.73V268.29H419.66ZM251.08 322.84V299.06H331.73V322.84H251.08ZM331.73 329.84V353.62H251.08V329.84H331.73ZM338.73 299.07H419.66V322.85H338.73V299.07ZM331.73 292.07H251.08V268.29H331.73V292.07ZM251.08 452.95H331.73V476.73H251.08V452.95ZM251.08 445.95V422.17H331.73V445.95H251.08ZM251.08 415.17V391.39H331.73V415.17H251.08ZM251.08 384.4V360.62H331.73V384.4H251.08ZM338.73 360.62H419.66V384.4H338.73V360.62ZM338.73 353.62V329.84H419.66V353.62H338.73ZM426.66 329.84H507.59V353.62H426.66V329.84ZM426.66 322.84V299.06H507.59V322.84H426.66ZM426.66 292.07V268.29H507.59V292.07H426.66ZM331.73 239.69C331.73 239.69 331.73 239.73 331.73 239.75V261.29H251.08V239.69H331.74H331.73ZM251.08 483.72H331.73V504.04H251.08V483.72ZM419.66 504.05H338.73V483.73H419.66V504.05ZM419.66 476.72H338.73V452.94H419.66V476.72ZM419.66 445.95H338.73V422.17H419.66V445.95ZM419.66 415.17H338.73V391.39H419.66V415.17ZM507.59 384.4H426.66V360.62H507.59V384.4ZM591.12 353.62H514.58V329.84H591.12V353.62ZM591.12 322.84H514.58V299.06H591.12V322.84ZM591.12 292.07H514.58V268.29H591.12V292.07ZM591.12 239.75V261.29H514.58V239.75C514.58 239.75 514.58 239.71 514.58 239.69H591.13C591.13 239.69 591.13 239.73 591.13 239.75H591.12ZM739.27 179.61H704.39V171.9H739.27V179.61ZM704.39 98.37H739.27V106.08H704.39V98.37ZM704.39 91.37V83.66H739.27V91.37H704.39ZM739.27 164.9H704.39V157.19H739.27V164.9ZM739.27 150.19H704.39V142.48H739.27V150.19ZM739.27 135.49H704.39V127.78H739.27V135.49ZM739.27 120.78H704.39V113.07H739.27V120.78ZM778.84 106.08H746.27V98.37H778.84V106.08ZM778.84 91.37H746.27V83.66H778.84V91.37ZM778.84 76.67H746.27V70H778.84V76.67ZM739.27 70V76.67H704.39V70H739.27ZM739.27 192.66H704.39V186.6H739.27V192.66ZM231.13 186.84C228.46 193.6 225.94 199.98 222.12 204.79C202.68 229.31 181.04 233 180.83 233.03C178.92 233.32 177.61 235.11 177.9 237.02C178.16 238.75 179.66 239.99 181.36 239.99C181.54 239.99 181.71 239.98 181.89 239.95C182.88 239.8 206.36 235.94 227.6 209.13C232.06 203.51 234.77 196.66 237.63 189.41C242.18 177.9 246.88 166.01 259.19 157.8C268.88 151.34 290.64 149.31 299.36 148.74L283.34 167.43C282.08 168.9 282.25 171.11 283.72 172.37C284.38 172.94 285.19 173.21 286 173.21C286.99 173.21 287.97 172.8 288.66 171.99L310.28 146.78C310.28 146.78 310.3 146.74 310.32 146.73V149.07C310.11 149.52 309.99 150.01 309.99 150.53C309.99 151.05 310.11 151.55 310.32 151.99V167.33C310.11 167.78 309.99 168.27 309.99 168.79C309.99 169.31 310.11 169.81 310.32 170.25V185.59C310.11 186.04 309.99 186.53 309.99 187.05C309.99 187.57 310.11 188.07 310.32 188.51V202.86C310.32 203.42 310.46 203.94 310.69 204.4C311.17 205.77 312.45 206.75 313.98 206.75H529.1C531.03 206.75 532.6 205.18 532.6 203.25C532.6 201.32 531.03 199.75 529.1 199.75H475.01V190.54H510.19C512.12 190.54 513.69 188.97 513.69 187.04C513.69 185.11 512.12 183.54 510.19 183.54H475.01V172.28H486.41C488.34 172.28 489.91 170.71 489.91 168.78C489.91 166.85 488.34 165.28 486.41 165.28H475.01V154.02H497.89C499.82 154.02 501.39 152.45 501.39 150.52C501.39 148.59 499.82 147.02 497.89 147.02H475.01V135.76H529.55C531.48 135.76 533.05 134.19 533.05 132.26C533.05 130.33 531.48 128.76 529.55 128.76H475.01V117.5H530C531.93 117.5 533.5 115.93 533.5 114C533.5 112.07 531.93 110.5 530 110.5H475.01V99.24H530.68C532.61 99.24 534.18 97.67 534.18 95.74C534.18 93.81 532.61 92.24 530.68 92.24H475.01V80.98H531.18C533.11 80.98 534.68 79.41 534.68 77.48C534.68 75.55 533.11 73.98 531.18 73.98H475.01V62.72H530.34C532.27 62.72 533.84 61.15 533.84 59.22C533.84 57.29 532.27 55.72 530.34 55.72H475.01V45.75H538.07C540 45.75 541.57 44.18 541.57 42.25C541.57 40.32 540 38.75 538.07 38.75H313.98C312.05 38.75 310.48 40.32 310.48 42.25V43.35C310.38 43.67 310.31 44.01 310.31 44.36V57.76C310.1 58.21 309.98 58.7 309.98 59.22C309.98 59.74 310.1 60.24 310.31 60.68V76.02C310.1 76.47 309.98 76.96 309.98 77.48C309.98 78 310.1 78.5 310.31 78.94V94.28C310.1 94.73 309.98 95.22 309.98 95.74C309.98 96.26 310.1 96.76 310.31 97.2V112.54C310.1 112.99 309.98 113.48 309.98 114C309.98 114.52 310.1 115.02 310.31 115.46V130.8C310.1 131.25 309.98 131.74 309.98 132.26C309.98 132.78 310.1 133.28 310.31 133.72V142.28C310.23 142.18 310.15 142.08 310.06 141.98L286.88 119.36C285.5 118.01 283.28 118.04 281.93 119.42C280.58 120.8 280.61 123.02 281.99 124.37L299.74 141.69C291.08 142.2 266.83 144.29 255.31 151.97C241.18 161.39 235.84 174.91 231.13 186.83V186.84ZM415.25 62.72V73.98H369.49V62.72H415.25ZM369.49 55.72V45.75H415.25V55.72H369.49ZM369.49 183.55V172.29H415.25V183.55H369.49ZM415.25 190.55V199.76H369.49V190.55H415.25ZM317.48 154.03H362.49V165.29H317.48V154.03ZM317.48 147.03V135.77H362.49V147.03H317.48ZM317.48 128.76V117.5H362.49V128.76H317.48ZM317.48 110.5V99.24H362.49V110.5H317.48ZM317.48 92.24V80.98H362.49V92.24H317.48ZM317.48 172.29H362.49V183.55H317.48V172.29ZM369.49 165.29V154.03H415.25V165.29H369.49ZM369.49 147.03V135.77H415.25V147.03H369.49ZM369.49 128.76V117.5H415.25V128.76H369.49ZM369.49 110.5V99.24H415.25V110.5H369.49ZM369.49 92.24V80.98H415.25V92.24H369.49ZM362.49 73.98H317.48V62.72H362.49V73.98ZM317.48 190.55H362.49V199.76H317.48V190.55ZM468.01 199.76H422.25V190.55H468.01V199.76ZM468.01 183.55H422.25V172.29H468.01V183.55ZM468.01 165.29H422.25V154.03H468.01V165.29ZM468.01 147.03H422.25V135.77H468.01V147.03ZM468.01 128.76H422.25V117.5H468.01V128.76ZM468.01 110.5H422.25V99.24H468.01V110.5ZM468.01 92.24H422.25V80.98H468.01V92.24ZM468.01 73.98H422.25V62.72H468.01V73.98ZM468.01 55.72H422.25V45.75H468.01V55.72ZM362.49 45.75V55.72H317.48V45.75H362.49Z" fill="url(#paint0_linear_63_76)"/>
<defs>
<linearGradient id="paint0_linear_63_76" x1="0" y1="305.76" x2="842.52" y2="305.76" gradientUnits="userSpaceOnUse">
<stop stop-color="#503EF7"/>
<stop offset="1" stop-color="#519FFF"/>
</linearGradient>
</defs>
</svg>
