<svg viewBox="0 0 384 278" fill="none" xmlns="http://www.w3.org/2000/svg">
<path d="M250.302 203.465L255.404 214.743L285.747 176.076M273.063 220.929C285.089 236.75 295.78 244.153 310.769 253.986L277.731 245.252C277.298 257.692 277.948 266.88 278.491 276.391C269.718 263.595 262.058 251.624 256.266 229.886M292.162 107.304H112.543V230.746H232.542M112.164 120.316H291.782M112.164 134.316H291.782M112.164 148.316H291.782M112.164 162.316H291.782M112.164 176.316H267.858M112.164 190.316H232.162M112.164 204.316H224.567M112.164 218.316H229.124M152.416 108.924V230.442M192.416 108.924V230.442M232.416 108.924V180.497M270.417 108.924V170.831M123.307 114.177H142.351M123.307 127.117H142.351M123.307 141.117H142.351M123.307 155.117H142.351M123.307 169.117H142.351M123.307 183.117H142.351M123.307 197.117H142.351M123.307 211.117H142.351M162.927 114.177H181.971M162.927 127.117H181.971M162.927 141.117H181.971M162.927 155.117H181.971M162.927 169.117H181.971M162.927 183.117H181.971M162.927 197.117H181.971M162.927 211.117H181.971M202.927 114.177H221.972M202.927 127.117H221.972M202.927 141.117H221.972M202.927 155.117H221.972M202.927 169.117H221.972M202.927 183.117H221.972M240.927 114.177H259.972M240.927 127.117H259.972M240.927 141.117H259.972M240.927 155.117H259.972M74.7879 154.645L78.6644 163.215L101.719 133.835M72.9631 88.5611H1.80026V182.355H53.8648M1.51172 98.4483H66.9784M1.51172 109.086H67.1014M1.51172 119.723H61.9995M1.51172 130.361H68.444M1.51172 140.999H62.0809M1.51172 151.636H52.1435M1.51172 162.274H48.7894M1.51172 172.911H62.4556M1.70374 89.7922V182.124M32.0968 89.7922V182.124M9.97887 93.7838H24.4491M9.97887 103.616H24.4491M9.97887 114.253H24.4491M9.97887 124.891H24.4491M9.97887 135.529H24.4491M9.97887 146.166H24.4491M9.97887 156.804H24.4491M9.97887 167.441H24.4491M40.0834 93.7838H54.5536M40.0834 103.616H54.5536M40.0834 114.253H54.5536M40.0834 124.891H54.5536M40.0834 135.529H54.5536M40.0834 146.166H54.5536M40.0834 156.804H54.5536M40.0834 167.441H54.5536M243.659 72.2296L246.686 78.9213L264.69 55.9784M244.689 19.0795H142.751V92.3239H240.609M142.526 26.8005H241.171M142.526 35.1074H241.556M142.526 43.4144H241.328M142.526 51.7213H241.016M142.526 60.0282H240.814M142.526 68.3352H226.409M142.526 76.6421H221.19M142.526 84.949H232.006M142.676 20.0409V92.1436M166.41 20.0409V92.1436M190.41 20.0409V92.1436M214.41 20.0409V92.1436M97.0588 43.0708L99.4967 48.4598L113.995 29.9834M95.9113 1.51184H51.1586V60.4969H83.9008M50.9771 7.72972H92.1476M50.9771 14.4194H92.225M50.9771 21.1092H89.0165M50.9771 27.7989H93.0693M50.9771 34.4886H89.0677M50.9771 41.1783H82.8183M50.9771 47.868H80.709M50.9771 54.5578H89.3033M51.0979 2.28606V60.3517M70.2113 2.28606V60.3517M88.2114 2.28606V24.6037M364.658 71.6693L367.096 77.0582L381.595 58.5818M363.511 30.1103H318.758V89.0953H351.5M318.577 36.3281H359.747M318.577 43.0179H359.824M318.577 49.7076H356.616M318.577 56.3973H360.669M318.577 63.087H356.667M318.577 69.7767H350.418M318.577 76.4665H348.309M318.577 83.1562H356.903M318.697 30.8845V88.9501M337.811 30.8845V88.9501M355.811 30.8845V53.2021M111.892 201.477C111.892 201.477 90.1986 231.825 62.4654 228.358C34.7322 224.892 27.8805 194.901 26.8887 184.324M19.7884 199.977L26.7337 185.065L38.7859 195.279M129.313 55.3022L139.859 65.5944L130.025 77.0639M34.4754 28.5567L48.3435 37.4045L36.6322 48.0074M302.892 42.0389L316.76 50.8866L306.887 63.328M137.747 65.8443C137.747 65.8443 122.947 66.3211 116.947 70.322C107.343 76.7275 107.246 87.6628 102.214 94.0108C92.8252 105.855 82.4252 107.444 82.4252 107.444M45.7365 37.6777C45.7365 37.6777 19.5921 36.3777 14.3921 57.1776C9.19217 77.9776 27.9699 88.0886 27.9699 88.0886M315.782 50.857C315.782 50.857 296.665 50.537 281.26 68.0161C270.637 80.0683 265.326 105.807 265.326 105.807M277.205 208.417C277.205 219.87 267.92 229.156 256.466 229.156C245.012 229.156 235.727 219.87 235.727 208.417C235.727 196.963 245.012 187.678 256.466 187.678C267.92 187.678 277.205 196.963 277.205 208.417ZM95.229 158.408C95.229 167.111 88.1739 174.166 79.4711 174.166C70.7682 174.166 63.7131 167.111 63.7131 158.408C63.7131 149.705 70.7682 142.65 79.4711 142.65C88.1739 142.65 95.229 149.705 95.229 158.408ZM259.621 75.1676C259.621 81.9637 254.112 87.473 247.316 87.473C240.52 87.473 235.01 81.9637 235.01 75.1676C235.01 68.3714 240.52 62.8621 247.316 62.8621C254.112 62.8621 259.621 68.3714 259.621 75.1676ZM109.914 45.4368C109.914 50.9099 105.477 55.3466 100.004 55.3466C94.531 55.3466 90.0942 50.9099 90.0942 45.4368C90.0942 39.9638 94.531 35.527 100.004 35.527C105.477 35.527 109.914 39.9638 109.914 45.4368ZM377.513 74.0353C377.513 79.5083 373.077 83.9451 367.604 83.9451C362.13 83.9451 357.694 79.5083 357.694 74.0353C357.694 68.5622 362.13 64.1254 367.604 64.1254C373.077 64.1254 377.513 68.5622 377.513 74.0353Z" stroke="url(#paint0_linear_36_43)" stroke-width="3.02362" stroke-linecap="round" stroke-linejoin="round"/>
<defs>
<linearGradient id="paint0_linear_36_43" x1="191.553" y1="1.51184" x2="191.553" y2="276.391" gradientUnits="userSpaceOnUse">
<stop stop-color="#519FFF"/>
<stop offset="1" stop-color="#503EF7"/>
</linearGradient>
</defs>
</svg>
