<?xml version="1.0" encoding="UTF-8"?>
<svg id="Layer_1" data-name="Layer 1" xmlns="http://www.w3.org/2000/svg" xmlns:xlink="http://www.w3.org/1999/xlink" viewBox="0 0 1366 768">
  <defs>
    <style>
      .cls-1 {
        fill: url(#linear-gradient);
      }
    </style>
    <linearGradient id="linear-gradient" x1="191.22" y1="375.75" x2="1143.04" y2="375.75" gradientUnits="userSpaceOnUse">
      <stop offset="0" stop-color="#503ef7"/>
      <stop offset="1" stop-color="#519fff"/>
    </linearGradient>
  </defs>
  <path class="cls-1" d="M725.13,525.1c-40.21,9.26-81.63,9.26-121.41.19-9.4-2.14-17.71-4.69-25.84-9.26-3.98-2.23-7.02-6.18-7.02-11.17l.02-108.96c0-4.69,4.74-8.5,8.39-10.45,20.64-11.02,56.67-12.78,80.99-13.65-3.77-7.83-7.85-14.31-11.74-20.67-.67-1.1.03-3.82,1-4.26,4.51-2.04,5.58,6.87,9.89,9.83l.18-29.28c0-1.17,1.42-3.07,2.43-3.24,1.33-.23,3.36,1.64,3.36,3.15l.05,29.25,5.79-9.16c.56-.89,2.48-1.73,3.4-1.69,1.08.05,2.36,2.78,1.81,3.83l-11.63,22.23c23.93,1.41,60.24,3.19,80.91,14.15,3.2,1.7,7.7,5.24,7.7,9.32l.12,111.18c.01,10.9-19.21,16.54-28.4,18.65ZM745.47,395.48c.3-6.12-32.77-11.87-38.44-12.62-13.97-1.84-27.29-2.9-41.41-3.28l-.16,18.84c-.01,1.59-2,3.65-3.42,3.45-1.3-.18-2.76-2.1-2.79-3.46l-.42-18.77c-17.98.16-35.15,1.34-52.69,4.64-5.42,1.02-27.64,6.25-27.68,12.04s20.64,10.63,25.92,11.58c33.03,5.98,66.7,7.05,100.01,2.52,7.22-.98,40.63-6.18,41.06-14.96ZM615.62,446.69c34.99,5,89.12,5.82,122.41-7.52,2.61-1.58,7.61-3.71,8.31-6.73l.11-27.15c-9.34,4.4-17.94,7.45-27.77,9.45-34.6,7.02-78.16,6.62-112.92.34-9.87-1.78-18.62-4.46-27.85-8.66l.02,26.15c0,6.87,31.02,13.18,37.68,14.13ZM588.69,478.28c13.14,3.52,25.57,6.08,38.83,7.41,34.03,3.42,73.42,2.57,106.46-6.75,4.62-1.6,8.47-3.31,12.55-6.24l-.05-30.76c-13.34,6.71-26.92,10.31-41.84,12.19-33.12,4.17-66.22,3.36-99.11-2.38-9.85-1.72-18.34-5.23-27.56-9.27v30.43c3.54,2.2,6.72,3.7,10.72,5.36ZM743.17,510.71c2.09-2.2,3.56-4.58,3.52-7.27l-.35-23.08c-14.58,6.12-27.9,9.49-42.97,11.33-32.5,3.96-64.93,3.15-97.23-2.41-10.06-1.73-18.77-5.03-28.09-8.98l-.19,21.49c-.03,3.64,1.51,6.5,4.49,8.56,5.57,2.55,10.94,4.7,16.96,6.18,44.91,10.99,83.09,11.54,128.08.33,5.63-1.4,10.35-3.58,15.77-6.16ZM633.15,664.7c-17.12-3.75-9.14-9.69-18.21-11.48-6.2-1.22-9.66-6-8.56-12.32.87-5-11.29-12.01-15.67-15.03l-2.69,5.74c-.52,1.1-3.05,2.73-4.56,2.29l-47.12-13.48c-.83-.24-2.27-1.08-2.83-1.55-.67-.57-.78-2.75-.48-3.79l16.67-58.93c.73-2.59,3.09-3.64,5.69-2.94l47.52,12.91c2.9.79,9.81,11.3,31.23,7.13,8.3-1.61,16.26-2.52,24.69-2.26,14.55-4.87,29.41-3.01,43.27,3.52,6.66,3.14,15.41,4.43,21.42-.38,2.67-2.14,4.51-3.64,7.82-4.79l51.38-17.85c2.47-.86,4.94.59,5.8,3.16l19,56.4c.75,2.23-1.39,4.56-3.38,5.32l-47.32,17.85c-2.28.86-5.27-.4-6.29-2.26l-4.69-8.55-11.29,7.77c-1.5,1.03-3.06,3.07-2.76,4.98,1.01,6.38-2.47,11.23-8.3,13.38-9.17,3.37-1.81,10.01-17.59,13.42-3.43,6.5-9.56,9.93-16.89,9.09-8.57,13.18-27.73,5.57-38.73-.38-7.88,2.54-12.18-2.48-17.13-6.97ZM800.32,610.31l-17.44-51.87-29.99,11.05,22.35,50.49,25.09-9.68ZM562.8,621.09l15.89-54.34-23.34-6.55-15.29,54.45,22.75,6.44ZM583.39,626.74l15.95-54.43-13.8-3.92-15.08,50.98c-.27.91-.44,3.81.57,4.14l12.36,3.24ZM756.8,626.9c3.84-1.28,7.59-2.74,11.72-4.48l-21.01-47.77c-.41-.92-1.83-2.45-2.46-3l-12.94,4.77,20.99,46.44c.57,1.25,2.39,4.49,3.71,4.05ZM716.42,618l11.44,9.08c5.72-3.23,10.16-6.13,15.15-10.25l-15.78-34.08c-1.86-4.02-9.98,6.29-27.16-1.01-24.86-10.56-41.25-9.97-57.91,13.1-.71.98-.97,3.87-.19,4.68,4.93,5.13,15.75.14,21.58-4.92,3.35-2.91,7.21-4.49,11.64-2.82,13.05,4.91,30.08,17.37,41.23,26.22ZM702.73,654.14c2.17,1.32,5.04,1.15,6.89.3,1.5-.69,3.73-4.72,2.13-6.12-6.8-5.94-13.78-10.47-21.03-15.78-1.14-.83-2-3.19-1.53-4.22s3.59-1.93,4.56-1.23l20.47,14.73c2.97,2.14,6.39,2.33,9.04-.08,1.77-1.6,3.39-6.1.83-8.39-14.38-12.89-30.1-24.09-47.03-33.22-4.35-2.34-7.7-1.62-11.27,1.36-6.73,5.6-15.62,8.8-24.03,6.04-2.99-.98-5.93-3.11-6.86-5.21-3.55-7.97,6.86-17.31,12.3-23.42-18.87,1.87-23.17,5.39-41.94-2l-12.43,41.61,17.27,13.62,7.63-6.09c4.31-3.44,10.03-2.5,13.22,1.82,1.01,1.37,3.35,2.48,4.89,2.09,11.98-3.07,13.39,8.25,18.42,8.15,6.83-.14,11.51,5.02,10.87,11.79-.15,1.55.8,3.79,2.14,4.41l21.34,9.92c3.92,1.82,10.74-.07,10.52-4.71-2.49-4.68-28.18-13.35-23.8-17.77,3.54-3.58,21.73,8.93,27.42,12.38ZM628.04,635.27c.55-1.29-1.31-3.73-2.5-4.22-4.96-2.06-11.52,5.15-12.83,10.07-.41,1.54.79,4.34,1.9,5.11,4.66,3.23,11.45-6.31,13.42-10.96ZM644.75,642.47c1.33-2.19-.97-5.17-2.81-6.17-6.12-3.35-13.94,8.25-16.28,12.74-1.5,2.88,1.2,7.1,4.14,7.89,4.81,1.31,12.61-10.62,14.94-14.46ZM658.59,651.61c.96-2.15,0-5.37-1.59-6.52-4.98-3.62-12.28,6.77-15.84,11.3-1.91,2.44-1.48,5.8.77,7.66,6.42,5.3,14.59-7.83,16.66-12.44ZM683.42,668.54c-7.21-4.49-13.8-7.54-21.2-10.61l-7.38,8.83c6.71,3.09,23.57,10.72,28.58,1.78ZM764.93,189.3l-18.42-1.39c-1.02-.07-2.65-1.76-2.67-2.76-.1-6.66-4.79-11.13-11.56-11.33l-54.6-1.58-.69-14.35c-.15-3.13.16-5.98,2.45-8.42,9.42-10.05,11.91-25.99,4.69-38.16-5.5-9.27-15.93-13.86-26.12-13.57-9.91.29-19.58,5.03-24.95,14.07-7.64,12.87-4.02,29.12,7.43,38.41,6.96,5.65,5.24,12.52,5.1,21.15l-15.3-.04c-.9,0-3.18-.44-3.72-1.14-.97-1.25-1.9-11.33-10.91-11.66l-40.97-1.46c-1.86-.07-4.99,1.16-6.14,2.18-1.15,1.01-2.14,4.07-2.04,5.8l1.34,21.85-11.53,1.35c-3.55.42-6.37,3.99-5.51,7.9l7.11,32.04,17.93,77.18c.88,3.79,5.55,5.6,9.09,5.62l153.67,1.08c4.43.03,8.29-2.33,9.15-6.52l15.68-75.87,6.96-33.55c.73-3.53-2.17-6.61-5.48-6.87ZM643.36,144.37c-10.43-9.35-10.91-26.13-.22-34.87,10.63-8.69,26.16-8.02,34.4,3.23,6.48,8.86,6.07,22.95-1.27,31.04-3.81,4.2-6.19,8.36-5.5,14.28-.26,1.36-4.25,1.65-5.35.72,1.48-8.54,3.32-16.72,5.34-25.03.37-1.51-.22-4.21-1.27-4.86-3.79-2.37-7.45,4.88-9.86,4.37-3.98-.84-7.49-5.35-10.4-2.51-.79.76-.96,2.76-.43,4.23,2.88,7.93,5.75,16.42,8.13,24.47-9.7,4.44.04-2.86-13.58-15.07ZM671.14,165.12c1.99,0,1.87,5.45-.21,5.69-3.64.42-20.58,1.67-20.59-2.13,0-3.77,16.74-3.57,20.79-3.56ZM660.91,154.08l-5.78-16.46c3.55,1.66,5.78,2.29,9.56-.18-1,5.88-1.95,10.84-3.78,16.64ZM573.8,164.52c.6-.82,2.86-1.58,4.06-1.55l34.27,1.04c11.07.33,3.9,12.7,11.19,12.86l58.85,1.31,49.22,1.34c4.13.11,7.07,4.15,5.78,7.99l-162.81-.8-1.43-18.59c-.07-.9.37-2.92.87-3.61ZM659.63,305.69l-72.94-1.08c-2.38-.04-4.37-2.03-4.89-4.33l-23.57-102.79c-.41-1.81,1.06-3.93,2.75-4.09,5.19-.52,9.57-1,14.86-.97l153.24.93,30.38.95c.69.02,2.31.81,2.8,1.28.62.59.61,2.6.39,3.66l-8.01,38.19-13.34,64.68c-.38,1.88-2.26,3.78-4.26,3.77l-73.54-.33-3.86.14ZM1087.29,362.02c.93,0,2.74,1.76,2.9,2.66.18,1.02-1.47,2.98-2.82,3l-83.45.97c-1.47.02-3.25-1.51-3.36-2.58s1.5-3.08,2.57-3.1l16.37-.25-.1-16.52-67.99-.35c-2.65-.01-6.22-2.02-6.22-4.94l.11-118.45c0-3.45,1.96-6.67,5.78-6.66l69.57.25,115.97,1.1c3.48.03,6.16,2.92,6.17,6.24l.25,115.94c0,2-.83,4.62-1.9,5.47s-3.95,2.08-5.54,2.07l-64.24-.25-.12,15.3,16.05.09ZM1136.14,316.56l-.1-89.37c0-1.62-.79-3.98-2.57-3.99l-181.4-.86-.25,91.52c0,1.31.27,3.21.89,3.81.5.48,1.88.73,3.03.74l177.07.83c1.35,0,3.33-1.17,3.32-2.68ZM1135.62,340.82c.87-5.59.82-9.85.24-15.45l-183.68-.86c-.44,5.74-.54,10.53.23,15.4l183.22.91ZM1064.84,361.95l-.03-15.43-38.66-.21-.2,16.22,38.9-.58ZM397.4,304.61c-.42-15.32-8.73-29.3-23.15-34.88-9.89-3.83-28.5-5.84-38.12,2.21,9.21,9.68,13.42,21.05,14.42,34.18.06.85-.05,2.63-.39,3.28-.41.78-2.37,1.58-3.33,1.57l-46.67-.5c-1.35-.01-3.17-2.29-3.02-3.38.17-1.25,2.1-2.27,3.71-2.26l41.75.18c-1.91-24.79-16.14-38.7-40.09-39.91-26.69-1.35-26.77,13.21-32.14,8.88-5.11-4.12,8.72-10.66,12.81-12.98-11.96-7.79-16.96-22.33-9.14-34.56,5.88-9.2,16.95-12.46,27.56-10.87,9.9,1.48,18.28,8.15,21.26,16.45,3.74,10.44,1.52,21.25-6.79,28.59,5.78,2.2,9.98,4.13,15.29,7.07l8.65-5.21c-13.17-8.13-16.21-25.25-5.88-36.31,7.02-7.52,17.95-9.29,27.45-6.18,14.57,4.77,22.28,20.18,16.45,34.53-1.08,2.66-3.62,5.15-5.59,7.7,13.11,3.81,23.01,12.59,28.44,24.8,1.91,4.29,9.67,23.42.17,23.36l-42.13-.28c-1.32,0-3.26-1.92-3.22-3,.04-1.19,1.83-2.74,3.22-2.73l38.5.28ZM292.03,258.04c7.89,2.35,17.18,1.17,22.45-5.49,6.63-8.36,4.06-21.04-4.69-27.28-8.12-5.79-19.99-4.99-27.43,1.64-5.33,4.75-6.15,12.35-4.04,18.87,1.88,5.79,6.77,10.18,13.7,12.25ZM363.07,259.59c7.92-2.29,11.44-9.62,10.18-17.11-1.38-8.21-6.81-14.95-14.29-16.93-7.74-2.05-16.51-.2-21.26,6.58-6.45,9.22-2.25,22.28,7.98,26.54,5.47,2.28,11.52,2.62,17.38.93ZM415.99,520.61c-22.64-13.11-42.84-28.84-59.93-48.57-28.94-33.41-42.19-75.82-40.82-120.49l9.55,12.55c.7.92,3.3,1.15,4.06.46.8-.73.94-3.02.23-4.01l-13.34-18.67c-.67-.93-2.39-2.27-3.39-2.36s-2.85,1.15-3.56,2.06l-15.37,19.84c-.87,1.12-.27,4,1.01,4.55.96.42,2.94-.3,3.67-1.24l10.81-13.9c.42,15.87.53,30.03,3.41,45.01,9.24,47.98,35.67,84.32,74.54,113.02,30.91,22.83,65.69,38.56,102.89,48.11,12.1,3.1,23.21,5.53,35.66,6.72,1.24.12,3.2-1.6,3.21-2.61s-1.37-2.88-3.28-3.16c-38.83-5.67-75.62-17.77-109.35-37.3ZM286.05,318.69l-89.43.07c-2.79,0-5.23-2.17-5.35-4.9-.87-18.88,9.64-37.38,28.6-43.97-3.14-2.78-6.79-5.36-9.19-8.91-8.11-12.02-4.15-28.68,9-35.23,10.02-4.98,22.5-4.67,31.93,1.41,7.77,5.01,11.83,14.14,12.64,23.02s-3.19,14.89-9.45,20.75c22.42,5.01,35.67,24.11,36.23,45.47.03,1.29-2.92,2.29-4.99,2.29ZM245.89,267.5c7.82-2.54,11.98-9.5,11.47-17.3s-4.02-15.59-11.3-19.23c-7.56-3.77-17.34-3.36-24.42,1.15-6.42,4.09-8.61,11.04-7.78,18.32,1.68,14.72,19.03,21.28,32.04,17.06ZM283.14,312.82c-.82-19.8-14.8-34.99-33.73-37.61-7.88-1.09-15.46-1.04-23.43-.29-17.83,3.38-28.05,20.94-27.24,38.19l84.39-.3ZM934.48,522.18c35.24-29.73,67.38-74.18,75.42-120.03l7.12,11.74c.55.9,3.36,1.26,4.04.5.59-.66.77-2.67.34-3.49l-10.02-19.55c-.45-.88-1.72-2.12-2.55-2.28s-2.77.63-3.38,1.25l-14.28,14.39c-.88.89-1.36,2.88-.76,3.69,3.45,4.64,10.5-7.1,13.92-7.72-2.58,13.7-6.63,24.98-12.22,36.74-25.54,53.71-73.14,101.38-131.47,117.94-14.25,4.04-28,5.9-42.61,7.58-1.26.14-3.07,1.91-3.16,2.96s2.15,2.8,4,2.66c44.03-3.45,82.18-18.16,115.61-46.37ZM901.78,285.69c.75.73,3.32.95,4.26.32l20.79-14.11c.69-.47,1.6-2.1,1.54-2.87s-.99-2.35-1.69-2.83l-20.69-14.29c-.99-.68-3.82-.07-4.29.92-2.16,4.58,10.54,8.6,14.16,13.03l-137.14.06c-2.37,0-4.11,1.86-3.94,3.79.12,1.36,1.87,2.45,3.89,2.45l136.5-.06-12.62,9.17c-1.15.79-1.73,3.47-.77,4.42ZM518.43,286.91c.74.19,2.82.56,3.71,0l21.19-13.2c.61-.38,1.49-1.8,1.58-2.47s-.68-2.1-1.39-2.63l-20.43-15.12c-.9-.67-4.07.25-4.17,1.24-.5,5.23,7.92,6.67,12.36,12.24l-98.18-.12c-1.75,0-3.34,1.59-3.42,2.93-.08,1.26,1.61,2.98,3.38,2.98l99.97.24-15.14,10.04c-.78.52-.36,3.61.53,3.85ZM662.4,74.92c.02-1-1.83-2.78-2.83-2.76s-2.78,1.73-2.78,2.83l-.05,12.1c0,1.08,1.85,2.74,2.8,2.78s2.65-1.76,2.66-2.8l.2-12.15ZM625.32,84.5c-.82-.97-4.11-.76-4.65.21-.46.83-.13,2.9.57,3.72l6.62,7.65c.69.79,2.96.95,3.75.41s1.06-3.26.41-4.03l-6.7-7.95ZM707.48,158.33c.22-.82-.79-2.96-1.59-3.22l-9.54-3.09c-1.09-.35-3.42,1.37-3.48,2.45-.06.94,1.07,2.82,2.1,3.15l9.36,2.91c1.4-.55,2.92-1.37,3.15-2.19ZM711.66,127.31c.99-.14,2.36-2.19,2.32-3.17s-1.96-2.64-2.97-2.46l-10.05,1.72c-.94.16-2.08,2.2-1.97,3.06s2.25,2.27,3.2,2.14l9.46-1.29ZM615.42,121.39l-9.71-1.51c-.88-.14-2.79,1.04-3,1.89s.81,3.03,1.76,3.25c2.32.53,13.85,3.86,13.16-.81-.12-.84-1.35-2.68-2.21-2.81ZM699.35,92.49c.73-.69.42-3.61-.44-3.96-.72-.29-2.8-.38-3.38.19l-7.82,7.69c-.65.64-.51,3.17.28,3.59.66.35,2.95.41,3.5-.11l7.86-7.41ZM726.87,466.44c1.05.95,3.65,1.3,4.62.55,1.17-.91,1.78-3.22,1.19-4.3-.76-1.41-3.28-2.11-5.15-.91-1.36.87-1.57,3.84-.66,4.65ZM728.15,429.17c.76.78,2.87,1.04,4.24.56,1.19-.41,1.74-3,1.18-4.36-.41-1.01-2.84-1.74-4.31-1.13-2,.83-2.18,3.83-1.11,4.93ZM728.38,503.12c.86.99,3.34,1.26,4.59.5,1.01-.61,1.59-2.9,1.08-4.04-.58-1.32-3.09-1.99-4.49-1.3-1.73.86-2.28,3.58-1.19,4.84ZM967.48,300.8l.23-40.04c0-.95,1.61-2.55,2.55-2.55l22.67-.22c1.6-.02,3.62,1.65,3.61,3.37l-.1,36.14c0,1.68,5.6,1.78,6.75.26l-.08-53.06c0-1.63,1.6-3.01,3.09-3.03l23.3-.41c.9-.02,2.95.53,3.28,1.3s.62,2.59.61,3.71l-.56,52.43,87.23.7c1.58.01,3.32,1.85,3.35,3.05.02,1.1-1.67,3.02-3.38,3l-149.47-1.06c-1.58-.01-3.08-2.02-3.07-3.57ZM1026.58,298.44l.3-50.7-17.24-.11.11,50.78c5.71.34,10.59.31,16.83.03ZM989.94,298.54l.38-34.26-16.65-.05-.23,34.34,16.5-.03ZM1075.76,263.87c1.42-1.11,6,.86,7.64-1.3,1.08-1.42,1.98-3.99,2.68-6.95l32.63-3.65c1.31-.15,2.63-2.64,2.37-3.7-.22-.91-2.17-2.34-3.23-2.22l-36.73,4.07c-2.74.3-5.23.4-7.12,2.1-1.23,1.1-.96,5.27-2,6.55-4.38,5.36-10.78,10.39-16.22,14.57-3.46-1.15-6.94-2.76-10.16-.16-2.07,1.67-5.23,4.74-3.45,8.5,1.47,3.11,5.87,6.8,9.52,6.94,5.43.22,8.45-5.3,8.06-10.71,5.37-4.88,10.65-9.83,16.03-14.04ZM1071.93,293.16c-1.43,0-3.06-1.28-3.48-2.05-.49-.9.81-3.75,1.85-3.76l30.06-.22.33-13.62c.05-2.15,1.88-4.37,4.2-4.39l15.99-.16c1.48-.01,3.09,2.69,3.08,4.26l-.11,19.97-51.92-.03ZM1118.28,287.42l-.17-12.8-11.4-.02-.15,12.87,11.71-.06ZM304.09,245.14c.77,1.07,2.93,1.92,3.98,1.49,1.5-.61,2.25-2.79,1.83-4.35-.3-1.12-2.59-2.35-4.07-1.7-1.86.83-2.54,3.45-1.74,4.56ZM359.87,247.48c.76.89,3.29,1.24,4.38.52.97-.64,1.59-2.9,1.11-3.95-.59-1.26-3.14-2.1-4.47-1.41-1.79.92-2.14,3.52-1.01,4.84ZM243.43,254.08c.58.99,2.68,1.66,4.11,1.29,1.34-.35,2.34-2.75,1.84-4.23-.36-1.07-2.74-2.39-4.11-1.93-2.28.76-2.71,3.4-1.85,4.87Z"/>
</svg>