<svg width="952" height="608" viewBox="0 0 952 608" fill="none" xmlns="http://www.w3.org/2000/svg">
<path d="M533.92 452.94C493.71 462.2 452.29 462.2 412.51 453.13C403.11 450.99 394.8 448.44 386.67 443.87C382.69 441.64 379.65 437.69 379.65 432.7L379.67 323.74C379.67 319.05 384.41 315.24 388.06 313.29C408.7 302.27 444.73 300.51 469.05 299.64C465.28 291.81 461.2 285.33 457.31 278.97C456.64 277.87 457.34 275.15 458.31 274.71C462.82 272.67 463.89 281.58 468.2 284.54L468.38 255.26C468.38 254.09 469.8 252.19 470.81 252.02C472.14 251.79 474.17 253.66 474.17 255.17L474.22 284.42L480.01 275.26C480.57 274.37 482.49 273.53 483.41 273.57C484.49 273.62 485.77 276.35 485.22 277.4L473.59 299.63C497.52 301.04 533.83 302.82 554.5 313.78C557.7 315.48 562.2 319.02 562.2 323.1L562.32 434.28C562.33 445.18 543.11 450.82 533.92 452.93V452.94ZM554.25 323.32C554.55 317.2 521.48 311.45 515.81 310.7C501.84 308.86 488.52 307.8 474.4 307.42L474.24 326.26C474.23 327.85 472.24 329.91 470.82 329.71C469.52 329.53 468.06 327.61 468.03 326.25L467.61 307.48C449.63 307.64 432.46 308.82 414.92 312.12C409.5 313.14 387.28 318.37 387.24 324.16C387.2 329.95 407.88 334.79 413.16 335.74C446.19 341.72 479.86 342.79 513.17 338.26C520.39 337.28 553.8 332.08 554.23 323.3L554.25 323.32ZM424.4 374.53C459.39 379.53 513.52 380.35 546.81 367.01C549.42 365.43 554.42 363.3 555.12 360.28L555.23 333.13C545.89 337.53 537.29 340.58 527.46 342.58C492.86 349.6 449.3 349.2 414.54 342.92C404.67 341.14 395.92 338.46 386.69 334.26L386.71 360.41C386.71 367.28 417.73 373.59 424.39 374.54L424.4 374.53ZM397.47 406.12C410.61 409.64 423.04 412.2 436.3 413.53C470.33 416.95 509.72 416.1 542.76 406.78C547.38 405.18 551.23 403.47 555.31 400.54L555.26 369.78C541.92 376.49 528.34 380.09 513.42 381.97C480.3 386.14 447.2 385.33 414.31 379.59C404.46 377.87 395.97 374.36 386.75 370.32V400.75C390.29 402.95 393.47 404.45 397.47 406.11V406.12ZM551.95 438.55C554.04 436.35 555.51 433.97 555.47 431.28L555.12 408.2C540.54 414.32 527.22 417.69 512.15 419.53C479.65 423.49 447.22 422.68 414.92 417.12C404.86 415.39 396.15 412.09 386.83 408.14L386.64 429.63C386.61 433.27 388.15 436.13 391.13 438.19C396.7 440.74 402.07 442.89 408.09 444.37C453 455.36 491.18 455.91 536.17 444.7C541.8 443.3 546.52 441.12 551.94 438.54L551.95 438.55ZM441.93 592.54C424.81 588.79 432.79 582.85 423.72 581.06C417.52 579.84 414.06 575.06 415.16 568.74C416.03 563.74 403.87 556.73 399.49 553.71L396.8 559.45C396.28 560.55 393.75 562.18 392.24 561.74L345.12 548.26C344.29 548.02 342.85 547.18 342.29 546.71C341.62 546.14 341.51 543.96 341.81 542.92L358.48 483.99C359.21 481.4 361.57 480.35 364.17 481.05L411.69 493.96C414.59 494.75 421.5 505.26 442.92 501.09C451.22 499.48 459.18 498.57 467.61 498.83C482.16 493.96 497.02 495.82 510.88 502.35C517.54 505.49 526.29 506.78 532.3 501.97C534.97 499.83 536.81 498.33 540.12 497.18L591.5 479.33C593.97 478.47 596.44 479.92 597.3 482.49L616.3 538.89C617.05 541.12 614.91 543.45 612.92 544.21L565.6 562.06C563.32 562.92 560.33 561.66 559.31 559.8L554.62 551.25L543.33 559.02C541.83 560.05 540.27 562.09 540.57 564C541.58 570.38 538.1 575.23 532.27 577.38C523.1 580.75 530.46 587.39 514.68 590.8C511.25 597.3 505.12 600.73 497.79 599.89C489.22 613.07 470.06 605.46 459.06 599.51C451.18 602.05 446.88 597.03 441.93 592.54ZM609.1 538.15L591.66 486.28L561.67 497.33L584.02 547.82L609.11 538.14L609.1 538.15ZM371.59 548.93L387.48 494.59L364.14 488.04L348.85 542.49L371.6 548.93H371.59ZM392.18 554.58L408.13 500.15L394.33 496.23L379.25 547.21C378.98 548.12 378.81 551.02 379.82 551.35L392.18 554.59V554.58ZM565.58 554.74C569.42 553.46 573.17 552 577.3 550.26L556.29 502.49C555.88 501.57 554.46 500.04 553.83 499.49L540.89 504.26L561.88 550.7C562.45 551.95 564.27 555.19 565.59 554.75L565.58 554.74ZM525.2 545.84L536.64 554.92C542.36 551.69 546.8 548.79 551.79 544.67L536.01 510.59C534.15 506.57 526.03 516.88 508.85 509.58C483.99 499.02 467.6 499.61 450.94 522.68C450.23 523.66 449.97 526.55 450.75 527.36C455.68 532.49 466.5 527.5 472.33 522.44C475.68 519.53 479.54 517.95 483.97 519.62C497.02 524.53 514.05 536.99 525.2 545.84ZM511.51 581.98C513.68 583.3 516.55 583.13 518.4 582.28C519.9 581.59 522.13 577.56 520.53 576.16C513.73 570.22 506.75 565.69 499.5 560.38C498.36 559.55 497.5 557.19 497.97 556.16C498.44 555.13 501.56 554.23 502.53 554.93L523 569.66C525.97 571.8 529.39 571.99 532.04 569.58C533.81 567.98 535.43 563.48 532.87 561.19C518.49 548.3 502.77 537.1 485.84 527.97C481.49 525.63 478.14 526.35 474.57 529.33C467.84 534.93 458.95 538.13 450.54 535.37C447.55 534.39 444.61 532.26 443.68 530.16C440.13 522.19 450.54 512.85 455.98 506.74C437.11 508.61 432.81 512.13 414.04 504.74L401.61 546.35L418.88 559.97L426.51 553.88C430.82 550.44 436.54 551.38 439.73 555.7C440.74 557.07 443.08 558.18 444.62 557.79C456.6 554.72 458.01 566.04 463.04 565.94C469.87 565.8 474.55 570.96 473.91 577.73C473.76 579.28 474.71 581.52 476.05 582.14L497.39 592.06C501.31 593.88 508.13 591.99 507.91 587.35C505.42 582.67 479.73 574 484.11 569.58C487.65 566 505.84 578.51 511.53 581.96L511.51 581.98ZM436.82 563.11C437.37 561.82 435.51 559.38 434.32 558.89C429.36 556.83 422.8 564.04 421.49 568.96C421.08 570.5 422.28 573.3 423.39 574.07C428.05 577.3 434.84 567.76 436.81 563.11H436.82ZM453.53 570.31C454.86 568.12 452.56 565.14 450.72 564.14C444.6 560.79 436.78 572.39 434.44 576.88C432.94 579.76 435.64 583.98 438.58 584.77C443.39 586.08 451.19 574.15 453.52 570.31H453.53ZM467.37 579.45C468.33 577.3 467.37 574.08 465.78 572.93C460.8 569.31 453.5 579.7 449.94 584.23C448.03 586.67 448.46 590.03 450.71 591.89C457.13 597.19 465.3 584.06 467.37 579.45ZM492.2 596.38C484.99 591.89 478.4 588.84 471 585.77L463.62 594.6C470.33 597.69 487.19 605.32 492.2 596.38ZM573.72 117.14L555.3 115.75C554.28 115.68 552.65 113.99 552.63 112.99C552.53 106.33 547.84 101.86 541.07 101.66L486.47 100.08L485.78 85.7302C485.63 82.6002 485.94 79.7502 488.23 77.3102C497.65 67.2602 500.14 51.3202 492.92 39.1502C487.42 29.8802 476.99 25.2902 466.8 25.5802C456.89 25.8702 447.22 30.6102 441.85 39.6502C434.21 52.5202 437.83 68.7702 449.28 78.0602C456.24 83.7102 454.52 90.5802 454.38 99.2102L439.08 99.1702C438.18 99.1702 435.9 98.7302 435.36 98.0302C434.39 96.7802 433.46 86.7002 424.45 86.3702L383.48 84.9102C381.62 84.8402 378.49 86.0702 377.34 87.0902C376.19 88.1002 375.2 91.1602 375.3 92.8902L376.64 114.74L365.11 116.09C361.56 116.51 358.74 120.08 359.6 123.99L366.71 156.03L384.64 233.21C385.52 237 390.19 238.81 393.73 238.83L547.4 239.91C551.83 239.94 555.69 237.58 556.55 233.39L579.19 123.97C579.92 120.44 577.02 117.36 573.71 117.1L573.72 117.14ZM452.15 72.2102C441.72 62.8602 441.24 46.0802 451.93 37.3402C462.56 28.6502 478.09 29.3202 486.33 40.5702C492.81 49.4302 492.4 63.5202 485.06 71.6102C481.25 75.8102 478.87 79.9702 479.56 85.8902C479.3 87.2502 475.31 87.5402 474.21 86.6102C475.69 78.0702 477.53 69.8902 479.55 61.5802C479.92 60.0702 479.33 57.3702 478.28 56.7202C474.49 54.3502 470.83 61.6002 468.42 61.0902C464.44 60.2502 460.93 55.7402 458.02 58.5802C457.23 59.3402 457.06 61.3402 457.59 62.8102C460.47 70.7402 463.34 79.2302 465.72 87.2802C456.02 91.7202 465.76 84.4202 452.14 72.2102H452.15ZM479.93 92.9602C481.92 92.9602 481.8 98.4102 479.72 98.6502C476.08 99.0702 459.14 100.32 459.13 96.5202C459.13 92.7502 475.87 92.9502 479.92 92.9602H479.93ZM469.69 81.9202L463.91 65.4602C467.46 67.1202 469.69 67.7502 473.47 65.2802C472.47 71.1602 471.52 76.1202 469.69 81.9202ZM382.59 92.3602C383.19 91.5402 385.45 90.7802 386.65 90.8102L420.92 91.8502C431.99 92.1802 424.82 104.55 432.11 104.71L490.96 106.02L540.18 107.36C544.31 107.47 547.25 111.51 545.96 115.35L383.15 114.55L381.72 95.9602C381.65 95.0602 382.09 93.0402 382.59 92.3502V92.3602ZM468.41 233.53L395.47 232.45C393.09 232.41 391.1 230.42 390.58 228.12L367.01 125.33C366.6 123.52 368.07 121.4 369.76 121.24C374.95 120.72 379.33 120.24 384.62 120.27L537.86 121.2L568.24 122.15C568.93 122.17 570.55 122.96 571.04 123.43C571.66 124.02 571.65 126.03 571.43 127.09L563.42 165.28L550.08 229.96C549.7 231.84 547.82 233.74 545.82 233.73L472.28 233.4L468.42 233.54L468.41 233.53ZM896.07 289.86C897 289.86 898.81 291.62 898.97 292.52C899.15 293.54 897.5 295.5 896.15 295.52L812.7 296.49C811.23 296.51 809.45 294.98 809.34 293.91C809.23 292.84 810.84 290.83 811.91 290.81L828.28 290.56L828.18 274.04L760.19 273.69C757.54 273.68 753.97 271.67 753.97 268.75L754.08 150.3C754.08 146.85 756.04 143.63 759.86 143.64L829.43 143.89L945.4 144.99C948.88 145.02 951.56 147.91 951.57 151.23L951.82 267.17C951.82 269.17 950.99 271.79 949.92 272.64C948.85 273.49 945.97 274.72 944.38 274.71L880.14 274.46L880.02 289.76L896.07 289.85V289.86ZM944.92 244.4L944.82 155.03C944.82 153.41 944.03 151.05 942.25 151.04L760.85 150.18L760.6 241.7C760.6 243.01 760.87 244.91 761.49 245.51C761.99 245.99 763.37 246.24 764.52 246.25L941.59 247.08C942.94 247.08 944.92 245.91 944.91 244.4H944.92ZM944.4 268.66C945.27 263.07 945.22 258.81 944.64 253.21L760.96 252.35C760.52 258.09 760.42 262.88 761.19 267.75L944.41 268.66H944.4ZM873.62 289.79L873.59 274.36L834.93 274.15L834.73 290.37L873.63 289.79H873.62ZM206.18 232.45C205.76 217.13 197.45 203.15 183.03 197.57C173.14 193.74 154.53 191.73 144.91 199.78C154.12 209.46 158.33 220.83 159.33 233.96C159.39 234.81 159.28 236.59 158.94 237.24C158.53 238.02 156.57 238.82 155.61 238.81L108.94 238.31C107.59 238.3 105.77 236.02 105.92 234.93C106.09 233.68 108.02 232.66 109.63 232.67L151.38 232.85C149.47 208.06 135.24 194.15 111.29 192.94C84.6 191.59 84.52 206.15 79.15 201.82C74.04 197.7 87.87 191.16 91.96 188.84C80 181.05 75 166.51 82.82 154.28C88.7 145.08 99.77 141.82 110.38 143.41C120.28 144.89 128.66 151.56 131.64 159.86C135.38 170.3 133.16 181.11 124.85 188.45C130.63 190.65 134.83 192.58 140.14 195.52L148.79 190.31C135.62 182.18 132.58 165.06 142.91 154C149.93 146.48 160.86 144.71 170.36 147.82C184.93 152.59 192.64 168 186.81 182.35C185.73 185.01 183.19 187.5 181.22 190.05C194.33 193.86 204.23 202.64 209.66 214.85C211.57 219.14 219.33 238.27 209.83 238.21L167.7 237.93C166.38 237.93 164.44 236.01 164.48 234.93C164.52 233.74 166.31 232.19 167.7 232.2L206.2 232.48L206.18 232.45ZM100.81 185.88C108.7 188.23 117.99 187.05 123.26 180.39C129.89 172.03 127.32 159.35 118.57 153.11C110.45 147.32 98.58 148.12 91.14 154.75C85.81 159.5 84.99 167.1 87.1 173.62C88.98 179.41 93.87 183.8 100.8 185.87L100.81 185.88ZM171.85 187.43C179.77 185.14 183.29 177.81 182.03 170.32C180.65 162.11 175.22 155.37 167.74 153.39C160 151.34 151.23 153.19 146.48 159.97C140.03 169.19 144.23 182.25 154.46 186.51C159.93 188.79 165.98 189.13 171.84 187.44L171.85 187.43ZM224.77 448.45C202.13 435.34 181.93 419.61 164.84 399.88C135.9 366.47 122.65 324.06 124.02 279.39L133.57 291.94C134.27 292.86 136.87 293.09 137.63 292.4C138.43 291.67 138.57 289.38 137.86 288.39L124.52 269.72C123.85 268.79 122.13 267.45 121.13 267.36C120.13 267.27 118.28 268.51 117.57 269.42L102.2 289.26C101.33 290.38 101.93 293.26 103.21 293.81C104.17 294.23 106.15 293.51 106.88 292.57L117.69 278.67C118.11 294.54 118.22 308.7 121.1 323.68C130.34 371.66 156.77 408 195.64 436.7C226.55 459.53 261.33 475.26 298.53 484.81C310.63 487.91 321.74 490.34 334.19 491.53C335.43 491.65 337.39 489.93 337.4 488.92C337.41 487.91 336.03 486.04 334.12 485.76C295.29 480.09 258.5 467.99 224.77 448.46V448.45ZM94.83 246.53L5.40005 246.6C2.61005 246.6 0.170048 244.43 0.0500484 241.7C-0.819952 222.82 9.69005 204.32 28.65 197.73C25.51 194.95 21.86 192.37 19.46 188.82C11.35 176.8 15.31 160.14 28.46 153.59C38.48 148.61 50.96 148.92 60.39 155C68.16 160.01 72.22 169.14 73.03 178.02C73.84 186.9 69.8401 192.91 63.5801 198.77C86.0001 203.78 99.25 222.88 99.81 244.24C99.84 245.53 96.89 246.53 94.82 246.53H94.83ZM54.68 195.34C62.5001 192.8 66.66 185.84 66.15 178.04C65.64 170.24 62.13 162.45 54.85 158.81C47.29 155.04 37.51 155.45 30.43 159.96C24.01 164.05 21.82 171 22.65 178.28C24.33 193 41.68 199.56 54.69 195.34H54.68ZM91.92 240.66C91.1 220.86 77.12 205.67 58.19 203.05C50.31 201.96 42.73 202.01 34.76 202.76C16.93 206.14 6.71005 223.7 7.52005 240.95L91.91 240.65L91.92 240.66ZM743.26 450.02C778.5 420.29 810.64 375.84 818.68 329.99L825.8 341.73C826.35 342.63 829.16 342.99 829.84 342.23C830.43 341.57 830.61 339.56 830.18 338.74L820.16 319.19C819.71 318.31 818.44 317.07 817.61 316.91C816.78 316.75 814.84 317.54 814.23 318.16L799.95 332.55C799.07 333.44 798.59 335.43 799.19 336.24C802.64 340.88 809.69 329.14 813.11 328.52C810.53 342.22 806.48 353.5 800.89 365.26C775.35 418.97 727.75 466.64 669.42 483.2C655.17 487.24 641.42 489.1 626.81 490.78C625.55 490.92 623.74 492.69 623.65 493.74C623.56 494.79 625.8 496.54 627.65 496.4C671.68 492.95 709.83 478.24 743.26 450.03V450.02ZM710.56 213.53C711.31 214.26 713.88 214.48 714.82 213.85L735.61 199.74C736.3 199.27 737.21 197.64 737.15 196.87C737.09 196.1 736.16 194.52 735.46 194.04L714.77 179.75C713.78 179.07 710.95 179.68 710.48 180.67C708.32 185.25 721.02 189.27 724.64 193.7L587.5 193.76C585.13 193.76 583.39 195.62 583.56 197.55C583.68 198.91 585.43 200 587.45 200L723.95 199.94L711.33 209.11C710.18 209.9 709.6 212.58 710.56 213.53ZM327.21 214.75C327.95 214.94 330.03 215.31 330.92 214.75L352.11 201.55C352.72 201.17 353.6 199.75 353.69 199.08C353.78 198.41 353.01 196.98 352.3 196.45L331.87 181.33C330.97 180.66 327.8 181.58 327.7 182.57C327.2 187.8 335.62 189.24 340.06 194.81L241.88 194.69C240.13 194.69 238.54 196.28 238.46 197.62C238.38 198.88 240.07 200.6 241.84 200.6L341.81 200.84L326.67 210.88C325.89 211.4 326.31 214.49 327.2 214.73L327.21 214.75ZM471.18 2.76017C471.2 1.76017 469.35 -0.0198329 468.35 0.000167112C467.35 0.0201671 465.57 1.73017 465.57 2.83017L465.52 14.9302C465.52 16.0102 467.37 17.6702 468.32 17.7102C469.27 17.7502 470.97 15.9502 470.98 14.9102L471.18 2.76017ZM434.11 12.3402C433.29 11.3702 430 11.5802 429.46 12.5502C429 13.3802 429.33 15.4502 430.03 16.2702L436.65 23.9202C437.34 24.7102 439.61 24.8702 440.4 24.3302C441.19 23.7902 441.46 21.0702 440.81 20.3002L434.11 12.3502V12.3402ZM516.26 86.1702C516.48 85.3502 515.47 83.2102 514.67 82.9502L505.13 79.8602C504.04 79.5102 501.71 81.2302 501.65 82.3102C501.59 83.2502 502.72 85.1302 503.75 85.4602L513.11 88.3702C514.51 87.8202 516.03 87.0002 516.26 86.1802V86.1702ZM520.44 55.1502C521.43 55.0102 522.8 52.9602 522.76 51.9802C522.72 51.0002 520.8 49.3402 519.79 49.5202L509.74 51.2402C508.8 51.4002 507.66 53.4402 507.77 54.3002C507.88 55.1602 510.02 56.5702 510.97 56.4402L520.43 55.1502H520.44ZM424.2 49.2302L414.49 47.7202C413.61 47.5802 411.7 48.7602 411.49 49.6102C411.28 50.4602 412.3 52.6402 413.25 52.8602C415.57 53.3902 427.1 56.7202 426.41 52.0502C426.29 51.2102 425.06 49.3702 424.2 49.2402V49.2302ZM508.13 20.3302C508.86 19.6402 508.55 16.7202 507.69 16.3702C506.97 16.0802 504.89 15.9902 504.31 16.5602L496.49 24.2502C495.84 24.8902 495.98 27.4202 496.77 27.8402C497.43 28.1902 499.72 28.2502 500.27 27.7302L508.13 20.3202V20.3302ZM535.66 394.28C536.71 395.23 539.31 395.58 540.28 394.83C541.45 393.92 542.06 391.61 541.47 390.53C540.71 389.12 538.19 388.42 536.32 389.62C534.96 390.49 534.75 393.46 535.66 394.27V394.28ZM536.93 357.01C537.69 357.79 539.8 358.05 541.17 357.57C542.36 357.16 542.91 354.57 542.35 353.21C541.94 352.2 539.51 351.47 538.04 352.08C536.04 352.91 535.86 355.91 536.93 357.01ZM537.16 430.96C538.02 431.95 540.5 432.22 541.75 431.46C542.76 430.85 543.34 428.56 542.83 427.42C542.25 426.1 539.74 425.43 538.34 426.12C536.61 426.98 536.06 429.7 537.15 430.96H537.16ZM776.27 228.64L776.5 188.6C776.5 187.65 778.11 186.05 779.05 186.05L801.72 185.83C803.32 185.81 805.34 187.48 805.33 189.2L805.23 225.34C805.23 227.02 810.83 227.12 811.98 225.6L811.9 172.54C811.9 170.91 813.5 169.53 814.99 169.51L838.29 169.1C839.19 169.08 841.24 169.63 841.57 170.4C841.9 171.17 842.19 172.99 842.18 174.11L841.62 226.54L928.85 227.24C930.43 227.25 932.17 229.09 932.2 230.29C932.22 231.39 930.53 233.31 928.82 233.29L779.35 232.23C777.77 232.22 776.27 230.21 776.28 228.66L776.27 228.64ZM835.36 226.28L835.66 175.58L818.42 175.47L818.53 226.25C824.24 226.59 829.12 226.56 835.36 226.28ZM798.72 226.38L799.1 192.12L782.45 192.07L782.22 226.41L798.72 226.38ZM884.54 191.71C885.96 190.6 890.54 192.57 892.18 190.41C893.26 188.99 894.16 186.42 894.86 183.46L927.49 179.81C928.8 179.66 930.12 177.17 929.86 176.11C929.64 175.2 927.69 173.77 926.63 173.89L889.9 177.96C887.16 178.26 884.67 178.36 882.78 180.06C881.55 181.16 881.82 185.33 880.78 186.61C876.4 191.97 870 197 864.56 201.18C861.1 200.03 857.62 198.42 854.4 201.02C852.33 202.69 849.17 205.76 850.95 209.52C852.42 212.63 856.82 216.32 860.47 216.46C865.9 216.68 868.92 211.16 868.53 205.75C873.9 200.87 879.18 195.92 884.56 191.71H884.54ZM880.72 221C879.29 221 877.66 219.72 877.24 218.95C876.75 218.05 878.05 215.2 879.09 215.19L909.15 214.97L909.48 201.35C909.53 199.2 911.36 196.98 913.68 196.96L929.67 196.8C931.15 196.79 932.76 199.49 932.75 201.06L932.64 221.03L880.72 221ZM927.06 215.26L926.89 202.46L915.49 202.44L915.34 215.31L927.05 215.25L927.06 215.26ZM112.88 172.98C113.65 174.05 115.81 174.9 116.86 174.47C118.36 173.86 119.11 171.68 118.69 170.12C118.39 169 116.1 167.77 114.62 168.42C112.76 169.25 112.08 171.87 112.88 172.98ZM168.65 175.32C169.41 176.21 171.94 176.56 173.03 175.84C174 175.2 174.62 172.94 174.14 171.89C173.55 170.63 171 169.79 169.67 170.48C167.88 171.4 167.53 174 168.66 175.32H168.65ZM52.21 181.92C52.79 182.91 54.89 183.58 56.32 183.21C57.66 182.86 58.66 180.46 58.16 178.98C57.8 177.91 55.42 176.59 54.05 177.05C51.77 177.81 51.3401 180.45 52.2001 181.92H52.21Z" fill="url(#paint0_linear_63_75)"/>
<defs>
<linearGradient id="paint0_linear_63_75" x1="4.84348e-05" y1="303.59" x2="951.82" y2="303.59" gradientUnits="userSpaceOnUse">
<stop stop-color="#503EF7"/>
<stop offset="1" stop-color="#519FFF"/>
</linearGradient>
</defs>
</svg>
