<svg width="1162" height="580" viewBox="0 0 1162 580" fill="none" xmlns="http://www.w3.org/2000/svg">
<path d="M411 312.15C411.66 306.23 412.38 293.72 411 287.92C410.54 285.98 410.57 281.95 411 279.18C413.07 265.87 411.5 244.89 411 230.99C410.69 222.5 410.86 204.78 411 196.29C411.08 191.58 412.42 181.55 411 177.06C410.32 174.92 410.66 170.39 411 167.33C412.4 154.96 411.87 142.19 411 129.13L410.95 5.47C410.95 2.73 412.81 0 416.06 0L880.28 0.04C883.38 0.04 885.91 2.49 885.91 5.56L885.95 333.77C885.95 337.45 883.83 339.67 880.23 339.67H417.11C413.55 339.67 411.09 337.21 411.13 333.91C411.2 327.48 410.28 318.71 411.01 312.13L411 312.15ZM875.33 37.51L875.38 10.29L421.38 10.25L421.64 37.55L875.33 37.5V37.51ZM875.49 329.34L875.41 47.46L421.53 47.48L421.58 329.41L875.49 329.34ZM263.85 276.04C265.51 276.93 268.61 278.91 270.13 280.02C300.03 309.4 336.78 347.32 358.25 383.93C360.24 387.32 361.9 394.45 357.72 396.63L336.72 407.55C348.3 411.59 343.6 432.26 341.93 442.88C341.56 445.23 340.73 448.61 339.99 450.88C337.65 458.06 332.6 470.49 329.9 476.92C329.63 477.55 328.52 478.88 328.06 479.56C327.75 480.01 329.36 480.55 329.83 480.26C330.3 479.97 331.31 479.18 331.82 478.97C359.36 467.5 409.82 437.78 431.04 416.86C437.19 410.79 442.71 412.23 446.92 409.74C464.2 399.54 465.12 386.33 499.22 378.35L562.14 363.62C571.37 361.46 579.8 366.98 582.24 375.01C584.81 383.46 580.26 391.59 571.94 395.43C561.91 400.07 551.27 402.91 540.68 405.03L531.68 406.83C536.39 410.96 539.33 414.59 541.52 419.61C537.99 440.63 541.21 431.6 540.58 449.86L535.8 457.63C526.07 465.77 514.07 470.35 500.81 469.97L483.84 469.48C419.08 516.31 374.91 545.55 300.07 574.58C296.93 575.8 293.95 571.16 294.02 569.08C294.09 567 295.54 563.95 298.14 562.88C324.68 551.99 350.62 540.83 374.99 526.56C376.32 525.78 378.42 524.47 379.72 523.84C393.74 517.03 407.22 508.63 419.84 499.43L428.7 492.97L472 464.58C467.87 454.23 462.41 445 455.97 436.85C455.56 435.81 454.53 434.28 453.82 433.87C452.7 431.37 449.41 427.98 447.1 426.69C446.31 425.84 444.45 423.3 443.17 423.78C440.52 424.78 438.54 427.67 436.84 428.88C397.85 456.46 362.24 483.11 315.22 499C283.08 535.65 230.89 540.4 189.11 518.63C188.41 517.84 187.11 517.11 185.96 516.74C181.47 512.75 160.27 501.61 168.56 493.65C170.24 492.03 175.45 491.96 177.92 494.33C208.99 524.19 256.96 528.87 292.77 503.7C305.48 494.77 314.54 481.81 320.1 467.9C320.56 467.65 321.17 467.36 320.88 467.27C320.51 467.16 319.29 466.79 319.38 466.82C319.42 466.83 318.88 467.64 318.79 467.77C298.33 480.27 274.02 481.33 253 468.54C235.52 457.91 224.85 436.59 234.83 433.62C243.89 430.92 236.65 447.75 263.07 461.93C278.74 470.34 295.95 469.71 310.72 459.74C325.02 450.09 333.94 434.32 331.33 416.56C330.46 410.65 319.11 419.98 315.54 412.89C310.44 402.77 338.72 396.47 347.12 388.28C329.61 361.48 310.97 337.76 289.04 316.02L259.35 286.58C258.05 285.29 257.59 280.86 258.32 279.29C259.05 277.72 262.11 275.89 263.85 276.04ZM497.83 435.46C496.23 433.85 497.2 429.2 498.59 428.14C504.79 423.41 513.75 438.69 527.28 429.38C528.58 428.49 530.36 425.72 530.47 424.27C530.92 418.18 517.65 412.39 512.42 410.24C508.8 408.75 507.19 406.23 508.13 402.74C509.18 398.85 512.47 399.99 515.89 399.39C533.54 396.27 551.03 392.33 567.43 386C570.93 384.65 572.81 380.18 571.86 377.48C571.01 375.05 567.08 373.4 563.87 374.18L498.94 389.97C489.98 392.15 482.64 394.76 475.49 400.67L455.43 417.23C465.34 428.42 473.32 440.61 479.42 454.09C481.44 458.55 485.33 458.58 489.73 458.69C501.47 458.98 512.92 459.35 522.71 452.8C526.91 449.99 531.01 446.07 528.89 440.6C518.3 444.9 506.11 443.79 497.84 435.47L497.83 435.46ZM1039.29 337.17C1039.59 337.33 1040.9 337.85 1041.51 337.98C1067.15 343.35 1108.94 378.65 1102.76 413.89C1099.01 435.25 1097.51 454.04 1081.26 471.52C1045.16 510.36 1079.12 564.27 1049.57 562.94L1047.99 562.87C1047.45 562.85 1047.66 564.31 1047.35 564.75C1045.3 567.81 1042.91 575.36 1038.7 576.78C1029.74 579.81 1019.53 580.03 1010.72 577.22C1004.91 575.36 1002.08 569.32 998.19 565.45C997.44 564.71 996.58 563.04 995.43 562.85C988.76 561.74 985.05 555.54 986.1 548.96C986.44 546.86 985.6 543.6 985.67 541.72C986.49 519.19 986.86 495.17 972.2 477.79C969.39 474.46 966.02 469.71 963.65 465.99C957.6 456.51 952.37 446.38 949.34 435.14C941.64 406.61 949.86 377.04 970.42 356.8C972.2 355.05 975.14 352.66 977.19 351.17C995.12 338.13 1017.43 333.57 1039.29 337.16V337.17ZM1035.02 429.45C1036.13 421.61 1037.79 415.87 1042.02 410.61C1045.74 405.99 1051.38 404.28 1056.68 406.14C1061.33 407.77 1064.56 412.42 1065.42 417.99C1067.25 429.95 1057.74 438.59 1044.88 438.87L1040.21 511.89L1054.5 511.99C1055.88 471.18 1083.74 465.66 1091.03 428.52C1097.37 396.19 1081.15 364.79 1051.73 351.82C1022.55 338.96 987.61 347.99 968.97 374.51C954.81 394.65 953.22 419.95 962.73 442.46C974.81 471.05 993.33 476.11 994.83 511.94L1008.69 511.82L1004.12 438.84C993.13 438.4 984.09 432.12 983.37 422.06C982.87 415.05 985.94 408.39 992.06 406.22C997.49 404.29 1004.37 405.86 1008.28 411.03C1012.16 416.16 1013.3 422 1014.46 429.31L1035.01 429.43L1035.02 429.45ZM994.72 416.43C993.62 418.45 992.93 423.61 995.05 425.47C997.21 427.37 1000.62 428.54 1003.7 428.35C1004.21 422.43 997.16 411.95 994.72 416.43ZM1052.78 415.8C1048.51 415.86 1045.11 425.93 1045.65 428.83C1049.09 428.06 1051.48 427.26 1053.31 426.07C1056.69 423.86 1055.26 415.77 1052.78 415.8ZM1030.1 511.62L1034.78 439.37H1014.44L1018.74 511.81C1022.61 512.15 1026.19 512.13 1030.09 511.62H1030.1ZM1052.75 532.26L1052.7 522.37L996.39 522.14L996.28 532.07L1052.75 532.26ZM1052.37 551.72V541.95L995.97 542.03C995.87 545.57 995.92 548.68 996.21 551.77L1052.37 551.72ZM1036.26 561.63L1009.56 561.75C1011.47 568.61 1017.26 569.05 1023.42 568.96C1029.23 568.87 1035.69 569 1036.26 561.63ZM774.49 409.04L775.42 409.46C775.63 409.55 775.86 409.46 776.67 408.83C779.38 407.96 783.94 406.3 786.51 404.77L790.09 390.09C790.48 388.47 792.91 386.34 794.51 386.34L820.58 386.29C826.99 386.28 825.82 398.07 829.54 404.01C831.25 406.74 838.23 409.8 841.31 409.09C848.48 407.44 854.96 397.77 860.48 402.93L878.03 419.33C885.62 426.42 873.62 432.14 871.88 440.26C871.23 443.28 874.57 449.22 876.33 452.06L895.03 457.16C895.95 468.9 895.93 478.81 895.16 490.49L876.13 495.43L871.69 506.71C874.79 514.99 884.71 520.45 877.89 527.11L862.21 542.42C855.4 549.07 850.88 540.27 841.53 537.06L830.14 542.1L825.34 560.94L792.36 561.05L786.78 543.46C785.76 540.26 778.05 537.07 774.81 538.14C767.47 539.89 761.78 549.83 755.07 543.41L739.2 528.2C727.65 517.13 754.46 513.92 739.3 495.57L721.68 490.5C721.14 478.85 721.15 468.76 721.77 457.24L740.12 452.13L744.58 440.73C740.77 431.56 730.44 427.44 738.47 419.66L755.19 403.45C760.28 398.52 764.63 404.61 774.5 409.04H774.49ZM817.54 551.09L821.44 534.72L842.39 525.62L856.71 533.6L869.01 521.13L860.23 507.6L869.29 486.69L885.83 482.79L885.77 464.34C879.85 463.19 873.6 462.51 869 460.36L859.87 438.97L869.5 425.02L856.04 412.4L842.09 421.37L821.07 412.31L816.71 396.27L799.24 396.35L795.26 412.42L774.42 421.07L760.04 412.77L746.63 425.83L755.79 439.19L747.27 460.61L731.35 464.79L731.24 482.95L747.22 486.95L756.29 507.96L747.7 521.86L760.68 534.48L774.69 525.92L795.52 534.82L799.59 551.22L817.56 551.12L817.54 551.09ZM1120.75 317.53C1123.11 315.02 1119.85 310.6 1117.43 310.22C1114.57 309.77 1112.49 311.53 1110.12 313.99L1091.18 333.66C1088.99 335.94 1087.78 339.47 1089.12 341.7C1090.71 344.35 1094.83 345.14 1097.37 342.44L1120.76 317.53H1120.75ZM935.05 311.39C933.51 309.79 929.77 309.79 928.27 311.16C926.98 312.34 926.09 316.54 927.45 317.97L949.93 341.55C951.97 343.69 955 344.76 957.34 343.37C959.59 342.03 960.54 337.87 958.33 335.58L935.05 311.39ZM245.82 339.26C243.67 340.84 243.19 344.58 244.63 347.44L254.36 366.73C255.74 369.47 259.6 370.54 262.23 369.7C271.95 366.59 258.09 345.52 254.53 340.38C252.72 337.76 248.27 337.46 245.81 339.26H245.82ZM928.34 412.6C928.05 411.13 926.13 408.27 924.54 408.28L890.79 408.43C889.23 408.43 887.62 411.96 887.63 413.47C887.64 414.98 889.47 418.29 891.22 418.28L925.18 418.14C927.07 418.14 928.62 414.06 928.33 412.59L928.34 412.6ZM1029.81 280.91C1029.82 278.17 1027.34 275.78 1024.98 275.61C1023.39 275.49 1019.81 277.23 1019.81 279.06L1019.73 311.13C1019.73 313.56 1022.1 315.82 1023.99 316.04C1026.46 316.33 1029.64 314.73 1029.66 311.64L1029.81 280.9V280.91ZM1158.23 418.06C1159.96 418.04 1161.32 414.18 1160.97 412.74C1160.62 411.31 1158.72 408.41 1157.02 408.41L1125.19 408.49C1122.07 408.49 1119.98 410.74 1120.01 413.37C1120.04 416 1122.13 418.45 1125.72 418.41L1158.24 418.05L1158.23 418.06ZM566.96 118.46L484.87 175.94C482.69 177.46 479.22 177.03 478.05 175.56C476.3 173.37 476 169.65 478.55 167.86L561.66 109.77C559.93 101.89 562.41 94.93 567.83 90.77C573.71 86.26 581.48 85.98 587.75 89.6C594.06 93.25 597.28 100.3 596.14 108.67L669.43 157.92C677.6 152.73 685.8 153.74 693.39 158.99L819.68 81.3L812.01 79.67C809.49 79.13 807.14 78 806.61 75.72C806.14 73.67 808.03 69.47 810.52 69.63L835.57 71.22C838.23 71.39 840.51 74.12 839.95 76.61L835.13 97.97C834.46 100.96 831.91 102.95 829.02 102.55C826.3 102.17 824.51 99.4 824.74 96.41L825.23 90L697.66 168.3C698.5 176.09 696.01 183.09 690.05 187.04C683.76 191.21 675.63 190.57 669.84 186.27C663.54 181.59 661.54 174.5 663.3 166.07L591.02 117.54C583.76 123.8 575.21 123.84 566.95 118.45L566.96 118.46ZM575.76 97.8C571.27 99.62 570.26 104.59 571.75 107.9C573.53 111.85 577.92 113.27 581.81 111.72C585.38 110.3 587.17 105.82 586.01 102.4C584.6 98.23 580.42 95.92 575.76 97.8ZM678.57 164.77C673.76 165.8 672.05 170.45 673.12 174.37C674.12 178.04 678.18 180.45 681.74 179.65C686.12 178.66 688.35 174.94 687.71 170.77C687.13 167.02 683.43 163.73 678.57 164.77ZM847.45 206.69C847.51 204.26 846.01 201.26 842.29 201.26L462.34 201.3L462.36 73.57C462.36 70 459.4 67.96 456.4 68.37C453.81 68.72 452.27 71.11 452.27 74.38L452.22 206.01C452.22 209.17 454.61 211.44 458.07 211.44L841.33 211.48C845.22 211.48 847.39 209.85 847.46 206.69H847.45ZM445.29 258.59C444.91 261.99 444.91 265.17 445.29 268.6L569.32 268.68C569.63 264.66 569.63 261.71 569.32 258.55L445.29 258.59ZM569.53 296.57L445.33 296.62C444.84 299.97 444.84 303.19 445.26 306.57L569.55 306.62L569.53 296.57ZM848.86 258.57L724.59 258.61L724.72 268.62H848.88L848.86 258.56V258.57ZM848.87 296.57L724.65 296.62L724.77 306.6L848.89 306.58L848.86 296.56L848.87 296.57ZM569.31 239.5L445.32 239.57C444.89 243 444.88 246.12 445.32 249.51H569.31C569.67 245.62 569.65 242.77 569.3 239.5H569.31ZM848.89 239.55H724.9C724.42 242.88 724.44 246.1 725.24 249.5L848.86 249.52L848.9 239.56L848.89 239.55ZM569.27 277.6L445.16 277.77C444.99 281.64 445.02 284.21 445.3 287.64L569.48 287.72C569.65 283.65 569.6 280.77 569.28 277.6H569.27ZM848.84 277.62L724.82 277.8C724.61 281.55 724.6 284.47 724.76 287.74L848.9 287.61L848.84 277.62ZM699.53 296.56L594.34 296.64L594.26 306.56L699.49 306.59L699.52 296.56H699.53ZM699.44 258.56L594.34 258.59V268.7L699.46 268.63L699.44 258.57V258.56ZM699.47 239.44L594.4 239.5L594.37 249.3L699.25 249.5C699.68 245.59 699.7 242.61 699.47 239.44ZM698.95 277.72L594.29 277.81C594.18 281.58 594.21 284.31 594.49 287.5L699.1 287.47C699.92 283.63 699.89 280.67 698.95 277.72ZM469.75 28.02C471.05 30.64 475.02 32.53 478.19 31.17C481.62 29.7 483.1 25.92 481.96 22.48C480.88 19.23 477.06 16.63 473.05 18.32C469 20.03 467.96 24.39 469.76 28.02H469.75ZM498.84 27.17C500.28 30.42 503.88 32.02 507.03 31.07C510.74 29.95 512.29 26.02 511.14 22.27C510.29 19.49 506.6 16.87 502.89 18.12C498.45 19.61 497.52 24.18 498.84 27.16V27.17ZM440.03 26.72C440.92 29.88 444.18 32.11 448.16 31.21C451.28 30.5 453.43 27.19 452.72 23.07C452.26 20.4 448.86 17.26 444.92 18.09C440.32 19.06 438.99 23.03 440.03 26.71V26.72ZM824.68 511.28C803.8 520.59 780.41 510.66 771.02 490.9C761.78 471.46 769.41 446.95 789.23 436.82C810.36 426.03 834.89 435.13 845.11 455.89C855.09 476.16 846.65 501.48 824.68 511.28ZM818.01 503.01C835.52 497.04 843.25 478.29 836.86 462.17C830.63 446.46 812.83 437.91 796.46 444.54C780.67 450.93 773.34 468.64 779.2 484.35C784.78 499.31 801.48 508.64 818.02 503.01H818.01ZM151.38 523.72C147.13 528.04 129.23 511.93 118.98 514.73C110.33 517.09 73.99 566.71 66.25 558.43L59.89 492.24L0 495.36V485.9L52.57 402.34C52.64 392.44 8.72 360.47 15.78 350.33C17.89 347.3 76.58 329.94 85.16 325.01C79.44 309.53 68.45 290.24 64.49 274.7C63.52 270.88 61.79 269.45 66.22 266.67C69.96 264.32 137.44 273.29 148.22 274.6C152.48 269.55 140.69 229.81 142.31 222.83C143.07 219.56 146.56 218.05 149.79 217.72C165.75 216.09 203.47 245.35 219.49 246.28C236.11 247.25 240.8 217.25 256.71 220.79C259.31 221.37 277.39 264.98 277.65 269.82C278.02 276.61 271.78 276.49 268.5 274.16C266.84 272.98 254.16 242.12 252.28 236.76C241.45 242.02 235.04 258.97 222.43 259.09C211.02 259.2 160.22 228.06 154.56 233.62C154.38 244.43 166.84 279.27 157.79 285.88C154.59 288.22 89.16 278.63 78.86 277.76L97.61 329.41C95.75 335.44 41.22 352.41 31.53 356.64C34.42 369.77 66.27 390.08 65.63 401.76C65.04 412.49 11.92 479.9 15.76 482.7L68.95 480.01L75.72 539.49C86.06 535.17 111.55 500.36 118.72 498.99C122.84 498.2 159.63 515.3 151.37 523.7L151.38 523.72ZM173.49 470.14C172.59 469.2 153.53 470.46 147.42 469.37C75.87 456.65 73.17 357.61 151.38 381.81C150.31 356.76 111.53 364.24 97.64 376.95C52.45 418.31 108.15 485.14 162.1 482.57C168.82 482.25 179.28 476.16 173.49 470.14ZM116.69 400.76C112.53 415.99 129.01 407.96 137.18 416.53C142.56 422.18 141.34 434.53 142.12 435.26C142.62 435.73 154.08 435.84 154.53 435.42C157.52 432.62 147.8 411.9 143.99 408.14C136.54 400.79 126.78 399.72 116.68 400.76H116.69Z" fill="url(#paint0_linear_63_72)"/>
<defs>
<linearGradient id="paint0_linear_63_72" x1="0" y1="289.6" x2="1161.02" y2="289.6" gradientUnits="userSpaceOnUse">
<stop stop-color="#503EF7"/>
<stop offset="1" stop-color="#519FFF"/>
</linearGradient>
</defs>
</svg>
