<svg width="1040" height="457" viewBox="0 0 1040 457" fill="none" xmlns="http://www.w3.org/2000/svg">
<path d="M647.9 314.9V268.84C647.9 277.23 641.67 285.1 630.79 291.88C608.67 305.65 567.33 314.91 519.98 314.91C472.63 314.91 431.28 305.64 409.16 291.88C398.28 285.09 392.05 277.23 392.05 268.84V314.9M647.9 314.9C647.9 323.29 641.67 331.15 630.79 337.94M647.9 314.9V360.97M647.9 314.9C647.9 323.29 641.67 331.16 630.79 337.94M630.79 337.94C608.67 351.71 567.33 360.98 519.98 360.98M630.79 337.94C608.67 351.72 567.33 360.98 519.98 360.98M519.98 360.98C472.63 360.98 431.28 351.72 409.16 337.94M519.98 360.98C472.63 360.98 431.28 351.71 409.16 337.94M409.16 337.94C398.28 331.16 392.05 323.29 392.05 314.9M409.16 337.94C398.28 331.15 392.05 323.29 392.05 314.9M392.05 314.9V360.97M647.9 360.97C647.9 369.36 641.67 377.22 630.79 384.01M647.9 360.97V407.04C647.9 415.43 641.67 423.3 630.78 430.08C608.66 443.85 567.32 453.12 519.98 453.12C472.64 453.12 431.29 443.86 409.17 430.08C398.28 423.31 392.05 415.43 392.05 407.04V360.97M647.9 360.97C647.9 369.36 641.67 377.23 630.79 384.01M630.79 384.01C608.67 397.78 567.33 407.05 519.98 407.05M630.79 384.01C608.67 397.79 567.33 407.05 519.98 407.05M519.98 407.05C472.63 407.05 431.28 397.79 409.16 384.01M519.98 407.05C472.63 407.05 431.28 397.78 409.16 384.01M409.16 384.01C398.28 377.23 392.05 369.36 392.05 360.97M409.16 384.01C398.28 377.22 392.05 369.36 392.05 360.97M607.35 189.11C632.31 197.51 647.9 209.48 647.9 222.77C647.9 231.16 641.67 239.02 630.8 245.8C608.68 259.57 567.34 268.83 519.98 268.83C472.62 268.83 431.27 259.56 409.15 245.8C398.27 239.02 392.05 231.16 392.05 222.77C392.05 197.31 449.32 176.69 519.98 176.69C536.47 176.69 552.22 177.81 566.7 179.86M583.24 286C598.14 283.3 610.79 279.34 620.28 274.38C623.19 272.85 625.79 271.25 628.08 269.54M193.25 113.3C208.15 110.6 220.8 106.64 230.29 101.68C233.2 100.15 235.8 98.55 238.09 96.84M193.25 337.31C208.15 334.61 220.8 330.65 230.29 325.69C233.2 324.16 235.8 322.56 238.09 320.85M970.83 113.3C985.73 110.6 998.38 106.64 1007.87 101.68C1010.78 100.15 1013.38 98.55 1015.67 96.84M583.24 331.97C598.14 329.27 610.79 325.31 620.28 320.35C623.19 318.82 625.79 317.22 628.08 315.51M583.24 377.94C598.14 375.24 610.79 371.28 620.28 366.32C623.19 364.79 625.79 363.19 628.08 361.48M583.24 423.91C598.14 421.21 610.79 417.25 620.28 412.29C623.19 410.76 625.79 409.16 628.08 407.45M439.12 236.27C442.73 233.13 447.58 231.22 452.92 231.22C458.26 231.22 463.11 233.13 466.72 236.27M259.35 49.57V95.64C259.35 104.03 253.12 111.89 242.24 118.68C220.12 132.44 178.78 141.71 131.43 141.71C84.08 141.71 42.73 132.45 20.61 118.68C9.73 111.9 3.5 104.03 3.5 95.64V49.57M259.35 49.57C259.35 57.96 253.12 65.83 242.24 72.61M259.35 49.57C259.35 57.96 253.12 65.82 242.24 72.61M259.35 49.57C259.35 24.12 202.09 3.5 131.43 3.5C60.77 3.5 3.5 24.12 3.5 49.57M3.5 49.57C3.5 57.96 9.73 65.82 20.61 72.61M3.5 49.57C3.5 57.96 9.73 65.83 20.61 72.61M20.61 72.61C42.73 86.38 84.08 95.65 131.43 95.65M20.61 72.61C42.73 86.39 84.08 95.65 131.43 95.65M131.43 95.65C178.78 95.65 220.12 86.39 242.24 72.61M131.43 95.65C178.78 95.65 220.12 86.38 242.24 72.61M259.35 274.38V320.45C259.35 328.84 253.12 336.7 242.24 343.49C220.12 357.25 178.78 366.52 131.43 366.52C84.08 366.52 42.73 357.26 20.61 343.49C9.73 336.71 3.5 328.84 3.5 320.45V274.38M259.35 274.38C259.35 282.77 253.12 290.64 242.24 297.42M259.35 274.38C259.35 282.77 253.12 290.63 242.24 297.42M259.35 274.38C259.35 248.93 202.09 228.31 131.43 228.31C60.77 228.31 3.5 248.93 3.5 274.38M3.5 274.38C3.5 282.77 9.73 290.63 20.61 297.42M3.5 274.38C3.5 282.77 9.73 290.64 20.61 297.42M20.61 297.42C42.73 311.19 84.08 320.46 131.43 320.46M20.61 297.42C42.73 311.2 84.08 320.46 131.43 320.46M131.43 320.46C178.78 320.46 220.12 311.2 242.24 297.42M131.43 320.46C178.78 320.46 220.12 311.19 242.24 297.42M1036.44 49.57V95.64C1036.44 104.03 1030.21 111.89 1019.33 118.68C997.21 132.44 955.87 141.71 908.52 141.71M1036.44 49.57C1036.44 57.96 1030.21 65.83 1019.33 72.61M1036.44 49.57C1036.44 57.96 1030.21 65.82 1019.33 72.61M1036.44 49.57C1036.44 24.12 979.18 3.5 908.52 3.5C837.86 3.5 780.59 24.12 780.59 49.57M908.52 141.71C861.17 141.71 819.82 132.45 797.7 118.68C786.82 111.9 780.59 104.03 780.59 95.64V49.57M908.52 141.71V173.02H721.45V303.5H647.9M780.59 49.57C780.59 57.96 786.82 65.82 797.7 72.61M780.59 49.57C780.59 57.96 786.82 65.83 797.7 72.61M797.7 72.61C819.82 86.38 861.17 95.65 908.52 95.65M797.7 72.61C819.82 86.39 861.17 95.65 908.52 95.65M908.52 95.65C955.87 95.65 997.21 86.39 1019.33 72.61M908.52 95.65C955.87 95.65 997.21 86.38 1019.33 72.61M970.83 337.31C985.73 334.61 998.38 330.65 1007.87 325.69C1010.78 324.16 1013.38 322.56 1015.67 320.85M1036.44 274.38V320.45C1036.44 328.84 1030.21 336.7 1019.33 343.49C997.21 357.25 955.87 366.52 908.52 366.52C861.17 366.52 819.82 357.26 797.7 343.49C786.82 336.71 780.59 328.84 780.59 320.45V274.38M1036.44 274.38C1036.44 282.77 1030.21 290.64 1019.33 297.42M1036.44 274.38C1036.44 282.77 1030.21 290.63 1019.33 297.42M1036.44 274.38C1036.44 248.93 979.18 228.31 908.52 228.31C837.86 228.31 780.59 248.93 780.59 274.38M780.59 274.38C780.59 282.77 786.82 290.63 797.7 297.42M780.59 274.38C780.59 282.77 786.82 290.64 797.7 297.42M797.7 297.42C819.82 311.19 861.17 320.46 908.52 320.46M797.7 297.42C819.82 311.2 861.17 320.46 908.52 320.46M908.52 320.46C955.87 320.46 997.21 311.2 1019.33 297.42M908.52 320.46C955.87 320.46 997.21 311.19 1019.33 297.42M102.08 49.67C102.08 56.8497 96.2597 62.67 89.08 62.67M102.08 49.67C102.08 42.4903 96.2597 36.67 89.08 36.67M102.08 49.67H113.91M89.08 62.67C81.9003 62.67 76.08 56.8497 76.08 49.67M89.08 62.67V74.51M76.08 49.67C76.08 42.4903 81.9003 36.67 89.08 36.67M76.08 49.67H64.24M89.08 36.67V24.83M98.27 58.86L106.64 67.23M71.52 32.11L79.88 40.48M98.27 40.48L106.64 32.11M71.52 67.23L79.88 58.86M148.94 69.58L143.11 79.43M164.81 69.58L158.97 79.43M180.67 69.58L174.84 79.43M71.25 299.12H191.6M86.66 266.94L115.64 254.06L144.62 261.9L175.29 243.9M392.04 268.83H303.91V176.69H130.98V141.71M392.04 361.48H300.86V415.68H130.98V366.51M647.9 393.65H908.52V366.51M878.7 64.12L851.48 73.21V31.94L878.7 22.85V64.12ZM878.7 64.12L938.32 73.21V31.94L921.21 29.32M878.7 64.12V22.84L895.72 25.43M856.34 301.74H965.25M881.2 261.53H860.87V301.74H881.2M881.2 301.74H890.24M881.2 301.74H910.8V242.09H881.2V301.74ZM925.93 276.88H958.92M925.93 276.88V301.73H958.92V276.88M925.93 276.88L942.43 261.52L958.92 276.88M647.9 222.76V268.83C647.9 277.22 641.67 285.08 630.79 291.87C608.67 305.63 567.33 314.9 519.98 314.9C472.63 314.9 431.28 305.64 409.16 291.87C398.28 285.09 392.05 277.22 392.05 268.83V222.76C392.05 231.15 398.28 239.01 409.16 245.8C431.28 259.57 472.63 268.84 519.98 268.84C567.33 268.84 608.67 259.58 630.79 245.8C641.67 239.02 647.9 231.15 647.9 222.76ZM473.08 222.76C473.08 233.005 464.059 241.31 452.93 241.31C441.801 241.31 432.78 233.005 432.78 222.76C432.78 212.515 441.801 204.21 452.93 204.21C464.059 204.21 473.08 212.515 473.08 222.76ZM587.02 241.32C575.79 241.32 566.69 232.22 566.69 220.99V118.34C566.69 118.28 566.69 118.22 566.69 118.16V89.55C566.69 64.52 546.33 44.15 521.3 44.15H518.64C493.61 44.15 473.25 64.52 473.25 89.55V134.33C473.25 145.56 464.15 154.66 452.92 154.66C441.69 154.66 432.59 145.56 432.59 134.33V89.55C432.59 42.1 471.19 3.5 518.64 3.5H521.3C568.75 3.5 607.35 42.1 607.35 89.55V94.48C607.35 94.54 607.35 94.6 607.35 94.66V220.99C607.35 232.22 598.25 241.32 587.02 241.32ZM190.85 48.02C190.85 53.23 186.63 57.45 181.42 57.45H147.49C141.15 57.45 135.99 52.31 135.99 45.97C135.99 39.63 141.14 34.47 147.49 34.47C148.86 34.47 150.16 34.7 151.39 35.15C152.14 27.8 158.35 22.07 165.91 22.07C173.97 22.07 180.49 28.61 180.49 36.67C180.49 37.34 180.44 38 180.35 38.65C180.7 38.61 181.06 38.59 181.42 38.59C186.63 38.59 190.85 42.81 190.85 48.03V48.02ZM80.73 280.14H92.59V299.12H80.73V280.14ZM109.71 271.53H121.57V299.12H109.71V271.53ZM138.69 276.19H150.55V299.12H138.69V276.19ZM169.36 261.9H181.22V299.12H169.36V261.9ZM965.55 64.12L938.33 73.21V31.94L965.55 22.85V64.12ZM921.41 27.01C921.41 28.99 920.97 30.87 920.15 32.54L919.03 34.44L919.01 34.48L908.52 52.32L898.03 34.48L898.01 34.44L896.89 32.54C896.07 30.87 895.63 28.99 895.63 27.01C895.63 19.89 901.4 14.12 908.52 14.12C915.64 14.12 921.41 19.89 921.41 27.01ZM909.1 27.02C909.1 27.3458 908.836 27.61 908.51 27.61C908.184 27.61 907.92 27.3458 907.92 27.02C907.92 26.6942 908.184 26.43 908.51 26.43C908.836 26.43 909.1 26.6942 909.1 27.02Z" stroke="#5067FA" stroke-width="7" stroke-linecap="round" stroke-linejoin="round"/>
</svg>
