<svg viewBox="0 0 419 223" fill="none" xmlns="http://www.w3.org/2000/svg">
<path d="M59.54 192.287C55.95 192.977 43.16 210.427 37.98 212.597L34.59 182.767L7.92 184.117C5.99 182.717 32.63 148.907 32.93 143.527C33.25 137.667 17.28 127.477 15.83 120.897C20.69 118.777 48.04 110.267 48.97 107.237L39.57 81.3373C44.74 81.7773 77.54 86.5774 79.15 85.4074C83.68 82.0974 77.44 64.6173 77.53 59.1973C80.37 56.4073 105.84 72.0273 111.56 71.9673C117.88 71.9073 121.1 63.4073 126.53 60.7673C127.48 63.4573 133.83 78.9273 134.67 79.5173C136.31 80.6873 139.44 80.7473 139.26 77.3373C139.13 74.9073 130.06 53.0373 128.76 52.7473C120.78 50.9674 118.43 66.0173 110.09 65.5273C102.06 65.0573 83.14 50.3873 75.14 51.2073C73.52 51.3773 71.77 52.1273 71.39 53.7673C70.58 57.2673 76.49 77.1873 74.35 79.7273C68.94 79.0673 35.11 74.5673 33.23 75.7473C31.01 77.1473 31.88 77.8573 32.36 79.7773C34.34 87.5673 39.86 97.2474 42.73 105.007C38.43 107.477 9 116.187 7.94 117.707C4.4 122.787 26.43 138.817 26.39 143.787L0 185.707V190.447L30.03 188.887L33.22 222.077C37.1 226.227 55.32 201.347 59.66 200.167C64.8 198.757 73.77 206.847 75.91 204.677C80.05 200.467 61.61 191.887 59.54 192.287Z" fill="url(#paint0_linear_31_175)"/>
<path d="M136.09 83.6373C129.66 78.9173 127.28 81.2973 131.99 87.7373C136.66 94.1073 146.16 100.957 151.79 107.477C160.39 117.427 167.97 128.297 175.47 139.087C173.22 142.457 160.36 147.157 159.75 150.157C158.5 156.217 167.31 152.127 167.64 152.507C170.78 156.157 164.67 168.767 161.31 172.257C147.32 186.797 126.76 179.037 119.39 162.007C115.66 161.207 116.79 165.197 117.37 167.197C120.76 178.937 138.07 185.837 149.37 184.027C153.69 183.337 156.15 180.267 158.98 179.417C166.22 177.247 153.57 192.357 152.18 193.637C141.11 203.827 125.67 207.147 111 203.617C102.63 201.607 92.05 191.237 87.8 190.437C85.45 189.997 84.98 190.517 85.38 192.857C86.67 200.257 109.22 209.947 116.38 210.887C149.43 215.237 173.58 186.187 174.04 154.867C174.15 147.637 171.4 153.467 169.24 149.367C171.21 148.787 181.25 143.357 181.6 142.757C182.94 140.497 181.41 137.817 180.41 135.777C175.34 125.397 145.58 90.6073 136.08 83.6473L136.09 83.6373Z" fill="url(#paint1_linear_31_175)"/>
<path d="M87 177.807C86.55 177.337 76.99 177.967 73.93 177.417C38.05 171.037 36.7 121.377 75.92 133.507C75.38 120.947 55.94 124.697 48.97 131.067C26.31 151.807 54.24 185.317 81.29 184.027C84.66 183.867 89.9 180.807 87 177.797V177.807Z" fill="url(#paint2_linear_31_175)"/>
<path d="M58.51 143.017C56.42 150.657 64.69 146.627 68.78 150.927C71.48 153.757 70.87 159.957 71.26 160.317C71.51 160.547 77.26 160.607 77.48 160.397C78.98 158.997 74.11 148.607 72.2 146.717C68.47 143.027 63.57 142.497 58.51 143.017Z" fill="url(#paint3_linear_31_175)"/>
<path d="M134.43 128.777C136.74 126.487 129.28 110.297 124.96 114.557C123.74 115.757 130.07 133.097 134.43 128.777Z" fill="url(#paint4_linear_31_175)"/>
<path d="M412.5 91.9074V2.01735C412.5 1.19735 410.22 -0.31265 409.26 0.0573499H187.31C186.54 -0.23265 184.85 1.18735 184.85 1.75735V91.9074H173.27C173.2 91.9074 172.27 92.6774 172.14 92.8574C170.08 95.6273 174.06 101.817 176 104.017C178.87 107.277 183.43 110.047 187.84 110.397C196.56 111.077 206.6 109.507 215.18 110.377C215.55 110.417 215.92 110.347 216.23 110.627C221.34 117.697 226.21 124.947 230.43 132.587C232.71 136.707 235.02 140.947 236.25 145.517C233.31 147.667 230.44 149.927 227.66 152.277C218.72 159.827 209 167.897 200.46 175.817C199.54 176.677 196.64 179.137 196.59 180.227C196.57 180.787 196.98 181.837 197.34 182.327C210.36 194.547 222.72 207.527 233.34 221.907C234.12 222.617 235.06 222.727 236.04 222.317C237.15 221.857 240.2 216.997 241.11 215.677C251.53 200.617 260.84 184.757 270.77 169.367C271.72 166.887 269.56 166.187 268.37 164.497C278.84 160.047 286.68 150.417 293.45 141.567C301.41 131.157 308.35 119.947 317.54 110.497L405.8 110.297C412.14 109.927 418.29 101.247 418.51 95.4174C418.56 94.1074 417.79 91.9074 416.28 91.9074H412.5ZM327.75 43.8974L328.08 43.5173H335.5L328.08 55.4874C327.83 55.4874 327.95 50.9573 327.95 50.4173C327.95 49.9873 327.69 49.5573 327.69 49.1173C327.69 47.5573 328.37 45.5773 327.75 43.9073V43.8974ZM327.96 67.3373C328.14 66.1773 329.57 64.1373 330.16 63.0273H407.17L407.56 77.5974H327.69C328.43 74.4373 327.47 70.4773 327.97 67.3373H327.96ZM407.17 57.8274H332.63C335.56 52.9374 338.34 47.7873 342.18 43.5673L359.8 43.5273C368.44 49.4273 378.7 53.2673 386.35 43.5173H407.29C407.37 48.0173 407.71 52.1673 407.29 56.6673C407.25 57.1173 407.76 57.4973 407.16 57.8274H407.17ZM370.87 43.5173H377.89C377.74 43.9674 376.53 44.1873 376.13 44.2273C374.57 44.4173 373.16 44.2974 371.65 43.8974C371.35 43.8173 370.81 43.9174 370.87 43.5173ZM391.43 38.3074L407.3 19.5774V38.3074H391.43ZM286.84 5.91735L287.23 5.52735H407.3V11.3773L401.45 18.0074H286.84V5.91735ZM286.84 23.4774H396.63L384.8 37.5273L383.75 38.2973H362.44C354.98 33.4173 346.55 31.5273 339.53 38.2973H328.35L327.74 37.8773C327.61 35.7273 328.33 33.3773 325.69 32.6373C320.3 32.9173 314.12 32.0574 308.83 32.5673C307.92 32.6573 306.7 33.0373 306.31 33.9473C305.72 35.3274 306.64 37.1573 305.72 38.3074H286.86V23.4774H286.84ZM322.74 38.4373V83.0574H311.03V38.4373L311.42 38.0473H322.35L322.74 38.4373ZM286.84 43.5173H306.09V57.8274H286.84V43.5173ZM286.84 63.0273H306.09V77.5974H286.84V63.0273ZM286.84 83.0574H306.09V86.8274C306.09 87.5074 307.82 88.4374 308.56 88.5274C313.75 89.1474 320.14 88.0674 325.46 88.5074C328.22 87.9674 327.93 85.2874 327.95 83.0574H407.3V91.9074H286.84V83.0574ZM254.83 5.91735L255.22 5.52735H281.63V18.0174H254.83V5.91735ZM254.83 23.4774H281.63V38.3074H254.83V23.4774ZM254.83 43.5173H281.63V57.8274H254.83V43.5173ZM254.83 63.0273H281.63V77.5974H254.83V63.0273ZM254.83 83.0574H281.63V91.9074H254.83V83.0574ZM222.31 5.91735L222.7 5.52735H249.63V18.0174H222.31V5.91735ZM222.31 23.4774H249.63V38.3074H222.7L222.31 37.9173V23.4774ZM222.31 43.5173H249.63V57.8274H222.31V43.5173ZM222.31 63.0273H249.5L249.89 63.4173V77.5974H222.31V63.0273ZM222.31 83.0574H249.89V91.9074H222.31V83.0574ZM189.79 5.52735H216.98L217.37 5.91735V18.0174H189.79V5.52735ZM189.79 23.4774H217.37V38.3074H189.79V23.4774ZM189.79 43.5173H217.37V57.8274H189.79V43.5173ZM189.79 63.0273H217.37V77.5974H189.79V63.0273ZM189.79 83.0574H217.37V91.9074H189.79V83.0574ZM235.19 215.487L226.99 205.477C219.4 196.947 211.72 188.487 203.34 180.717L238.62 149.967L265.24 168.667L235.19 215.487ZM290.06 137.407C283.03 146.557 274.7 158.357 262.54 160.257C255.38 155.077 248.25 149.847 240.78 145.127C237.8 132.257 229.57 121.147 222.32 110.387C226.9 111.377 231.41 114.887 234.81 118.057C241.49 124.277 244.84 133.527 254.18 136.927C269.32 142.427 276.98 128.207 287.43 120.737C294.16 115.927 302.44 111.247 310.77 110.387C303.3 118.947 296.97 128.417 290.06 137.417V137.407ZM232.72 110.377H287.88C283.61 116.367 278.34 122.577 272.65 127.277C268.01 131.107 263.76 133.847 257.43 132.357C250.27 130.677 246.65 123.837 242.09 118.817C239.25 115.697 236.04 112.947 232.72 110.367V110.377ZM404.57 104.927H189.38C185.44 104.677 182.38 103.157 179.76 100.237C179.08 99.4773 178.24 98.3174 177.81 97.3773H413.01C411.97 101.507 408.89 104.587 404.56 104.927H404.57Z" fill="url(#paint5_linear_31_175)"/>
<defs>
<linearGradient id="paint0_linear_31_175" x1="-31.5" y1="-21.5026" x2="419" y2="222.997" gradientUnits="userSpaceOnUse">
<stop stop-color="#519FFF"/>
<stop offset="1" stop-color="#503EF7"/>
</linearGradient>
<linearGradient id="paint1_linear_31_175" x1="-31.5" y1="-21.5026" x2="419" y2="222.997" gradientUnits="userSpaceOnUse">
<stop stop-color="#519FFF"/>
<stop offset="1" stop-color="#503EF7"/>
</linearGradient>
<linearGradient id="paint2_linear_31_175" x1="-31.5" y1="-21.5026" x2="419" y2="222.997" gradientUnits="userSpaceOnUse">
<stop stop-color="#519FFF"/>
<stop offset="1" stop-color="#503EF7"/>
</linearGradient>
<linearGradient id="paint3_linear_31_175" x1="-31.5" y1="-21.5026" x2="419" y2="222.997" gradientUnits="userSpaceOnUse">
<stop stop-color="#519FFF"/>
<stop offset="1" stop-color="#503EF7"/>
</linearGradient>
<linearGradient id="paint4_linear_31_175" x1="-31.5" y1="-21.5026" x2="419" y2="222.997" gradientUnits="userSpaceOnUse">
<stop stop-color="#519FFF"/>
<stop offset="1" stop-color="#503EF7"/>
</linearGradient>
<linearGradient id="paint5_linear_31_175" x1="-31.5" y1="-21.5026" x2="419" y2="222.997" gradientUnits="userSpaceOnUse">
<stop stop-color="#519FFF"/>
<stop offset="1" stop-color="#503EF7"/>
</linearGradient>
</defs>
</svg>
