<?xml version="1.0" encoding="UTF-8"?>
<svg id="Layer_1" data-name="Layer 1" xmlns="http://www.w3.org/2000/svg" xmlns:xlink="http://www.w3.org/1999/xlink" viewBox="0 0 1366 768">
  <defs>
    <style>
      .cls-1 {
        fill: url(#linear-gradient);
      }
    </style>
    <linearGradient id="linear-gradient" x1="199.84" y1="387.78" x2="1166.16" y2="387.78" gradientUnits="userSpaceOnUse">
      <stop offset="0" stop-color="#503ef7"/>
      <stop offset="1" stop-color="#519fff"/>
    </linearGradient>
  </defs>
  <path class="cls-1" d="M375.11,603.45c-4.92,5.01-25.64-13.66-37.51-10.41-10.02,2.74-52.1,60.18-61.06,50.6l-7.36-76.64-69.34,3.61v-10.95l60.87-96.75c.08-11.47-50.77-48.48-42.6-60.21,2.44-3.51,70.4-23.61,80.34-29.32-6.62-17.92-19.35-40.26-23.94-58.26-1.13-4.42-3.13-6.08,2-9.3,4.33-2.72,82.46,7.66,94.95,9.18,4.94-5.85-8.72-51.86-6.84-59.94.88-3.79,4.92-5.54,8.66-5.92,18.49-1.89,62.16,31.99,80.7,33.07,19.25,1.12,24.67-33.62,43.1-29.51,3.01.67,23.95,51.16,24.25,56.77.42,7.86-6.8,7.72-10.6,5.03-1.92-1.37-16.6-37.1-18.79-43.31-12.54,6.09-19.96,25.72-34.56,25.85-13.21.12-72.03-35.93-78.59-29.49-.21,12.51,14.22,52.86,3.75,60.51-3.71,2.71-79.46-8.39-91.39-9.4l21.71,59.8c-2.15,6.98-65.29,26.63-76.51,31.53,3.34,15.2,40.22,38.72,39.48,52.25-.68,12.42-62.19,90.48-57.74,93.71l61.59-3.11,7.84,68.87c11.97-5,41.49-45.3,49.79-46.89,4.77-.91,47.37,18.89,37.8,28.61ZM514.07,323.97c-14.86-10.89-20.35-5.4-9.46,9.46,10.79,14.72,32.71,30.53,45.72,45.57,19.87,22.98,37.35,48.08,54.67,72.99-5.2,7.77-34.88,18.64-36.3,25.55-2.88,14,17.45,4.54,18.22,5.44,7.24,8.44-6.85,37.55-14.61,45.61-32.3,33.58-79.77,15.65-96.8-23.68-8.61-1.85-6,7.36-4.67,11.98,7.83,27.11,47.8,43.03,73.89,38.86,9.97-1.59,15.65-8.69,22.2-10.65,16.71-5-12.49,29.89-15.7,32.84-25.56,23.52-61.2,31.18-95.09,23.03-19.32-4.65-43.76-28.59-53.58-30.43-5.43-1.02-6.52.19-5.58,5.58,2.98,17.08,55.05,39.46,71.58,41.64,76.3,10.05,132.08-57.04,133.14-129.35.24-16.69-6.09-3.23-11.07-12.69,4.56-1.33,27.72-13.87,28.55-15.26,3.1-5.22-.44-11.4-2.75-16.12-11.71-23.97-80.43-104.3-102.35-120.37ZM400.71,541.41c-1.05-1.09-23.11.37-30.19-.89-82.84-14.73-85.97-129.4,4.59-101.38-1.24-29.01-46.14-20.35-62.23-5.62-52.33,47.89,12.17,125.26,74.64,122.29,7.78-.37,19.89-7.43,13.19-14.39ZM334.94,461.08c-4.82,17.63,14.27,8.34,23.72,18.27,6.23,6.54,4.82,20.85,5.72,21.68.58.54,13.85.67,14.37.18,3.46-3.24-7.79-27.23-12.2-31.59-8.62-8.52-19.92-9.75-31.62-8.54ZM510.23,428.19c5.33-5.28-11.89-42.68-21.87-32.83-2.82,2.78,11.79,42.8,21.87,32.83ZM1166.16,351.18c-.51,13.46-14.71,33.51-29.34,34.37l-203.79.46c-21.22,21.81-37.24,47.7-55.63,71.73-15.62,20.43-33.74,42.67-57.91,52.94,2.75,3.91,7.74,5.52,5.54,11.24-22.92,35.54-44.41,72.15-68.48,106.93-2.1,3.04-9.14,14.28-11.7,15.33-2.26.93-4.44.67-6.24-.96-24.52-33.2-53.06-63.19-83.12-91.4-.83-1.12-1.78-3.54-1.72-4.84.1-2.54,6.8-8.22,8.93-10.19,19.72-18.28,42.16-36.92,62.8-54.34,6.43-5.42,13.05-10.65,19.84-15.62-2.84-10.56-8.19-20.35-13.44-29.86-9.75-17.65-21-34.39-32.8-50.71-.7-.66-1.57-.5-2.42-.59-19.82-1.99-43,1.63-63.13.06-10.18-.8-20.69-7.19-27.33-14.72-4.47-5.07-13.67-19.36-8.91-25.76.3-.41,2.45-2.19,2.62-2.19h26.73v-208.16c0-1.33,3.91-4.6,5.68-3.93h512.49c2.21-.86,7.48,2.63,7.48,4.53v207.56h8.71c3.49,0,5.26,5.09,5.14,8.12ZM956.46,244.24c0,1.02.59,2.03.6,3.01,0,1.26-.28,11.69.3,11.71l17.12-27.64h-17.12l-.76.87c1.43,3.86-.14,8.43-.15,12.04ZM956.46,310.02h184.43l-.9-33.64h-177.82c-1.36,2.56-4.65,7.26-5.07,9.95-1.14,7.26,1.08,16.4-.64,23.69ZM1140.3,261.68c.97-10.38.17-19.96,0-30.35h-48.36c-17.66,22.51-41.37,13.66-61.31.03l-40.7.09c-8.86,9.74-15.3,21.62-22.05,32.92h172.11c1.38-.78.21-1.66.31-2.69ZM1057.99,232.21c3.49.92,6.74,1.2,10.35.76.91-.11,3.72-.61,4.06-1.65h-16.22c-.14.93,1.12.71,1.81.89ZM1140.29,219.31v-43.25l-36.65,43.25h36.65ZM862.14,172.45h264.63l13.52-15.32v-13.52h-277.24l-.9.9v27.93ZM862.14,219.31h43.55c2.11-2.65-.01-6.87,1.35-10.06.9-2.09,3.72-2.98,5.83-3.19,12.23-1.17,26.49.82,38.94.17,6.1,1.7,4.43,7.12,4.73,12.09l1.42.99h25.82c16.22-15.65,35.69-11.27,52.91-.03l49.22.02,2.42-1.78,27.33-32.45h-253.52v34.24ZM944.15,218.71h-25.23l-.9.9v103.03h27.03v-103.03l-.9-.9ZM862.14,264.36h44.46v-33.04h-44.46v33.04ZM862.14,310.02h44.46v-33.64h-44.46v33.64ZM862.14,343.06h278.15v-20.43h-183.23c-.03,5.14.64,11.33-5.75,12.58-12.28-1.01-27.05,1.48-39.02.05-1.7-.2-5.69-2.35-5.69-3.92v-8.71h-44.46v20.43ZM788.25,172.45h61.88v-28.84h-60.98l-.9.9v27.93ZM788.25,219.31h61.88v-34.24h-61.88v34.24ZM788.25,264.36h61.88v-33.04h-61.88v33.04ZM788.25,310.02h61.88v-33.64h-61.88v33.64ZM788.25,343.06h61.88v-20.43h-61.88v20.43ZM713.16,172.45h63.08v-28.84h-62.18l-.9.9v27.93ZM713.16,218.41l.9.9h62.18v-34.24h-63.08v33.34ZM713.16,264.36h63.08v-33.04h-63.08v33.04ZM713.16,310.02h63.68v-32.74l-.9-.9h-62.78v33.64ZM713.16,343.06h63.68v-20.43h-63.68v20.43ZM638.07,172.45h63.68v-27.93l-.9-.9h-62.78v28.84ZM638.07,219.31h63.68v-34.24h-63.68v34.24ZM638.07,264.36h63.68v-33.04h-63.68v33.04ZM638.07,310.02h63.68v-33.64h-63.68v33.64ZM638.07,343.06h63.68v-20.43h-63.68v20.43ZM812.27,520.3l-61.47-43.17-81.46,71c19.34,17.94,37.09,37.48,54.61,57.17l18.93,23.11,69.38-108.11ZM917.41,385.72c-19.24,1.97-38.37,12.78-53.9,23.89-24.12,17.26-41.82,50.1-76.78,37.39-21.58-7.85-29.32-29.21-44.73-43.58-7.85-7.31-18.26-15.41-28.84-17.71,16.74,24.85,35.76,50.52,42.63,80.22,17.27,10.91,33.72,22.98,50.26,34.95,28.09-4.38,47.32-31.64,63.55-52.76,15.97-20.78,30.57-42.63,47.82-62.41ZM758.83,405.22c10.53,11.59,18.88,27.38,35.42,31.26,14.6,3.43,24.41-2.88,35.13-11.74,13.14-10.85,25.3-25.2,35.16-39.03h-127.36c7.68,5.94,15.09,12.3,21.64,19.51ZM1153.51,355.68h-543.08c.98,2.17,2.92,4.85,4.5,6.62,6.05,6.75,13.1,10.24,22.21,10.83h496.87c9.99-.79,17.11-7.92,19.5-17.45Z"/>
</svg>