<svg viewBox="0 0 705 664" fill="none" xmlns="http://www.w3.org/2000/svg">
<path d="M693.54 543.397C693.39 552.047 693.96 559.387 694.29 567.407C694.6 574.977 690.43 581.007 682.06 581.537L692.3 657.827C692.56 659.797 691.43 661.267 690.05 661.367C688.39 661.487 686.71 661.217 686.26 659.157L675.92 581.867L599.52 581.927L591.78 658.547C591.74 660.537 590.79 661.707 589.16 661.897C587.99 662.037 585.47 661.227 585.67 659.177L593.13 581.907C587.75 582.387 582.97 581.647 580.72 577.227C579.17 574.177 579.89 570.837 579.4 567.247C575.93 567.237 572.7 570.187 572.41 574.067C570.75 596.387 570.18 618.447 570.97 640.947C571.14 645.777 568.77 649.707 564.42 651.707C552.7 657.117 537.39 661.457 524.69 658.597C524.29 660.397 524.16 661.657 523.39 662.617C522.75 663.407 521.25 663.707 519.86 663.707L502.15 663.667C500.62 663.667 498.89 662.437 498.88 660.597L498.83 522.527H467.77L454.78 534.077C453.64 535.097 451.33 537.067 451.36 538.787C451.5 548.997 453.53 558.617 454.45 568.727C455.44 579.567 457.39 589.797 459.28 600.557C460.2 605.767 456.14 610.247 452.42 613.127C446.72 617.537 430.78 627.767 425.06 622.867C420.8 619.217 425.85 608.277 427.79 603.477L411.31 549.337C409.72 565.457 409.02 581.447 410.24 597.507C410.67 603.147 409.8 607.407 405.2 611.047C396.85 617.637 386.13 621.057 375.32 619.757C373.3 619.517 371.59 617.947 370.88 616.687C368.11 611.737 376.17 603.747 379.68 598.697L373.28 560.567C371.8 551.767 369.02 531.417 373.22 522.597L320.87 522.517C322.17 527.787 322.93 532.627 322.44 538.117C320.67 557.607 317.23 576.477 313.22 595.567C312.67 598.177 312.87 599.957 314.55 601.927C318.1 606.087 323.75 612.757 320.97 617.397C320.28 618.547 318.65 619.887 316.68 620.017C305.1 620.767 293.62 617.347 285.04 609.487C282.1 606.797 281.67 602.527 282.05 598.767C283.84 580.957 283.2 565.817 281.82 547.217C276.57 565.627 270.73 583.267 264.52 601.347C263.52 604.267 272.53 615.957 266.98 620.967C261.19 626.187 243.26 615.107 237.37 610.707C233.82 608.057 231.55 603.597 232.46 599.087L239.23 565.397C241.2 555.577 243.39 546.177 244.1 536.157L226.96 522.447L192.17 522.497V639.367C196.64 642.947 203.08 646.307 202.83 651.597C202.75 653.267 201.79 655.097 200.04 655.847L192.8 658.947C191.24 659.617 192.18 663.587 189.47 663.627L171.21 663.867C167.61 663.917 167.21 660.927 166.02 658.657C157.88 656.637 149.19 654.757 141.56 651.367C132.75 647.447 135.54 638.017 135.58 629.877C135.68 610.897 134.96 592.347 133.58 573.497C133.3 569.747 130.56 566.927 127 566.327L126.53 573.787C126.07 581.097 118.59 581.387 112.69 581.477L120.19 658.487C120.36 660.217 118.63 661.037 117.71 661.157C116.2 661.357 114.86 660.767 114.03 659.027L106.32 581.227H29.7702L19.5702 658.457C19.0002 660.607 17.3502 661.407 15.6902 661.207C13.8302 660.977 12.9502 659.287 13.2502 657.057L23.3302 581.387C14.2002 579.897 9.57018 575.397 10.2302 565.927C12.8602 528.227 7.94018 477.887 0.160182 440.867C-0.549818 437.477 1.17018 433.477 3.94018 431.997C8.32018 429.657 13.5802 429.197 18.2402 430.797C20.9202 431.717 22.8902 434.797 23.4502 437.697C27.5402 458.997 30.1802 479.977 32.2802 501.647C34.0402 519.817 34.1202 537.317 34.0702 555.757C40.5302 555.897 46.1302 556.587 52.3002 556.057C19.1502 537.227 50.3602 438.417 63.7502 418.797L72.8902 405.407C75.0202 399.557 71.6502 392.117 72.8702 385.807L56.4302 383.277C55.1702 383.087 54.0202 382.537 53.5402 381.707C52.9902 380.757 52.7502 379.317 53.5202 378.257L66.0702 361.027C63.4402 357.797 46.8102 348.617 53.1902 345.027L72.1702 334.347L65.5002 317.227C65.1002 316.197 65.2002 314.647 65.7402 313.877C66.1502 313.287 67.2702 312.657 68.4102 312.737L90.8002 314.307L91.6002 298.517C91.6602 297.317 92.5702 296.587 93.2102 296.317C94.1402 295.927 95.4902 296.037 96.4502 296.627L114.71 307.737C118.78 304.497 123.68 287.307 128.55 294.447L140.74 312.327L156.46 305.037C157.61 304.497 158.82 304.497 159.61 304.977C160.55 305.547 161.25 306.597 161.16 307.947L159.23 336.517C158.88 341.637 160.66 347.007 162.49 351.657C165.45 359.167 173.19 365.917 172.28 370.427C171.52 374.147 163.25 375.217 160.55 377.417C155.58 396.197 139.94 409.587 120.28 410.087C121.22 414.257 123.36 417.357 125.9 420.647C141.28 440.507 163.07 450.697 188.39 453.947C199.1 440.497 196.96 454.627 206.46 433.607C192.83 425.367 196.02 409.207 199.19 396.657C204.74 377.097 213.35 356.117 234.28 347.697C216.16 333.397 210.74 311.557 215.39 290.347C217.76 279.527 218.91 268.817 226.52 259.867C227.24 259.017 228.09 258.327 229.59 258.637C232.89 259.297 231.93 265.267 234.51 267.817C241.5 257.687 250.91 250.227 262.44 247.027C263.79 246.657 265.33 247.257 265.9 247.937C267.76 250.157 264.23 255.057 265.37 258.937C275.78 254.597 286.49 252.887 297.67 253.537C299.08 253.617 300.07 254.627 300.25 255.417C301.18 259.517 295.31 260.897 293.81 265.817C299.21 264.907 322.03 266.837 322.09 272.127C322.13 276.127 311.19 276.767 305.58 281.777C312.33 284.307 318.03 288.177 323.21 293.317C324.32 294.417 324.85 295.467 324.46 296.917C323.44 300.807 316.12 297.127 311.16 299.547C315.51 305.657 317.41 312.037 318.7 318.897C319.08 320.907 317.96 322.447 316.27 322.747C314.35 323.087 313.03 321.577 312.62 319.417C309.31 302.007 303.32 302.227 302.92 298.527C302.35 293.217 308.55 294.337 313.27 292.847C308.24 288.047 298.11 287.387 296.85 284.837C296.13 283.377 296.35 281.697 297.67 280.587C300.66 278.087 303.47 275.517 307.06 273.767C307.88 273.367 308.34 272.887 307.41 272.357C301 271.427 295.09 271.587 288.87 272.537C287.45 272.757 286.22 272.247 285.49 271.177C283.3 267.957 288.31 263.537 289.9 259.697C280.59 259.687 271.83 262.067 263.89 266.457C262.92 266.987 261.86 266.847 261.14 266.577C258.03 265.437 259.41 258.897 258.69 255.027C249.22 258.917 242.55 266.267 237.3 274.737C236.7 275.707 236.02 276.497 235.35 276.747C231.97 278.017 229.62 272.257 228.19 269.417C222.81 275.717 223.59 283.537 221.88 290.697C218.89 303.237 219.01 315.507 225.23 327.197C229.07 334.417 233.97 340.187 240.93 344.967C255.21 354.787 274.9 354.217 288.04 342.357C294.13 336.867 298.84 329.177 300.03 321.067C300.64 316.917 292.62 309.297 297.14 306.967C298.5 306.267 300.53 306.587 301.48 308.377C306.29 317.437 308.8 327.527 308.43 337.867C308.36 339.877 307 340.917 305.45 340.887C301.75 340.807 303.43 337.177 301.43 335.467C298.24 340.557 294.75 344.777 289.62 349.077C307.95 360.357 314.4 390.287 317.01 410.147L349.92 410.437C355.22 410.487 358.25 416.667 356.62 421.367L350.99 437.637L412.99 437.677L414.58 402.717C409.21 406.497 404.75 409.777 399.22 412.107C391.71 415.317 383.39 414.947 376.42 410.457C364.76 402.947 354.58 394.007 345.17 383.867C343.17 381.717 341.34 380.217 338.62 379.107C331.02 376.017 325.42 369.517 323.68 361.437C322.34 355.197 326.08 349.007 332.52 348.077C339.52 347.067 346.88 348.917 352.52 353.037C356.29 355.797 358.38 359.787 361.87 362.767C369.38 369.157 377.15 374.997 385.48 380.427C392.95 385.287 416.1 354.037 424.4 350.227C409.58 339.167 410.03 336.287 404.18 321.177C403.4 319.167 397.38 318.107 396.52 314.547C395.53 310.457 401.07 307.977 405.45 294.097L409.5 281.277C408.89 271.817 409.81 260.847 418.02 254.717C420.02 253.227 424.26 254.767 425.65 250.887C425.96 250.037 428.03 249.267 428.93 249.257C430.3 249.257 431.11 250.777 432.05 252.017C433.85 254.387 436.41 255.837 438.55 257.977C442.65 254.337 458.09 246.237 461.55 248.727C463.88 250.407 459.9 258.057 461.67 263.417C466.59 260.697 484.35 257.447 486.83 260.227C488.58 262.187 484.22 266.267 484.72 270.327C489.09 271.317 502.79 274.137 503.35 278.787C503.81 282.597 495.12 284.517 492.36 289.437C496.22 293.347 507.86 304.707 506.19 309.187C505.11 312.097 497.54 309.507 493.07 315.917C496.21 319.717 502.1 332.787 499.34 336.127C497.53 338.317 489.08 335.187 483.94 339.477C481.28 341.697 479.41 344.667 476.28 346.947C481.57 350.197 486.83 353.047 490.7 358.197C501.58 372.667 509.21 389.247 512.91 406.967C516.98 426.437 501.08 435.747 501.53 436.937C502.53 439.527 505.16 434.367 509.86 441.207L532.17 473.707C542.17 473.467 551.41 472.777 561.04 471.267C568.47 470.097 576.13 460.067 581.56 454.627C580.95 441.727 581.02 426.537 587.78 415.137C588.09 414.607 588.28 414.237 588.21 413.957C588.11 413.587 587.51 413.277 586.84 413.247C566.53 412.307 549.84 398.097 546.85 378.157C542.57 376.307 536.18 374.957 535.04 371.147C533.9 367.337 543.54 358.977 545.76 352.087L553.41 328.307C555.09 323.087 550.94 304.657 554.37 303.617C555.36 303.317 556.58 303.327 557.63 303.957L572.78 313.117L585.16 297.267C586.2 295.937 588.68 294.787 589.88 296.537C593.1 301.267 594.87 306.627 597.78 311.947L617.07 302.227C618.22 301.647 619.4 301.697 620.55 302.287C621.34 302.697 621.83 304.027 621.85 305.517L621.99 319.737L643.57 320.127C644.72 320.147 645.82 320.747 646.28 321.407C646.9 322.317 647.03 323.767 646.48 324.967L638.4 342.477C641.98 346.317 656.39 354.467 656.93 357.597C657.09 358.547 656.77 359.787 655.73 360.537L642.54 370.027L652.78 387.967C653.7 389.587 652.06 391.737 650.54 391.847L634.39 393.047L633.68 410.537C638.68 415.657 641.79 421.347 644.7 427.687C657.53 455.647 663.74 486.677 666.51 517.307C667.75 531.067 664.08 547.797 652.74 556.727C655.28 556.807 670.54 557.417 670.51 555.507C669.87 524.687 672.07 494.377 676.91 463.917L680.84 439.217C681.79 433.227 686.67 430.067 692.77 430.647C695.86 430.937 699.1 431.317 701.2 433.507C703.18 435.567 704.82 438.837 704.12 442.407C697.59 475.697 694.17 508.897 693.56 543.347L693.54 543.397ZM492.76 330.447C493.07 324.877 487.87 321.537 487.07 317.057C486.05 311.377 493.27 307.057 498.18 305.477C495.19 300.487 490.35 296.897 486.76 292.377C483.18 287.867 491.11 281.787 494.07 279.357C487.51 275.537 477.77 278.387 478.22 270.997C478.32 269.337 478.89 267.707 478.76 265.587C471.41 264.497 459.84 273.267 457.06 269.127C454.54 265.387 454.84 260.987 455.14 255.997C448.91 257.617 443.8 261.287 439.51 265.777C438.59 266.737 437.61 267.227 436.48 267.017C432.87 266.357 434.84 261.857 428.67 257.767C425.51 260.777 425.64 268.517 422.87 269.177C420.35 269.777 419.38 267.657 417.92 265.927C413.6 270.847 417.58 277.117 415.92 282.097L411.33 295.887C405.75 312.647 401.18 312.667 405.94 314.437C408.55 315.407 410.13 317.787 410.69 320.457C413.19 332.457 421.2 341.777 430.58 346.577C442.68 352.777 455.62 352.007 466.62 346.047C480.63 338.447 475.15 332.837 492.75 330.437L492.76 330.447ZM79.8602 399.907L94.9202 394.877C110.81 408.787 135.22 406.557 147.64 389.727C136.67 389.687 127.37 384.957 120.9 376.617C119.62 374.967 120.04 372.907 121.23 372.207C123 371.167 124.64 371.587 125.84 373.067C132.08 380.777 141.74 385.347 151.7 383.037C158.3 371.137 150.37 374.717 165.25 368.457C161.78 362.737 157.8 357.707 155.76 351.377C154.49 347.447 152.71 342.957 152.95 338.787L154.48 312.827L141.72 318.637C139.67 319.567 137.92 319.267 136.65 317.397L126.09 301.917L118.14 314.347C117.01 316.107 114.33 314.627 112.99 313.817L97.6702 304.597L96.9802 317.397C96.8902 318.987 95.7802 320.577 93.9502 320.487L72.8902 319.437L78.7502 333.967C79.7102 336.347 78.9002 337.937 76.7702 339.117L60.3802 348.197L71.3902 357.617C73.0402 359.027 73.7402 360.987 72.3602 362.857L61.4702 377.617C66.6202 378.807 71.2602 379.237 76.2102 380.067C81.1602 380.897 77.4402 395.367 79.8702 399.937L79.8602 399.907ZM628.55 388.827C628.74 385.867 642.13 387.207 644.37 385.867C641.67 380.447 638.61 375.767 635.71 370.777C632.87 365.877 644.96 362.427 648.39 357.897L633.63 346.967C631.99 345.757 630.94 343.877 631.91 341.767L639.05 326.287L619.13 326.117C612.96 326.067 616.96 315.617 615.47 309.897C609.23 313.127 603.57 316.287 597.35 318.987C596.07 319.537 594.45 318.747 593.86 317.627L587.19 304.857L576.63 318.267C572.69 323.267 565.64 314.797 559.63 312.737C558.44 318.437 561.65 324.577 559.77 329.817C556.99 337.577 553.96 344.787 552.04 352.947C550.56 359.227 545.04 364.027 541.96 369.447L551.02 373.777C553.95 375.177 552.66 380.387 554.51 383.607C564.24 386.247 574.93 383.017 580.87 374.857C582.03 373.267 584.06 372.997 585.42 374.197C586.55 375.197 586.65 377.127 585.49 378.697C579.23 387.187 569.53 390.797 558.14 390.717C569.17 408.137 591.83 411.947 608.39 400.937C610.23 399.717 612.06 399.577 614.07 400.437L627.45 406.147L628.54 388.827H628.55ZM226.02 410.307C229.25 411.997 231.53 413.167 234.51 414.307C237.24 411.447 240.21 410.267 243.99 410.267L289.02 410.287L286.93 385.177C286.79 383.457 288.87 382.527 289.95 382.497C291.39 382.457 292.68 383.617 292.84 385.297L295.26 410.187C300.73 410.357 305.51 410.487 310.8 410.087C308.69 392.557 301.37 360.967 283.9 352.957C269.68 359.907 253.75 359.607 240.13 351.847C227.96 355.917 218.92 364.837 213.25 376.537C208.32 386.727 198.1 413.897 205.08 423.847C210.07 430.957 219.01 433.177 227.3 432.447L231.95 420.037C227.7 417.877 223.5 416.427 219.9 413.547C218.1 412.107 219.28 409.757 219.82 407.947L225.39 389.067C225.91 387.307 228.26 387.327 229.29 387.797C230.63 388.397 231.27 390.137 230.86 391.707L225.99 410.317L226.02 410.307ZM463.58 432.277C469.69 428.037 475.03 423.717 479.69 418.427C481.63 416.227 482.26 413.687 481.62 410.837C479.97 403.517 477.21 396.917 474.36 390.107C473.63 388.367 474.85 386.597 476.28 386.287C477.42 386.037 478.78 386.267 479.55 387.757C483.15 394.757 485.82 401.977 487.68 409.657C488.88 414.587 487.28 419.027 483.99 422.817C478.37 429.287 471.55 434.107 464.5 439.117C467.54 442.787 469.79 446.117 471.31 450.647C482.55 444.297 492.96 437.317 501.48 427.837C506.47 422.287 508.59 415.507 506.95 408.167C503.22 391.537 496.3 375.877 485.93 362.407C481.78 357.017 476.25 353.357 469.89 351.397C457.37 357.727 443.73 358.957 430.92 353.607C424.71 356.927 420.37 361.467 415.71 366.247C409.36 372.757 403.1 379.147 395.74 384.277C390.33 388.047 384.59 387.917 379.45 384.067L358.37 368.277C355.44 372.947 352.63 375.977 348.91 379.117C357.84 388.347 366.89 396.737 377.36 403.907C392.01 413.937 402.81 403.767 414.76 394.487L415.81 381.547C415.97 379.587 417.76 378.957 419.4 379.227C420.9 379.477 421.76 380.817 421.68 382.817L419.53 437.717L450.98 437.587C455.53 437.567 459.43 434.417 463.58 432.257V432.277ZM344.69 374.887C348.85 371.207 351.77 367.567 353.8 363.307C349.13 356.557 341.59 353.377 333.76 354.127C330.91 354.397 328.82 357.097 329.55 359.977C331.39 367.197 337.09 373.257 344.69 374.887ZM84.0502 433.787C88.9402 433.337 86.7902 439.967 91.0402 448.977C97.1302 461.877 104.75 473.917 114.62 484.117C119.49 489.147 125.26 491.597 132.03 492.757C147.86 495.467 163.54 496.597 179.52 497.347C182.52 490.657 182.08 483.847 179.35 477.397L163.01 478.057C151.25 478.527 139.8 480.157 131.51 472.417C116.5 458.397 114.04 445.717 105.43 433.917C100.45 427.097 94.1902 429.607 96.0002 424.807C98.0002 419.497 108.38 426.207 111.16 430.997L118.97 444.437C119.35 437.577 119.73 431.697 118.38 425.227C113.64 402.597 109.77 414.307 94.0002 401.537C84.2002 404.337 76.3002 409.627 71.2602 418.367C57.7902 441.707 49.8202 467.227 46.0902 493.967C43.7602 510.647 39.3802 534.867 52.8802 548.287C58.4202 553.797 66.5902 555.877 74.2302 556.157L114.97 557.617C124.91 557.977 139.11 560.827 139.7 573.257L141.3 606.847C141.83 618.087 141.81 628.897 141.18 640.157C141.07 642.097 141.75 644.337 143.47 645.217C150.72 648.907 158.25 650.947 166.57 651.867L166.38 547.787C166.36 538.667 130.85 530.217 123.3 528.417C118.36 527.237 113.54 526.597 108.89 524.557C107.11 523.777 106.86 521.397 106.91 519.637C107.18 508.937 108.65 498.827 109.79 487.877C99.2202 476.477 90.7102 463.847 84.7502 449.577C83.3402 446.197 78.7502 434.297 84.0602 433.807L84.0502 433.787ZM545.66 541.567C539.57 544.857 536.48 550.347 536.37 557.117C536.21 566.627 536.85 575.587 537.46 585.147L540.76 637.177C541.04 641.537 530.28 647.967 528.33 652.687C538.84 654.937 552.16 650.287 561.21 646.457C563.63 645.437 564.73 643.507 564.69 640.997L564.37 624.037C564.06 607.447 565.01 591.277 566.03 574.797C566.91 560.537 581.34 558.947 593.43 558.487L633.03 556.997C640.96 556.697 649.41 552.947 653.97 546.287C660.21 537.187 661.17 525.697 660.05 514.917C656.78 483.547 650.39 451.837 635.58 423.847C633.23 419.407 630.45 415.107 625.88 412.697C608.58 403.577 613.64 406.987 598.27 412.727C591.08 415.417 586.14 436.317 587.96 444.537C591.6 440.107 593.12 435.927 596.54 432.307C603.43 425.027 614.95 421.867 615.2 428.047C615.43 433.757 605.25 427.017 597.08 441.887C590.86 453.207 583.35 463.337 573.3 471.557C570.61 473.757 567.52 476.247 564.07 476.917C550.12 479.627 536.48 479.747 522.36 480.037C517.07 480.147 510.64 484.347 512.78 489.877C516.75 500.147 557.13 496.207 566.8 494.767C576.47 493.327 583.27 488.897 590.21 482.587C602.7 471.207 612.48 456.867 618.57 441.027C619.18 439.447 619.11 438.027 620.63 437.657C621.97 437.337 623.4 437.507 624.12 438.557C624.73 439.437 625.08 440.887 624.59 442.267C618.45 459.637 607.68 474.727 594.09 487.617C595.3 498.677 597.36 509.147 597.55 520.327C597.59 522.567 597.14 525.267 594.97 526.097C582.33 530.937 565.08 531.067 545.69 541.547L545.66 541.567ZM323.5 494.627L350.62 419.597C350.96 418.667 350.65 417.747 350.41 417.347C350.15 416.907 349.4 416.407 348.33 416.407H243.34C241.13 416.467 239.89 417.447 239.04 419.367L210.32 498.907L320.66 498.987C322.31 498.427 322.87 496.367 323.5 494.627ZM183.02 470.387C182.95 465.957 183.71 463.427 184.83 459.747C161.63 455.847 142.34 447.567 125.61 430.107C125.45 438.457 125.65 445.557 124.87 453.607C141.33 466.207 162.29 469.807 183.02 470.387ZM119.52 565.417C118.69 563.857 115.56 563.767 113.76 563.727L32.2302 561.797C30.6502 561.757 29.2402 561.287 28.5702 560.397C28.0302 559.677 27.6802 558.417 27.7202 557.107C28.9102 516.257 24.4602 477.197 17.1002 437.147C13.4602 435.547 9.54018 435.817 6.43018 438.147C14.2402 482.467 18.8602 523.087 16.4602 568.147C16.2702 571.657 18.8602 574.997 22.6802 574.997L119.51 575.037C120.61 571.927 121.13 568.467 119.51 565.427L119.52 565.417ZM221.85 447.867L225.01 438.777C220.23 438.657 216.16 437.977 211.77 436.507L207.96 444.237C212.82 444.757 217.02 445.967 221.85 447.867ZM587.06 566.397C585.19 569.337 585.6 573.257 587.4 575.727L681.47 575.627C685.66 575.627 688.36 571.967 688.12 568.057C685.76 529.437 690.49 477.957 698.24 439.437C696.14 436.407 690.06 435.807 687.58 438.207C680.02 477.057 675.65 518.887 676.76 558.577C676.83 561.067 675.25 562.797 672.74 562.857L593.6 564.697C591.58 564.747 588.21 564.617 587.07 566.407L587.06 566.397ZM465.93 454.037C464.3 448.817 462.03 445.547 458.51 442.177C451.87 442.867 438.13 452.527 441.39 458.557C444.47 464.277 460.93 460.067 465.94 454.037H465.93ZM492.74 443.887C485.22 450.157 476.8 454.287 468.85 459.807C461.7 464.767 453.83 468.627 444.95 467.057C440.4 466.247 435.82 463.827 434.92 459.057C433.77 452.997 437.48 448.147 441.98 444.017L348.45 443.987L328.67 498.967H513.44C506.24 494.937 504.05 488.217 507.94 481.737C511.31 476.117 517.53 473.987 524.65 473.757L504.17 444.057L492.74 443.887ZM210.25 480.157L219.72 454.067C215.78 451.527 211.66 450.527 207.19 450.517C196.6 450.697 188.48 459.657 189.37 470.037C197.81 470.467 204.62 473.937 210.25 480.157ZM149.82 472.067L136.13 467.737C137.48 470.787 140.8 471.277 143.77 472.037L149.81 472.067H149.82ZM206.89 488.357C207.43 481.627 193.54 474.277 185.93 476.847C188.06 484.277 188.6 491.197 185.66 498.447C187.66 498.567 190.9 499.537 192.28 498.177C197.84 487.337 206.82 489.187 206.88 488.367L206.89 488.357ZM140.63 522.437C138.47 522.437 137.19 520.987 137.05 519.187C136.73 515.047 136.3 503.417 137.88 499.837C129.83 498.697 122.31 497.357 115.42 493.107L112.92 519.937C131.26 523.707 150.27 528.067 166.48 537.177L166.39 522.537L140.64 522.437H140.63ZM534.5 636.327L530.03 563.827C529.28 551.707 531.62 542.847 541.95 536.617C549.49 532.067 557.51 529.147 566.14 527.017L591.44 520.787C590.91 511.007 589.93 502.307 588.37 492.647C576.54 500.017 567.81 501.387 554.34 502.487C553.71 508.837 557.37 522.377 550.01 522.427L524.34 522.577L524.43 646.997C528.3 643.277 531.57 640.357 534.5 636.317V636.327ZM204.4 497.617C204.67 496.607 204.91 495.367 204.22 495.287C202.49 495.087 200 496.547 199.64 498.317C200.25 499.387 203.93 499.387 204.4 497.617ZM548.04 516.427C548.47 512.157 548.37 508.837 547.98 505.297L142.98 505.257C142.72 509.277 142.69 512.557 143.05 516.377L548.04 516.427ZM185.99 656.957L185.85 522.627C181.27 522.407 177.17 522.427 172.83 522.677L172.81 657.377C177.67 657.357 181.68 658.127 185.98 656.957H185.99ZM262.54 615.977C261.49 610.337 258.8 607.237 257.24 602.647C265.09 581.417 271.94 560.247 277.49 538.397C278.89 532.877 278.76 527.717 276.12 522.497L237.26 522.677C242.96 528.907 250.94 530.117 250.06 538.777C248.88 550.387 246.38 561.347 244.07 572.717L238.71 599.097C238.25 601.357 238.71 603.907 240.64 605.387C247.04 610.297 254.25 614.757 262.55 615.977H262.54ZM315.34 613.727C311.12 605.257 305.02 603.687 306.82 595.437C311 576.367 314.39 557.567 316.16 538.067C316.66 532.577 316.1 527.447 313.91 522.497L283.15 522.537C283.24 527.477 285.72 531.457 286.95 535.957C289.04 543.597 288.22 551.447 288.69 559.347C289.53 573.267 289.55 586.627 288.07 600.467C287.14 609.157 308.37 615.427 315.32 613.727H315.34ZM404.15 601.227L403.5 585.027C402.92 570.497 404.38 556.307 405.37 541.877C405.62 538.207 407.22 535.387 408.02 531.967L410.2 522.567H380.06C375.22 530.487 377.55 547.857 379.14 557.227L385.81 596.797C386.89 603.237 378.79 607.877 376.87 613.637C385 615.117 404.45 608.457 404.16 601.227H404.15ZM453.29 601.887C451.57 591.477 449.76 582.017 448.58 571.817L445.09 541.637C443.92 531.547 452.73 529.347 458.23 522.527H416.99C414.79 527.547 414.35 532.707 415.41 537.987C418.22 552.027 422.2 565.277 426.54 578.877L434.27 603.157C432.97 608.217 430.01 612.177 429.7 617.827C435.1 618.397 453.67 606.777 453.3 601.887H453.29ZM518.12 657.457L518.1 522.527L504.96 522.607V657.247C509.32 657.787 513.1 657.537 518.12 657.457ZM196.26 650.497C195.24 649.087 194.19 648.317 192.33 647.677C192.09 649.047 191.98 650.347 192.4 651.697C193.91 651.617 194.83 651.637 196.26 650.497ZM272.28 213.597C247.27 217.567 221.41 203.357 215.75 178.567C205.37 178.237 195.04 175.317 187.55 167.917C166.92 147.527 170.69 112.757 194.99 97.0366C187.86 82.7266 188.03 66.8966 195.45 52.0066C206.46 29.8966 235.83 19.1466 259.08 28.7266C267.02 15.4366 279.42 6.63659 294.28 2.41659C320.97 -5.16341 349.4 5.39659 364.02 29.7666C387.61 16.0966 416.77 20.2066 435.48 40.0066C452.7 58.2266 455.59 85.8166 442.85 107.967C455.11 120.377 459.92 137.447 456.69 154.427C451.45 181.947 425.12 199.227 398.02 193.097C385.18 210.897 364.08 219.667 342.63 217.197C327.46 215.447 314.54 208.647 304.13 196.667C295.48 205.917 285.06 211.567 272.29 213.597H272.28ZM301.22 190.477C302.4 189.027 303.15 188.657 304.62 188.877C305.41 188.997 306.2 189.507 306.91 190.417C317.65 204.257 333.68 211.887 350.95 211.557C367.73 211.237 383.52 203.017 393.61 188.917C394.95 187.047 397 186.647 399.23 187.157C417.39 191.267 435.71 183.577 445.13 167.617C455.79 149.537 453.18 126.847 438.2 112.187C436.54 110.567 435.2 108.387 436.63 106.127C452.72 80.6766 443.55 46.8966 416.62 33.4966C400.09 25.2666 381.53 26.1166 365.87 36.1366C364.77 36.8366 362.97 37.1866 361.86 36.6366C361.11 36.2666 360.21 35.3766 359.6 34.2966C346.78 11.5266 320.63 1.15659 295.57 8.47659C281.93 12.4666 270.55 20.7766 263.5 33.2066C262.44 35.0866 260.16 35.5566 258.12 34.7366C239.29 27.2366 217.83 32.3866 205.16 48.3866C194.31 62.0766 193.2 80.7866 201.29 95.9966C202.35 97.9866 201.43 100.047 199.83 101.027C184.39 110.487 177.52 128.187 181.6 145.727C185.51 162.547 200.19 173.567 217.59 172.337C219.96 172.167 221.15 173.557 221.53 175.747C223.46 186.997 230.64 196.077 240.58 201.877C260.64 213.587 286.48 208.637 301.24 190.467L301.22 190.477ZM205.52 223.997C198.93 230.307 190.14 231.537 182.16 227.537C175.12 224.017 170.53 216.197 171.58 207.107C172.44 199.657 178.15 192.527 186.58 190.227C195.13 187.897 204.16 192.107 208.49 199.497C213 207.187 212.34 217.467 205.52 223.997ZM204.97 207.737C204.09 202.617 200.71 199.007 197.26 197.287C192.84 195.087 188.19 195.537 184.26 197.997C178.07 201.877 176.07 209.417 178.97 215.657C181.83 221.787 188.75 224.887 195.44 223.017C201.55 221.307 206.2 214.857 204.97 207.737ZM159.33 234.927C167.12 232.607 174.37 236.847 176.49 243.767C178.73 251.057 174.84 258.807 167.57 260.987C160.49 263.107 153.2 259.527 150.63 252.447C148.06 245.367 151.55 237.237 159.34 234.917L159.33 234.927ZM161.64 240.587C157.02 241.827 155.16 246.167 156.63 250.507C157.72 253.737 161.6 256.417 165.72 255.097C169.27 253.967 171.77 250.117 170.82 246.007C170.01 242.507 166.04 239.397 161.64 240.577V240.587ZM247.14 325.157C246.25 326.297 246.29 328.037 247.5 329.337C258.55 341.197 276.39 342.807 287.6 329.407C288.85 327.907 288.69 325.917 287.52 324.947C282.37 320.677 278.96 337.417 262.05 331.717C252.92 328.647 250.49 320.857 247.13 325.147L247.14 325.157ZM281.23 298.767C276.94 298.997 277.54 306.627 278.17 309.097C278.63 310.907 280.34 311.317 281.76 311.147C283.18 310.977 284.4 309.967 284.58 308.157C284.93 304.737 285.37 298.547 281.23 298.767ZM256.89 298.937C253 299.157 253.31 305.487 253.79 308.467C254.12 310.507 255.81 311.367 257.45 311.127C260.69 310.647 260.33 305.347 260.02 301.947C259.84 299.917 258.66 298.837 256.89 298.937ZM288.27 462.837C283.6 468.547 275.41 468.987 270.76 463.917C266.11 458.847 266.86 451.067 272.55 446.777C277.29 443.207 283.5 443.027 287.58 447.017C291.85 451.197 292.36 457.847 288.27 462.837ZM284.53 456.357C285.03 453.667 284.12 451.117 281.41 450.267C279.76 449.757 277.28 450.307 275.78 452.097C274.2 453.987 273.44 456.537 274.87 458.887C275.85 460.497 278.17 461.777 280.52 460.937C282.3 460.297 284.09 458.757 284.53 456.357ZM565.68 350.257C561.97 349.757 562.66 357.057 562.72 360.007C562.76 361.847 564.37 362.667 565.78 362.647C569.79 362.587 569.11 354.497 568.57 352.267C568.25 350.957 566.7 350.397 565.68 350.267V350.257ZM142.1 348.187C137.43 347.837 138.74 355.927 139.45 358.847C139.82 360.387 141.6 360.677 142.8 360.577C146.5 360.277 145.6 353.837 145 350.717C144.69 349.107 143.28 348.267 142.11 348.177L142.1 348.187ZM442.98 321.067C441.84 320.087 440.74 320.897 439.92 322.137C434.13 330.827 425.33 331.997 418.97 324.297C418.03 323.167 416.29 324.137 415.94 325.447C414.68 330.167 423.63 336.407 429.89 335.517C438.31 334.327 446.83 324.377 442.98 321.067ZM429.96 295.507C426 295.857 426.73 300.947 426.95 304.537C427.08 306.667 428.63 308.107 430.5 307.887C432.02 307.707 433.53 306.577 433.54 304.607C433.54 301.377 434.3 295.127 429.96 295.507ZM422.3 297.607C421.89 295.727 420 295.407 418.59 295.637C414.73 296.257 415.07 307.077 418.55 307.727C419.89 307.977 421.82 307.757 422.27 305.827C422.95 302.967 422.84 300.167 422.29 297.607H422.3ZM389.95 173.887C385.5 178.137 381.93 182.097 376.02 181.987C369.78 181.877 365.85 178.487 361.83 173.727C359.63 171.127 355.4 170.137 355.37 165.717L355.27 150.427C355.19 138.207 346.42 131.747 340.98 121.327C333.25 106.537 335.31 88.9466 346.77 76.7066C359.62 62.9766 380.03 59.8966 395.97 69.5066C411.58 78.9066 419.23 98.2066 413.04 115.837C407.51 131.557 396.15 135.587 396.27 151.147C396.42 170.037 397.24 166.947 389.96 173.897L389.95 173.887ZM381.74 106.567C384.11 107.017 384.85 110.607 386.88 109.937C388.95 109.247 389.63 105.947 392.68 107.257C393.81 107.737 393.95 109.297 393.26 110.797C387.46 123.397 384.51 131.817 384.17 146.027C386.57 146.727 388.26 146.557 390.55 145.897C391.99 138.197 395.85 131.687 400.81 125.597C413.32 110.257 411.51 88.8266 395.62 76.5566C384.33 67.8366 368.6 67.7166 356.9 75.8466C345.58 83.7166 339.77 97.7866 343.71 111.757C347.65 125.727 358.12 130.167 361.07 145.787C362.77 146.837 365.64 146.577 367.48 145.917C367.19 133.477 363.81 122.017 358.42 111.007C357.65 109.437 357.73 107.727 359.26 107.097C361.74 106.077 363.01 109.527 365.11 109.947C367.2 110.367 367.96 106.247 370.8 106.537C373.44 106.797 373.99 110.297 375.95 110.037C377.64 109.817 378.55 105.977 381.72 106.577L381.74 106.567ZM386.5 114.637C384.42 114.857 382.46 111.937 381.07 112.317C378.85 112.917 377.78 114.867 375.26 114.537C373.94 114.367 372.06 111.847 370.7 112.437L365.13 114.847C369.5 125.147 371.72 135.107 371.97 145.967C374.54 146.637 376.82 146.637 379.57 145.977C379.91 134.987 382.14 124.947 386.5 114.627V114.637ZM389.18 154.317C390.1 154.197 390.08 153.267 389.99 153.017C389.9 152.767 389.61 152.337 388.9 152.347L361.75 152.407C361.11 154.437 361.06 156.027 361.81 157.847L389.17 154.327L389.18 154.317ZM389.58 166.597C390.29 163.707 390.52 161.847 389.84 159.517L361.47 163.367C360.94 163.437 361.29 165.377 361.65 165.777C362.04 166.217 362.77 166.807 363.85 166.797L389.58 166.597ZM382.36 173.067C377.82 172.397 373.9 172.487 369.77 173.037C373.21 177.027 378.85 176.737 382.36 173.067ZM279.32 157.257C274.11 157.667 269.18 157.597 264.31 157.297C258.68 156.947 260.27 149.117 257.98 145.227C257.08 143.697 253.26 142.027 251.56 142.357C247.49 143.147 242.69 150.617 238.02 146.027L229.19 137.357C223.62 131.887 231.67 127.157 232.34 123.167C232.62 121.477 231.24 117.767 229.86 116.927C226.26 114.737 217.98 116.497 217.77 109.967C217.62 105.337 217.45 100.737 217.83 96.1666C218.35 89.8566 226.61 92.1666 230.23 89.5666C231.51 88.6466 232.97 85.0966 232.65 83.5766C231.85 79.7666 223.81 74.2766 228.96 69.1966L237.84 60.4566C239.53 58.7866 241.78 58.2066 243.86 59.5466L251.64 64.5466C253.55 63.6066 256.42 63.0466 258.01 61.5466C260.34 58.2166 258.8 49.2866 264.61 48.9766C269.33 48.7266 273.9 48.6966 278.63 48.8966C284.57 49.1466 282.99 57.6666 285.37 61.2766C286.55 63.0566 289.47 63.1566 291.17 64.5066C295.71 62.7766 300.85 55.7866 305.49 60.3766L314.26 69.0466C319.34 74.0766 312.27 78.8166 310.94 82.9866C310.43 84.5966 311.6 88.4766 313.02 89.4366C317.35 92.3566 324.98 89.9566 325.57 96.0066C326.03 100.687 325.88 105.267 325.68 109.967C325.4 116.467 317.3 114.437 313.42 117.007C312.09 117.887 310.6 121.477 310.98 123.027C312.01 127.277 319.81 131.927 314.11 137.457L304.85 146.437C300.88 150.287 295.26 143.157 291.64 142.407C290.07 142.077 286.44 143.537 285.49 144.847C283.11 148.137 284.72 156.837 279.35 157.257H279.32ZM280.3 140.057C283.55 138.147 288.17 136.087 291.7 135.497C295.47 135.897 297.95 139.667 301.45 140.967C304.49 138.687 307.08 135.837 309.62 132.937L304.96 126.327C303.59 124.377 303.18 122.087 304.74 120.017C306.53 117.637 306.38 113.517 308.79 111.717C311.77 109.497 316.1 110.577 319.28 108.607C319.46 104.837 319.82 101.107 319.16 97.6266L308.19 94.9366C306.91 91.1266 304.07 87.0066 303.81 83.0166C304.39 79.2266 308.16 76.7566 309.4 73.2666C306.94 70.5066 304.52 67.7166 301.52 65.4866L292.29 71.2466C288.02 70.0166 283.95 67.8966 279.78 66.2266L277.06 55.0966C273.41 54.7466 269.78 54.5966 266.31 55.1666C264.6 58.5866 265.54 62.9766 263.14 65.9566C261.33 68.2066 257.53 68.1066 255.23 69.7966C250.02 73.6266 246.67 67.8166 241.62 65.4866C238.69 67.7666 236.09 70.4166 233.7 73.1866C234.99 76.8466 238.58 79.0766 239.55 83.1066C238.71 86.4166 237.12 92.0266 234.73 94.5166C232.13 97.2366 227.37 96.0666 224.03 97.6566C223.22 101.037 223.79 105.107 223.8 108.727C227.35 110.457 231.72 109.627 234.87 111.867C242.67 127.657 238.89 123.717 236.06 129.347C235.36 130.727 233.13 132.417 234.53 133.947C236.87 136.527 239.3 139.307 242.05 140.957C245.29 139.397 247.92 135.407 251.33 135.577C255.52 135.997 259.58 138.947 263.49 140.227L266.03 151.247C269.76 151.617 273.43 151.677 277.09 151.227C278.95 147.917 277.79 143.187 280.29 140.057H280.3ZM292.1 96.6666C295.94 109.317 288.71 121.237 276.89 124.197C264.6 127.277 252.51 119.347 250.45 106.497C248.65 95.2866 255.93 84.7466 266.5 82.1866C277.3 79.5666 288.7 85.4466 292.1 96.6666ZM267.57 88.2866C258.7 90.9066 254.51 99.6966 256.87 107.597C259.28 115.667 267.66 120.247 275.47 118.227C283.93 116.037 288.63 107.617 286.59 99.5066C284.56 91.4066 276.27 85.7266 267.57 88.2866Z" fill="url(#paint0_linear_63_74)"/>
<defs>
<linearGradient id="paint0_linear_63_74" x1="0.000181516" y1="331.937" x2="704.26" y2="331.937" gradientUnits="userSpaceOnUse">
<stop stop-color="#503EF7"/>
<stop offset="1" stop-color="#519FFF"/>
</linearGradient>
</defs>
</svg>
