<?xml version="1.0" encoding="UTF-8"?>
<svg id="Layer_1" data-name="Layer 1" xmlns="http://www.w3.org/2000/svg" xmlns:xlink="http://www.w3.org/1999/xlink" viewBox="0 0 1366 768">
  <defs>
    <style>
      .cls-1 {
        fill: url(#linear-gradient);
      }
    </style>
    <linearGradient id="linear-gradient" x1="306.59" y1="374.83" x2="1010.85" y2="374.83" gradientUnits="userSpaceOnUse">
      <stop offset="0" stop-color="#503ef7"/>
      <stop offset="1" stop-color="#519fff"/>
    </linearGradient>
  </defs>
  <path class="cls-1" d="M1000.13,586.3c-.15,8.65.42,15.99.75,24.01.31,7.57-3.86,13.6-12.23,14.13l10.24,76.29c.26,1.97-.87,3.44-2.25,3.54-1.66.12-3.34-.15-3.79-2.21l-10.34-77.29-76.4.06-7.74,76.62c-.04,1.99-.99,3.16-2.62,3.35-1.17.14-3.69-.67-3.49-2.72l7.46-77.27c-5.38.48-10.16-.26-12.41-4.68-1.55-3.05-.83-6.39-1.32-9.98-3.47-.01-6.7,2.94-6.99,6.82-1.66,22.32-2.23,44.38-1.44,66.88.17,4.83-2.2,8.76-6.55,10.76-11.72,5.41-27.03,9.75-39.73,6.89-.4,1.8-.53,3.06-1.3,4.02-.64.79-2.14,1.09-3.53,1.09l-17.71-.04c-1.53,0-3.26-1.23-3.27-3.07l-.05-138.07h-31.06s-12.99,11.55-12.99,11.55c-1.14,1.02-3.45,2.99-3.42,4.71.14,10.21,2.17,19.83,3.09,29.94.99,10.84,2.94,21.07,4.83,31.83.92,5.21-3.14,9.69-6.86,12.57-5.7,4.41-21.64,14.64-27.36,9.74-4.26-3.65.79-14.59,2.73-19.39l-16.48-54.14c-1.59,16.12-2.29,32.11-1.07,48.17.43,5.64-.44,9.9-5.04,13.54-8.35,6.59-19.07,10.01-29.88,8.71-2.02-.24-3.73-1.81-4.44-3.07-2.77-4.95,5.29-12.94,8.8-17.99l-6.4-38.13c-1.48-8.8-4.26-29.15-.06-37.97l-52.35-.08c1.3,5.27,2.06,10.11,1.57,15.6-1.77,19.49-5.21,38.36-9.22,57.45-.55,2.61-.35,4.39,1.33,6.36,3.55,4.16,9.2,10.83,6.42,15.47-.69,1.15-2.32,2.49-4.29,2.62-11.58.75-23.06-2.67-31.64-10.53-2.94-2.69-3.37-6.96-2.99-10.72,1.79-17.81,1.15-32.95-.23-51.55-5.25,18.41-11.09,36.05-17.3,54.13-1,2.92,8.01,14.61,2.46,19.62-5.79,5.22-23.72-5.86-29.61-10.26-3.55-2.65-5.82-7.11-4.91-11.62l6.77-33.69c1.97-9.82,4.16-19.22,4.87-29.24l-17.14-13.71-34.79.05v116.87c4.47,3.58,10.91,6.94,10.66,12.23-.08,1.67-1.04,3.5-2.79,4.25l-7.24,3.1c-1.56.67-.62,4.64-3.33,4.68l-18.26.24c-3.6.05-4-2.94-5.19-5.21-8.14-2.02-16.83-3.9-24.46-7.29-8.81-3.92-6.02-13.35-5.98-21.49.1-18.98-.62-37.53-2-56.38-.28-3.75-3.02-6.57-6.58-7.17l-.47,7.46c-.46,7.31-7.94,7.6-13.84,7.69l7.5,77.01c.17,1.73-1.56,2.55-2.48,2.67-1.51.2-2.85-.39-3.68-2.13l-7.71-77.8h-76.55s-10.2,77.23-10.2,77.23c-.57,2.15-2.22,2.95-3.88,2.75-1.86-.23-2.74-1.92-2.44-4.15l10.08-75.67c-9.13-1.49-13.76-5.99-13.1-15.46,2.63-37.7-2.29-88.04-10.07-125.06-.71-3.39,1.01-7.39,3.78-8.87,4.38-2.34,9.64-2.8,14.3-1.2,2.68.92,4.65,4,5.21,6.9,4.09,21.3,6.73,42.28,8.83,63.95,1.76,18.17,1.84,35.67,1.79,54.11,6.46.14,12.06.83,18.23.3-33.15-18.83-1.94-117.64,11.45-137.26l9.14-13.39c2.13-5.85-1.24-13.29-.02-19.6l-16.44-2.53c-1.26-.19-2.41-.74-2.89-1.57-.55-.95-.79-2.39-.02-3.45l12.55-17.23c-2.63-3.23-19.26-12.41-12.88-16l18.98-10.68-6.67-17.12c-.4-1.03-.3-2.58.24-3.35.41-.59,1.53-1.22,2.67-1.14l22.39,1.57.8-15.79c.06-1.2.97-1.93,1.61-2.2.93-.39,2.28-.28,3.24.31l18.26,11.11c4.07-3.24,8.97-20.43,13.84-13.29l12.19,17.88,15.72-7.29c1.15-.54,2.36-.54,3.15-.06.94.57,1.64,1.62,1.55,2.97l-1.93,28.57c-.35,5.12,1.43,10.49,3.26,15.14,2.96,7.51,10.7,14.26,9.79,18.77-.76,3.72-9.03,4.79-11.73,6.99-4.97,18.78-20.61,32.17-40.27,32.67.94,4.17,3.08,7.27,5.62,10.56,15.38,19.86,37.17,30.05,62.49,33.3,10.71-13.45,8.57.68,18.07-20.34-13.63-8.24-10.44-24.4-7.27-36.95,5.55-19.56,14.16-40.54,35.09-48.96-18.12-14.3-23.54-36.14-18.89-57.35,2.37-10.82,3.52-21.53,11.13-30.48.72-.85,1.57-1.54,3.07-1.23,3.3.66,2.34,6.63,4.92,9.18,6.99-10.13,16.4-17.59,27.93-20.79,1.35-.37,2.89.23,3.46.91,1.86,2.22-1.67,7.12-.53,11,10.41-4.34,21.12-6.05,32.3-5.4,1.41.08,2.4,1.09,2.58,1.88.93,4.1-4.94,5.48-6.44,10.4,5.4-.91,28.22,1.02,28.28,6.31.04,4-10.9,4.64-16.51,9.65,6.75,2.53,12.45,6.4,17.63,11.54,1.11,1.1,1.64,2.15,1.25,3.6-1.02,3.89-8.34.21-13.3,2.63,4.35,6.11,6.25,12.49,7.54,19.35.38,2.01-.74,3.55-2.43,3.85-1.92.34-3.24-1.17-3.65-3.33-3.31-17.41-9.3-17.19-9.7-20.89-.57-5.31,5.63-4.19,10.35-5.68-5.03-4.8-15.16-5.46-16.42-8.01-.72-1.46-.5-3.14.82-4.25,2.99-2.5,5.8-5.07,9.39-6.82.82-.4,1.28-.88.35-1.41-6.41-.93-12.32-.77-18.54.18-1.42.22-2.65-.29-3.38-1.36-2.19-3.22,2.82-7.64,4.41-11.48-9.31-.01-18.07,2.37-26.01,6.76-.97.53-2.03.39-2.75.12-3.11-1.14-1.73-7.68-2.45-11.55-9.47,3.89-16.14,11.24-21.39,19.71-.6.97-1.28,1.76-1.95,2.01-3.38,1.27-5.73-4.49-7.16-7.33-5.38,6.3-4.6,14.12-6.31,21.28-2.99,12.54-2.87,24.81,3.35,36.5,3.84,7.22,8.74,12.99,15.7,17.77,14.28,9.82,33.97,9.25,47.11-2.61,6.09-5.49,10.8-13.18,11.99-21.29.61-4.15-7.41-11.77-2.89-14.1,1.36-.7,3.39-.38,4.34,1.41,4.81,9.06,7.32,19.15,6.95,29.49-.07,2.01-1.43,3.05-2.98,3.02-3.7-.08-2.02-3.71-4.02-5.42-3.19,5.09-6.68,9.31-11.81,13.61,18.33,11.28,24.78,41.21,27.39,61.07l32.91.29c5.3.05,8.33,6.23,6.7,10.93l-5.63,16.27,62,.04,1.59-34.96c-5.37,3.78-9.83,7.06-15.36,9.39-7.51,3.21-15.83,2.84-22.8-1.65-11.66-7.51-21.84-16.45-31.25-26.59-2-2.15-3.83-3.65-6.55-4.76-7.6-3.09-13.2-9.59-14.94-17.67-1.34-6.24,2.4-12.43,8.84-13.36,7-1.01,14.36.84,20,4.96,3.77,2.76,5.86,6.75,9.35,9.73,7.51,6.39,15.28,12.23,23.61,17.66,7.47,4.86,30.62-26.39,38.92-30.2-14.82-11.06-14.37-13.94-20.22-29.05-.78-2.01-6.8-3.07-7.66-6.63-.99-4.09,4.55-6.57,8.93-20.45l4.05-12.82c-.61-9.46.31-20.43,8.52-26.56,2-1.49,6.24.05,7.63-3.83.31-.85,2.38-1.62,3.28-1.63,1.37,0,2.18,1.52,3.12,2.76,1.8,2.37,4.36,3.82,6.5,5.96,4.1-3.64,19.54-11.74,23-9.25,2.33,1.68-1.65,9.33.12,14.69,4.92-2.72,22.68-5.97,25.16-3.19,1.75,1.96-2.61,6.04-2.11,10.1,4.37.99,18.07,3.81,18.63,8.46.46,3.81-8.23,5.73-10.99,10.65,3.86,3.91,15.5,15.27,13.83,19.75-1.08,2.91-8.65.32-13.12,6.73,3.14,3.8,9.03,16.87,6.27,20.21-1.81,2.19-10.26-.94-15.4,3.35-2.66,2.22-4.53,5.19-7.66,7.47,5.29,3.25,10.55,6.1,14.42,11.25,10.88,14.47,18.51,31.05,22.21,48.77,4.07,19.47-11.83,28.78-11.38,29.97,1,2.59,3.63-2.57,8.33,4.27l22.31,32.5c10-.24,19.24-.93,28.87-2.44,7.43-1.17,15.09-11.2,20.52-16.64-.61-12.9-.54-28.09,6.22-39.49.31-.53.5-.9.43-1.18-.1-.37-.7-.68-1.37-.71-20.31-.94-37-15.15-39.99-35.09-4.28-1.85-10.67-3.2-11.81-7.01s8.5-12.17,10.72-19.06l7.65-23.78c1.68-5.22-2.47-23.65.96-24.69.99-.3,2.21-.29,3.26.34l15.15,9.16,12.38-15.85c1.04-1.33,3.52-2.48,4.72-.73,3.22,4.73,4.99,10.09,7.9,15.41l19.29-9.72c1.15-.58,2.33-.53,3.48.06.79.41,1.28,1.74,1.3,3.23l.14,14.22,21.58.39c1.15.02,2.25.62,2.71,1.28.62.91.75,2.36.2,3.56l-8.08,17.51c3.58,3.84,17.99,11.99,18.53,15.12.16.95-.16,2.19-1.2,2.94l-13.19,9.49,10.24,17.94c.92,1.62-.72,3.77-2.24,3.88l-16.15,1.2-.71,17.49c5,5.12,8.11,10.81,11.02,17.15,12.83,27.96,19.04,58.99,21.81,89.62,1.24,13.76-2.43,30.49-13.77,39.42,2.54.08,17.8.69,17.77-1.22-.64-30.82,1.56-61.13,6.4-91.59l3.93-24.7c.95-5.99,5.83-9.15,11.93-8.57,3.09.29,6.33.67,8.43,2.86,1.98,2.06,3.62,5.33,2.92,8.9-6.53,33.29-9.95,66.49-10.56,100.94ZM799.35,373.35c.31-5.57-4.89-8.91-5.69-13.39-1.02-5.68,6.2-10,11.11-11.58-2.99-4.99-7.83-8.58-11.42-13.1-3.58-4.51,4.35-10.59,7.31-13.02-6.56-3.82-16.3-.97-15.85-8.36.1-1.66.67-3.29.54-5.41-7.35-1.09-18.92,7.68-21.7,3.54-2.52-3.74-2.22-8.14-1.92-13.13-6.23,1.62-11.34,5.29-15.63,9.78-.92.96-1.9,1.45-3.03,1.24-3.61-.66-1.64-5.16-7.81-9.25-3.16,3.01-3.03,10.75-5.8,11.41-2.52.6-3.49-1.52-4.95-3.25-4.32,4.92-.34,11.19-2,16.17l-4.59,13.79c-5.58,16.76-10.15,16.78-5.39,18.55,2.61.97,4.19,3.35,4.75,6.02,2.5,12,10.51,21.32,19.89,26.12,12.1,6.2,25.04,5.43,36.04-.53,14.01-7.6,8.53-13.21,26.13-15.61ZM386.45,442.81l15.06-5.03c15.89,13.91,40.3,11.68,52.72-5.15-10.97-.04-20.27-4.77-26.74-13.11-1.28-1.65-.86-3.71.33-4.41,1.77-1.04,3.41-.62,4.61.86,6.24,7.71,15.9,12.28,25.86,9.97,6.6-11.9-1.33-8.32,13.55-14.58-3.47-5.72-7.45-10.75-9.49-17.08-1.27-3.93-3.05-8.42-2.81-12.59l1.53-25.96-12.76,5.81c-2.05.93-3.8.63-5.07-1.24l-10.56-15.48-7.95,12.43c-1.13,1.76-3.81.28-5.15-.53l-15.32-9.22-.69,12.8c-.09,1.59-1.2,3.18-3.03,3.09l-21.06-1.05,5.86,14.53c.96,2.38.15,3.97-1.98,5.15l-16.39,9.08,11.01,9.42c1.65,1.41,2.35,3.37.97,5.24l-10.89,14.76c5.15,1.19,9.79,1.62,14.74,2.45s1.23,15.3,3.66,19.87ZM935.14,431.73c.19-2.96,13.58-1.62,15.82-2.96-2.7-5.42-5.76-10.1-8.66-15.09-2.84-4.9,9.25-8.35,12.68-12.88l-14.76-10.93c-1.64-1.21-2.69-3.09-1.72-5.2l7.14-15.48-19.92-.17c-6.17-.05-2.17-10.5-3.66-16.22-6.24,3.23-11.9,6.39-18.12,9.09-1.28.55-2.9-.24-3.49-1.36l-6.67-12.77-10.56,13.41c-3.94,5-10.99-3.47-17-5.53-1.19,5.7,2.02,11.84.14,17.08-2.78,7.76-5.81,14.97-7.73,23.13-1.48,6.28-7,11.08-10.08,16.5l9.06,4.33c2.93,1.4,1.64,6.61,3.49,9.83,9.73,2.64,20.42-.59,26.36-8.75,1.16-1.59,3.19-1.86,4.55-.66,1.13,1,1.23,2.93.07,4.5-6.26,8.49-15.96,12.1-27.35,12.02,11.03,17.42,33.69,21.23,50.25,10.22,1.84-1.22,3.67-1.36,5.68-.5l13.38,5.71,1.09-17.32ZM532.61,453.21c3.23,1.69,5.51,2.86,8.49,4,2.73-2.86,5.7-4.04,9.48-4.04l45.03.02-2.09-25.11c-.14-1.72,1.94-2.65,3.02-2.68,1.44-.04,2.73,1.12,2.89,2.8l2.42,24.89c5.47.17,10.25.3,15.54-.1-2.11-17.53-9.43-49.12-26.9-57.13-14.22,6.95-30.15,6.65-43.77-1.11-12.17,4.07-21.21,12.99-26.88,24.69-4.93,10.19-15.15,37.36-8.17,47.31,4.99,7.11,13.93,9.33,22.22,8.6l4.65-12.41c-4.25-2.16-8.45-3.61-12.05-6.49-1.8-1.44-.62-3.79-.08-5.6l5.57-18.88c.52-1.76,2.87-1.74,3.9-1.27,1.34.6,1.98,2.34,1.57,3.91l-4.87,18.61ZM770.17,475.18c6.11-4.24,11.45-8.56,16.11-13.85,1.94-2.2,2.57-4.74,1.93-7.59-1.65-7.32-4.41-13.92-7.26-20.73-.73-1.74.49-3.51,1.92-3.82,1.14-.25,2.5-.02,3.27,1.47,3.6,7,6.27,14.22,8.13,21.9,1.2,4.93-.4,9.37-3.69,13.16-5.62,6.47-12.44,11.29-19.49,16.3,3.04,3.67,5.29,7,6.81,11.53,11.24-6.35,21.65-13.33,30.17-22.81,4.99-5.55,7.11-12.33,5.47-19.67-3.73-16.63-10.65-32.29-21.02-45.76-4.15-5.39-9.68-9.05-16.04-11.01-12.52,6.33-26.16,7.56-38.97,2.21-6.21,3.32-10.55,7.86-15.21,12.64-6.35,6.51-12.61,12.9-19.97,18.03-5.41,3.77-11.15,3.64-16.29-.21l-21.08-15.79c-2.93,4.67-5.74,7.7-9.46,10.84,8.93,9.23,17.98,17.62,28.45,24.79,14.65,10.03,25.45-.14,37.4-9.42l1.05-12.94c.16-1.96,1.95-2.59,3.59-2.32,1.5.25,2.36,1.59,2.28,3.59l-2.15,54.9,31.45-.13c4.55-.02,8.45-3.17,12.6-5.33ZM651.28,417.78c4.16-3.68,7.08-7.32,9.11-11.58-4.67-6.75-12.21-9.93-20.04-9.18-2.85.27-4.94,2.97-4.21,5.85,1.84,7.22,7.54,13.28,15.14,14.91ZM390.63,476.69c4.89-.45,2.74,6.18,6.99,15.19,6.09,12.9,13.71,24.94,23.58,35.14,4.87,5.03,10.64,7.48,17.41,8.64,15.83,2.71,31.51,3.84,47.49,4.59,3-6.69,2.56-13.5-.17-19.95l-16.34.66c-11.76.47-23.21,2.1-31.5-5.64-15.01-14.02-17.47-26.7-26.08-38.5-4.98-6.82-11.24-4.31-9.43-9.11,2-5.31,12.38,1.4,15.16,6.19l7.81,13.44c.38-6.86.76-12.74-.59-19.21-4.74-22.63-8.61-10.92-24.38-23.69-9.8,2.8-17.7,8.09-22.74,16.83-13.47,23.34-21.44,48.86-25.17,75.6-2.33,16.68-6.71,40.9,6.79,54.32,5.54,5.51,13.71,7.59,21.35,7.87l40.74,1.46c9.94.36,24.14,3.21,24.73,15.64l1.6,33.59c.53,11.24.51,22.05-.12,33.31-.11,1.94.57,4.18,2.29,5.06,7.25,3.69,14.78,5.73,23.1,6.65l-.19-104.08c-.02-9.12-35.53-17.57-43.08-19.37-4.94-1.18-9.76-1.82-14.41-3.86-1.78-.78-2.03-3.16-1.98-4.92.27-10.7,1.74-20.81,2.88-31.76-10.57-11.4-19.08-24.03-25.04-38.3-1.41-3.38-6-15.28-.69-15.77ZM852.25,584.47c-6.09,3.29-9.18,8.78-9.29,15.55-.16,9.51.48,18.47,1.09,28.03l3.3,52.03c.28,4.36-10.48,10.79-12.43,15.51,10.51,2.25,23.83-2.4,32.88-6.23,2.42-1.02,3.52-2.95,3.48-5.46l-.32-16.96c-.31-16.59.64-32.76,1.66-49.24.88-14.26,15.31-15.85,27.4-16.31l39.6-1.49c7.93-.3,16.38-4.05,20.94-10.71,6.24-9.1,7.2-20.59,6.08-31.37-3.27-31.37-9.66-63.08-24.47-91.07-2.35-4.44-5.13-8.74-9.7-11.15-17.3-9.12-12.24-5.71-27.61.03-7.19,2.69-12.13,23.59-10.31,31.81,3.64-4.43,5.16-8.61,8.58-12.23,6.89-7.28,18.41-10.44,18.66-4.26.23,5.71-9.95-1.03-18.12,13.84-6.22,11.32-13.73,21.45-23.78,29.67-2.69,2.2-5.78,4.69-9.23,5.36-13.95,2.71-27.59,2.83-41.71,3.12-5.29.11-11.72,4.31-9.58,9.84,3.97,10.27,44.35,6.33,54.02,4.89s16.47-5.87,23.41-12.18c12.49-11.38,22.27-25.72,28.36-41.56.61-1.58.54-3,2.06-3.37,1.34-.32,2.77-.15,3.49.9.61.88.96,2.33.47,3.71-6.14,17.37-16.91,32.46-30.5,45.35,1.21,11.06,3.27,21.53,3.46,32.71.04,2.24-.41,4.94-2.58,5.77-12.64,4.84-29.89,4.97-49.28,15.45ZM630.09,537.53l27.12-75.03c.34-.93.03-1.85-.21-2.25-.26-.44-1.01-.94-2.08-.94h-104.99c-2.21.06-3.45,1.04-4.3,2.96l-28.72,79.54,110.34.08c1.65-.56,2.21-2.62,2.84-4.36ZM489.6,513.29c-.07-4.43.69-6.96,1.81-10.64-23.2-3.9-42.49-12.18-59.22-29.64-.16,8.35.04,15.45-.74,23.5,16.46,12.6,37.42,16.2,58.15,16.78ZM426.11,608.32c-.83-1.56-3.96-1.65-5.76-1.69l-81.53-1.93c-1.58-.04-2.99-.51-3.66-1.4-.54-.72-.89-1.98-.85-3.29,1.19-40.85-3.26-79.91-10.62-119.96-3.64-1.6-7.56-1.33-10.67,1,7.81,44.32,12.43,84.94,10.03,130-.19,3.51,2.4,6.85,6.22,6.85l96.83.04c1.1-3.11,1.62-6.57,0-9.61ZM528.44,490.77l3.16-9.09c-4.78-.12-8.85-.8-13.24-2.27l-3.81,7.73c4.86.52,9.06,1.73,13.89,3.63ZM893.64,609.3c-1.87,2.94-1.46,6.86.34,9.33l94.07-.1c4.19,0,6.89-3.66,6.65-7.57-2.36-38.62,2.37-90.1,10.12-128.62-2.1-3.03-8.18-3.63-10.66-1.23-7.56,38.85-11.93,80.68-10.82,120.37.07,2.49-1.51,4.22-4.02,4.28l-79.14,1.84c-2.02.05-5.39-.08-6.53,1.71ZM772.52,496.94c-1.63-5.22-3.9-8.49-7.42-11.86-6.64.69-20.38,10.35-17.12,16.38,3.08,5.72,19.54,1.51,24.55-4.52ZM799.33,486.79c-7.52,6.27-15.94,10.4-23.89,15.92-7.15,4.96-15.02,8.82-23.9,7.25-4.55-.81-9.13-3.23-10.03-8-1.15-6.06,2.56-10.91,7.06-15.04l-93.53-.03-19.78,54.98h184.77c-7.2-4.03-9.39-10.75-5.5-17.23,3.37-5.62,9.59-7.75,16.71-7.98l-20.48-29.7-11.43-.17ZM516.84,523.06l9.47-26.09c-3.94-2.54-8.06-3.54-12.53-3.55-10.59.18-18.71,9.14-17.82,19.52,8.44.43,15.25,3.9,20.88,10.12ZM456.4,514.97l-13.69-4.33c1.35,3.05,4.67,3.54,7.64,4.3l6.04.03ZM513.47,531.26c.54-6.73-13.35-14.08-20.96-11.51,2.13,7.43,2.67,14.35-.27,21.6,2,.12,5.24,1.09,6.62-.27,5.56-10.84,14.54-8.99,14.6-9.81ZM447.22,565.34c-2.16,0-3.44-1.45-3.58-3.25-.32-4.14-.75-15.77.83-19.35-8.05-1.14-15.57-2.48-22.46-6.73l-2.5,26.83c18.34,3.77,37.35,8.13,53.56,17.24l-.09-14.64-25.75-.1ZM841.09,679.23l-4.47-72.5c-.75-12.12,1.59-20.98,11.92-27.21,7.54-4.55,15.56-7.47,24.19-9.6l25.3-6.23c-.53-9.78-1.51-18.48-3.07-28.14-11.83,7.37-20.56,8.74-34.03,9.84-.63,6.35,3.03,19.89-4.33,19.94l-25.67.15.09,124.42c3.87-3.72,7.14-6.64,10.07-10.68ZM510.99,540.51c.27-1.01.51-2.25-.18-2.33-1.73-.2-4.22,1.26-4.58,3.03.61,1.07,4.29,1.07,4.76-.7ZM854.63,559.33c.43-4.27.33-7.59-.06-11.13l-405-.04c-.26,4.02-.29,7.3.07,11.12l404.99.05ZM492.58,699.86l-.14-134.33c-4.58-.22-8.68-.2-13.02.05l-.02,134.7c4.86-.02,8.87.75,13.17-.42ZM569.13,658.88c-1.05-5.64-3.74-8.74-5.3-13.33,7.85-21.23,14.7-42.4,20.25-64.25,1.4-5.52,1.27-10.68-1.37-15.9l-38.86.18c5.7,6.23,13.68,7.44,12.8,16.1-1.18,11.61-3.68,22.57-5.99,33.94l-5.36,26.38c-.46,2.26,0,4.81,1.93,6.29,6.4,4.91,13.61,9.37,21.91,10.59ZM621.92,656.63c-4.22-8.47-10.32-10.04-8.52-18.29,4.18-19.07,7.57-37.87,9.34-57.37.5-5.49-.06-10.62-2.25-15.57l-30.76.04c.09,4.94,2.57,8.92,3.8,13.42,2.09,7.64,1.27,15.49,1.74,23.39.84,13.92.86,27.28-.62,41.12-.93,8.69,20.3,14.96,27.25,13.26ZM710.74,644.13l-.65-16.2c-.58-14.53.88-28.72,1.87-43.15.25-3.67,1.85-6.49,2.65-9.91l2.18-9.4h-30.14c-4.84,7.92-2.51,25.29-.92,34.66l6.67,39.57c1.08,6.44-7.02,11.08-8.94,16.84,8.13,1.48,27.58-5.18,27.29-12.41ZM759.88,644.79c-1.72-10.41-3.53-19.87-4.71-30.07l-3.49-30.18c-1.17-10.09,7.64-12.29,13.14-19.11h-41.24c-2.2,5.02-2.64,10.18-1.58,15.46,2.81,14.04,6.79,27.29,11.13,40.89l7.73,24.28c-1.3,5.06-4.26,9.02-4.57,14.67,5.4.57,23.97-11.05,23.6-15.94ZM824.71,700.36l-.02-134.93-13.14.08v134.64c4.36.54,8.14.29,13.16.21ZM502.84,693.39c-1.02-1.41-2.07-2.18-3.93-2.82-.24,1.37-.35,2.67.07,4.02,1.51-.08,2.43-.06,3.86-1.2ZM578.87,256.5c-25.01,3.97-50.87-10.24-56.53-35.03-10.38-.33-20.71-3.25-28.2-10.65-20.63-20.39-16.86-55.16,7.44-70.88-7.13-14.31-6.96-30.14.46-45.03,11.01-22.11,40.38-32.86,63.63-23.28,7.94-13.29,20.34-22.09,35.2-26.31,26.69-7.58,55.12,2.98,69.74,27.35,23.59-13.67,52.75-9.56,71.46,10.24,17.22,18.22,20.11,45.81,7.37,67.96,12.26,12.41,17.07,29.48,13.84,46.46-5.24,27.52-31.57,44.8-58.67,38.67-12.84,17.8-33.94,26.57-55.39,24.1-15.17-1.75-28.09-8.55-38.5-20.53-8.65,9.25-19.07,14.9-31.84,16.93ZM607.81,233.38c1.18-1.45,1.93-1.82,3.4-1.6.79.12,1.58.63,2.29,1.54,10.74,13.84,26.77,21.47,44.04,21.14,16.78-.32,32.57-8.54,42.66-22.64,1.34-1.87,3.39-2.27,5.62-1.76,18.16,4.11,36.48-3.58,45.9-19.54,10.66-18.08,8.05-40.77-6.93-55.43-1.66-1.62-3-3.8-1.57-6.06,16.09-25.45,6.92-59.23-20.01-72.63-16.53-8.23-35.09-7.38-50.75,2.64-1.1.7-2.9,1.05-4.01.5-.75-.37-1.65-1.26-2.26-2.34-12.82-22.77-38.97-33.14-64.03-25.82-13.64,3.99-25.02,12.3-32.07,24.73-1.06,1.88-3.34,2.35-5.38,1.53-18.83-7.5-40.29-2.35-52.96,13.65-10.85,13.69-11.96,32.4-3.87,47.61,1.06,1.99.14,4.05-1.46,5.03-15.44,9.46-22.31,27.16-18.23,44.7,3.91,16.82,18.59,27.84,35.99,26.61,2.37-.17,3.56,1.22,3.94,3.41,1.93,11.25,9.11,20.33,19.05,26.13,20.06,11.71,45.9,6.76,60.66-11.41ZM512.11,266.9c-6.59,6.31-15.38,7.54-23.36,3.54-7.04-3.52-11.63-11.34-10.58-20.43.86-7.45,6.57-14.58,15-16.88,8.55-2.33,17.58,1.88,21.91,9.27,4.51,7.69,3.85,17.97-2.97,24.5ZM511.56,250.64c-.88-5.12-4.26-8.73-7.71-10.45-4.42-2.2-9.07-1.75-13,.71-6.19,3.88-8.19,11.42-5.29,17.66,2.86,6.13,9.78,9.23,16.47,7.36,6.11-1.71,10.76-8.16,9.53-15.28ZM465.92,277.83c7.79-2.32,15.04,1.92,17.16,8.84,2.24,7.29-1.65,15.04-8.92,17.22-7.08,2.12-14.37-1.46-16.94-8.54s.92-15.21,8.71-17.53ZM468.23,283.49c-4.62,1.24-6.48,5.58-5.01,9.92,1.09,3.23,4.97,5.91,9.09,4.59,3.55-1.13,6.05-4.98,5.1-9.09-.81-3.5-4.78-6.61-9.18-5.43ZM553.72,368.06c-.89,1.14-.85,2.88.36,4.18,11.05,11.86,28.89,13.47,40.1.07,1.25-1.5,1.09-3.49-.08-4.46-5.15-4.27-8.56,12.47-25.47,6.77-9.13-3.07-11.56-10.86-14.92-6.57ZM587.81,341.67c-4.29.23-3.69,7.86-3.06,10.33.46,1.81,2.17,2.22,3.59,2.05s2.64-1.18,2.82-2.99c.35-3.42.79-9.61-3.35-9.39ZM563.48,341.84c-3.89.22-3.58,6.55-3.1,9.53.33,2.04,2.02,2.9,3.66,2.66,3.24-.48,2.88-5.78,2.57-9.18-.18-2.03-1.36-3.11-3.13-3.01ZM594.86,505.74c-4.67,5.71-12.86,6.15-17.51,1.08s-3.9-12.85,1.79-17.14c4.74-3.57,10.95-3.75,15.03.24,4.27,4.18,4.78,10.83.69,15.82ZM591.12,499.26c.5-2.69-.41-5.24-3.12-6.09-1.65-.51-4.13.04-5.63,1.83-1.58,1.89-2.34,4.44-.91,6.79.98,1.61,3.3,2.89,5.65,2.05,1.78-.64,3.57-2.18,4.01-4.58ZM872.27,393.16c-3.71-.5-3.02,6.8-2.96,9.75.04,1.84,1.65,2.66,3.06,2.64,4.01-.06,3.33-8.15,2.79-10.38-.32-1.31-1.87-1.87-2.89-2ZM448.68,391.09c-4.67-.35-3.36,7.74-2.65,10.66.37,1.54,2.15,1.83,3.35,1.73,3.7-.3,2.8-6.74,2.2-9.86-.31-1.61-1.72-2.45-2.89-2.54ZM749.57,363.97c-1.14-.98-2.24-.17-3.06,1.07-5.79,8.69-14.59,9.86-20.95,2.16-.94-1.13-2.68-.16-3.03,1.15-1.26,4.72,7.69,10.96,13.95,10.07,8.42-1.19,16.94-11.14,13.09-14.45ZM736.54,338.4c-3.96.35-3.23,5.44-3.01,9.03.13,2.13,1.68,3.57,3.55,3.35,1.52-.18,3.03-1.31,3.04-3.28,0-3.23.76-9.48-3.58-9.1ZM728.88,340.51c-.41-1.88-2.3-2.2-3.71-1.97-3.86.62-3.52,11.44-.04,12.09,1.34.25,3.27.03,3.72-1.9.68-2.86.57-5.66.02-8.22ZM696.54,216.79c-4.45,4.25-8.02,8.21-13.93,8.1-6.24-.11-10.17-3.5-14.19-8.26-2.2-2.6-6.43-3.59-6.46-8.01l-.1-15.29c-.08-12.22-8.85-18.68-14.29-29.1-7.73-14.79-5.67-32.38,5.79-44.62,12.85-13.73,33.26-16.81,49.2-7.2,15.61,9.4,23.26,28.7,17.07,46.33-5.53,15.72-16.89,19.75-16.77,35.31.15,18.89.97,15.8-6.31,22.75ZM688.33,149.47c2.37.45,3.11,4.04,5.14,3.37,2.07-.69,2.75-3.99,5.8-2.68,1.13.48,1.27,2.04.58,3.54-5.8,12.6-8.75,21.02-9.09,35.23,2.4.7,4.09.53,6.38-.13,1.44-7.7,5.3-14.21,10.26-20.3,12.51-15.34,10.7-36.77-5.19-49.04-11.29-8.72-27.02-8.84-38.72-.71-11.32,7.87-17.13,21.94-13.19,35.91s14.41,18.41,17.36,34.03c1.7,1.05,4.57.79,6.41.13-.29-12.44-3.67-23.9-9.06-34.91-.77-1.57-.69-3.28.84-3.91,2.48-1.02,3.75,2.43,5.85,2.85,2.09.42,2.85-3.7,5.69-3.41,2.64.26,3.19,3.76,5.15,3.5,1.69-.22,2.6-4.06,5.77-3.46ZM693.08,157.54c-2.08.22-4.04-2.7-5.43-2.32-2.22.6-3.29,2.55-5.81,2.22-1.32-.17-3.2-2.69-4.56-2.1l-5.57,2.41c4.37,10.3,6.59,20.26,6.84,31.12,2.57.67,4.85.67,7.6.01.34-10.99,2.57-21.03,6.93-31.35ZM695.77,197.21c.92-.12.9-1.05.81-1.3s-.38-.68-1.09-.67l-27.15.06c-.64,2.03-.69,3.62.06,5.44l27.36-3.52ZM696.17,209.49c.71-2.89.94-4.75.26-7.08l-28.37,3.85c-.53.07-.18,2.01.18,2.41.39.44,1.12,1.03,2.2,1.02l25.73-.2ZM688.95,215.97c-4.54-.67-8.46-.58-12.59-.03,3.44,3.99,9.08,3.7,12.59.03ZM585.91,200.16c-5.21.41-10.14.34-15.01.04-5.63-.35-4.04-8.18-6.33-12.07-.9-1.53-4.72-3.2-6.42-2.87-4.07.79-8.87,8.26-13.54,3.67l-8.83-8.67c-5.57-5.47,2.48-10.2,3.15-14.19.28-1.69-1.1-5.4-2.48-6.24-3.6-2.19-11.88-.43-12.09-6.96-.15-4.63-.32-9.23.06-13.8.52-6.31,8.78-4,12.4-6.6,1.28-.92,2.74-4.47,2.42-5.99-.8-3.81-8.84-9.3-3.69-14.38l8.88-8.74c1.69-1.67,3.94-2.25,6.02-.91l7.78,5c1.91-.94,4.78-1.5,6.37-3,2.33-3.33.79-12.26,6.6-12.57,4.72-.25,9.29-.28,14.02-.08,5.94.25,4.36,8.77,6.74,12.38,1.18,1.78,4.1,1.88,5.8,3.23,4.54-1.73,9.68-8.72,14.32-4.13l8.77,8.67c5.08,5.03-1.99,9.77-3.32,13.94-.51,1.61.66,5.49,2.08,6.45,4.33,2.92,11.96.52,12.55,6.57.46,4.68.31,9.26.11,13.96-.28,6.5-8.38,4.47-12.26,7.04-1.33.88-2.82,4.47-2.44,6.02,1.03,4.25,8.83,8.9,3.13,14.43l-9.26,8.98c-3.97,3.85-9.59-3.28-13.21-4.03-1.57-.33-5.2,1.13-6.15,2.44-2.38,3.29-.77,11.99-6.14,12.41ZM586.89,182.96c3.25-1.91,7.87-3.97,11.4-4.56,3.77.4,6.25,4.17,9.75,5.47,3.04-2.28,5.63-5.13,8.17-8.03l-4.66-6.61c-1.37-1.95-1.78-4.24-.22-6.31,1.79-2.38,1.64-6.5,4.05-8.3,2.98-2.22,7.31-1.14,10.49-3.11.18-3.77.54-7.5-.12-10.98l-10.97-2.69c-1.28-3.81-4.12-7.93-4.38-11.92.58-3.79,4.35-6.26,5.59-9.75-2.46-2.76-4.88-5.55-7.88-7.78l-9.23,5.76c-4.27-1.23-8.34-3.35-12.51-5.02l-2.72-11.13c-3.65-.35-7.28-.5-10.75.07-1.71,3.42-.77,7.81-3.17,10.79-1.81,2.25-5.61,2.15-7.91,3.84-5.21,3.83-8.56-1.98-13.61-4.31-2.93,2.28-5.53,4.93-7.92,7.7,1.29,3.66,4.88,5.89,5.85,9.92-.84,3.31-2.43,8.92-4.82,11.41-2.6,2.72-7.36,1.55-10.7,3.14-.81,3.38-.24,7.45-.23,11.07,3.55,1.73,7.92.9,11.07,3.14,7.8,15.79,4.02,11.85,1.19,17.48-.7,1.38-2.93,3.07-1.53,4.6,2.34,2.58,4.77,5.36,7.52,7.01,3.24-1.56,5.87-5.55,9.28-5.38,4.19.42,8.25,3.37,12.16,4.65l2.54,11.02c3.73.37,7.4.43,11.06-.02,1.86-3.31.7-8.04,3.2-11.17ZM598.69,139.57c3.84,12.65-3.39,24.57-15.21,27.53-12.29,3.08-24.38-4.85-26.44-17.7-1.8-11.21,5.48-21.75,16.05-24.31,10.8-2.62,22.2,3.26,25.6,14.48ZM574.16,131.19c-8.87,2.62-13.06,11.41-10.7,19.31,2.41,8.07,10.79,12.65,18.6,10.63,8.46-2.19,13.16-10.61,11.12-18.72-2.03-8.1-10.32-13.78-19.02-11.22Z"/>
</svg>