<?xml version="1.0" encoding="UTF-8"?>
<svg id="Layer_1" data-name="Layer 1" xmlns="http://www.w3.org/2000/svg" xmlns:xlink="http://www.w3.org/1999/xlink" viewBox="0 0 1366 768">
  <defs>
    <style>
      .cls-1 {
        fill: url(#linear-gradient);
      }
    </style>
    <linearGradient id="linear-gradient" x1="113.86" y1="430.25" x2="1286.41" y2="430.25" gradientUnits="userSpaceOnUse">
      <stop offset="0" stop-color="#503ef7"/>
      <stop offset="1" stop-color="#519fff"/>
    </linearGradient>
  </defs>
  <path class="cls-1" d="M144.52,280.41c0-1.93,1.57-3.5,3.5-3.5h52.4c1.93,0,3.5,1.57,3.5,3.5s-1.57,3.5-3.5,3.5h-52.4c-1.93,0-3.5-1.57-3.5-3.5ZM148.02,319.51h52.4c1.93,0,3.5-1.57,3.5-3.5s-1.57-3.5-3.5-3.5h-52.4c-1.93,0-3.5,1.57-3.5,3.5s1.57,3.5,3.5,3.5ZM148.02,358.04h52.4c1.93,0,3.5-1.57,3.5-3.5s-1.57-3.5-3.5-3.5h-52.4c-1.93,0-3.5,1.57-3.5,3.5s1.57,3.5,3.5,3.5ZM148.02,396.56h52.4c1.93,0,3.5-1.57,3.5-3.5s-1.57-3.5-3.5-3.5h-52.4c-1.93,0-3.5,1.57-3.5,3.5s1.57,3.5,3.5,3.5ZM200.42,428.08h-52.4c-1.93,0-3.5,1.57-3.5,3.5s1.57,3.5,3.5,3.5h52.4c1.93,0,3.5-1.57,3.5-3.5s-1.57-3.5-3.5-3.5ZM200.42,466.61h-52.4c-1.93,0-3.5,1.57-3.5,3.5s1.57,3.5,3.5,3.5h52.4c1.93,0,3.5-1.57,3.5-3.5s-1.57-3.5-3.5-3.5ZM148.02,512.13h52.4c1.93,0,3.5-1.57,3.5-3.5s-1.57-3.5-3.5-3.5h-52.4c-1.93,0-3.5,1.57-3.5,3.5s1.57,3.5,3.5,3.5ZM200.42,543.66h-52.4c-1.93,0-3.5,1.57-3.5,3.5s1.57,3.5,3.5,3.5h52.4c1.93,0,3.5-1.57,3.5-3.5s-1.57-3.5-3.5-3.5ZM257.04,283.91h52.4c1.93,0,3.5-1.57,3.5-3.5s-1.57-3.5-3.5-3.5h-52.4c-1.93,0-3.5,1.57-3.5,3.5s1.57,3.5,3.5,3.5ZM257.04,319.51h52.4c1.93,0,3.5-1.57,3.5-3.5s-1.57-3.5-3.5-3.5h-52.4c-1.93,0-3.5,1.57-3.5,3.5s1.57,3.5,3.5,3.5ZM257.04,358.04h52.4c1.93,0,3.5-1.57,3.5-3.5s-1.57-3.5-3.5-3.5h-52.4c-1.93,0-3.5,1.57-3.5,3.5s1.57,3.5,3.5,3.5ZM309.45,389.56h-52.4c-1.93,0-3.5,1.57-3.5,3.5s1.57,3.5,3.5,3.5h52.4c1.93,0,3.5-1.57,3.5-3.5s-1.57-3.5-3.5-3.5ZM309.45,428.08h-52.4c-1.93,0-3.5,1.57-3.5,3.5s1.57,3.5,3.5,3.5h52.4c1.93,0,3.5-1.57,3.5-3.5s-1.57-3.5-3.5-3.5ZM257.04,473.61h52.4c1.93,0,3.5-1.57,3.5-3.5s-1.57-3.5-3.5-3.5h-52.4c-1.93,0-3.5,1.57-3.5,3.5s1.57,3.5,3.5,3.5ZM257.04,512.13h52.4c1.93,0,3.5-1.57,3.5-3.5s-1.57-3.5-3.5-3.5h-52.4c-1.93,0-3.5,1.57-3.5,3.5s1.57,3.5,3.5,3.5ZM257.04,550.66h52.4c1.93,0,3.5-1.57,3.5-3.5s-1.57-3.5-3.5-3.5h-52.4c-1.93,0-3.5,1.57-3.5,3.5s1.57,3.5,3.5,3.5ZM419.52,276.91h-52.4c-1.93,0-3.5,1.57-3.5,3.5s1.57,3.5,3.5,3.5h52.4c1.93,0,3.5-1.57,3.5-3.5s-1.57-3.5-3.5-3.5ZM367.11,319.51h52.4c1.93,0,3.5-1.57,3.5-3.5s-1.57-3.5-3.5-3.5h-52.4c-1.93,0-3.5,1.57-3.5,3.5s1.57,3.5,3.5,3.5ZM419.52,351.04h-52.4c-1.93,0-3.5,1.57-3.5,3.5s1.57,3.5,3.5,3.5h52.4c1.93,0,3.5-1.57,3.5-3.5s-1.57-3.5-3.5-3.5ZM419.52,389.56h-52.4c-1.93,0-3.5,1.57-3.5,3.5s1.57,3.5,3.5,3.5h52.4c1.93,0,3.5-1.57,3.5-3.5s-1.57-3.5-3.5-3.5ZM367.11,435.08h52.4c1.93,0,3.5-1.57,3.5-3.5s-1.57-3.5-3.5-3.5h-52.4c-1.93,0-3.5,1.57-3.5,3.5s1.57,3.5,3.5,3.5ZM367.11,466.61c-1.93,0-3.5,1.57-3.5,3.5s1.57,3.5,3.5,3.5h52.4c1.93,0,3.5-1.57,3.5-3.5s-1.57-3.5-3.5-3.5h-52.4ZM471.68,283.91h52.4c1.93,0,3.5-1.57,3.5-3.5s-1.57-3.5-3.5-3.5h-52.4c-1.93,0-3.5,1.57-3.5,3.5s1.57,3.5,3.5,3.5ZM524.08,312.51h-52.4c-1.93,0-3.5,1.57-3.5,3.5s1.57,3.5,3.5,3.5h52.4c1.93,0,3.5-1.57,3.5-3.5s-1.57-3.5-3.5-3.5ZM524.08,351.04h-52.4c-1.93,0-3.5,1.57-3.5,3.5s1.57,3.5,3.5,3.5h52.4c1.93,0,3.5-1.57,3.5-3.5s-1.57-3.5-3.5-3.5ZM471.68,396.56h52.4c1.93,0,3.5-1.57,3.5-3.5s-1.57-3.5-3.5-3.5h-52.4c-1.93,0-3.5,1.57-3.5,3.5s1.57,3.5,3.5,3.5ZM1286.41,258.84v162.99c0,1.93-1.57,3.5-3.5,3.5h-255.24c-1.93,0-3.5-1.57-3.5-3.5v-142.99c-5.73,4.62-11.02,9.79-15.89,15.09h5.28c1.93,0,3.5,1.57,3.5,3.5s-1.57,3.5-3.5,3.5h-11.42c-4.67,5.53-8.88,10.99-12.67,15.9-2.38,3.09-4.64,6.01-6.68,8.51-.58.71-1.22,1.5-1.92,2.37-1.14,1.41-2.43,3-3.85,4.74h36.55c1.93,0,3.5,1.57,3.5,3.5s-1.57,3.5-3.5,3.5h-42.37c-7.88,9.29-18.28,20.79-30.32,31.52h72.7c1.93,0,3.5,1.57,3.5,3.5s-1.57,3.5-3.5,3.5h-80.94c-15.22,12.26-32.49,22.49-50.31,25.61-9,1.58-16.96,2.31-24.06,2.31-28.56,0-43.31-11.82-57.03-27.92h-168.21c-3.98,4.18-6.52,6.85-6.6,6.94-.69.72-1.61,1.09-2.54,1.09-.87,0-1.73-.32-2.41-.96-1.4-1.33-1.46-3.55-.13-4.95.04-.04.77-.81,2.01-2.12h-39.96c-.32,0-.63-.06-.93-.14h-26.13v31.52h55.29c.32,0,.63.06.93.14h401.01c1.93,0,3.5,1.57,3.5,3.5s-1.57,3.5-3.5,3.5h-430.17c-.32,0-.63-.06-.93-.14h-26.13v19.93c0,1.93-1.57,3.5-3.5,3.5s-3.5-1.57-3.5-3.5v-19.93h-97.56v31.52h94.02c1.93,0,3.5,1.57,3.5,3.5s-1.57,3.5-3.5,3.5h-94.02v8c0,1.93-1.57,3.5-3.5,3.5s-3.5-1.57-3.5-3.5v-8h-103.07v31.52h105.87c1.93,0,3.5,1.57,3.5,3.5s-1.57,3.5-3.5,3.5h-105.87v31.52h84.97c1.93,0,3.5,1.57,3.5,3.5s-1.57,3.5-3.5,3.5h-84.97v65.73h106.91c.64,0,1.23.18,1.74.48h53.38v-87.86c0-1.93,1.57-3.5,3.5-3.5h56.93c1.93,0,3.5,1.57,3.5,3.5v87.86h8v-134.09c0-1.93,1.57-3.5,3.5-3.5h56.15c1.93,0,3.5,1.57,3.5,3.5v134.09h7.56v-47.3c0-1.93,1.57-3.5,3.5-3.5h57.82c1.93,0,3.5,1.57,3.5,3.5v47.3h24.82v-160.36c0-1.93,1.57-3.5,3.5-3.5h173.89c1.93,0,3.5,1.57,3.5,3.5v163.71c0,1.93-1.57,3.5-3.5,3.5h-159.08c-.31.09-.62.15-.96.15h-313.32c-.64,0-1.23-.18-1.74-.48H118.4c-1.93,0-3.5-1.57-3.5-3.5v-70.23c-.64-.63-1.04-1.52-1.04-2.49s.4-1.86,1.04-2.49v-33.54c-.64-.63-1.04-1.52-1.04-2.49s.4-1.86,1.04-2.49v-33.54c-.64-.63-1.04-1.52-1.04-2.49s.4-1.86,1.04-2.49v-33.54c-.64-.63-1.04-1.52-1.04-2.49s.4-1.86,1.04-2.49v-33.54c-.64-.63-1.04-1.52-1.04-2.49s.4-1.86,1.04-2.49v-33.54c-.64-.63-1.04-1.52-1.04-2.49s.4-1.86,1.04-2.49v-33.54c-.64-.63-1.04-1.52-1.04-2.49s.4-1.86,1.04-2.49v-33.32c0-1.93,1.57-3.5,3.5-3.5h494.25c1.93,0,3.5,1.57,3.5,3.5s-1.57,3.5-3.5,3.5h-56.49c.09.31.15.62.15.96v27.85h55.29c.32,0,.63.06.93.14h19.72c.08,0,.15-.02.23-.02,7.49,0,13.56,0,19.15.02h152.01c9.4-9.55,13.31-13.37,13.37-13.42,1.38-1.35,3.6-1.32,4.95.06,1.35,1.38,1.32,3.6-.06,4.95-.05.05-2.57,2.51-8.42,8.41h185.4c7.31-8.45,15.7-16.95,25.27-23.92v-11.18c0-1.93,1.57-3.5,3.5-3.5h255.24c1.93,0,3.5,1.57,3.5,3.5ZM653.37,597.23h50.82v-42.88h-50.82v42.88ZM582.66,597.59h49.15v-130.02h-49.15v130.02ZM510.73,597.38h49.93v-83.59h-49.93v83.59ZM769.35,328.06c4.59-3.83,9.08-8.25,13.33-12.63,5.42-5.59,10.1-10.4,14.11-14.5h-61.91c13.14,6.45,24.69,16.64,34.47,27.12ZM556.32,300.8v31.52h55.29c.32,0,.63.06.93.14h54.54c9.5-8.53,20.52-13.08,32.13-13.19,11.87-.08,23.33,4.57,32.41,13.19h32.03s.09-.06.14-.1c-15.2-16.17-34.57-31.32-56.89-31.32-20.58,0-32.68-.04-43.35-.07-3.96-.01-7.8-.03-11.9-.04h-68.26c-.32,0-.63-.06-.93-.14h-26.13ZM745.32,339.46c.17,0,.34.03.52.03h.14c.23,0,.47-.02.7-.03h-1.36ZM699.64,326.27c-.12,0-.24,0-.36,0-7.2.07-14.17,2.19-20.61,6.19h41.67c-6.3-4.03-13.41-6.19-20.7-6.19ZM224.62,486.42v-31.52h-102.72v31.52h102.72ZM121.9,493.42v31.52h102.72v-31.52h-102.72ZM224.62,447.89v-31.52h-102.72v31.52h102.72ZM444.76,265.95c0-.33.06-.65.15-.96h-103.37c.09.31.15.62.15.96v27.85h103.07v-27.85ZM341.69,300.8v31.52h103.07v-31.52h-103.07ZM334.84,264.99h-103.37c.09.31.15.62.15.96v27.85h103.07v-27.85c0-.33.06-.65.15-.96ZM231.62,300.8v31.52h103.07v-31.52h-103.07ZM231.62,339.32v31.52h103.07v-31.52h-103.07ZM224.62,300.8h-102.72v31.52h102.72v-31.52ZM121.9,339.32v31.52h102.72v-31.52h-102.72ZM121.9,377.85v31.52h102.72v-31.52h-102.72ZM231.62,447.89h103.07v-31.52h-103.07v31.52ZM334.69,409.37v-31.52h-103.07v31.52h103.07ZM341.69,409.37h103.07v-31.52h-103.07v31.52ZM444.76,370.85v-31.52h-103.07v31.52h103.07ZM451.76,370.85h97.56v-31.52h-97.56v31.52ZM549.32,332.32v-31.52h-97.56v31.52h97.56ZM549.47,264.99h-97.86c.09.31.15.62.15.96v27.85h97.56v-27.85c0-.33.06-.65.15-.96ZM121.9,264.99v28.81h102.72v-27.85c0-.33.06-.65.15-.96h-102.87ZM121.9,597.67h102.72v-65.73h-102.72v65.73ZM909.9,598v-5.11h-50.14c-1.93,0-3.5-1.57-3.5-3.5s1.57-3.5,3.5-3.5h50.14v-4.01h-50.14c-1.93,0-3.5-1.57-3.5-3.5s1.57-3.5,3.5-3.5h50.14v-4.01h-50.14c-1.93,0-3.5-1.57-3.5-3.5s1.57-3.5,3.5-3.5h50.14v-4.01h-50.14c-1.93,0-3.5-1.57-3.5-3.5s1.57-3.5,3.5-3.5h50.14v-22.55h-4.18l-15.27,15.27c-.66.66-1.55,1.03-2.47,1.03h-14.31c-1.93,0-3.5-1.57-3.5-3.5v-36.71l-11.01-11.01-11.4,11.4v73.27c0,1.93-1.57,3.5-3.5,3.5h-15.1c-1.93,0-3.5-1.57-3.5-3.5v-33.25h-19.63v14.97c0,1.93-1.57,3.5-3.5,3.5h-23.45c-1.93,0-3.5-1.57-3.5-3.5v-65.66h-32.57v101.87h166.89ZM825.66,523.96h-19.63v15.87h19.63v-15.87ZM743.01,441.29v47.84h36.07c1.93,0,3.5,1.57,3.5,3.5v65.66h5.03v-79.89h-10.33v.96c0,1.93-1.57,3.5-3.5,3.5h-9.42c-1.93,0-3.5-1.57-3.5-3.5v-.96h-1.7c-1.93,0-3.5-1.57-3.5-3.5s1.57-3.5,3.5-3.5h1.7v-.89c0-1.93,1.57-3.5,3.5-3.5h9.42c1.93,0,3.5,1.57,3.5,3.5v.89h10.33v-8.16c0-1.93,1.57-3.5,3.5-3.5s3.5,1.57,3.5,3.5v8.16h55.61c1.93,0,3.5,1.57,3.5,3.5s-1.57,3.5-3.5,3.5h-55.61v79.89h4.42v-37.84c0-1.93,1.57-3.5,3.5-3.5h26.63c1.93,0,3.5,1.57,3.5,3.5v56.12h8.1v-71.22c0-.93.37-1.82,1.03-2.47l14.9-14.91c1.31-1.31,3.64-1.31,4.95,0l14.51,14.51c.66.66,1.03,1.55,1.03,2.47v34.66h9.36l15.27-15.27c.66-.66,1.55-1.03,2.47-1.03h5.63v-82.02h-166.89ZM334.69,531.94h-103.07v65.73h103.07v-65.73ZM334.69,493.42h-103.07v31.52h103.07v-31.52ZM334.69,454.89h-103.07v31.52h103.07v-31.52ZM444.76,416.37h-103.07v31.52h103.07v-31.52ZM549.32,377.85h-97.56v31.52h97.56v-31.52ZM630,370.99c7.88-8.28,19.8-20.79,30.1-31.52h-76.72c-.32,0-.63-.06-.93-.14h-26.13v31.52h55.29c.32,0,.63.06.93.14h17.46ZM795.46,370.99c-1.29-1.62-2.59-3.26-3.9-4.93-1.38-1.75-2.78-3.52-4.22-5.32-1.23-1.54-2.54-3.21-3.93-4.98-3.82-4.87-8.26-10.51-13.25-16.29h-4.33c-6.49,4.25-13.11,6.97-19.79,7.03-6.28.09-12.05-2.31-17.22-7.03h-58.96c-.36.36-.73.71-1.09,1.08-9.23,9.6-20.51,21.42-29.1,30.44h155.8ZM921.15,377.99h-110.6c15.29,16.55,32.17,25.44,70.55,18.71,13.86-2.43,27.5-9.6,40.05-18.71ZM961.95,339.46h-182.62c3.51,4.24,6.72,8.32,9.59,11.97,1.38,1.75,2.67,3.41,3.89,4.93,1.45,1.81,2.86,3.6,4.24,5.36,2.55,3.23,5,6.33,7.41,9.26h125.69c12.3-10.18,23.22-21.7,31.79-31.52ZM993.05,300.94h-186.45c-4.92,5-11.15,11.38-18.89,19.37-4.14,4.27-8.38,8.44-12.7,12.15h192.92c2.93-3.5,5.44-6.61,7.49-9.14.71-.88,1.36-1.68,1.94-2.39,1.98-2.44,4.21-5.32,6.57-8.37,2.81-3.64,5.85-7.57,9.13-11.62ZM1031.17,265.35c1.75-1.06,3.53-2.07,5.36-3.01h-5.36v3.01ZM1119.06,306.63c1.6-7.59.45-13.25-3.24-15.95-3.29-2.41-8.58-2.39-12.87.04-.93.53-2.05.6-3.04.2-.99-.4-1.74-1.23-2.05-2.26-2.63-8.97-7.84-14.21-14.67-14.76-7.05-.57-14.36,4-17.77,11.12-.54,1.12-1.62,1.87-2.85,1.97-1.22.12-2.43-.44-3.15-1.45-3.94-5.51-8.6-7.86-13.12-6.61-4.69,1.29-8.29,6.24-8.76,12.01-.16,1.93-1.86,3.36-3.77,3.2-1.1-.09-2.03-.69-2.6-1.54v43.77h82.12c13.37,0,19.79-4.86,20.23-9.67,1.1-12.3-11.39-15.84-11.92-15.98-1.79-.49-2.91-2.29-2.52-4.1ZM1279.41,262.34h-237.18c.22.24.41.5.56.8.85,1.74.13,3.83-1.6,4.68-3.47,1.7-6.81,3.67-10.02,5.83v13.07c1.75-7.11,6.77-12.75,13.27-14.55,6.08-1.68,12.22.27,17.37,5.36,5.25-7.06,13.69-11.28,21.96-10.62,8.69.7,15.65,6.48,19.52,16.02,5.82-1.93,12.15-1.23,16.67,2.08,3.24,2.37,8.13,8.02,6.49,20.01,6.57,2.82,15.16,9.8,14.04,22.3-.66,7.4-8.19,16.04-27.2,16.04h-82.12v74.95h248.24v-155.99ZM1130.43,370.12c-1.67.97-2.25,3.11-1.28,4.78l6.24,10.81c.65,1.12,1.83,1.75,3.03,1.75.59,0,1.2-.15,1.75-.47,1.67-.97,2.25-3.11,1.28-4.78l-6.24-10.81c-.97-1.67-3.11-2.25-4.78-1.28ZM1122.91,364.09c.65,1.12,1.83,1.75,3.03,1.75.59,0,1.2-.15,1.75-.47,1.67-.97,2.25-3.11,1.28-4.78l-6.24-10.81c-.97-1.67-3.11-2.25-4.78-1.28-1.67.97-2.25,3.11-1.28,4.78l6.24,10.81ZM1141.63,396.52l6.24,10.81c.65,1.12,1.83,1.75,3.03,1.75.59,0,1.2-.15,1.75-.47,1.67-.97,2.25-3.11,1.28-4.78l-6.24-10.81c-.97-1.67-3.11-2.25-4.78-1.28-1.67.97-2.25,3.11-1.28,4.78ZM1136.69,393.02c-.97-1.67-3.11-2.25-4.78-1.28-1.67.97-2.25,3.11-1.28,4.78l6.24,10.81c.65,1.12,1.83,1.75,3.03,1.75.59,0,1.2-.15,1.75-.47,1.67-.97,2.25-3.11,1.28-4.78l-6.24-10.81ZM1111.91,364.09c.65,1.12,1.83,1.75,3.03,1.75.59,0,1.2-.15,1.75-.47,1.67-.97,2.25-3.11,1.28-4.78l-6.24-10.81c-.97-1.67-3.11-2.25-4.78-1.28-1.67.97-2.25,3.11-1.28,4.78l6.24,10.81ZM1127.42,387.46c.59,0,1.2-.15,1.75-.47,1.67-.97,2.25-3.11,1.28-4.78l-6.24-10.81c-.97-1.67-3.11-2.25-4.78-1.28-1.67.97-2.25,3.11-1.28,4.78l6.24,10.81c.65,1.12,1.83,1.75,3.03,1.75ZM1125.68,393.02c-.97-1.67-3.11-2.25-4.78-1.28-1.67.97-2.25,3.11-1.28,4.78l6.24,10.81c.65,1.12,1.83,1.75,3.03,1.75.59,0,1.2-.15,1.75-.47,1.67-.97,2.25-3.11,1.28-4.78l-6.24-10.81ZM1116.41,387.46c.59,0,1.2-.15,1.75-.47,1.67-.97,2.25-3.11,1.28-4.78l-6.24-10.81c-.97-1.67-3.11-2.25-4.78-1.28-1.67.97-2.25,3.11-1.28,4.78l6.24,10.81c.65,1.12,1.83,1.75,3.03,1.75ZM1100.9,364.09c.65,1.12,1.83,1.75,3.03,1.75.59,0,1.2-.15,1.75-.47,1.67-.97,2.25-3.11,1.28-4.78l-6.24-10.81c-.97-1.67-3.11-2.25-4.78-1.28-1.67.97-2.25,3.11-1.28,4.78l6.24,10.81ZM1114.68,393.02c-.97-1.67-3.11-2.25-4.78-1.28-1.67.97-2.25,3.11-1.28,4.78l6.24,10.81c.65,1.12,1.83,1.75,3.03,1.75.59,0,1.2-.15,1.75-.47,1.67-.97,2.25-3.11,1.28-4.78l-6.24-10.81ZM1097.41,370.12c-1.67.97-2.25,3.11-1.28,4.78l6.24,10.81c.65,1.12,1.83,1.75,3.03,1.75.59,0,1.2-.15,1.75-.47,1.67-.97,2.25-3.11,1.28-4.78l-6.24-10.81c-.97-1.67-3.11-2.25-4.78-1.28ZM1089.89,364.09c.65,1.12,1.83,1.75,3.03,1.75.59,0,1.2-.15,1.75-.47,1.67-.97,2.25-3.11,1.28-4.78l-6.24-10.81c-.97-1.67-3.11-2.25-4.78-1.28-1.67.97-2.25,3.11-1.28,4.78l6.24,10.81ZM1103.67,393.02c-.97-1.67-3.11-2.25-4.78-1.28-1.67.97-2.25,3.11-1.28,4.78l6.24,10.81c.65,1.12,1.83,1.75,3.03,1.75.59,0,1.2-.15,1.75-.47,1.67-.97,2.25-3.11,1.28-4.78l-6.24-10.81ZM1084.95,360.59l-6.24-10.81c-.97-1.67-3.11-2.25-4.78-1.28-1.67.97-2.25,3.11-1.28,4.78l6.24,10.81c.65,1.12,1.83,1.75,3.03,1.75.59,0,1.2-.15,1.75-.47,1.67-.97,2.25-3.11,1.28-4.78ZM1097.43,382.21l-6.24-10.81c-.97-1.67-3.11-2.25-4.78-1.28-1.67.97-2.25,3.11-1.28,4.78l6.24,10.81c.65,1.12,1.83,1.75,3.03,1.75.59,0,1.2-.15,1.75-.47,1.67-.97,2.25-3.11,1.28-4.78ZM1179.37,352.09c0-1.93,1.57-3.5,3.5-3.5h19.29c.59-4.3,2.26-8.33,4.88-11.79l-13.64-13.64c-1.37-1.37-1.37-3.58,0-4.95,1.37-1.37,3.58-1.37,4.95,0l13.64,13.64c3.46-2.62,7.49-4.29,11.79-4.88v-19.29c0-1.93,1.57-3.5,3.5-3.5s3.5,1.57,3.5,3.5v19.29c4.29.59,8.33,2.26,11.79,4.88l13.64-13.64c1.37-1.37,3.58-1.37,4.95,0,1.37,1.37,1.37,3.58,0,4.95l-13.64,13.64c2.62,3.45,4.29,7.49,4.88,11.79h19.29c1.93,0,3.5,1.57,3.5,3.5s-1.57,3.5-3.5,3.5h-19.29c-.59,4.29-2.26,8.33-4.88,11.79l13.64,13.64c1.37,1.37,1.37,3.58,0,4.95-.68.68-1.58,1.03-2.47,1.03s-1.79-.34-2.47-1.03l-13.64-13.64c-3.46,2.62-7.49,4.29-11.79,4.88v19.28c0,1.93-1.57,3.5-3.5,3.5s-3.5-1.57-3.5-3.5v-19.28c-4.29-.59-8.33-2.26-11.79-4.88l-13.64,13.64c-.68.68-1.58,1.03-2.47,1.03s-1.79-.34-2.47-1.03c-1.37-1.37-1.37-3.58,0-4.95l13.64-13.64c-2.62-3.46-4.29-7.49-4.88-11.79h-19.29c-1.93,0-3.5-1.57-3.5-3.5ZM1208.92,352.09c0,4.9,1.91,9.51,5.38,12.99,3.47,3.46,8.08,5.37,12.98,5.37s9.51-1.91,12.99-5.38c3.46-3.47,5.37-8.08,5.37-12.98s-1.91-9.52-5.38-12.99c-3.47-3.46-8.09-5.37-12.99-5.37s-9.51,1.91-12.99,5.38c-3.46,3.46-5.37,8.08-5.37,12.98ZM1104.02,552.72c.11.43.15.88.09,1.34-.02.13-.06.26-.09.38v47.06c0,1.93-1.57,3.5-3.5,3.5h-173.89c-1.93,0-3.5-1.57-3.5-3.5v-163.71c0-1.93,1.57-3.5,3.5-3.5h173.89c1.93,0,3.5,1.57,3.5,3.5v114.93ZM930.12,441.29v95.93h83.06c.87,0,1.65.33,2.26.85v-8.48c0-1.93,1.57-3.5,3.5-3.5s3.5,1.57,3.5,3.5v25.71h5.44c1.35,0,2.58.78,3.16,2,.58,1.22.41,2.66-.45,3.71l-7.86,9.67h12.33v-60.35h-67c-1.93,0-3.5-1.57-3.5-3.5s1.57-3.5,3.5-3.5h67v-1.73c0-1.93,1.57-3.5,3.5-3.5h.71v-8.38c0-1.93,1.57-3.5,3.5-3.5h11.52c1.93,0,3.5,1.57,3.5,3.5v8.38h.71c1.93,0,3.5,1.57,3.5,3.5v1.22h7.03c1.93,0,3.5,1.57,3.5,3.5v7.28c0,1.93-1.57,3.5-3.5,3.5h-7.03v35.09c.54-1.24,1.77-2.1,3.21-2.1h31.79v-108.81h-166.89ZM1013.72,570.69l6.81-8.38h-90.41v8.38h83.6ZM1009.68,544.23h-4.13v11.08h4.13v-11.08ZM998.55,544.23h-15.01v11.08h15.01v-11.08ZM976.54,544.23h-15.01v11.08h15.01v-11.08ZM954.53,544.23h-15.01v11.08h15.01v-11.08ZM932.51,544.23h-2.39v11.08h2.39v-11.08ZM1042.07,570.47h12.94v-56.36c-.02-.17-.05-.33-.05-.5v-7.28c0-.17.03-.34.05-.5v-.58c-.23.05-.47.07-.71.07h-11.52c-.24,0-.48-.03-.71-.07v65.23ZM1062.02,510.11h3.53v-.28h-3.53v.28ZM1050.81,493.23h-4.52v4.88h4.52v-4.88ZM1097.02,598v-40.9h-28.29v24.89c0,1.93-1.57,3.5-3.5,3.5s-3.5-1.57-3.5-3.5v-4.3h-131.6v20.31h166.89ZM969.98,532.97v-11.55c0-1.93,1.57-3.5,3.5-3.5h10.92c1.93,0,3.5,1.57,3.5,3.5v11.55c0,1.93-1.57,3.5-3.5,3.5h-10.92c-1.93,0-3.5-1.57-3.5-3.5ZM976.98,529.47h3.92v-4.55h-3.92v4.55Z"/>
</svg>