<svg viewBox="0 0 1173 350" fill="none" xmlns="http://www.w3.org/2000/svg">
<path d="M30.66 25.06C30.66 23.13 32.23 21.56 34.16 21.56H86.56C88.49 21.56 90.06 23.13 90.06 25.06C90.06 26.99 88.49 28.56 86.56 28.56H34.16C32.23 28.56 30.66 26.99 30.66 25.06ZM34.16 64.17H86.56C88.49 64.17 90.06 62.6 90.06 60.67C90.06 58.74 88.49 57.17 86.56 57.17H34.16C32.23 57.17 30.66 58.74 30.66 60.67C30.66 62.6 32.23 64.17 34.16 64.17ZM34.16 102.69H86.56C88.49 102.69 90.06 101.12 90.06 99.19C90.06 97.26 88.49 95.69 86.56 95.69H34.16C32.23 95.69 30.66 97.26 30.66 99.19C30.66 101.12 32.23 102.69 34.16 102.69ZM34.16 141.22H86.56C88.49 141.22 90.06 139.65 90.06 137.72C90.06 135.79 88.49 134.22 86.56 134.22H34.16C32.23 134.22 30.66 135.79 30.66 137.72C30.66 139.65 32.23 141.22 34.16 141.22ZM86.57 172.74H34.17C32.24 172.74 30.67 174.31 30.67 176.24C30.67 178.17 32.24 179.74 34.17 179.74H86.57C88.5 179.74 90.07 178.17 90.07 176.24C90.07 174.31 88.5 172.74 86.57 172.74ZM86.57 211.27H34.17C32.24 211.27 30.67 212.84 30.67 214.77C30.67 216.7 32.24 218.27 34.17 218.27H86.57C88.5 218.27 90.07 216.7 90.07 214.77C90.07 212.84 88.5 211.27 86.57 211.27ZM34.16 256.79H86.56C88.49 256.79 90.06 255.22 90.06 253.29C90.06 251.36 88.49 249.79 86.56 249.79H34.16C32.23 249.79 30.66 251.36 30.66 253.29C30.66 255.22 32.23 256.79 34.16 256.79ZM86.57 288.31H34.17C32.24 288.31 30.67 289.88 30.67 291.81C30.67 293.74 32.24 295.31 34.17 295.31H86.57C88.5 295.31 90.07 293.74 90.07 291.81C90.07 289.88 88.5 288.31 86.57 288.31ZM143.19 28.56H195.59C197.52 28.56 199.09 26.99 199.09 25.06C199.09 23.13 197.52 21.56 195.59 21.56H143.19C141.26 21.56 139.69 23.13 139.69 25.06C139.69 26.99 141.26 28.56 143.19 28.56ZM143.19 64.17H195.59C197.52 64.17 199.09 62.6 199.09 60.67C199.09 58.74 197.52 57.17 195.59 57.17H143.19C141.26 57.17 139.69 58.74 139.69 60.67C139.69 62.6 141.26 64.17 143.19 64.17ZM143.19 102.69H195.59C197.52 102.69 199.09 101.12 199.09 99.19C199.09 97.26 197.52 95.69 195.59 95.69H143.19C141.26 95.69 139.69 97.26 139.69 99.19C139.69 101.12 141.26 102.69 143.19 102.69ZM195.59 134.22H143.19C141.26 134.22 139.69 135.79 139.69 137.72C139.69 139.65 141.26 141.22 143.19 141.22H195.59C197.52 141.22 199.09 139.65 199.09 137.72C199.09 135.79 197.52 134.22 195.59 134.22ZM195.59 172.74H143.19C141.26 172.74 139.69 174.31 139.69 176.24C139.69 178.17 141.26 179.74 143.19 179.74H195.59C197.52 179.74 199.09 178.17 199.09 176.24C199.09 174.31 197.52 172.74 195.59 172.74ZM143.19 218.27H195.59C197.52 218.27 199.09 216.7 199.09 214.77C199.09 212.84 197.52 211.27 195.59 211.27H143.19C141.26 211.27 139.69 212.84 139.69 214.77C139.69 216.7 141.26 218.27 143.19 218.27ZM143.19 256.79H195.59C197.52 256.79 199.09 255.22 199.09 253.29C199.09 251.36 197.52 249.79 195.59 249.79H143.19C141.26 249.79 139.69 251.36 139.69 253.29C139.69 255.22 141.26 256.79 143.19 256.79ZM143.19 295.31H195.59C197.52 295.31 199.09 293.74 199.09 291.81C199.09 289.88 197.52 288.31 195.59 288.31H143.19C141.26 288.31 139.69 289.88 139.69 291.81C139.69 293.74 141.26 295.31 143.19 295.31ZM305.66 21.56H253.26C251.33 21.56 249.76 23.13 249.76 25.06C249.76 26.99 251.33 28.56 253.26 28.56H305.66C307.59 28.56 309.16 26.99 309.16 25.06C309.16 23.13 307.59 21.56 305.66 21.56ZM253.25 64.17H305.65C307.58 64.17 309.15 62.6 309.15 60.67C309.15 58.74 307.58 57.17 305.65 57.17H253.25C251.32 57.17 249.75 58.74 249.75 60.67C249.75 62.6 251.32 64.17 253.25 64.17ZM305.66 95.69H253.26C251.33 95.69 249.76 97.26 249.76 99.19C249.76 101.12 251.33 102.69 253.26 102.69H305.66C307.59 102.69 309.16 101.12 309.16 99.19C309.16 97.26 307.59 95.69 305.66 95.69ZM305.66 134.22H253.26C251.33 134.22 249.76 135.79 249.76 137.72C249.76 139.65 251.33 141.22 253.26 141.22H305.66C307.59 141.22 309.16 139.65 309.16 137.72C309.16 135.79 307.59 134.22 305.66 134.22ZM253.25 179.74H305.65C307.58 179.74 309.15 178.17 309.15 176.24C309.15 174.31 307.58 172.74 305.65 172.74H253.25C251.32 172.74 249.75 174.31 249.75 176.24C249.75 178.17 251.32 179.74 253.25 179.74ZM253.25 211.27C251.32 211.27 249.75 212.84 249.75 214.77C249.75 216.7 251.32 218.27 253.25 218.27H305.65C307.58 218.27 309.15 216.7 309.15 214.77C309.15 212.84 307.58 211.27 305.65 211.27H253.25ZM357.82 28.56H410.22C412.15 28.56 413.72 26.99 413.72 25.06C413.72 23.13 412.15 21.56 410.22 21.56H357.82C355.89 21.56 354.32 23.13 354.32 25.06C354.32 26.99 355.89 28.56 357.82 28.56ZM410.22 57.17H357.82C355.89 57.17 354.32 58.74 354.32 60.67C354.32 62.6 355.89 64.17 357.82 64.17H410.22C412.15 64.17 413.72 62.6 413.72 60.67C413.72 58.74 412.15 57.17 410.22 57.17ZM410.22 95.69H357.82C355.89 95.69 354.32 97.26 354.32 99.19C354.32 101.12 355.89 102.69 357.82 102.69H410.22C412.15 102.69 413.72 101.12 413.72 99.19C413.72 97.26 412.15 95.69 410.22 95.69ZM357.82 141.22H410.22C412.15 141.22 413.72 139.65 413.72 137.72C413.72 135.79 412.15 134.22 410.22 134.22H357.82C355.89 134.22 354.32 135.79 354.32 137.72C354.32 139.65 355.89 141.22 357.82 141.22ZM1172.55 3.5V166.49C1172.55 168.42 1170.98 169.99 1169.05 169.99H913.81C911.88 169.99 910.31 168.42 910.31 166.49V23.5C904.58 28.12 899.29 33.29 894.42 38.59H899.7C901.63 38.59 903.2 40.16 903.2 42.09C903.2 44.02 901.63 45.59 899.7 45.59H888.28C883.61 51.12 879.4 56.58 875.61 61.49C873.23 64.58 870.97 67.5 868.93 70C868.35 70.71 867.71 71.5 867.01 72.37C865.87 73.78 864.58 75.37 863.16 77.11H899.71C901.64 77.11 903.21 78.68 903.21 80.61C903.21 82.54 901.64 84.11 899.71 84.11H857.34C849.46 93.4 839.06 104.9 827.02 115.63H899.72C901.65 115.63 903.22 117.2 903.22 119.13C903.22 121.06 901.65 122.63 899.72 122.63H818.78C803.56 134.89 786.29 145.12 768.47 148.24C759.47 149.82 751.51 150.55 744.41 150.55C715.85 150.55 701.1 138.73 687.38 122.63H519.17C515.19 126.81 512.65 129.48 512.57 129.57C511.88 130.29 510.96 130.66 510.03 130.66C509.16 130.66 508.3 130.34 507.62 129.7C506.22 128.37 506.16 126.15 507.49 124.75C507.53 124.71 508.26 123.94 509.5 122.63H469.54C469.22 122.63 468.91 122.57 468.61 122.49H442.48V154.01H497.77C498.09 154.01 498.4 154.07 498.7 154.15H899.71C901.64 154.15 903.21 155.72 903.21 157.65C903.21 159.58 901.64 161.15 899.71 161.15H469.54C469.22 161.15 468.91 161.09 468.61 161.01H442.48V180.94C442.48 182.87 440.91 184.44 438.98 184.44C437.05 184.44 435.48 182.87 435.48 180.94V161.01H337.92V192.53H431.94C433.87 192.53 435.44 194.1 435.44 196.03C435.44 197.96 433.87 199.53 431.94 199.53H337.92V207.53C337.92 209.46 336.35 211.03 334.42 211.03C332.49 211.03 330.92 209.46 330.92 207.53V199.53H227.85V231.05H333.72C335.65 231.05 337.22 232.62 337.22 234.55C337.22 236.48 335.65 238.05 333.72 238.05H227.85V269.57H312.82C314.75 269.57 316.32 271.14 316.32 273.07C316.32 275 314.75 276.57 312.82 276.57H227.85V342.3H334.76C335.4 342.3 335.99 342.48 336.5 342.78H389.88V254.92C389.88 252.99 391.45 251.42 393.38 251.42H450.31C452.24 251.42 453.81 252.99 453.81 254.92V342.78H461.81V208.69C461.81 206.76 463.38 205.19 465.31 205.19H521.46C523.39 205.19 524.96 206.76 524.96 208.69V342.78H532.52V295.48C532.52 293.55 534.09 291.98 536.02 291.98H593.84C595.77 291.98 597.34 293.55 597.34 295.48V342.78H622.16V182.42C622.16 180.49 623.73 178.92 625.66 178.92H799.55C801.48 178.92 803.05 180.49 803.05 182.42V346.13C803.05 348.06 801.48 349.63 799.55 349.63H640.47C640.16 349.72 639.85 349.78 639.51 349.78H326.19C325.55 349.78 324.96 349.6 324.45 349.3H4.54C2.61 349.3 1.04 347.73 1.04 345.8V275.57C0.4 274.94 0 274.05 0 273.08C0 272.11 0.4 271.22 1.04 270.59V237.05C0.4 236.42 0 235.53 0 234.56C0 233.59 0.4 232.7 1.04 232.07V198.53C0.4 197.9 0 197.01 0 196.04C0 195.07 0.4 194.18 1.04 193.55V160.01C0.4 159.38 0 158.49 0 157.52C0 156.55 0.4 155.66 1.04 155.03V121.49C0.4 120.86 0 119.97 0 119C0 118.03 0.4 117.14 1.04 116.51V82.97C0.4 82.34 0 81.45 0 80.48C0 79.51 0.4 78.62 1.04 77.99V44.45C0.4 43.82 0 42.93 0 41.96C0 40.99 0.4 40.1 1.04 39.47V6.15C1.04 4.22 2.61 2.65 4.54 2.65H498.79C500.72 2.65 502.29 4.22 502.29 6.15C502.29 8.08 500.72 9.65 498.79 9.65H442.3C442.39 9.96 442.45 10.27 442.45 10.61V38.46H497.74C498.06 38.46 498.37 38.52 498.67 38.6H518.39C518.47 38.6 518.54 38.58 518.62 38.58C526.11 38.58 532.18 38.58 537.77 38.6H689.78C699.18 29.05 703.09 25.23 703.15 25.18C704.53 23.83 706.75 23.86 708.1 25.24C709.45 26.62 709.42 28.84 708.04 30.19C707.99 30.24 705.47 32.7 699.62 38.6H885.02C892.33 30.15 900.72 21.65 910.29 14.68V3.5C910.29 1.57 911.86 0 913.79 0H1169.03C1170.96 0 1172.53 1.57 1172.53 3.5H1172.55ZM539.51 341.89H590.33V299.01H539.51V341.89ZM468.81 342.24H517.96V212.22H468.81V342.24ZM396.87 342.04H446.8V258.45H396.87V342.04ZM655.49 72.72C660.08 68.89 664.57 64.47 668.82 60.09C674.24 54.5 678.92 49.69 682.93 45.59H621.02C634.16 52.04 645.71 62.23 655.49 72.71V72.72ZM442.46 45.46V76.98H497.75C498.07 76.98 498.38 77.04 498.68 77.12H553.22C562.72 68.59 573.74 64.04 585.35 63.93C597.22 63.85 608.68 68.5 617.76 77.12H649.79C649.79 77.12 649.88 77.06 649.93 77.02C634.73 60.85 615.36 45.7 593.04 45.7C572.46 45.7 560.36 45.66 549.69 45.63C545.73 45.62 541.89 45.6 537.79 45.59H469.53C469.21 45.59 468.9 45.53 468.6 45.45H442.47L442.46 45.46ZM631.47 84.12C631.64 84.12 631.81 84.15 631.99 84.15H632.13C632.36 84.15 632.6 84.13 632.83 84.12H631.47ZM585.78 70.93C585.66 70.93 585.54 70.93 585.42 70.93C578.22 71 571.25 73.12 564.81 77.12H606.48C600.18 73.09 593.07 70.93 585.78 70.93ZM110.76 231.08V199.56H8.04V231.08H110.76ZM8.04 238.08V269.6H110.76V238.08H8.04ZM110.76 192.55V161.03H8.04V192.55H110.76ZM330.9 10.61C330.9 10.28 330.96 9.96 331.05 9.65H227.68C227.77 9.96 227.83 10.27 227.83 10.61V38.46H330.9V10.61ZM227.83 45.46V76.98H330.9V45.46H227.83ZM220.98 9.65H117.61C117.7 9.96 117.76 10.27 117.76 10.61V38.46H220.83V10.61C220.83 10.28 220.89 9.96 220.98 9.65ZM117.76 45.46V76.98H220.83V45.46H117.76ZM117.76 83.98V115.5H220.83V83.98H117.76ZM110.76 45.46H8.04V76.98H110.76V45.46ZM8.04 83.98V115.5H110.76V83.98H8.04ZM8.04 122.5V154.02H110.76V122.5H8.04ZM117.76 192.55H220.83V161.03H117.76V192.55ZM220.83 154.03V122.51H117.76V154.03H220.83ZM227.83 154.03H330.9V122.51H227.83V154.03ZM330.9 115.5V83.98H227.83V115.5H330.9ZM337.9 115.5H435.46V83.98H337.9V115.5ZM435.46 76.98V45.46H337.9V76.98H435.46ZM435.61 9.65H337.75C337.84 9.96 337.9 10.27 337.9 10.61V38.46H435.46V10.61C435.46 10.28 435.52 9.96 435.61 9.65ZM8.04 9.65V38.46H110.76V10.61C110.76 10.28 110.82 9.96 110.91 9.65H8.04ZM8.04 342.32H110.76V276.59H8.04V342.32ZM796.05 342.66V337.55H745.91C743.98 337.55 742.41 335.98 742.41 334.05C742.41 332.12 743.98 330.55 745.91 330.55H796.05V326.54H745.91C743.98 326.54 742.41 324.97 742.41 323.04C742.41 321.11 743.98 319.54 745.91 319.54H796.05V315.53H745.91C743.98 315.53 742.41 313.96 742.41 312.03C742.41 310.1 743.98 308.53 745.91 308.53H796.05V304.52H745.91C743.98 304.52 742.41 302.95 742.41 301.02C742.41 299.09 743.98 297.52 745.91 297.52H796.05V274.97H791.87L776.6 290.24C775.94 290.9 775.05 291.27 774.13 291.27H759.82C757.89 291.27 756.32 289.7 756.32 287.77V251.06L745.31 240.05L733.91 251.45V324.72C733.91 326.65 732.34 328.22 730.41 328.22H715.31C713.38 328.22 711.81 326.65 711.81 324.72V291.47H692.18V306.44C692.18 308.37 690.61 309.94 688.68 309.94H665.23C663.3 309.94 661.73 308.37 661.73 306.44V240.78H629.16V342.65H796.05V342.66ZM711.8 268.61H692.17V284.48H711.8V268.61ZM629.15 185.95V233.79H665.22C667.15 233.79 668.72 235.36 668.72 237.29V302.95H673.75V223.06H663.42V224.02C663.42 225.95 661.85 227.52 659.92 227.52H650.5C648.57 227.52 647 225.95 647 224.02V223.06H645.3C643.37 223.06 641.8 221.49 641.8 219.56C641.8 217.63 643.37 216.06 645.3 216.06H647V215.17C647 213.24 648.57 211.67 650.5 211.67H659.92C661.85 211.67 663.42 213.24 663.42 215.17V216.06H673.75V207.9C673.75 205.97 675.32 204.4 677.25 204.4C679.18 204.4 680.75 205.97 680.75 207.9V216.06H736.36C738.29 216.06 739.86 217.63 739.86 219.56C739.86 221.49 738.29 223.06 736.36 223.06H680.75V302.95H685.17V265.11C685.17 263.18 686.74 261.61 688.67 261.61H715.3C717.23 261.61 718.8 263.18 718.8 265.11V321.23H726.9V250.01C726.9 249.08 727.27 248.19 727.93 247.54L742.83 232.63C744.14 231.32 746.47 231.32 747.78 232.63L762.29 247.14C762.95 247.8 763.32 248.69 763.32 249.61V284.27H772.68L787.95 269C788.61 268.34 789.5 267.97 790.42 267.97H796.05V185.95H629.15ZM220.83 276.6H117.76V342.33H220.83V276.6ZM220.83 238.08H117.76V269.6H220.83V238.08ZM220.83 199.55H117.76V231.07H220.83V199.55ZM330.9 161.03H227.83V192.55H330.9V161.03ZM435.46 122.5H337.9V154.02H435.46V122.5ZM516.14 115.64C524.02 107.36 535.94 94.85 546.24 84.12H469.52C469.2 84.12 468.89 84.06 468.59 83.98H442.46V115.5H497.75C498.07 115.5 498.38 115.56 498.68 115.64H516.14ZM681.6 115.64C680.31 114.02 679.01 112.38 677.7 110.71C676.32 108.96 674.92 107.19 673.48 105.39C672.25 103.85 670.94 102.18 669.55 100.41C665.73 95.54 661.29 89.9 656.3 84.12H651.97C645.48 88.37 638.86 91.09 632.18 91.15C625.9 91.24 620.13 88.84 614.96 84.12H556C555.64 84.48 555.27 84.83 554.91 85.2C545.68 94.8 534.4 106.62 525.81 115.64H681.61H681.6ZM807.29 122.64H696.69C711.98 139.19 728.86 148.08 767.24 141.35C781.1 138.92 794.74 131.75 807.29 122.64ZM848.09 84.12H665.47C668.98 88.36 672.19 92.44 675.06 96.09C676.44 97.84 677.73 99.5 678.95 101.02C680.4 102.83 681.81 104.62 683.19 106.38C685.74 109.61 688.19 112.71 690.6 115.64H816.29C828.59 105.46 839.51 93.94 848.08 84.12H848.09ZM692.74 45.6C687.82 50.6 681.59 56.98 673.85 64.97C669.71 69.24 665.47 73.41 661.15 77.12H854.07C857 73.62 859.51 70.51 861.56 67.98C862.27 67.1 862.92 66.3 863.5 65.59C865.48 63.15 867.71 60.27 870.07 57.22C872.88 53.58 875.92 49.65 879.2 45.6H692.74ZM917.31 10.01C919.06 8.95 920.84 7.94 922.67 7H917.31V10.01ZM1005.21 51.29C1006.81 43.7 1005.66 38.04 1001.97 35.34C998.68 32.93 993.39 32.95 989.1 35.38C988.17 35.91 987.05 35.98 986.06 35.58C985.07 35.18 984.32 34.35 984.01 33.32C981.38 24.35 976.17 19.11 969.34 18.56C962.29 17.99 954.98 22.56 951.57 29.68C951.03 30.8 949.95 31.55 948.72 31.65C947.5 31.77 946.29 31.21 945.57 30.2C941.63 24.69 936.97 22.34 932.45 23.59C927.76 24.88 924.16 29.83 923.69 35.6C923.53 37.53 921.83 38.96 919.92 38.8C918.82 38.71 917.89 38.11 917.32 37.26V81.03H999.44C1012.81 81.03 1019.23 76.17 1019.67 71.36C1020.77 59.06 1008.28 55.52 1007.75 55.38C1005.96 54.89 1004.84 53.09 1005.23 51.28L1005.21 51.29ZM1165.55 7H928.37C928.59 7.24 928.78 7.5 928.93 7.8C929.78 9.54 929.06 11.63 927.33 12.48C923.86 14.18 920.52 16.15 917.31 18.31V31.38C919.06 24.27 924.08 18.63 930.58 16.83C936.66 15.15 942.8 17.1 947.95 22.19C953.2 15.13 961.64 10.91 969.91 11.57C978.6 12.27 985.56 18.05 989.43 27.59C995.25 25.66 1001.58 26.36 1006.1 29.67C1009.34 32.04 1014.23 37.69 1012.59 49.68C1019.16 52.5 1027.75 59.48 1026.63 71.98C1025.97 79.38 1018.44 88.02 999.43 88.02H917.31V162.97H1165.55V7ZM1016.58 114.78C1014.91 115.75 1014.33 117.89 1015.3 119.56L1021.54 130.37C1022.19 131.49 1023.37 132.12 1024.57 132.12C1025.16 132.12 1025.77 131.97 1026.32 131.65C1027.99 130.68 1028.57 128.54 1027.6 126.87L1021.36 116.06C1020.39 114.39 1018.25 113.81 1016.58 114.78ZM1009.06 108.75C1009.71 109.87 1010.89 110.5 1012.09 110.5C1012.68 110.5 1013.29 110.35 1013.84 110.03C1015.51 109.06 1016.09 106.92 1015.12 105.25L1008.88 94.44C1007.91 92.77 1005.77 92.19 1004.1 93.16C1002.43 94.13 1001.85 96.27 1002.82 97.94L1009.06 108.75ZM1027.78 141.17L1034.02 151.98C1034.67 153.1 1035.85 153.73 1037.05 153.73C1037.64 153.73 1038.25 153.58 1038.8 153.26C1040.47 152.29 1041.05 150.15 1040.08 148.48L1033.84 137.67C1032.87 136 1030.73 135.42 1029.06 136.39C1027.39 137.36 1026.81 139.5 1027.78 141.17ZM1022.83 137.67C1021.86 136 1019.72 135.42 1018.05 136.39C1016.38 137.36 1015.8 139.5 1016.77 141.17L1023.01 151.98C1023.66 153.1 1024.84 153.73 1026.04 153.73C1026.63 153.73 1027.24 153.58 1027.79 153.26C1029.46 152.29 1030.04 150.15 1029.07 148.48L1022.83 137.67ZM998.05 108.75C998.7 109.87 999.88 110.5 1001.08 110.5C1001.67 110.5 1002.28 110.35 1002.83 110.03C1004.5 109.06 1005.08 106.92 1004.11 105.25L997.87 94.44C996.9 92.77 994.76 92.19 993.09 93.16C991.42 94.13 990.84 96.27 991.81 97.94L998.05 108.75ZM1013.56 132.12C1014.15 132.12 1014.76 131.97 1015.31 131.65C1016.98 130.68 1017.56 128.54 1016.59 126.87L1010.35 116.06C1009.38 114.39 1007.24 113.81 1005.57 114.78C1003.9 115.75 1003.32 117.89 1004.29 119.56L1010.53 130.37C1011.18 131.49 1012.36 132.12 1013.56 132.12ZM1011.83 137.67C1010.86 136 1008.72 135.42 1007.05 136.39C1005.38 137.36 1004.8 139.5 1005.77 141.17L1012.01 151.98C1012.66 153.1 1013.84 153.73 1015.04 153.73C1015.63 153.73 1016.24 153.58 1016.79 153.26C1018.46 152.29 1019.04 150.15 1018.07 148.48L1011.83 137.67ZM1002.56 132.12C1003.15 132.12 1003.76 131.97 1004.31 131.65C1005.98 130.68 1006.56 128.54 1005.59 126.87L999.35 116.06C998.38 114.39 996.24 113.81 994.57 114.78C992.9 115.75 992.32 117.89 993.29 119.56L999.53 130.37C1000.18 131.49 1001.36 132.12 1002.56 132.12ZM987.04 108.75C987.69 109.87 988.87 110.5 990.07 110.5C990.66 110.5 991.27 110.35 991.82 110.03C993.49 109.06 994.07 106.92 993.1 105.25L986.86 94.44C985.89 92.77 983.75 92.19 982.08 93.16C980.41 94.13 979.83 96.27 980.8 97.94L987.04 108.75ZM1000.82 137.67C999.85 136 997.71 135.42 996.04 136.39C994.37 137.36 993.79 139.5 994.76 141.17L1001 151.98C1001.65 153.1 1002.83 153.73 1004.03 153.73C1004.62 153.73 1005.23 153.58 1005.78 153.26C1007.45 152.29 1008.03 150.15 1007.06 148.48L1000.82 137.67ZM983.56 114.78C981.89 115.75 981.31 117.89 982.28 119.56L988.52 130.37C989.17 131.49 990.35 132.12 991.55 132.12C992.14 132.12 992.75 131.97 993.3 131.65C994.97 130.68 995.55 128.54 994.58 126.87L988.34 116.06C987.37 114.39 985.23 113.81 983.56 114.78ZM976.04 108.75C976.69 109.87 977.87 110.5 979.07 110.5C979.66 110.5 980.27 110.35 980.82 110.03C982.49 109.06 983.07 106.92 982.1 105.25L975.86 94.44C974.89 92.77 972.75 92.19 971.08 93.16C969.41 94.13 968.83 96.27 969.8 97.94L976.04 108.75ZM989.81 137.67C988.84 136 986.7 135.42 985.03 136.39C983.36 137.36 982.78 139.5 983.75 141.17L989.99 151.98C990.64 153.1 991.82 153.73 993.02 153.73C993.61 153.73 994.22 153.58 994.77 153.26C996.44 152.29 997.02 150.15 996.05 148.48L989.81 137.67ZM971.09 105.25L964.85 94.44C963.88 92.77 961.74 92.19 960.07 93.16C958.4 94.13 957.82 96.27 958.79 97.94L965.03 108.75C965.68 109.87 966.86 110.5 968.06 110.5C968.65 110.5 969.26 110.35 969.81 110.03C971.48 109.06 972.06 106.92 971.09 105.25ZM983.57 126.87L977.33 116.06C976.36 114.39 974.22 113.81 972.55 114.78C970.88 115.75 970.3 117.89 971.27 119.56L977.51 130.37C978.16 131.49 979.34 132.12 980.54 132.12C981.13 132.12 981.74 131.97 982.29 131.65C983.96 130.68 984.54 128.54 983.57 126.87ZM1065.51 96.75C1065.51 94.82 1067.08 93.25 1069.01 93.25H1088.3C1088.89 88.95 1090.56 84.92 1093.18 81.46L1079.54 67.82C1078.17 66.45 1078.17 64.24 1079.54 62.87C1080.91 61.5 1083.12 61.5 1084.49 62.87L1098.13 76.51C1101.59 73.89 1105.62 72.22 1109.92 71.63V52.34C1109.92 50.41 1111.49 48.84 1113.42 48.84C1115.35 48.84 1116.92 50.41 1116.92 52.34V71.63C1121.21 72.22 1125.25 73.89 1128.71 76.51L1142.35 62.87C1143.72 61.5 1145.93 61.5 1147.3 62.87C1148.67 64.24 1148.67 66.45 1147.3 67.82L1133.66 81.46C1136.28 84.91 1137.95 88.95 1138.54 93.25H1157.83C1159.76 93.25 1161.33 94.82 1161.33 96.75C1161.33 98.68 1159.76 100.25 1157.83 100.25H1138.54C1137.95 104.54 1136.28 108.58 1133.66 112.04L1147.3 125.68C1148.67 127.05 1148.67 129.26 1147.3 130.63C1146.62 131.31 1145.72 131.66 1144.83 131.66C1143.94 131.66 1143.04 131.32 1142.36 130.63L1128.72 116.99C1125.26 119.61 1121.23 121.28 1116.93 121.87V141.15C1116.93 143.08 1115.36 144.65 1113.43 144.65C1111.5 144.65 1109.93 143.08 1109.93 141.15V121.87C1105.64 121.28 1101.6 119.61 1098.14 116.99L1084.5 130.63C1083.82 131.31 1082.92 131.66 1082.03 131.66C1081.14 131.66 1080.24 131.32 1079.56 130.63C1078.19 129.26 1078.19 127.05 1079.56 125.68L1093.2 112.04C1090.58 108.58 1088.91 104.55 1088.32 100.25H1069.03C1067.1 100.25 1065.53 98.68 1065.53 96.75H1065.51ZM1095.06 96.75C1095.06 101.65 1096.97 106.26 1100.44 109.74C1103.91 113.2 1108.52 115.11 1113.42 115.11C1118.32 115.11 1122.93 113.2 1126.41 109.73C1129.87 106.26 1131.78 101.65 1131.78 96.75C1131.78 91.85 1129.87 87.23 1126.4 83.76C1122.93 80.3 1118.31 78.39 1113.41 78.39C1108.51 78.39 1103.9 80.3 1100.42 83.77C1096.96 87.23 1095.05 91.85 1095.05 96.75H1095.06ZM990.16 297.38C990.27 297.81 990.31 298.26 990.25 298.72C990.23 298.85 990.19 298.98 990.16 299.1V346.16C990.16 348.09 988.59 349.66 986.66 349.66H812.77C810.84 349.66 809.27 348.09 809.27 346.16V182.45C809.27 180.52 810.84 178.95 812.77 178.95H986.66C988.59 178.95 990.16 180.52 990.16 182.45V297.38ZM816.27 185.95V281.88H899.33C900.2 281.88 900.98 282.21 901.59 282.73V274.25C901.59 272.32 903.16 270.75 905.09 270.75C907.02 270.75 908.59 272.32 908.59 274.25V299.96H914.03C915.38 299.96 916.61 300.74 917.19 301.96C917.77 303.18 917.6 304.62 916.74 305.67L908.88 315.34H921.21V254.99H854.21C852.28 254.99 850.71 253.42 850.71 251.49C850.71 249.56 852.28 247.99 854.21 247.99H921.21V246.26C921.21 244.33 922.78 242.76 924.71 242.76H925.42V234.38C925.42 232.45 926.99 230.88 928.92 230.88H940.44C942.37 230.88 943.94 232.45 943.94 234.38V242.76H944.65C946.58 242.76 948.15 244.33 948.15 246.26V247.48H955.18C957.11 247.48 958.68 249.05 958.68 250.98V258.26C958.68 260.19 957.11 261.76 955.18 261.76H948.15V296.85C948.69 295.61 949.92 294.75 951.36 294.75H983.15V185.94H816.26L816.27 185.95ZM899.86 315.35L906.67 306.97H816.26V315.35H899.86ZM895.83 288.89H891.7V299.97H895.83V288.89ZM884.7 288.89H869.69V299.97H884.7V288.89ZM862.68 288.89H847.67V299.97H862.68V288.89ZM840.67 288.89H825.66V299.97H840.67V288.89ZM818.66 288.89H816.27V299.97H818.66V288.89ZM928.22 315.13H941.16V258.77C941.14 258.6 941.11 258.44 941.11 258.27V250.99C941.11 250.82 941.14 250.65 941.16 250.49V249.91C940.93 249.96 940.69 249.98 940.45 249.98H928.93C928.69 249.98 928.45 249.95 928.22 249.91V315.14V315.13ZM948.16 254.76H951.69V254.48H948.16V254.76ZM936.95 237.89H932.43V242.77H936.95V237.89ZM983.16 342.66V301.76H954.87V326.65C954.87 328.58 953.3 330.15 951.37 330.15C949.44 330.15 947.87 328.58 947.87 326.65V322.35H816.27V342.66H983.16ZM856.12 277.62V266.07C856.12 264.14 857.69 262.57 859.62 262.57H870.54C872.47 262.57 874.04 264.14 874.04 266.07V277.62C874.04 279.55 872.47 281.12 870.54 281.12H859.62C857.69 281.12 856.12 279.55 856.12 277.62ZM863.12 274.12H867.04V269.57H863.12V274.12Z" fill="url(#paint0_linear_63_73)"/>
<defs>
<linearGradient id="paint0_linear_63_73" x1="0" y1="174.9" x2="1172.55" y2="174.9" gradientUnits="userSpaceOnUse">
<stop stop-color="#503EF7"/>
<stop offset="1" stop-color="#519FFF"/>
</linearGradient>
</defs>
</svg>
