<svg width="967" height="514" viewBox="0 0 967 514" fill="none" xmlns="http://www.w3.org/2000/svg">
<path d="M175.27 472.614C170.35 477.624 149.63 458.954 137.76 462.204C127.74 464.944 85.66 522.384 76.7 512.804L69.34 436.164L0 439.774V428.824L60.87 332.074C60.95 320.604 10.1 283.594 18.27 271.864C20.71 268.354 88.67 248.254 98.61 242.544C91.99 224.624 79.26 202.284 74.67 184.284C73.54 179.864 71.54 178.204 76.67 174.984C81 172.264 159.13 182.644 171.62 184.164C176.56 178.314 162.9 132.304 164.78 124.224C165.66 120.434 169.7 118.684 173.44 118.304C191.93 116.414 235.6 150.294 254.14 151.374C273.39 152.494 278.81 117.754 297.24 121.864C300.25 122.534 321.19 173.024 321.49 178.634C321.91 186.494 314.69 186.354 310.89 183.664C308.97 182.294 294.29 146.564 292.1 140.354C279.56 146.444 272.14 166.074 257.54 166.204C244.33 166.324 185.51 130.274 178.95 136.714C178.74 149.224 193.17 189.574 182.7 197.224C178.99 199.934 103.24 188.834 91.31 187.824L113.02 247.624C110.87 254.604 47.73 274.254 36.51 279.154C39.85 294.354 76.73 317.874 75.99 331.404C75.31 343.824 13.8 421.884 18.25 425.114L79.84 422.004L87.68 490.874C99.65 485.874 129.17 445.574 137.47 443.984C142.24 443.074 184.84 462.874 175.27 472.594V472.614ZM314.22 193.134C299.36 182.244 293.87 187.734 304.76 202.594C315.55 217.314 337.47 233.124 350.48 248.164C370.35 271.144 387.83 296.244 405.15 321.154C399.95 328.924 370.27 339.794 368.85 346.704C365.97 360.704 386.3 351.244 387.07 352.144C394.31 360.584 380.22 389.694 372.46 397.754C340.16 431.334 292.69 413.404 275.66 374.074C267.05 372.224 269.66 381.434 270.99 386.054C278.82 413.164 318.79 429.084 344.88 424.914C354.85 423.324 360.53 416.224 367.08 414.264C383.79 409.264 354.59 444.154 351.38 447.104C325.82 470.624 290.18 478.284 256.29 470.134C236.97 465.484 212.53 441.544 202.71 439.704C197.28 438.684 196.19 439.894 197.13 445.284C200.11 462.364 252.18 484.744 268.71 486.924C345.01 496.974 400.79 429.884 401.85 357.574C402.09 340.884 395.76 354.344 390.78 344.884C395.34 343.554 418.5 331.014 419.33 329.624C422.43 324.404 418.89 318.224 416.58 313.504C404.87 289.534 336.15 209.204 314.23 193.134H314.22ZM200.87 410.574C199.82 409.484 177.76 410.944 170.68 409.684C87.84 394.954 84.71 280.284 175.27 308.304C174.03 279.294 129.13 287.954 113.04 302.684C60.71 350.574 125.21 427.944 187.68 424.974C195.46 424.604 207.57 417.544 200.87 410.584V410.574ZM135.1 330.254C130.28 347.884 149.37 338.594 158.82 348.524C165.05 355.064 163.64 369.374 164.54 370.204C165.12 370.744 178.39 370.874 178.91 370.384C182.37 367.144 171.12 343.154 166.71 338.794C158.09 330.274 146.79 329.044 135.09 330.254H135.1ZM310.39 297.354C315.72 292.074 298.5 254.674 288.52 264.524C285.7 267.304 300.31 307.324 310.39 297.354ZM966.31 220.344C965.8 233.804 951.6 253.854 936.97 254.714L733.18 255.174C711.96 276.984 695.94 302.874 677.55 326.904C661.93 347.334 643.81 369.574 619.64 379.844C622.39 383.754 627.38 385.364 625.18 391.084C602.26 426.624 580.77 463.234 556.7 498.014C554.6 501.054 547.56 512.294 545 513.344C542.74 514.274 540.56 514.014 538.76 512.384C514.24 479.184 485.7 449.194 455.64 420.984C454.81 419.864 453.86 417.444 453.92 416.144C454.02 413.604 460.72 407.924 462.85 405.954C482.57 387.674 505.01 369.034 525.65 351.614C532.08 346.194 538.7 340.964 545.49 335.994C542.65 325.434 537.3 315.644 532.05 306.134C522.3 288.484 511.05 271.744 499.25 255.424C498.55 254.764 497.68 254.924 496.83 254.834C477.01 252.844 453.83 256.464 433.7 254.894C423.52 254.094 413.01 247.704 406.37 240.174C401.9 235.104 392.7 220.814 397.46 214.414C397.76 214.004 399.91 212.224 400.08 212.224H426.81V4.06393C426.81 2.73393 430.72 -0.536071 432.49 0.133929H944.98C947.19 -0.726071 952.46 2.76393 952.46 4.66393V212.224H961.17C964.66 212.224 966.43 217.314 966.31 220.344ZM756.62 113.404C756.62 114.424 757.21 115.434 757.22 116.414C757.22 117.674 756.94 128.104 757.52 128.124L774.64 100.484H757.52L756.76 101.354C758.19 105.214 756.62 109.784 756.61 113.394L756.62 113.404ZM756.62 179.184H941.05L940.15 145.544H762.33C760.97 148.104 757.68 152.804 757.26 155.494C756.12 162.754 758.34 171.894 756.62 179.184ZM940.45 130.844C941.42 120.464 940.62 110.884 940.45 100.494H892.09C874.43 123.004 850.72 114.154 830.78 100.524L790.08 100.614C781.22 110.354 774.78 122.234 768.03 133.534H940.14C941.52 132.754 940.35 131.874 940.45 130.844ZM858.15 101.374C861.64 102.294 864.89 102.574 868.5 102.134C869.41 102.024 872.22 101.524 872.56 100.484H856.34C856.2 101.414 857.46 101.194 858.15 101.374ZM940.45 88.4739V45.2239L903.8 88.4739H940.45ZM662.3 41.6139H926.93L940.45 26.2939V12.7739H663.21L662.31 13.6739V41.6039L662.3 41.6139ZM662.3 88.4739H705.85C707.96 85.8239 705.84 81.6039 707.2 78.4139C708.1 76.3239 710.92 75.4339 713.03 75.2239C725.26 74.0539 739.52 76.0439 751.97 75.3939C758.07 77.0939 756.4 82.5139 756.7 87.4839L758.12 88.4739H783.94C800.16 72.8239 819.63 77.2039 836.85 88.4439L886.07 88.4639L888.49 86.6839L915.82 54.2339H662.3V88.4739ZM744.3 87.8739H719.07L718.17 88.7739V191.804H745.2V88.7739L744.3 87.8739ZM662.3 133.524H706.76V100.484H662.3V133.524ZM662.3 179.184H706.76V145.544H662.3V179.184ZM662.3 212.224H940.45V191.794H757.22C757.19 196.934 757.86 203.124 751.47 204.374C739.19 203.364 724.42 205.854 712.45 204.424C710.75 204.224 706.76 202.074 706.76 200.504V191.794H662.3V212.224ZM588.41 41.6139H650.29V12.7739H589.31L588.41 13.6739V41.6139ZM588.41 88.4739H650.29V54.2339H588.41V88.4739ZM588.41 133.524H650.29V100.484H588.41V133.524ZM588.41 179.184H650.29V145.544H588.41V179.184ZM588.41 212.224H650.29V191.794H588.41V212.224ZM513.31 41.6139H576.39V12.7739H514.21L513.31 13.6739V41.6139ZM513.31 87.5739L514.21 88.4739H576.39V54.2339H513.31V87.5739ZM513.31 133.524H576.39V100.484H513.31V133.524ZM513.31 179.184H576.99V146.444L576.09 145.544H513.31V179.184ZM513.31 212.224H576.99V191.794H513.31V212.224ZM438.22 41.6139H501.9V13.6839L501 12.7839H438.22V41.6239V41.6139ZM438.22 88.4739H501.9V54.2339H438.22V88.4739ZM438.22 133.524H501.9V100.484H438.22V133.524ZM438.22 179.184H501.9V145.544H438.22V179.184ZM438.22 212.224H501.9V191.794H438.22V212.224ZM612.43 389.464L550.96 346.294L469.5 417.294C488.84 435.234 506.59 454.774 524.11 474.464L543.04 497.574L612.42 389.464H612.43ZM717.57 254.884C698.33 256.854 679.2 267.664 663.67 278.774C639.55 296.034 621.85 328.874 586.89 316.164C565.31 308.314 557.57 286.954 542.16 272.584C534.31 265.274 523.9 257.174 513.32 254.874C530.06 279.724 549.08 305.394 555.95 335.094C573.22 346.004 589.67 358.074 606.21 370.044C634.3 365.664 653.53 338.404 669.76 317.284C685.73 296.504 700.33 274.654 717.58 254.874L717.57 254.884ZM558.99 274.384C569.52 285.974 577.87 301.764 594.41 305.644C609.01 309.074 618.82 302.764 629.54 293.904C642.68 283.054 654.84 268.704 664.7 254.874H537.34C545.02 260.814 552.43 267.174 558.98 274.384H558.99ZM410.59 224.844C411.57 227.014 413.51 229.694 415.09 231.464C421.14 238.214 428.19 241.704 437.3 242.294H934.17C944.16 241.504 951.28 234.374 953.67 224.844H410.59Z" fill="url(#paint0_linear_63_77)"/>
<defs>
<linearGradient id="paint0_linear_63_77" x1="-0.01" y1="256.944" x2="966.32" y2="256.944" gradientUnits="userSpaceOnUse">
<stop stop-color="#503EF7"/>
<stop offset="1" stop-color="#519FFF"/>
</linearGradient>
</defs>
</svg>
