<svg width="427" height="129" viewBox="0 0 427 129" fill="none" xmlns="http://www.w3.org/2000/svg">
<path d="M181.697 1.18652C182.845 1.18652 183.776 2.11777 183.776 3.26562C183.776 4.41368 182.845 5.34473 181.697 5.34473H161.086V15.1445H181.317C181.757 15.1445 182.138 15.3956 182.326 15.7617H188.831C188.856 15.7583 188.881 15.7539 188.907 15.7539C191.461 15.7539 193.56 15.7571 195.488 15.7617H251.407C252.278 14.8767 253.022 14.1222 253.651 13.4883C254.639 12.4933 255.341 11.7929 255.797 11.3408C256.024 11.115 256.19 10.9513 256.3 10.8438C256.354 10.79 256.395 10.75 256.422 10.7236C256.435 10.7106 256.445 10.7009 256.452 10.6943L256.462 10.6836C256.686 10.4652 257.045 10.4706 257.264 10.6943C257.482 10.9186 257.478 11.2776 257.254 11.4961L257.252 11.498C257.25 11.4996 257.247 11.5018 257.244 11.5049C257.238 11.5111 257.228 11.5204 257.215 11.5332C257.189 11.5589 257.149 11.5982 257.095 11.6514C256.987 11.7577 256.822 11.9208 256.596 12.1455C256.142 12.5954 255.442 13.294 254.456 14.2871C254.025 14.721 253.541 15.2116 252.998 15.7617H322.393C322.772 15.3208 323.159 14.8785 323.554 14.4385C325.964 11.7542 328.699 9.08988 331.761 6.87012V2.30273C331.761 1.88542 332.099 1.54688 332.517 1.54688H425.274C425.692 1.54691 426.03 1.88544 426.03 2.30273V61.5342C426.03 61.9516 425.692 62.29 425.274 62.29H332.517C332.099 62.29 331.761 61.9517 331.761 61.5342V8.2793C329.055 10.3316 326.602 12.7419 324.397 15.1963C324.229 15.3844 324.062 15.5736 323.896 15.7617H327.389C327.701 15.7621 327.955 16.0165 327.955 16.3291C327.955 16.642 327.701 16.8961 327.389 16.8965H322.914C320.005 20.3151 317.615 23.6235 315.656 26.0273C314.919 26.9321 313.886 28.2222 312.606 29.7617H327.389C327.701 29.7621 327.955 30.0165 327.955 30.3291C327.955 30.642 327.701 30.8961 327.389 30.8965H311.657C309.142 33.8694 305.854 37.5408 302.056 41.0918C301.092 41.9924 300.094 42.8867 299.065 43.7617H327.389C327.701 43.7621 327.955 44.0165 327.955 44.3291C327.955 44.642 327.701 44.8961 327.389 44.8965H297.7C292.223 49.3399 285.978 53.0899 279.567 54.2129C269.468 55.9818 263.076 54.8209 258.144 51.8145C255.24 50.0444 252.865 47.6411 250.547 44.8965H188.788C188.381 45.3245 188.011 45.7126 187.687 46.0537C187.215 46.5495 186.838 46.9449 186.58 47.2168C186.451 47.3527 186.352 47.4583 186.284 47.5293C186.251 47.5645 186.225 47.5913 186.208 47.6094C186.2 47.6183 186.193 47.6253 186.188 47.6299L186.182 47.6367C185.966 47.8638 185.607 47.8728 185.38 47.6572C185.154 47.4416 185.144 47.0833 185.359 46.8564L185.366 46.8496C185.371 46.845 185.377 46.8381 185.386 46.8291C185.403 46.811 185.428 46.7835 185.462 46.748C185.529 46.677 185.63 46.5715 185.759 46.4355C186.017 46.1635 186.394 45.7673 186.865 45.2715C186.979 45.1522 187.098 45.027 187.222 44.8965H182.268C182.065 45.2069 181.716 45.4121 181.317 45.4121H161.086V57.1445H181.317C181.758 57.1445 182.138 57.3962 182.326 57.7627H327.389C327.701 57.7631 327.955 58.0172 327.955 58.3301C327.955 58.6427 327.701 58.8971 327.389 58.8975H182.267C182.064 59.2072 181.715 59.4121 181.317 59.4121H161.086V66.793C161.086 67.419 160.578 67.9268 159.952 67.9268C159.326 67.9266 158.819 67.4189 158.818 66.793V59.4121H123.086V71.1445H157.394C158.02 71.1445 158.527 71.6523 158.527 72.2783C158.527 72.9045 158.02 73.4121 157.394 73.4121H123.086V76.46C123.086 77.086 122.578 77.5938 121.952 77.5938C121.326 77.5938 120.819 77.086 120.818 76.46V73.4121H83.0859V85.1445H121.698C122.324 85.1447 122.832 85.6523 122.832 86.2783C122.832 86.9045 122.324 87.412 121.698 87.4121H83.0859V99.1445H114.104C114.729 99.1447 115.237 99.6524 115.237 100.278C115.237 100.904 114.73 101.412 114.104 101.412H83.0859V124.629H122.078C123.092 124.629 123.935 125.356 124.118 126.316H142.628V93.6836C142.628 93.2661 142.966 92.9277 143.384 92.9277H164.073C164.491 92.9278 164.829 93.2661 164.829 93.6836V126.316H168.77V76.8828C168.77 76.4654 169.108 76.127 169.525 76.127H189.932C190.349 76.1272 190.687 76.4655 190.688 76.8828V126.316H194.466V108.422C194.466 108.004 194.804 107.666 195.222 107.666H216.234C216.652 107.666 216.99 108.005 216.99 108.422V126.316H227.173V67.3359C227.173 66.9906 227.453 66.7109 227.798 66.7109H290.993C291.338 66.7112 291.618 66.9908 291.618 67.3359V126.829C291.618 127.174 291.338 127.454 290.993 127.454H227.798C227.788 127.454 227.778 127.452 227.769 127.451H124.017C123.717 128.231 122.964 128.786 122.078 128.786H2.0791C0.931045 128.786 0 127.855 0 126.707V3.26562C0.000239203 2.11777 0.931192 1.18652 2.0791 1.18652H181.697ZM358.992 66.7109C359.337 66.7111 359.617 66.9908 359.617 67.3359V126.829C359.617 127.174 359.337 127.454 358.992 127.454H295.797C295.452 127.454 295.172 127.174 295.172 126.829V67.3359C295.172 66.9906 295.452 66.7109 295.797 66.7109H358.992ZM266.432 92.123V119.044C266.431 119.357 266.178 119.61 265.865 119.61H260.376C260.063 119.61 259.81 119.357 259.81 119.044V106.056C259.783 106.062 259.755 106.066 259.727 106.066H251.349C251.32 106.066 251.292 106.062 251.266 106.056V112.399C251.266 112.712 251.011 112.966 250.698 112.966H242.176C241.863 112.965 241.609 112.712 241.609 112.399V87.833H228.423V126.204H290.368V124.805H271.499C271.29 124.805 271.121 124.635 271.121 124.427C271.121 124.218 271.29 124.049 271.499 124.049H290.368V122.805H271.499C271.29 122.805 271.121 122.635 271.121 122.427C271.121 122.218 271.29 122.049 271.499 122.049H290.368V120.805H271.499C271.29 120.805 271.121 120.635 271.121 120.427C271.121 120.218 271.29 120.049 271.499 120.049H290.368V118.805H271.499C271.29 118.805 271.121 118.635 271.121 118.427C271.121 118.218 271.29 118.049 271.499 118.049H290.368V116.805H271.499C271.29 116.805 271.121 116.635 271.121 116.427C271.121 116.218 271.29 116.049 271.499 116.049H290.368V114.805H271.499C271.29 114.805 271.121 114.635 271.121 114.427C271.121 114.218 271.29 114.049 271.499 114.049H290.368V112.805H271.499C271.29 112.805 271.121 112.635 271.121 112.427C271.121 112.218 271.29 112.049 271.499 112.049H290.368V110.805H271.499C271.29 110.805 271.121 110.635 271.121 110.427C271.121 110.218 271.29 110.049 271.499 110.049H290.368V108.805H271.499C271.29 108.805 271.121 108.635 271.121 108.427C271.121 108.218 271.29 108.049 271.499 108.049H290.368V100.255H287.911L282.154 106.012C282.048 106.118 281.904 106.178 281.754 106.178H276.554C276.241 106.178 275.986 105.923 275.986 105.61V91.9775L271.281 87.2725L266.432 92.123ZM346.543 119.737C346.543 119.946 346.374 120.115 346.165 120.115C345.956 120.115 345.787 119.946 345.787 119.737V117.282H296.422V126.204H358.367V109.8H346.543V119.737ZM170.281 125.923H189.176V77.6387H170.281V125.923ZM144.14 125.849H163.317V94.4395H144.14V125.849ZM195.978 125.793H215.479V109.178H195.978V125.793ZM4.1582 124.629H40.8184V101.412H4.1582V124.629ZM43.0859 124.629H80.8184V101.412H43.0859V124.629ZM228.423 86.6992H242.176C242.489 86.6992 242.743 86.9535 242.743 87.2666V111.832H245.08V110.457C245.047 110.37 245.046 110.273 245.08 110.186V108.457C245.047 108.37 245.046 108.273 245.08 108.186V106.457C245.047 106.37 245.046 106.273 245.08 106.186V104.457C245.047 104.37 245.046 104.273 245.08 104.186V102.457C245.047 102.37 245.046 102.273 245.08 102.186V100.457C245.047 100.37 245.046 100.273 245.08 100.186V98.457C245.047 98.3697 245.046 98.2728 245.08 98.1855V96.457C245.047 96.3697 245.046 96.2728 245.08 96.1855V94.457C245.047 94.3697 245.046 94.2728 245.08 94.1855V92.457C245.047 92.3697 245.046 92.2728 245.08 92.1855V90.457C245.047 90.3697 245.046 90.2728 245.08 90.1855V88.457C245.047 88.3697 245.046 88.2728 245.08 88.1855V86.457C245.047 86.3697 245.046 86.2728 245.08 86.1855V84.457C245.047 84.3697 245.046 84.2728 245.08 84.1855V81.2012H240.627V83.1729C240.627 83.3813 240.457 83.5506 240.249 83.5508H236.827C236.619 83.5507 236.449 83.3813 236.449 83.1729V81.2012H234.938C234.729 81.201 234.56 81.0319 234.56 80.8232C234.56 80.6146 234.729 80.4454 234.938 80.4453H236.449V79.9551C236.449 79.7465 236.619 79.5772 236.827 79.5771H240.249C240.458 79.5773 240.627 79.7465 240.627 79.9551V80.4453H245.08V76.585C245.08 76.3763 245.249 76.2072 245.458 76.207C245.667 76.2073 245.836 76.3764 245.836 76.585V80.4453H247.08V76.585C247.08 76.3763 247.249 76.2072 247.458 76.207C247.667 76.2073 247.836 76.3764 247.836 76.585V80.4453H268.03C268.239 80.4455 268.408 80.6147 268.408 80.8232C268.408 81.0319 268.239 81.201 268.03 81.2012H247.836V111.832H250.132V97.377C250.132 97.0641 250.385 96.8108 250.698 96.8105H260.376C260.689 96.8105 260.943 97.064 260.943 97.377V118.477H265.298V91.8887C265.298 91.7384 265.358 91.5936 265.464 91.4873L270.881 86.0703L270.967 86C271.059 85.9384 271.169 85.9044 271.281 85.9043C271.432 85.9043 271.576 85.965 271.683 86.0713L276.955 91.3428C277.061 91.4491 277.121 91.5938 277.121 91.7441V105.044H281.519L287.275 99.2871L287.361 99.2168C287.454 99.1552 287.563 99.1212 287.676 99.1211H290.368V67.9609H228.423V86.6992ZM296.422 116.526H327.878C327.885 116.516 327.891 116.503 327.899 116.493L331.804 111.693H296.422V116.526ZM296.422 104.366H327.254C327.463 104.366 327.632 104.535 327.632 104.744V110.938H328.971V100.699C328.971 100.49 329.14 100.321 329.349 100.321C329.557 100.321 329.727 100.491 329.727 100.699V110.938H332.598C332.743 110.938 332.877 111.022 332.939 111.153C333.002 111.285 332.983 111.441 332.892 111.554L328.847 116.526H336.101V94.8076H310.859C310.651 94.8076 310.481 94.6384 310.481 94.4297C310.482 94.2211 310.651 94.0518 310.859 94.0518H336.101V92.8076H310.859C310.651 92.8076 310.481 92.6384 310.481 92.4297C310.482 92.2211 310.651 92.0518 310.859 92.0518H336.101V90.5283C336.101 90.3186 336.271 90.1484 336.48 90.1484H337.633V86.2109C337.633 86.0023 337.802 85.833 338.011 85.833H342.198C342.407 85.833 342.576 86.0023 342.576 86.2109V90.1484H343.729C343.938 90.1484 344.108 90.3186 344.108 90.5283V91.8643H347.555C347.763 91.8643 347.932 92.0336 347.933 92.2422V94.8877C347.932 95.0962 347.763 95.2656 347.555 95.2656H344.108V116.526H345.787V109.422C345.787 109.213 345.956 109.044 346.165 109.044H358.364C358.365 109.043 358.366 109.042 358.367 109.041V67.9609H296.422V104.366ZM336.86 116.445H343.349V94.9912C343.339 94.9582 343.332 94.9237 343.332 94.8877V92.2422C343.332 92.2058 343.339 92.171 343.349 92.1377V90.9082H342.419C342.357 90.9532 342.281 90.9805 342.198 90.9805H338.011C337.928 90.9805 337.852 90.9532 337.79 90.9082H336.86V116.445ZM245.836 110.453V111.832H247.08V109.209L245.836 110.453ZM296.422 110.938H298.831V108.443H296.422V110.938ZM299.587 110.938H302.831V108.443H299.587V110.938ZM303.587 110.938H306.831V108.443H303.587V110.938ZM307.587 110.938H310.831V108.443H307.587V110.938ZM311.587 110.938H314.831V108.443H311.587V110.938ZM315.587 110.938H318.831V108.443H315.587V110.938ZM319.587 110.938H322.831V108.443H319.587V110.938ZM323.587 110.938H326.876V108.443H323.587V110.938ZM245.836 108.453V109.384L247.08 108.14V107.209L245.836 108.453ZM31.8867 105.946C32.5129 105.946 33.0205 106.454 33.0205 107.08C33.0202 107.706 32.5128 108.214 31.8867 108.214H12.8428C12.2168 108.214 11.7092 107.706 11.709 107.08C11.709 106.454 12.2166 105.946 12.8428 105.946H31.8867ZM71.5068 105.946C72.133 105.946 72.6406 106.454 72.6406 107.08C72.6404 107.706 72.1329 108.214 71.5068 108.214H52.4629C51.837 108.214 51.3294 107.706 51.3291 107.08C51.3291 106.454 51.8368 105.946 52.4629 105.946H71.5068ZM296.422 107.688H298.831V105.122H296.422V107.688ZM299.587 107.688H302.831V105.122H299.587V107.688ZM303.587 107.688H306.831V105.122H303.587V107.688ZM307.587 107.688H310.831V105.122H307.587V107.688ZM311.587 107.688H314.831V105.122H311.587V107.688ZM315.587 107.688H318.831V105.122H315.587V107.688ZM319.587 107.688H322.831V105.122H319.587V107.688ZM323.587 107.688H326.876V105.122H323.587V107.688ZM245.836 106.453V107.384L247.08 106.14V105.209L245.836 106.453ZM245.836 104.453V105.384L247.08 104.14V103.209L245.836 104.453ZM259.81 104.056C259.783 104.062 259.755 104.066 259.727 104.066H251.349C251.32 104.066 251.292 104.062 251.266 104.056V105.32C251.292 105.314 251.32 105.311 251.349 105.311H259.727C259.755 105.311 259.783 105.314 259.81 105.32V104.056ZM245.836 102.453V103.384L247.08 102.14V101.209L245.836 102.453ZM259.81 102.056C259.783 102.062 259.755 102.066 259.727 102.066H251.349C251.32 102.066 251.292 102.062 251.266 102.056V103.32C251.292 103.314 251.32 103.311 251.349 103.311H259.727C259.755 103.311 259.783 103.314 259.81 103.32V102.056ZM316.792 97.3652C316.991 97.3653 317.151 97.5259 317.151 97.7246V101.923C317.151 102.121 316.991 102.283 316.792 102.283H312.823C312.625 102.283 312.464 102.121 312.464 101.923V97.7246C312.464 97.526 312.625 97.3654 312.823 97.3652H316.792ZM313.183 101.563H316.433V98.084H313.183V101.563ZM245.836 100.453V101.384L247.08 100.14V99.209L245.836 100.453ZM259.81 100.056C259.783 100.062 259.755 100.066 259.727 100.066H251.349C251.32 100.066 251.292 100.062 251.266 100.056V101.32C251.292 101.314 251.32 101.311 251.349 101.311H259.727C259.755 101.311 259.783 101.314 259.81 101.32V100.056ZM245.836 98.4531V99.3838L247.08 98.1396V97.209L245.836 98.4531ZM251.266 99.3203C251.292 99.3143 251.32 99.3105 251.349 99.3105H259.727C259.755 99.3106 259.783 99.3143 259.81 99.3203V97.9443H251.266V99.3203ZM4.1582 99.1445H40.8184V87.4121H4.1582V99.1445ZM43.0859 99.1445H80.8184V87.4121H43.0859V99.1445ZM245.836 96.4531V97.3838L247.08 96.1396V95.209L245.836 96.4531ZM245.836 94.4531V95.3838L247.08 94.1396V93.209L245.836 94.4531ZM344.108 94.5098H347.177V92.6201H344.108V94.5098ZM31.8867 91.9463C32.5129 91.9463 33.0205 92.4539 33.0205 93.0801C33.0202 93.7061 32.5128 94.2139 31.8867 94.2139H12.8428C12.2168 94.2138 11.7092 93.706 11.709 93.0801C11.709 92.4539 12.2166 91.9464 12.8428 91.9463H31.8867ZM71.5068 91.9463C72.133 91.9463 72.6406 92.4539 72.6406 93.0801C72.6404 93.7061 72.1329 94.2139 71.5068 94.2139H52.4629C51.837 94.2137 51.3294 93.706 51.3291 93.0801C51.3291 92.454 51.8368 91.9465 52.4629 91.9463H71.5068ZM245.836 92.4531V93.3838L247.08 92.1396V91.209L245.836 92.4531ZM245.836 90.4531V91.3838L247.08 90.1396V89.209L245.836 90.4531ZM338.389 90.1484H341.82V86.5889H338.389V90.1484ZM245.836 88.4531V89.3838L247.08 88.1396V87.209L245.836 88.4531ZM245.836 86.4531V87.3838L247.08 86.1396V85.209L245.836 86.4531ZM245.836 84.4531V85.3838L247.08 84.1396V83.209L245.836 84.4531ZM4.1582 85.1445H40.8184V73.4121H4.1582V85.1445ZM43.0859 85.1445H80.8184V73.4121H43.0859V85.1445ZM245.836 83.3838L247.08 82.1396V81.2012H245.836V83.3838ZM237.205 82.7949H239.871V81.2012H237.205V82.7949ZM237.205 80.4453H239.871V80.333H237.205V80.4453ZM31.8867 77.9453C32.5128 77.9453 33.0203 78.4531 33.0205 79.0791C33.0205 79.7053 32.5129 80.2129 31.8867 80.2129H12.8428C12.2166 80.2128 11.709 79.7053 11.709 79.0791C11.7092 78.4532 12.2168 77.9454 12.8428 77.9453H31.8867ZM71.5068 77.9453C72.1329 77.9453 72.6404 78.4531 72.6406 79.0791C72.6406 79.7053 72.133 80.2129 71.5068 80.2129H52.4629C51.8368 80.2127 51.3291 79.7052 51.3291 79.0791C51.3294 78.4532 51.837 77.9455 52.4629 77.9453H71.5068ZM111.507 77.9453C112.133 77.9453 112.64 78.4531 112.641 79.0791C112.641 79.7053 112.133 80.2129 111.507 80.2129H92.4629C91.8368 80.2127 91.3291 79.7052 91.3291 79.0791C91.3294 78.4532 91.837 77.9455 92.4629 77.9453H111.507ZM4.1582 71.1445H40.8184V59.4121H4.1582V71.1445ZM43.0859 71.1445H80.8184V59.4121H43.0859V71.1445ZM83.0859 71.1445H120.818V59.4121H83.0859V71.1445ZM31.8867 63.9453C32.5128 63.9453 33.0203 64.4531 33.0205 65.0791C33.0205 65.7053 32.5129 66.2129 31.8867 66.2129H12.8428C12.2166 66.2128 11.709 65.7053 11.709 65.0791C11.7092 64.4532 12.2168 63.9454 12.8428 63.9453H31.8867ZM71.5068 63.9453C72.1329 63.9453 72.6404 64.4531 72.6406 65.0791C72.6406 65.7053 72.133 66.2129 71.5068 66.2129H52.4629C51.8368 66.2127 51.3291 65.7052 51.3291 65.0791C51.3293 64.4532 51.837 63.9455 52.4629 63.9453H71.5068ZM111.507 63.9453C112.133 63.9453 112.64 64.4531 112.641 65.0791C112.641 65.7053 112.133 66.2129 111.507 66.2129H92.4629C91.8368 66.2127 91.3291 65.7052 91.3291 65.0791C91.3293 64.4532 91.837 63.9455 92.4629 63.9453H111.507ZM333.272 5.82617C334.35 5.12412 335.466 4.48161 336.621 3.91602C336.902 3.77832 337.242 3.89467 337.38 4.17578C337.517 4.45671 337.401 4.79578 337.12 4.93359C335.787 5.5865 334.506 6.35037 333.272 7.19238V31.1875H363.631C369.268 31.1874 371.512 28.9426 371.684 27.0322C371.915 24.4544 370.724 22.8383 369.452 21.8408C368.81 21.3374 368.149 20.995 367.646 20.7783C367.396 20.6704 367.187 20.595 367.043 20.5469C366.971 20.523 366.916 20.5058 366.88 20.4951C366.862 20.4898 366.848 20.4857 366.84 20.4834L366.832 20.4814L366.728 20.4424C366.498 20.3308 366.366 20.0742 366.421 19.8154C367.211 16.0704 366.182 14.063 364.764 13.1641C363.29 12.2302 361.178 12.3388 359.528 13.2754C359.378 13.3608 359.197 13.3733 359.036 13.3086C358.876 13.2437 358.753 13.1085 358.704 12.9424C358.068 10.7778 357.079 9.30391 355.949 8.37598C354.822 7.45019 353.524 7.04296 352.219 7.05469C349.59 7.07852 346.899 8.80807 345.604 11.5107C345.517 11.6915 345.341 11.8137 345.142 11.8311C344.942 11.8483 344.748 11.7586 344.632 11.5957C342.679 8.86349 340.47 8.40045 338.768 9.03125C337.006 9.68389 335.593 11.5686 335.402 13.9121C335.377 14.2241 335.103 14.4561 334.791 14.4307C334.479 14.4051 334.247 14.1322 334.272 13.8203C334.494 11.1004 336.143 8.79435 338.373 7.96777C340.474 7.18907 342.932 7.77419 345.007 10.2334C346.59 7.62026 349.386 5.94629 352.209 5.9209C353.767 5.9069 355.326 6.39627 356.669 7.49902C357.884 8.49635 358.895 9.97602 359.586 11.9824C361.42 11.1728 363.662 11.1231 365.371 12.2061C367.25 13.3969 368.287 15.8176 367.626 19.5498C367.761 19.5996 367.92 19.6617 368.096 19.7373C368.661 19.981 369.413 20.3697 370.151 20.9492C371.642 22.1183 373.086 24.078 372.812 27.1328C372.558 29.9699 369.433 32.3212 363.631 32.3213H333.272V60.7783H424.519V3.05859H333.272V5.82617ZM4.1582 57.1445H40.8184V45.4121H4.1582V57.1445ZM43.0859 57.1445H80.8184V45.4121H43.0859V57.1445ZM83.0859 57.1445H120.818V45.4121H83.0859V57.1445ZM123.086 57.1445H158.818V45.4121H123.086V57.1445ZM360.224 53.7578C360.495 53.6014 360.841 53.6939 360.998 53.9648L361.957 55.625C362.113 55.8961 362.02 56.2429 361.749 56.3994C361.478 56.5559 361.131 56.4625 360.975 56.1914L360.017 54.5322C359.86 54.2612 359.953 53.9144 360.224 53.7578ZM364.224 53.7578C364.495 53.6014 364.841 53.6939 364.998 53.9648L365.957 55.625C366.113 55.8961 366.02 56.2429 365.749 56.3994C365.478 56.5559 365.131 56.4625 364.975 56.1914L364.017 54.5322C363.86 54.2612 363.953 53.9144 364.224 53.7578ZM368.224 53.7578C368.495 53.6013 368.841 53.6939 368.998 53.9648L369.957 55.625C370.113 55.8961 370.02 56.2429 369.749 56.3994C369.478 56.5559 369.131 56.4625 368.975 56.1914L368.017 54.5322C367.86 54.2612 367.953 53.9144 368.224 53.7578ZM372.224 53.7578C372.495 53.6014 372.841 53.6939 372.998 53.9648L373.957 55.625C374.113 55.8961 374.02 56.2429 373.749 56.3994C373.478 56.5559 373.131 56.4625 372.975 56.1914L372.017 54.5322C371.86 54.2612 371.953 53.9144 372.224 53.7578ZM376.224 53.7578C376.495 53.6013 376.841 53.6939 376.998 53.9648L377.957 55.625C378.113 55.8961 378.02 56.2429 377.749 56.3994C377.478 56.5559 377.131 56.4625 376.975 56.1914L376.017 54.5322C375.86 54.2612 375.953 53.9144 376.224 53.7578ZM252.041 44.8965C254.107 47.2724 256.211 49.3083 258.733 50.8457C263.355 53.6627 269.441 54.8359 279.371 53.0967C285.104 52.0925 290.765 48.8735 295.877 44.8965H252.041ZM405.058 19.4844C405.371 19.4844 405.625 19.7387 405.625 20.0518V27.6982C407.548 27.8248 409.295 28.5902 410.659 29.7842L416.067 24.377C416.289 24.1558 416.648 24.1562 416.869 24.377C417.091 24.5984 417.091 24.9583 416.869 25.1797L411.462 30.5859C412.657 31.9503 413.422 33.6982 413.549 35.6221H421.195C421.508 35.6221 421.762 35.8764 421.762 36.1895C421.762 36.5025 421.508 36.7568 421.195 36.7568H413.549C413.422 38.6804 412.656 40.4278 411.462 41.792L416.869 47.1992C417.091 47.4206 417.091 47.7796 416.869 48.001C416.648 48.2222 416.289 48.2223 416.067 48.001L410.66 42.5938C409.296 43.7881 407.548 44.5531 405.625 44.6797V52.3271C405.625 52.6402 405.371 52.8945 405.058 52.8945C404.745 52.8944 404.49 52.6401 404.49 52.3271V44.6797C402.567 44.553 400.819 43.7874 399.455 42.5928L394.048 48.001C393.826 48.2222 393.466 48.2223 393.245 48.001C393.024 47.7796 393.024 47.4204 393.245 47.1992L398.652 41.791C397.458 40.427 396.693 38.6798 396.566 36.7568H388.92C388.607 36.7567 388.353 36.5025 388.353 36.1895C388.353 35.8764 388.607 35.6222 388.92 35.6221H396.566C396.693 33.6988 397.458 31.9511 398.652 30.5869L393.245 25.1797C393.024 24.9583 393.024 24.5983 393.245 24.377C393.466 24.1556 393.826 24.1557 394.048 24.377L399.455 29.7842C400.819 28.5899 402.567 27.8249 404.49 27.6982V20.0518C404.49 19.7387 404.745 19.4845 405.058 19.4844ZM31.8867 49.9453C32.5128 49.9453 33.0203 50.4531 33.0205 51.0791C33.0205 51.7053 32.5129 52.2129 31.8867 52.2129H12.8428C12.2166 52.2128 11.709 51.7053 11.709 51.0791C11.7092 50.4532 12.2168 49.9454 12.8428 49.9453H31.8867ZM71.5068 49.9453C72.1329 49.9453 72.6404 50.4531 72.6406 51.0791C72.6406 51.7053 72.133 52.2129 71.5068 52.2129H52.4629C51.8368 52.2127 51.3291 51.7052 51.3291 51.0791C51.3293 50.4532 51.837 49.9455 52.4629 49.9453H71.5068ZM111.507 49.9453C112.133 49.9453 112.64 50.4531 112.641 51.0791C112.641 51.7053 112.133 52.2129 111.507 52.2129H92.4629C91.8368 52.2127 91.3291 51.7052 91.3291 51.0791C91.3293 50.4532 91.837 49.9455 92.4629 49.9453H111.507ZM149.507 49.9453C150.133 49.9453 150.64 50.4531 150.641 51.0791C150.641 51.7053 150.133 52.2129 149.507 52.2129H130.463C129.837 52.2127 129.329 51.7052 129.329 51.0791C129.329 50.4532 129.837 49.9455 130.463 49.9453H149.507ZM356.391 47.1172C356.662 46.9611 357.009 47.0542 357.165 47.3252L359.081 50.6445C359.238 50.9156 359.145 51.2623 358.874 51.4189C358.603 51.5755 358.256 51.483 358.1 51.2119L356.183 47.8916C356.026 47.6205 356.12 47.2737 356.391 47.1172ZM360.391 47.1172C360.662 46.961 361.009 47.0542 361.165 47.3252L363.081 50.6445C363.238 50.9156 363.145 51.2623 362.874 51.4189C362.603 51.5755 362.256 51.483 362.1 51.2119L360.183 47.8916C360.026 47.6205 360.12 47.2737 360.391 47.1172ZM364.391 47.1172C364.662 46.961 365.009 47.0542 365.165 47.3252L367.081 50.6445C367.238 50.9156 367.145 51.2623 366.874 51.4189C366.603 51.5755 366.256 51.483 366.1 51.2119L364.183 47.8916C364.026 47.6205 364.12 47.2737 364.391 47.1172ZM368.391 47.1172C368.662 46.961 369.009 47.0542 369.165 47.3252L371.081 50.6445C371.238 50.9156 371.145 51.2623 370.874 51.4189C370.603 51.5755 370.256 51.483 370.1 51.2119L368.183 47.8916C368.026 47.6205 368.12 47.2737 368.391 47.1172ZM372.391 47.1172C372.662 46.961 373.009 47.0542 373.165 47.3252L375.081 50.6445C375.238 50.9156 375.145 51.2623 374.874 51.4189C374.603 51.5755 374.256 51.483 374.1 51.2119L372.183 47.8916C372.026 47.6205 372.12 47.2737 372.391 47.1172ZM352.557 40.4775C352.828 40.3211 353.174 40.4136 353.331 40.6846L355.248 44.0049C355.404 44.276 355.311 44.6227 355.04 44.7793C354.769 44.9356 354.422 44.8432 354.266 44.5723L352.349 41.252C352.192 40.9808 352.286 40.6341 352.557 40.4775ZM356.557 40.4775C356.828 40.3211 357.174 40.4136 357.331 40.6846L359.248 44.0049C359.405 44.276 359.311 44.6227 359.04 44.7793C358.769 44.9356 358.422 44.8432 358.266 44.5723L356.349 41.252C356.192 40.9808 356.286 40.6341 356.557 40.4775ZM360.557 40.4775C360.828 40.3211 361.174 40.4136 361.331 40.6846L363.248 44.0049C363.405 44.276 363.311 44.6228 363.04 44.7793C362.769 44.9356 362.422 44.8432 362.266 44.5723L360.349 41.252C360.192 40.9808 360.286 40.6341 360.557 40.4775ZM364.557 40.4775C364.828 40.3211 365.174 40.4136 365.331 40.6846L367.248 44.0049C367.405 44.276 367.311 44.6227 367.04 44.7793C366.769 44.9356 366.422 44.8432 366.266 44.5723L364.349 41.252C364.192 40.9808 364.286 40.6341 364.557 40.4775ZM368.557 40.4775C368.828 40.3211 369.174 40.4136 369.331 40.6846L371.248 44.0049C371.405 44.276 371.311 44.6228 371.04 44.7793C370.769 44.9356 370.422 44.8432 370.266 44.5723L368.349 41.252C368.192 40.9808 368.286 40.6341 368.557 40.4775ZM182.268 30.8965C182.065 31.2069 181.716 31.4121 181.317 31.4121H161.086V43.1445H181.317C181.757 43.1445 182.138 43.3956 182.326 43.7617H188.302C189.002 43.0261 189.797 42.1895 190.657 41.2871C193.653 38.1427 197.423 34.1942 200.594 30.8965H182.268ZM202.192 30.8965C201.987 31.0935 201.782 31.2959 201.58 31.5059C198.377 34.8364 194.528 38.8691 191.479 42.0693C190.911 42.6654 190.371 43.2333 189.868 43.7617H249.604C248.34 42.2136 247.074 40.5753 245.729 38.8926C243.98 36.7026 241.813 33.8365 239.259 30.8965H237.13C236.274 31.4675 235.412 31.9642 234.55 32.3633C232.776 33.184 230.964 33.6093 229.163 33.3955C227.431 33.1897 225.762 32.3977 224.188 30.8965H202.192ZM240.755 30.8965C243.066 33.6099 245.033 36.2032 246.615 38.1846C248.195 40.1624 249.639 42.0388 251.073 43.7617H297.297C298.673 42.6325 300.005 41.4568 301.281 40.2637C304.735 37.0349 307.763 33.7052 310.169 30.8965H240.755ZM400.258 41.79C401.414 42.7818 402.879 43.4203 404.49 43.543V37.5586L400.258 41.79ZM405.625 43.543C407.236 43.4204 408.701 42.7814 409.856 41.79L405.625 37.5586V43.543ZM4.1582 43.1445H40.8184V31.4121H4.1582V43.1445ZM43.0859 43.1445H80.8184V31.4121H43.0859V43.1445ZM83.0859 43.1445H120.818V31.4121H83.0859V43.1445ZM123.086 43.1445H158.818V31.4121H123.086V43.1445ZM410.658 40.9883C411.65 39.8324 412.289 38.3676 412.411 36.7568H406.427L410.658 40.9883ZM397.705 36.7568C397.828 38.3669 398.466 39.8316 399.456 40.9873L403.688 36.7568H397.705ZM349.682 35.4971C349.953 35.3409 350.3 35.4341 350.456 35.7051L351.414 37.3652C351.57 37.6363 351.478 37.9831 351.207 38.1396C350.936 38.2962 350.589 38.2027 350.433 37.9316L349.474 36.2715C349.317 36.0004 349.411 35.6536 349.682 35.4971ZM353.682 35.4971C353.953 35.3408 354.3 35.4341 354.456 35.7051L355.414 37.3652C355.57 37.6363 355.478 37.9831 355.207 38.1396C354.936 38.2962 354.589 38.2028 354.433 37.9316L353.474 36.2715C353.317 36.0004 353.411 35.6536 353.682 35.4971ZM357.682 35.4971C357.953 35.3408 358.3 35.4341 358.456 35.7051L359.414 37.3652C359.57 37.6363 359.478 37.9831 359.207 38.1396C358.936 38.2962 358.589 38.2028 358.433 37.9316L357.474 36.2715C357.317 36.0004 357.411 35.6536 357.682 35.4971ZM361.682 35.4971C361.953 35.3408 362.3 35.4341 362.456 35.7051L363.414 37.3652C363.57 37.6363 363.478 37.9831 363.207 38.1396C362.936 38.2962 362.589 38.2028 362.433 37.9316L361.474 36.2715C361.317 36.0004 361.411 35.6536 361.682 35.4971ZM365.682 35.4971C365.953 35.3408 366.3 35.4341 366.456 35.7051L367.414 37.3652C367.57 37.6363 367.478 37.9831 367.207 38.1396C366.936 38.2962 366.589 38.2028 366.433 37.9316L365.474 36.2715C365.317 36.0004 365.411 35.6536 365.682 35.4971ZM31.8867 35.9453C32.5128 35.9453 33.0203 36.4531 33.0205 37.0791C33.0205 37.7053 32.5129 38.2129 31.8867 38.2129H12.8428C12.2166 38.2128 11.709 37.7053 11.709 37.0791C11.7092 36.4532 12.2168 35.9454 12.8428 35.9453H31.8867ZM71.5068 35.9453C72.1329 35.9453 72.6404 36.4531 72.6406 37.0791C72.6406 37.7053 72.133 38.2129 71.5068 38.2129H52.4629C51.8368 38.2127 51.3291 37.7052 51.3291 37.0791C51.3293 36.4532 51.837 35.9455 52.4629 35.9453H71.5068ZM111.507 35.9453C112.133 35.9453 112.64 36.4531 112.641 37.0791C112.641 37.7053 112.133 38.2129 111.507 38.2129H92.4629C91.8368 38.2127 91.3291 37.7052 91.3291 37.0791C91.3293 36.4532 91.837 35.9455 92.4629 35.9453H111.507ZM149.507 35.9453C150.133 35.9453 150.64 36.4531 150.641 37.0791C150.641 37.7053 150.133 38.2129 149.507 38.2129H130.463C129.837 38.2127 129.329 37.7052 129.329 37.0791C129.329 36.4532 129.837 35.9455 130.463 35.9453H149.507ZM399.456 31.3906C398.465 32.5463 397.827 34.0116 397.704 35.6221H403.688L399.456 31.3906ZM406.427 35.6221H412.412C412.29 34.0109 411.65 32.5456 410.658 31.3896L406.427 35.6221ZM404.49 28.8359C402.88 28.9585 401.414 29.5969 400.259 30.5879L404.49 34.8193V28.8359ZM405.625 34.8193L409.855 30.5879C408.7 29.5973 407.235 28.9584 405.625 28.8359V34.8193ZM225.944 30.8965C227.051 31.7084 228.171 32.1358 229.297 32.2695C230.828 32.4513 232.426 32.0964 234.073 31.334C234.361 31.2007 234.649 31.0528 234.938 30.8965H225.944ZM182.268 16.8965C182.065 17.2069 181.716 17.4121 181.317 17.4121H161.086V29.1445H181.317C181.757 29.1445 182.138 29.3956 182.326 29.7617H201.744C205.246 26.5437 209.244 25.0075 213.155 24.9688C217.375 24.9271 221.451 26.6294 224.647 29.7617H236.78C237.078 29.5574 237.375 29.3436 237.672 29.1211C236.433 27.7743 235.117 26.4359 233.722 25.167C228.662 20.5647 222.677 16.9365 215.939 16.9365C208.994 16.9365 204.788 16.9242 201.043 16.9121C199.277 16.9064 197.613 16.901 195.812 16.8965H182.268ZM213.166 26.1025C209.906 26.1349 206.543 27.2927 203.48 29.7617H222.967C220.126 27.3479 216.69 26.0677 213.166 26.1025ZM251.882 16.8965C250.066 18.743 247.734 21.1275 244.805 24.1494C243.054 25.9556 241.214 27.7445 239.332 29.2646C239.48 29.4307 239.628 29.596 239.773 29.7617H311.132C312.684 27.9143 313.922 26.3612 314.777 25.3115C316.539 23.1501 318.773 20.0844 321.432 16.8965H251.882ZM4.1582 29.1445H40.8184V17.4121H4.1582V29.1445ZM43.0859 29.1445H80.8184V17.4121H43.0859V29.1445ZM83.0859 29.1445H120.818V17.4121H83.0859V29.1445ZM123.086 29.1445H158.818V17.4121H123.086V29.1445ZM222.55 16.8965C226.995 18.3633 230.995 21.154 234.484 24.3281C235.929 25.6422 237.292 27.0295 238.57 28.4229C240.4 26.9491 242.221 25.186 243.99 23.3604C246.517 20.7533 248.601 18.6201 250.292 16.8965H222.55ZM31.8867 21.9453C32.5128 21.9453 33.0203 22.4531 33.0205 23.0791C33.0205 23.7053 32.5129 24.2129 31.8867 24.2129H12.8428C12.2166 24.2128 11.709 23.7053 11.709 23.0791C11.7092 22.4532 12.2168 21.9454 12.8428 21.9453H31.8867ZM71.5068 21.9453C72.1329 21.9453 72.6404 22.4531 72.6406 23.0791C72.6406 23.7053 72.133 24.2129 71.5068 24.2129H52.4629C51.8368 24.2127 51.3291 23.7052 51.3291 23.0791C51.3293 22.4532 51.837 21.9455 52.4629 21.9453H71.5068ZM111.507 21.9453C112.133 21.9453 112.64 22.4531 112.641 23.0791C112.641 23.7053 112.133 24.2129 111.507 24.2129H92.4629C91.8368 24.2127 91.3291 23.7052 91.3291 23.0791C91.3293 22.4532 91.837 21.9455 92.4629 21.9453H111.507ZM149.507 21.9453C150.133 21.9453 150.64 22.4531 150.641 23.0791C150.641 23.7053 150.133 24.2129 149.507 24.2129H130.463C129.837 24.2127 129.329 23.7052 129.329 23.0791C129.329 22.4532 129.837 21.9455 130.463 21.9453H149.507ZM4.1582 15.1445H40.8184V5.34473H4.1582V15.1445ZM43.0859 15.1445H80.8184V5.34473H43.0859V15.1445ZM83.0859 15.1445H120.818V5.34473H83.0859V15.1445ZM123.086 15.1445H158.818V5.34473H123.086V15.1445ZM31.8867 9.00586C32.5129 9.00586 33.0205 9.51347 33.0205 10.1396C33.0205 10.7659 32.5129 11.2734 31.8867 11.2734H12.8428C12.2166 11.2733 11.709 10.7658 11.709 10.1396C11.709 9.51353 12.2167 9.00596 12.8428 9.00586H31.8867ZM71.5068 9.00586C72.133 9.00586 72.6406 9.51347 72.6406 10.1396C72.6406 10.7659 72.133 11.2734 71.5068 11.2734H52.4629C51.8368 11.2733 51.3291 10.7658 51.3291 10.1396C51.3291 9.51357 51.8368 9.00602 52.4629 9.00586H71.5068ZM111.507 9.00586C112.133 9.00586 112.641 9.51347 112.641 10.1396C112.641 10.7659 112.133 11.2734 111.507 11.2734H92.4629C91.8368 11.2733 91.3291 10.7658 91.3291 10.1396C91.3291 9.51357 91.8368 9.00602 92.4629 9.00586H111.507ZM149.507 9.00586C150.133 9.00586 150.641 9.51347 150.641 10.1396C150.641 10.7659 150.133 11.2734 149.507 11.2734H130.463C129.837 11.2732 129.329 10.7657 129.329 10.1396C129.329 9.51359 129.837 9.00606 130.463 9.00586H149.507ZM313.432 0C314.354 4.15582e-05 315.129 0.18107 315.754 0.544922C316.379 0.909322 316.839 1.44992 317.132 2.16406C317.137 2.17657 317.136 2.19084 317.131 2.20312C317.125 2.21527 317.114 2.22526 317.102 2.22949L315.995 2.59668C315.971 2.6042 315.944 2.59113 315.935 2.56738C315.739 2.07607 315.424 1.70235 314.989 1.44336C314.558 1.18394 314.043 1.05273 313.443 1.05273C312.502 1.05287 311.774 1.35572 311.256 1.95801C310.736 2.55767 310.474 3.38507 310.474 4.44434C310.474 5.49069 310.746 6.3282 311.287 6.96094C311.831 7.58836 312.564 7.90316 313.492 7.90332C314.086 7.90332 314.606 7.75617 315.05 7.46387C315.494 7.17123 315.867 6.73029 316.168 6.13965L316.197 6.11523C316.209 6.11143 316.222 6.11223 316.234 6.11816L317.188 6.59473C317.212 6.60675 317.222 6.63591 317.21 6.66016C316.852 7.40912 316.346 7.98166 315.693 8.37402C315.045 8.76595 314.292 8.9619 313.438 8.96191C312.563 8.96185 311.802 8.78035 311.158 8.41699C310.598 8.09539 310.152 7.65488 309.823 7.09668L309.689 6.84961C309.355 6.16932 309.19 5.36678 309.189 4.44434C309.189 3.0625 309.563 1.97331 310.315 1.18359C311.068 0.393568 312.11 8.45335e-05 313.432 0ZM306.097 0C306.598 0 307.024 0.174857 307.372 0.522461C307.724 0.869971 307.9 1.29412 307.9 1.79199C307.9 2.22753 307.764 2.60712 307.491 2.92773L307.366 3.06152C307.015 3.40848 306.59 3.58301 306.097 3.58301C305.603 3.58284 305.177 3.4067 304.821 3.05566C304.47 2.70454 304.294 2.28159 304.294 1.79199C304.294 1.30237 304.469 0.879626 304.815 0.52832C305.167 0.176935 305.595 0.000163589 306.097 0ZM306.097 0.741211C305.805 0.74136 305.558 0.842859 305.355 1.04883C305.157 1.25545 305.059 1.50335 305.059 1.79199C305.059 2.08024 305.16 2.32661 305.362 2.5332C305.569 2.74003 305.813 2.84263 306.097 2.84277C306.385 2.84277 306.63 2.74133 306.832 2.53906C307.034 2.33267 307.136 2.08431 307.136 1.79199C307.136 1.53202 307.058 1.30914 306.903 1.12207L306.832 1.04395C306.634 0.841818 306.389 0.741211 306.097 0.741211Z" fill="url(#paint0_linear_41_413)"/>
<defs>
<linearGradient id="paint0_linear_41_413" x1="213.015" y1="0.000976562" x2="213.015" y2="128.786" gradientUnits="userSpaceOnUse">
<stop stop-color="#519FFF"/>
<stop offset="1" stop-color="#503EF7"/>
</linearGradient>
</defs>
</svg>
