<?xml version="1.0" encoding="UTF-8"?>
<svg id="Layer_1" data-name="Layer 1" xmlns="http://www.w3.org/2000/svg" width="1366" height="768" xmlns:xlink="http://www.w3.org/1999/xlink" viewBox="0 0 1366 768">
  <defs>
    <style>
      .cls-1 {
        fill: url(#linear-gradient);
      }
    </style>
    <linearGradient id="linear-gradient" x1="76.36" y1="402.28" x2="1237.39" y2="402.28" gradientUnits="userSpaceOnUse">
      <stop offset="0" stop-color="#503ef7"/>
      <stop offset="1" stop-color="#519fff"/>
    </linearGradient>
  </defs>
  <path class="cls-1" d="M487.36,424.82c.66-5.92,1.38-18.43,0-24.23-.46-1.94-.43-5.97,0-8.74,2.07-13.31.5-34.29,0-48.19-.31-8.49-.14-26.21,0-34.7.08-4.71,1.42-14.74,0-19.23-.68-2.14-.34-6.67,0-9.73,1.4-12.37.87-25.14,0-38.2l-.05-123.66c0-2.72,1.86-5.46,5.11-5.46l464.22.04c3.1,0,5.63,2.45,5.63,5.52l.04,328.21c0,3.68-2.12,5.9-5.72,5.9h-463.12c-3.56,0-6.02-2.46-5.98-5.76.07-6.43-.85-15.2-.12-21.78ZM951.7,150.18l.05-27.22-454-.04.26,27.3,453.69-.05ZM951.85,442.02l-.08-281.88-453.88.02.05,281.93,453.9-.07ZM340.22,388.71c1.66.89,4.76,2.87,6.28,3.98,29.9,29.38,66.65,67.3,88.12,103.91,1.99,3.39,3.65,10.52-.53,12.7l-21,10.92c11.58,4.04,6.88,24.71,5.21,35.33-.37,2.35-1.2,5.73-1.94,8-2.34,7.18-7.39,19.61-10.09,26.04-.27.63-1.38,1.96-1.84,2.64-.31.45,1.3.99,1.77.7s1.48-1.08,1.99-1.29c27.54-11.47,78-41.19,99.22-62.11,6.15-6.07,11.67-4.63,15.88-7.12,17.28-10.2,18.2-23.41,52.3-31.39l62.92-14.73c9.23-2.16,17.66,3.36,20.1,11.39,2.57,8.45-1.98,16.58-10.3,20.42-10.03,4.64-20.67,7.48-31.26,9.6l-9,1.8c4.71,4.13,7.65,7.76,9.84,12.78-3.53,21.02-.31,11.99-.94,30.25l-4.78,7.77c-9.73,8.14-21.73,12.72-34.99,12.34l-16.97-.49c-64.76,46.83-108.93,76.07-183.77,105.1-3.14,1.22-6.12-3.42-6.05-5.5s1.52-5.13,4.12-6.2c26.54-10.89,52.48-22.05,76.85-36.32,1.33-.78,3.43-2.09,4.73-2.72,14.02-6.81,27.5-15.21,40.12-24.41l8.86-6.46,43.3-28.39c-4.13-10.35-9.59-19.58-16.03-27.73-.41-1.04-1.44-2.57-2.15-2.98-1.12-2.5-4.41-5.89-6.72-7.18-.79-.85-2.65-3.39-3.93-2.91-2.65,1-4.63,3.89-6.33,5.1-38.99,27.58-74.6,54.23-121.62,70.12-32.14,36.65-84.33,41.4-126.11,19.63-.7-.79-2-1.52-3.15-1.89-4.49-3.99-25.69-15.13-17.4-23.09,1.68-1.62,6.89-1.69,9.36.68,31.07,29.86,79.04,34.54,114.85,9.37,12.71-8.93,21.77-21.89,27.33-35.8.46-.25,1.07-.54.78-.63-.37-.11-1.59-.48-1.5-.45.04.01-.5.82-.59.95-20.46,12.5-44.77,13.56-65.79.77-17.48-10.63-28.15-31.95-18.17-34.92,9.06-2.7,1.82,14.13,28.24,28.31,15.67,8.41,32.88,7.78,47.65-2.19,14.3-9.65,23.22-25.42,20.61-43.18-.87-5.91-12.22,3.42-15.79-3.67-5.1-10.12,23.18-16.42,31.58-24.61-17.51-26.8-36.15-50.52-58.08-72.26l-29.69-29.44c-1.3-1.29-1.76-5.72-1.03-7.29s3.79-3.4,5.53-3.25ZM574.2,548.13c-1.6-1.61-.63-6.26.76-7.32,6.2-4.73,15.16,10.55,28.69,1.24,1.3-.89,3.08-3.66,3.19-5.11.45-6.09-12.82-11.88-18.05-14.03-3.62-1.49-5.23-4.01-4.29-7.5,1.05-3.89,4.34-2.75,7.76-3.35,17.65-3.12,35.14-7.06,51.54-13.39,3.5-1.35,5.38-5.82,4.43-8.52-.85-2.43-4.78-4.08-7.99-3.3l-64.93,15.79c-8.96,2.18-16.3,4.79-23.45,10.7l-20.06,16.56c9.91,11.19,17.89,23.38,23.99,36.86,2.02,4.46,5.91,4.49,10.31,4.6,11.74.29,23.19.66,32.98-5.89,4.2-2.81,8.3-6.73,6.18-12.2-10.59,4.3-22.78,3.19-31.05-5.13ZM1115.65,449.84c.3.16,1.61.68,2.22.81,25.64,5.37,67.43,40.67,61.25,75.91-3.75,21.36-5.25,40.15-21.5,57.63-36.1,38.84-2.14,92.75-31.69,91.42l-1.58-.07c-.54-.02-.33,1.44-.64,1.88-2.05,3.06-4.44,10.61-8.65,12.03-8.96,3.03-19.17,3.25-27.98.44-5.81-1.86-8.64-7.9-12.53-11.77-.75-.74-1.61-2.41-2.76-2.6-6.67-1.11-10.38-7.31-9.33-13.89.34-2.1-.5-5.36-.43-7.24.82-22.53,1.19-46.55-13.47-63.93-2.81-3.33-6.18-8.08-8.55-11.8-6.05-9.48-11.28-19.61-14.31-30.85-7.7-28.53.52-58.1,21.08-78.34,1.78-1.75,4.72-4.14,6.77-5.63,17.93-13.04,40.24-17.6,62.1-14.01ZM1111.38,542.12c1.11-7.84,2.77-13.58,7-18.84,3.72-4.62,9.36-6.33,14.66-4.47,4.65,1.63,7.88,6.28,8.74,11.85,1.83,11.96-7.68,20.6-20.54,20.88l-4.67,73.02,14.29.1c1.38-40.81,29.24-46.33,36.53-83.47,6.34-32.33-9.88-63.73-39.3-76.7-29.18-12.86-64.12-3.83-82.76,22.69-14.16,20.14-15.75,45.44-6.24,67.95,12.08,28.59,30.6,33.65,32.1,69.48l13.86-.12-4.57-72.98c-10.99-.44-20.03-6.72-20.75-16.78-.5-7.01,2.57-13.67,8.69-15.84,5.43-1.93,12.31-.36,16.22,4.81,3.88,5.13,5.02,10.97,6.18,18.28l20.55.12ZM1071.08,529.11c-1.1,2.02-1.79,7.18.33,9.04,2.16,1.9,5.57,3.07,8.65,2.88.51-5.92-6.54-16.4-8.98-11.92ZM1129.14,528.47c-4.27.06-7.67,10.13-7.13,13.03,3.44-.77,5.83-1.57,7.66-2.76,3.38-2.21,1.95-10.3-.53-10.27ZM1106.46,624.29l4.68-72.25h-20.34s4.3,72.44,4.3,72.44c3.87.34,7.45.32,11.35-.19ZM1129.12,644.93l-.05-9.89-56.31-.23-.11,9.93,56.47.19ZM1128.73,664.4v-9.77s-56.4.08-56.4.08c-.1,3.54-.05,6.65.24,9.74l56.16-.05ZM1112.63,674.31l-26.7.12c1.91,6.86,7.7,7.3,13.86,7.21,5.81-.09,12.27.04,12.84-7.33ZM850.85,521.72l.93.42c.21.09.44,0,1.25-.63,2.71-.87,7.27-2.53,9.84-4.06l3.58-14.68c.39-1.62,2.82-3.75,4.42-3.75l26.07-.05c6.41-.01,5.24,11.78,8.96,17.72,1.71,2.73,8.69,5.79,11.77,5.08,7.17-1.65,13.65-11.32,19.17-6.16l17.55,16.4c7.59,7.09-4.41,12.81-6.15,20.93-.65,3.02,2.69,8.96,4.45,11.8l18.7,5.1c.92,11.74.9,21.65.13,33.33l-19.03,4.94-4.44,11.28c3.1,8.28,13.02,13.74,6.2,20.4l-15.68,15.31c-6.81,6.65-11.33-2.15-20.68-5.36l-11.39,5.04-4.8,18.84-32.98.11-5.58-17.59c-1.02-3.2-8.73-6.39-11.97-5.32-7.34,1.75-13.03,11.69-19.74,5.27l-15.87-15.21c-11.55-11.07,15.26-14.28.1-32.63l-17.62-5.07c-.54-11.65-.53-21.74.09-33.26l18.35-5.11,4.46-11.4c-3.81-9.17-14.14-13.29-6.11-21.07l16.72-16.21c5.09-4.93,9.44,1.16,19.31,5.59ZM893.91,663.77l3.9-16.37,20.95-9.1,14.32,7.98,12.3-12.47-8.78-13.53,9.06-20.91,16.54-3.9-.06-18.45c-5.92-1.15-12.17-1.83-16.77-3.98l-9.13-21.39,9.63-13.95-13.46-12.62-13.95,8.97-21.02-9.06-4.36-16.04-17.47.08-3.98,16.07-20.84,8.65-14.38-8.3-13.41,13.06,9.16,13.36-8.52,21.42-15.92,4.18-.11,18.16,15.98,4,9.07,21.01-8.59,13.9,12.98,12.62,14.01-8.56,20.83,8.9,4.07,16.4,17.97-.1ZM1197.12,430.2c2.36-2.51-.9-6.93-3.32-7.31-2.86-.45-4.94,1.31-7.31,3.77l-18.94,19.67c-2.19,2.28-3.4,5.81-2.06,8.04,1.59,2.65,5.71,3.44,8.25.74l23.39-24.91ZM1011.41,424.06c-1.54-1.6-5.28-1.6-6.78-.23-1.29,1.18-2.18,5.38-.82,6.81l22.48,23.58c2.04,2.14,5.07,3.21,7.41,1.82,2.25-1.34,3.2-5.5.99-7.79l-23.28-24.19ZM322.19,451.94c-2.15,1.58-2.63,5.32-1.19,8.18l9.73,19.29c1.38,2.74,5.24,3.81,7.87,2.97,9.72-3.11-4.14-24.18-7.7-29.32-1.81-2.62-6.26-2.92-8.72-1.12ZM1004.71,525.27c-.29-1.47-2.21-4.33-3.8-4.32l-33.75.15c-1.56,0-3.17,3.53-3.16,5.04s1.84,4.82,3.59,4.81l33.96-.14c1.89,0,3.44-4.08,3.15-5.55ZM1106.17,393.59c.01-2.74-2.47-5.13-4.83-5.3-1.59-.12-5.17,1.62-5.17,3.45l-.08,32.07c0,2.43,2.37,4.69,4.26,4.91,2.47.29,5.65-1.31,5.67-4.4l.15-30.74ZM1234.59,530.73c1.73-.02,3.09-3.88,2.74-5.32-.35-1.43-2.25-4.33-3.95-4.33l-31.83.08c-3.12,0-5.21,2.25-5.18,4.88s2.12,5.08,5.71,5.04l32.52-.36ZM643.32,231.13l-82.09,57.48c-2.18,1.52-5.65,1.09-6.82-.38-1.75-2.19-2.05-5.91.5-7.7l83.11-58.09c-1.73-7.88.75-14.84,6.17-19,5.88-4.51,13.65-4.79,19.92-1.17,6.31,3.65,9.53,10.7,8.39,19.07l73.29,49.25c8.17-5.19,16.37-4.18,23.96,1.07l126.29-77.69-7.67-1.63c-2.52-.54-4.87-1.67-5.4-3.95-.47-2.05,1.42-6.25,3.91-6.09l25.05,1.59c2.66.17,4.94,2.9,4.38,5.39l-4.82,21.36c-.67,2.99-3.22,4.98-6.11,4.58-2.72-.38-4.51-3.15-4.28-6.14l.49-6.41-127.57,78.3c.84,7.79-1.65,14.79-7.61,18.74-6.29,4.17-14.42,3.53-20.21-.77-6.3-4.68-8.3-11.77-6.54-20.2l-72.28-48.53c-7.26,6.26-15.81,6.3-24.07.91ZM652.12,210.47c-4.49,1.82-5.5,6.79-4.01,10.1,1.78,3.95,6.17,5.37,10.06,3.82,3.57-1.42,5.36-5.9,4.2-9.32-1.41-4.17-5.59-6.48-10.25-4.6ZM754.93,277.45c-4.81,1.03-6.52,5.68-5.45,9.6,1,3.67,5.06,6.08,8.62,5.28,4.38-.99,6.61-4.71,5.97-8.88-.58-3.75-4.28-7.04-9.14-6ZM923.81,319.37c.06-2.43-1.44-5.43-5.16-5.43l-379.95.04.02-127.73c0-3.57-2.96-5.61-5.96-5.2-2.59.35-4.13,2.74-4.13,6.01l-.05,131.63c0,3.16,2.39,5.43,5.85,5.43l383.26.04c3.89,0,6.06-1.63,6.13-4.79ZM645.67,371.23l-124.02.04c-.38,3.4-.38,6.58,0,10.01l124.03.08c.31-4.02.31-6.97,0-10.13ZM645.89,409.25l-124.2.05c-.49,3.35-.49,6.57-.07,9.95l124.29.05-.02-10.05ZM925.22,371.25l-124.27.04.13,10.01h124.16s-.02-10.06-.02-10.06ZM925.23,409.25l-124.22.05.12,9.98,124.12-.02-.03-10.02ZM645.67,352.18l-123.99.07c-.43,3.43-.44,6.55,0,9.94h123.99c.36-3.89.34-6.74-.01-10.01ZM925.26,352.23h-123.99c-.48,3.33-.46,6.55.34,9.95l123.62.02.04-9.96ZM645.63,390.28l-124.11.17c-.17,3.87-.14,6.44.14,9.87l124.18.08c.17-4.07.12-6.95-.2-10.12ZM925.2,390.3l-124.02.18c-.21,3.75-.22,6.67-.06,9.94l124.14-.13-.06-9.99ZM775.89,409.23l-105.19.08-.08,9.92,105.23.03.03-10.03ZM775.8,371.23l-105.1.03v10.11s105.12-.07,105.12-.07l-.02-10.06ZM775.83,352.12l-105.07.06-.03,9.8,104.88.2c.43-3.91.45-6.89.22-10.06ZM775.31,390.4l-104.66.09c-.11,3.77-.08,6.5.2,9.69l104.61-.03c.82-3.84.79-6.8-.15-9.75ZM546.11,140.7c1.3,2.62,5.27,4.51,8.44,3.15,3.43-1.47,4.91-5.25,3.77-8.69-1.08-3.25-4.9-5.85-8.91-4.16-4.05,1.71-5.09,6.07-3.29,9.7ZM575.21,139.85c1.44,3.25,5.04,4.85,8.19,3.9,3.71-1.12,5.26-5.05,4.11-8.8-.85-2.78-4.54-5.4-8.25-4.15-4.44,1.49-5.37,6.06-4.05,9.04ZM516.4,139.39c.89,3.16,4.15,5.39,8.13,4.49,3.12-.71,5.27-4.02,4.56-8.14-.46-2.67-3.86-5.81-7.8-4.98-4.6.97-5.93,4.94-4.89,8.62ZM901.04,623.96c-20.88,9.31-44.27-.62-53.66-20.38-9.24-19.44-1.61-43.95,18.21-54.08,21.13-10.79,45.66-1.69,55.88,19.07,9.98,20.27,1.54,45.59-20.43,55.39ZM894.37,615.69c17.51-5.97,25.24-24.72,18.85-40.84-6.23-15.71-24.03-24.26-40.4-17.63-15.79,6.39-23.12,24.1-17.26,39.81,5.58,14.96,22.28,24.29,38.82,18.66ZM227.74,636.4c-4.25,4.32-22.15-11.79-32.4-8.99-8.65,2.36-44.99,51.98-52.73,43.7l-6.36-66.19-59.89,3.12v-9.46l52.57-83.56c.07-9.9-43.85-41.87-36.79-52.01,2.11-3.03,60.8-20.39,69.38-25.32-5.72-15.48-16.71-34.77-20.67-50.31-.97-3.82-2.7-5.25,1.73-8.03,3.74-2.35,71.22,6.62,82,7.93,4.26-5.05-7.53-44.79-5.91-51.77.76-3.27,4.25-4.78,7.48-5.11,15.96-1.63,53.68,27.63,69.7,28.56,16.62.97,21.31-29.03,37.22-25.49,2.6.58,20.68,44.19,20.94,49.03.37,6.79-5.87,6.67-9.15,4.34-1.66-1.18-14.34-32.04-16.22-37.4-10.83,5.26-17.24,22.21-29.85,22.33-11.41.11-62.21-31.03-67.87-25.47-.18,10.81,12.28,45.65,3.23,52.26-3.2,2.34-68.63-7.25-78.93-8.12l18.75,51.65c-1.86,6.03-56.39,23-66.08,27.23,2.89,13.13,34.74,33.44,34.1,45.12-.59,10.73-53.71,78.14-49.87,80.94l53.19-2.69,6.77,59.48c10.34-4.32,35.83-39.13,43-40.5,4.12-.79,40.91,16.31,32.65,24.71ZM249.85,582.82c-.9-.94-19.96.32-26.07-.77-71.55-12.72-74.25-111.76,3.96-87.56-1.07-25.05-39.85-17.57-53.74-4.86-45.19,41.36,10.51,108.19,64.46,105.62,6.72-.32,17.18-6.41,11.39-12.43ZM193.05,513.44c-4.16,15.23,12.32,7.2,20.49,15.77,5.38,5.65,4.16,18,4.94,18.73.5.47,11.96.58,12.41.16,2.99-2.8-6.73-23.52-10.54-27.28-7.45-7.35-17.21-8.42-27.31-7.38Z"/>
</svg>