<svg viewBox="0 0 1030 508" fill="none" xmlns="http://www.w3.org/2000/svg">
<path d="M359.161 329.899C357.931 329.559 356.711 329.109 355.421 329.269C354.961 329.569 354.611 330.049 354.261 330.459C354.261 330.739 354.221 331.029 354.111 331.349C353.971 331.749 353.551 332.029 353.071 331.849C353.091 331.999 353.041 332.169 353.041 332.319C353.041 332.599 353.031 332.919 352.871 333.169C352.641 333.519 352.241 334.099 351.781 333.729C351.671 334.809 350.421 335.189 349.941 335.969C349.391 336.839 349.111 337.079 348.051 337.269C347.281 337.409 346.561 338.269 345.701 338.259C345.381 338.549 345.111 339.049 344.771 339.219C344.271 339.459 342.911 339.789 342.741 338.859C342.281 336.379 342.691 333.919 342.621 331.609L342.591 330.609L340.711 324.889C340.381 322.729 337.921 321.929 337.031 320.089C333.991 318.829 331.031 317.739 327.701 318.109C327.311 318.149 326.891 318.219 326.501 318.209C325.041 319.349 323.481 320.509 321.741 321.149C321.641 321.369 321.281 321.739 321.071 321.859C317.831 327.069 317.781 333.139 321.071 338.329L321.661 339.069C322.461 339.329 323.021 340.029 323.011 340.879C323.141 340.859 323.351 340.849 323.471 340.899C324.351 341.259 325.531 341.619 325.471 342.719C326.081 342.769 326.681 343.129 327.231 343.339C328.811 343.959 330.501 344.289 332.361 345.139C331.711 347.059 330.301 347.709 329.061 348.399C328.931 348.469 328.721 348.399 328.571 348.419C327.601 350.649 324.451 351.309 322.171 351.389L321.191 351.419C319.591 352.209 316.461 352.979 316.051 350.779C315.961 350.309 315.411 349.589 315.461 349.049C314.571 348.009 314.441 346.269 314.181 344.689C312.611 335.239 309.201 326.709 305.611 318.209C305.461 317.849 305.371 317.419 305.281 317.039C304.111 316.469 303.571 315.169 303.321 313.939C303.241 313.559 303.161 313.179 303.101 312.799C302.761 313.059 302.581 312.869 302.341 312.679C301.951 312.379 302.181 311.679 301.951 311.419C300.971 310.349 300.371 309.019 299.861 307.669C298.681 307.199 298.051 305.979 297.671 304.809C297.611 304.629 297.571 304.389 297.571 304.189C297.231 304.469 296.991 304.309 296.771 304.049C296.451 303.669 296.331 303.229 296.381 302.799C295.311 302.109 294.831 300.609 293.981 299.759C293.151 299.499 292.641 298.749 292.701 297.879C292.601 297.679 292.191 297.499 292.181 297.259C290.811 296.449 289.621 295.209 289.121 293.689C286.381 290.799 283.261 288.149 280.951 284.949C279.751 284.869 279.311 283.799 278.631 283.049C278.051 282.419 276.901 282.189 276.631 281.209C275.771 281.089 275.061 280.519 274.931 279.639C268.371 274.359 261.781 269.499 254.021 265.309C210.021 241.519 158.101 241.349 111.311 257.409C109.211 258.129 103.011 255.989 99.7412 258.949C98.6012 259.979 99.1512 262.019 98.2412 263.329C96.8612 265.179 93.9412 265.619 92.0012 266.929C89.5812 268.559 87.2212 269.909 84.1612 270.749C71.6612 260.649 50.1612 254.619 35.0112 259.179C32.9712 259.789 31.6512 261.089 31.0012 262.729C30.3812 264.279 30.6212 266.549 31.8612 268.079C41.3012 279.639 43.5112 288.679 46.3712 303.569C37.9412 315.309 31.7912 328.249 28.0612 342.309C27.2312 345.449 18.3612 340.869 9.82121 350.099C-4.39879 365.479 -2.67879 396.579 11.7612 410.279C14.9212 413.279 19.1812 415.279 23.3612 415.559L35.9012 416.399C39.9012 423.999 45.0812 430.259 50.8412 436.539C56.2012 442.389 62.3812 446.939 68.3912 451.689C69.3712 451.819 70.2112 452.399 70.6212 453.299C70.8212 453.259 71.0512 453.429 71.2512 453.419C71.5412 453.419 71.8712 453.419 72.2012 453.559C72.5512 453.719 73.0612 454.199 72.6812 454.659C73.1312 454.609 73.4312 455.249 73.7812 455.299C75.7812 455.599 75.5812 464.189 75.6812 465.809L75.7512 466.859C76.3012 466.729 76.2212 467.479 76.2712 467.869C76.3112 468.159 76.3912 468.849 75.8412 468.799C76.0712 469.539 76.0612 470.459 76.0712 471.219C77.7112 473.109 77.5012 476.079 77.4112 478.519C77.3912 478.959 77.5812 479.489 77.4812 479.909L79.9312 487.159C81.1912 487.859 81.9612 489.589 83.5912 489.709C90.1812 491.089 96.8212 492.249 103.951 492.769C105.031 494.979 105.171 497.059 105.841 498.999C105.961 499.349 106.141 499.749 106.181 500.119C110.301 502.939 108.581 503.819 114.881 504.709C121.531 505.649 128.081 505.489 134.231 506.959C134.731 506.839 135.321 507.009 135.841 506.999L143.851 506.829L148.821 505.179C149.181 504.649 149.681 504.209 150.071 503.699C150.891 502.229 151.471 500.509 152.761 499.409C152.831 498.699 153.061 497.899 153.231 497.209C154.461 492.319 155.901 487.539 157.541 482.359L173.091 482.599L189.641 482.359L192.531 488.949C192.651 489.489 193.491 489.929 193.761 490.309C203.751 494.449 207.651 491.929 217.581 492.359C219.541 495.749 222.301 497.839 225.711 498.979C227.481 498.759 229.361 499.099 231.141 499.029C238.021 498.749 244.951 499.009 252.121 499.269C256.201 499.419 259.821 499.109 263.161 497.219C263.331 496.979 263.701 496.509 263.971 496.409L265.991 491.699C267.091 489.129 266.301 486.019 267.511 483.639C267.401 483.209 267.571 482.689 267.551 482.249C267.421 479.819 267.661 477.249 268.761 475.059C268.701 474.589 268.891 474.079 268.801 473.629C268.391 471.599 269.291 469.659 269.921 467.469C270.421 465.729 269.921 463.689 271.291 462.659C271.201 462.319 271.271 461.819 271.311 461.469C271.601 458.539 273.011 449.569 275.501 447.939C275.731 447.789 275.901 447.529 276.111 447.359C276.381 446.519 277.101 445.949 277.991 446.009C278.351 445.519 278.921 445.149 279.321 444.689C280.331 443.549 281.281 442.169 282.831 441.859C283.151 441.339 283.571 440.889 284.101 440.579C284.381 439.789 285.031 439.159 285.901 439.189C286.731 437.419 288.371 436.259 289.681 434.849C289.431 434.619 295.321 427.459 295.531 428.249C295.661 427.699 296.321 427.399 296.541 426.929C297.581 424.659 298.921 422.219 300.971 420.779C301.051 420.359 301.281 419.959 301.401 419.549C301.561 419.029 304.351 412.899 305.341 413.469C305.431 413.039 305.561 412.569 305.731 412.169C309.161 404.299 312.591 396.479 314.171 387.649C314.461 386.049 314.331 384.439 315.431 383.449C315.431 382.789 315.751 382.059 315.661 381.399C315.401 379.669 316.001 377.889 316.021 375.909L316.261 357.669C321.481 357.869 325.881 356.689 330.301 355.049C330.641 354.919 331.051 354.929 331.371 354.769C331.591 353.469 333.161 353.239 334.231 352.409C335.241 351.629 335.711 350.309 336.881 350.189C337.051 349.899 337.341 349.639 337.591 349.409C337.991 347.569 339.221 345.879 341.261 345.829L342.401 345.809C345.841 345.029 349.001 343.609 352.241 342.209C352.421 342.129 352.681 342.089 352.871 342.079C352.681 341.769 352.771 341.489 352.991 341.269C353.341 340.929 353.791 340.809 354.221 340.869C354.671 340.149 355.351 339.369 356.141 339.009C356.341 337.839 357.241 336.979 358.351 336.629C358.381 336.439 358.461 336.249 358.481 336.059C358.511 335.779 358.531 335.489 358.651 335.169C358.791 334.769 359.211 334.469 359.691 334.679C359.661 334.529 359.711 334.359 359.711 334.209V330.489C359.501 330.319 359.311 330.129 359.151 329.929L359.161 329.899ZM106.521 269.509C106.391 268.709 108.161 268.779 108.791 269.109C118.241 276.549 124.881 287.979 124.191 300.919C118.081 296.549 113.311 292.739 106.821 290.889C103.011 289.809 108.741 283.219 106.521 269.509ZM78.5012 274.339C76.9712 276.049 69.2512 280.739 68.6912 280.769C67.5412 280.839 67.0112 280.079 66.2412 279.079C59.9612 270.939 54.7512 269.349 45.7612 263.719C57.6412 262.989 68.8512 267.659 78.5112 274.339H78.5012ZM40.9512 270.039C43.2012 268.819 44.9512 270.439 46.7812 271.359C53.3512 274.409 59.2212 278.409 63.3112 285.329L51.5712 296.749C48.9412 287.059 46.6412 278.289 40.9512 270.029V270.039ZM33.5712 404.999C28.6912 410.199 21.3912 410.929 16.0812 405.719C-1.24879 388.689 6.97122 350.029 22.8412 350.259C27.0512 350.319 30.9112 353.509 33.4612 356.699C43.8612 369.699 44.5912 393.269 33.5712 404.999ZM87.5912 484.579C85.0212 484.239 83.9312 482.299 83.6612 479.899L81.3912 459.899C87.1512 463.199 92.0512 465.659 97.7312 467.879C99.2912 471.379 99.9812 475.109 100.751 478.839C101.611 481.199 101.971 483.299 102.241 486.569C97.0912 486.449 92.4912 485.229 87.5912 484.569V484.579ZM196.371 481.849L212.201 478.529C213.911 480.909 214.981 483.139 215.401 486.499C210.341 486.139 194.781 489.109 196.371 481.859V481.849ZM292.431 421.679C287.231 428.779 281.711 435.069 274.721 440.369C270.451 443.609 268.131 447.349 266.841 452.769L265.201 459.679L260.331 487.869C260.071 489.379 260.481 490.659 259.401 491.689C258.521 492.529 257.511 493.019 255.861 493.009L227.591 492.829C225.791 492.819 224.071 491.649 223.461 489.969L217.731 474.179C217.191 472.689 215.921 471.419 214.011 471.909C204.071 474.449 194.221 475.719 183.961 476.539C174.591 477.289 165.571 476.859 156.251 475.539C154.791 475.329 153.121 476.059 152.721 477.439C150.761 484.279 149.061 491.009 146.491 497.699C145.501 500.269 142.281 501.139 139.621 500.889L115.611 498.639C112.861 498.379 111.071 496.559 110.551 494.019C108.571 484.279 106.281 474.889 103.641 465.369C103.131 463.529 101.811 462.879 100.191 462.199C84.7812 455.779 68.9312 445.739 57.2512 433.689C52.1312 428.409 46.8512 423.379 43.2712 416.359C49.7012 415.279 56.0112 417.129 62.1712 413.549C63.8512 412.569 64.4612 410.719 63.6012 409.379C62.4312 407.559 61.0412 407.979 59.1512 408.489C52.2812 410.349 45.2212 410.669 37.5912 409.939C50.3612 397.179 49.7412 369.239 41.6112 357.889L36.2512 350.409L51.9312 349.289C53.5912 349.169 54.7812 347.879 54.9212 346.699C55.7812 339.609 40.6812 345.469 34.5712 343.569C38.4912 323.099 53.5912 299.929 70.3712 287.659C75.4712 283.929 80.3012 280.659 85.7812 277.709C90.3812 275.239 94.5012 272.369 99.8112 270.419C101.471 277.909 100.571 284.969 97.9212 291.709C95.9812 296.639 108.931 295.609 117.341 303.559L125.831 311.589C127.341 313.019 130.061 310.899 130.321 308.949C132.701 291.699 128.131 279.179 115.081 265.969C122.051 265.589 128.431 269.339 133.571 273.799C139.851 279.249 143.351 287.119 144.521 295.429C145.701 303.779 143.081 313.999 146.921 315.429C147.971 315.819 149.981 314.989 150.271 313.499C154.591 290.869 146.901 269.339 123.651 260.649C130.441 257.749 136.811 257.329 143.301 255.869C153.491 253.569 163.551 252.899 174.041 252.689C186.691 252.439 198.481 253.329 210.791 256.059C232.581 260.889 252.961 269.819 270.181 283.979C272.921 286.239 275.131 288.459 277.621 290.829C296.221 308.599 307.111 330.159 309.681 355.919C312.101 380.069 306.801 402.029 292.411 421.649L292.431 421.679ZM335.881 339.599C332.481 339.339 329.571 338.049 327.211 335.959C323.701 332.839 323.811 326.909 327.791 324.309C330.211 322.729 333.231 324.349 334.701 326.709C336.951 330.339 336.791 334.859 335.881 339.609V339.599ZM152.511 230.999C169.221 245.959 194.301 245.749 210.911 231.599C225.131 219.479 230.721 201.139 224.981 183.519C226.131 181.139 228.431 180.359 230.461 178.909L258.451 159.039L265.821 154.039C285.091 140.959 298.801 140.179 312.391 129.359C314.101 127.999 315.961 126.739 317.341 125.109L327.491 113.159C329.221 111.129 330.731 109.269 333.531 108.589C337.511 107.619 341.251 105.879 345.511 105.299C345.691 109.129 346.401 112.319 348.711 114.469C350.831 116.439 354.161 117.419 357.311 116.919L371.671 114.639L396.271 110.429C399.441 109.889 402.811 109.879 405.591 108.059C407.821 106.599 408.351 103.009 407.841 100.209L394.431 25.8991L391.561 8.3491C390.671 2.8891 386.171 -0.880897 380.351 0.219103L336.551 8.5291C330.991 9.5891 329.041 15.4991 330.561 20.8191C322.751 22.2791 315.321 23.3091 307.511 23.8391L276.341 25.9491L255.721 27.3191C250.411 27.6691 245.251 27.6291 239.851 28.1491C234.801 28.6291 230.011 29.1191 224.941 29.1591C214.051 29.2391 201.811 31.2491 195.571 41.5091L181.651 64.3891C179.481 67.9591 163.591 79.1291 163.441 84.6691L163.181 94.3991C163.121 96.4491 157.131 102.689 157.411 109.619L158.391 133.789C158.641 140.019 159.841 145.849 159.541 152.219C159.471 153.639 160.941 156.119 159.671 157.459C144.961 166.629 136.341 182.709 137.521 200.349C138.361 212.899 143.441 222.879 152.521 231.009L152.511 230.999ZM339.471 14.2391L382.461 6.4991C384.201 6.1891 384.801 8.2891 385.021 9.5691L389.181 33.5591C389.531 35.5591 389.871 37.3091 390.231 39.2791L397.371 78.9491L401.731 102.809L356.781 110.579C354.641 110.949 352.511 110.109 352.151 107.969L346.171 72.1791L336.841 18.1991C336.491 16.1491 337.541 14.5891 339.481 14.2391H339.471ZM174.591 88.7791C179.511 80.9791 183.951 73.3291 188.661 65.3991L200.121 46.0891C203.501 40.3991 208.951 36.6391 215.701 36.1791L253.631 33.6291L265.021 33.1991L271.861 32.6791C275.411 32.4091 278.701 32.0891 282.301 32.1291C286.331 32.1691 290.151 31.3591 294.171 31.1491C306.841 30.5091 319.181 29.4191 331.731 27.2791L335.751 49.0291L343.861 96.2291C344.001 97.0491 343.971 97.6191 343.731 98.2391C343.211 99.5991 332.131 101.459 327.271 104.449C319.601 109.179 316.871 120.539 300.541 129.309C293.761 132.949 286.791 135.509 279.721 138.639C269.621 143.119 260.961 149.329 251.971 155.689L222.081 176.839C218.341 179.479 213.881 182.799 209.161 182.649C201.731 182.409 197.591 174.429 198.631 167.549C199.381 162.599 202.361 158.989 206.161 155.889L232.821 134.109C237.491 130.289 240.531 125.849 242.431 120.229C243.901 115.899 246.101 111.529 245.681 106.809C245.151 100.969 241.441 96.5091 237.201 92.7191C232.271 88.2991 227.171 84.4091 221.931 80.4091C220.141 79.0391 218.261 78.5991 216.881 80.2591C213.391 84.4691 221.651 86.3491 220.941 88.7691C217.881 90.7991 215.221 93.0091 212.411 95.5291L195.651 110.489C193.161 112.709 189.691 115.089 188.281 118.039C186.791 121.149 188.311 125.109 187.501 128.449C186.451 132.779 187.621 137.229 186.961 141.619C186.491 144.749 186.581 147.659 186.481 151.059C180.131 150.749 174.271 151.339 168.471 153.429C167.791 153.679 167.001 153.449 166.621 153.159C166.311 152.919 166.001 152.249 166.021 151.509C166.121 147.759 165.571 144.239 165.301 140.489L164.641 131.229L163.931 117.789C163.141 102.969 165.081 103.889 174.611 88.7791H174.591ZM193.521 136.319L212.121 142.469L199.231 153.989C196.991 153.629 194.821 153.209 193.041 152.179C191.971 151.559 192.701 149.269 192.861 148.249C193.491 144.209 192.501 140.519 193.521 136.319ZM230.441 100.329C226.701 105.249 222.931 109.819 218.661 114.349C217.441 115.649 219.491 117.919 221.001 118.029C225.771 118.399 230.301 119.049 234.571 121.329C233.641 126.569 222.581 134.309 218.351 137.709L204.031 133.309L193.841 129.899C193.551 126.799 193.711 123.999 193.841 120.939C197.891 116.589 202.031 112.779 206.461 108.849L225.071 92.3391C226.651 92.3791 231.631 96.3791 231.901 97.2091C232.351 98.5491 231.221 99.2991 230.451 100.329H230.441ZM236.711 102.429C240.371 108.199 240.581 112.079 235.901 116.779C233.531 117.729 230.661 115.319 228.571 113.969C230.261 109.429 233.431 106.249 236.711 102.429ZM192.361 222.889C186.431 225.439 179.281 225.439 172.971 223.279C160.751 219.089 153.681 207.069 154.601 194.579C155.521 181.999 164.581 171.439 177.201 168.799C182.551 167.679 187.741 167.789 192.411 170.629C192.771 180.209 199.261 188.189 208.931 189.369C212.651 203.199 205.681 217.159 192.371 222.889H192.361ZM167.311 160.349C176.301 156.469 185.831 155.729 194.931 159.009C195.101 160.959 194.001 162.269 192.901 163.879C176.701 159.089 160.061 166.449 152.401 181.539C142.681 200.699 153.201 224.309 174.081 229.669C199.431 236.179 217.191 211.349 215.891 197.739L214.991 188.349C214.861 186.969 217.961 186.049 219.441 186.019C224.421 203.689 217.301 221.599 201.561 230.669C195.361 234.249 188.131 236.419 181.031 236.159C160.631 235.419 144.991 220.029 143.611 199.769C142.481 183.099 151.941 166.979 167.311 160.339V160.349ZM236.261 271.319C235.111 273.469 233.401 273.379 231.251 272.569C206.061 263.109 174.471 263.639 148.631 272.589C146.151 271.209 143.901 269.029 142.691 265.799C153.251 263.119 163.461 260.549 174.171 259.629C194.091 257.899 215.731 259.169 234.221 266.659C236.461 267.569 237.151 269.639 236.251 271.319H236.261ZM85.9112 330.199C88.5912 333.189 88.3812 338.179 85.8012 341.399C83.9812 343.669 81.7712 344.329 79.1912 343.899C77.3612 343.599 75.3612 341.899 74.7012 339.609C73.6612 336.009 74.8112 332.799 77.4112 330.289C79.7112 328.069 83.4812 327.499 85.9112 330.199ZM51.1012 323.649C54.4312 326.559 53.5212 332.469 50.0112 335.089C47.9612 336.619 45.7012 336.489 44.0812 335.459C40.5212 333.199 41.0812 327.229 44.6812 324.179C46.2312 322.859 49.3012 322.079 51.1012 323.649ZM18.3212 371.759L18.4812 384.329C18.5112 386.379 17.2312 387.989 15.7412 388.069C10.4712 388.359 11.7512 376.699 12.0212 371.869C12.1312 369.959 13.5212 368.599 15.1212 368.609C16.5812 368.609 18.2812 369.879 18.3112 371.759H18.3212ZM35.0512 384.289C35.0612 386.449 34.2612 387.769 32.8212 388.149C31.3812 388.529 29.4312 388.179 29.1012 386.299C28.2712 381.539 28.2412 376.679 28.7812 371.989C28.9612 370.449 30.7512 369.379 31.7812 369.319C33.2812 369.219 34.9712 370.529 34.9812 372.279L35.0512 384.289ZM368.351 91.6291C368.131 88.7391 369.861 86.4791 372.661 85.1491C374.961 84.0691 377.421 84.8991 379.101 86.4791C380.941 88.2091 381.201 91.1591 380.091 93.5091C379.101 95.6091 376.721 97.1691 373.571 96.8791C370.261 96.5791 368.541 94.1191 368.351 91.6291ZM1029.77 204.469L1029.58 65.7191C1029.58 64.0591 1028.82 62.3791 1026.89 62.3791L818.991 62.4391C817.421 62.4391 814.181 62.0691 814.181 64.2991L814.041 144.579L814.091 191.069L814.061 265.599L814.121 296.099C814.121 298.049 814.931 299.679 817.791 299.679L1026.43 299.649C1028.49 299.649 1029.92 298.419 1029.91 296.509L1029.78 204.469H1029.77ZM987.851 170.289L987.811 135.379L1023.73 135.349L1023.77 170.119L987.851 170.289ZM1023.77 211.179L987.951 211.289L987.791 176.519L1023.74 176.439L1023.78 211.179H1023.77ZM1023.68 68.4091L1023.76 97.3891L820.081 97.4491L820.031 68.4391L1023.68 68.4091ZM939.801 129.369L904.111 129.449L904.071 103.299H939.791L939.801 129.369ZM862.031 135.339L897.811 135.329L898.001 170.019L862.031 170.279V135.339ZM897.991 210.969L862.071 211.299L862.041 176.439L897.881 176.359L897.991 210.969ZM855.721 103.279V129.389L820.061 129.449V103.309L855.721 103.279ZM855.771 135.319L855.951 170.019L820.151 170.359L819.981 135.319H855.771ZM855.801 176.409L855.931 210.999L820.061 211.329L819.991 176.439L855.801 176.409ZM855.931 252.369L820.081 252.709L820.031 217.169H855.761L855.941 252.369H855.931ZM820.141 293.859L820.031 258.619L855.861 258.649L855.961 293.709L820.151 293.859H820.141ZM862.081 293.889L862.011 258.619L897.941 258.579L897.981 293.639L862.081 293.889ZM862.081 252.699L862.041 217.149L898.001 217.279V252.379L862.081 252.709V252.699ZM862.201 129.519L862.031 103.319L897.801 103.299L898.021 129.279L862.201 129.519ZM939.701 135.349L939.771 170.069L904.201 170.299L904.021 135.309L939.701 135.349ZM904.101 293.859L904.031 258.619L939.751 258.529L939.781 293.769L904.101 293.849V293.859ZM904.041 217.139H939.751L939.771 252.589L904.061 252.679L904.041 217.139ZM904.071 211.299L904.051 176.409L939.721 176.459L939.801 210.999L904.071 211.299ZM945.831 103.419L981.691 103.269L981.731 129.369L945.851 129.329L945.831 103.419ZM981.681 135.329L981.751 170.039L946.211 170.329L946.001 135.289L981.681 135.329ZM981.741 211.189L946.031 211.269L946.051 176.389L981.701 176.409L981.731 211.199L981.741 211.189ZM946.011 217.159L981.711 217.179L981.751 252.599L946.051 252.699L946.011 217.159ZM946.101 293.859L946.061 258.529H981.671L981.771 293.619L946.101 293.859ZM1023.72 103.289L1023.66 129.469L987.791 129.359L987.571 103.269L1023.73 103.289H1023.72ZM988.021 293.839L987.751 258.619L1023.72 258.539L1023.75 293.789L988.021 293.829V293.839ZM988.171 252.709C987.511 248.889 987.941 245.439 988.011 241.729L987.871 217.209L1023.73 217.179L1023.78 252.579L988.171 252.709ZM671.331 218.069C686.221 223.609 702.651 223.879 717.831 218.089C721.661 216.629 726.371 213.099 726.371 208.989L726.281 107.089C726.281 102.549 720.601 99.1691 716.831 97.6891C702.271 91.9791 685.921 92.1991 671.341 97.8991C667.751 99.2991 662.231 102.829 662.231 107.099L662.341 209.569C662.341 213.449 668.211 216.909 671.331 218.069ZM720.521 209.309C718.481 211.419 716.301 212.809 713.611 213.679C701.661 217.559 688.841 217.729 676.751 214.029C673.701 213.099 670.431 211.699 668.571 209.239C667.081 207.269 667.961 204.399 668.101 202.059C681.681 209.539 705.841 209.809 720.291 202.459C721.091 204.619 720.731 206.669 720.511 209.309H720.521ZM720.071 195.249C710.981 204.419 677.611 204.779 668.471 194.859C667.071 193.339 668.011 190.319 668.191 187.979C682.421 195.309 706.351 195.249 720.501 188.099C720.371 190.169 721.721 193.579 720.071 195.249ZM668.301 173.459C681.811 180.639 706.951 180.969 720.361 173.599C720.751 175.799 721.311 178.359 720.331 180.639C719.591 182.349 717.071 183.419 715.231 184.139C701.711 189.449 686.981 189.369 673.471 184.029C671.651 183.309 669.221 182.159 668.381 180.539C667.261 178.379 667.791 175.739 668.301 173.469V173.459ZM674.451 102.649C687.091 98.2791 700.991 98.1791 713.701 102.319C716.261 103.159 720.011 105.019 720.281 107.669C720.491 109.769 717.141 111.709 714.901 112.459C701.521 116.919 687.261 116.889 674.251 112.359C672.171 111.629 668.601 109.969 668.591 107.679C668.591 105.189 672.201 103.419 674.441 102.639L674.451 102.649ZM668.071 115.699C681.761 123.099 706.541 123.109 720.401 116.149C720.701 118.319 721.231 120.259 720.401 122.549C719.661 124.569 716.721 125.679 714.721 126.399C701.991 130.949 688.311 131.239 675.461 126.969C672.911 126.119 669.731 124.759 668.361 122.639C667.081 120.649 668.071 117.989 668.081 115.699H668.071ZM668.081 130.069C682.301 137.269 705.181 137.449 720.231 130.289C721.031 132.459 720.781 134.709 720.461 137.539C709.761 146.869 675.611 146.329 668.371 137.019C667.041 135.309 668.031 132.459 668.081 130.059V130.069ZM668.081 144.459C682.281 151.629 706.471 151.739 720.511 144.609C720.381 146.739 721.741 150.059 720.181 151.829C716.891 155.559 711.531 156.619 706.951 157.589C696.691 159.769 686.461 159.469 676.481 156.279C673.591 155.349 670.031 154.029 668.351 151.599C667.041 149.699 667.991 146.909 668.071 144.469L668.081 144.459ZM668.141 159.119C684.911 166.409 703.791 166.309 720.501 159.269C720.561 161.519 721.371 164.039 720.331 166.169C719.311 168.279 716.351 169.569 713.681 170.449C701.351 174.509 688.611 174.469 676.481 170.799C673.551 169.919 670.041 168.469 668.371 166.099C667.051 164.219 667.941 161.349 668.131 159.119H668.141ZM746.321 376.329L749.391 367.709C749.941 366.169 748.141 364.769 747.161 364.219C743.151 361.969 739.291 367.209 738.611 367.429L721.081 373.309C717.381 374.549 721.401 381.189 710.451 386.429C707.081 374.409 708.431 364.489 693.671 360.099C700.141 359.409 705.211 357.149 708.251 352.619C711.471 347.819 712.091 341.949 709.961 336.589C706.881 328.839 699.111 324.479 691.021 326.019C683.661 327.419 678.001 333.859 677.621 341.929C677.191 351.089 683.671 358.529 692.671 359.489C688.051 360.599 683.901 359.359 679.931 361.909C675.731 364.599 672.641 369.569 672.031 375.049C670.141 392.009 668.731 409.149 670.541 426.319C671.941 439.609 675.001 452.189 673.741 465.709L670.831 496.769C670.331 502.129 673.761 506.199 678.911 506.819C682.811 507.289 686.641 505.419 687.661 501.349C690.941 488.279 693.371 475.319 695.781 461.979C698.081 465.779 697.511 469.689 697.651 473.659L698.511 498.159C698.711 503.729 702.641 507.039 707.461 507.019C712.851 506.999 715.651 503.159 716.031 497.689L718.191 466.379C718.781 457.869 711.901 437.449 710.881 426.799C710.191 419.689 710.831 413.179 710.801 406.469L722.351 399.829C724.121 398.809 731.941 402.449 735.541 399.339L748.421 388.209C752.171 384.969 749.931 378.989 746.331 376.329H746.321ZM738.101 373.789C737.191 375.419 735.261 375.819 733.241 375.679C733.871 373.979 735.471 373.059 738.101 373.789ZM725.921 377.649C726.181 376.769 729.111 375.199 729.431 376.389C729.811 377.759 728.141 378.419 727.021 378.719C726.281 378.919 725.681 378.439 725.911 377.649H725.921ZM687.331 351.629C682.861 348.189 681.751 341.479 685.061 336.339C688.581 330.889 695.981 329.899 701.041 333.649C705.981 337.319 707.371 344.899 702.881 350.299C698.821 355.179 691.921 355.159 687.331 351.629ZM710.091 400.589C707.761 401.969 705.751 400.889 704.211 398.869L687.951 377.449C687.191 376.449 685.201 377.049 684.621 377.579C683.931 378.219 683.311 380.149 684.211 381.349L698.411 400.369C700.311 402.919 702.351 405.069 705.021 406.899C704.971 413.139 704.671 418.969 704.971 425.079C705.451 435.149 712.431 456.119 712.481 464.939C712.551 476.159 710.851 486.929 710.361 498.029C710.281 499.739 709.251 501.029 708.081 501.209C706.691 501.429 704.331 500.839 704.261 498.909L703.481 477.279C703.191 469.239 702.281 461.889 699.211 454.499L689.091 430.159C688.481 428.699 686.841 428.199 685.931 428.439C684.301 428.869 683.221 430.429 683.941 432.199L690.951 449.319C690.761 460.119 688.761 470.529 686.381 481.149C685.021 487.199 684.101 493.019 682.441 498.929C681.971 500.589 680.581 501.379 679.131 501.189C677.711 501.009 676.271 499.599 676.461 497.579L679.341 467.159C680.661 453.249 678.001 440.149 676.271 426.459C674.851 415.239 675.321 382.979 678.581 372.149C680.081 367.169 684.071 365.459 688.901 365.479C695.301 365.499 701.291 368.909 701.901 375.839C699.561 374.739 697.131 368.949 693.941 371.029C693.111 371.569 692.801 373.129 693.541 374.149L706.691 392.059C707.561 393.239 708.991 393.469 710.251 392.849L732.231 382.119C732.751 381.859 733.701 381.839 734.081 381.729C734.411 381.639 735.101 382.509 734.851 382.899C732.031 387.489 715.561 397.359 710.091 400.589ZM733.181 394.189C732.441 394.959 730.591 394.279 730.991 393.899C734.541 390.519 741.601 386.689 742.051 380.899C743.721 380.559 744.261 381.759 744.581 382.859C745.291 385.299 737.861 389.289 733.181 394.189ZM1018.38 363.149C1014.25 359.719 1009.28 360.469 1003.97 359.529C1009.77 358.719 1014.51 355.349 1016.77 350.769C1019.55 345.159 1019.26 339.269 1016.2 333.979C1011.84 326.429 1002.79 323.969 995.181 327.319C987.391 330.739 983.311 339.039 985.591 347.599C987.601 355.179 994.781 359.729 1003.68 360.079C989.691 362.759 988.251 373.999 986.281 386.569C975.431 382.049 979.451 379.769 976.321 374.519C974.091 370.769 962.691 371.139 956.701 366.669C954.941 365.359 953.691 364.009 951.521 364.109C950.001 364.179 947.751 364.519 947.261 366.749C946.561 369.919 948.891 372.749 949.871 376.099C946.501 378.499 943.861 384.409 947.371 387.779L959.101 399.039C963.091 402.869 971.311 399.069 973.521 399.839C977.871 401.369 981.251 403.959 985.541 406.229C985.781 413.929 986.871 421.609 985.181 429.349L978.311 460.729C977.021 466.629 978.151 472.589 978.661 479.009L980.321 499.659C980.691 504.309 984.381 507.149 988.921 507.009C993.401 506.869 996.921 504.189 997.481 499.649C999.081 486.639 997.081 473.779 1000.32 462.259C1002 466.439 1001.75 470.269 1002.66 474.289L1008.67 501.029C1009.69 505.589 1013.98 507.639 1018.39 506.689C1022.54 505.799 1025.9 502.629 1025.47 498.059L1022.38 464.929C1021.02 450.309 1026.38 429.749 1026.47 420.679C1026.62 405.759 1026.29 391.209 1024.57 376.449C1023.97 371.339 1022.16 366.279 1018.35 363.119L1018.38 363.149ZM990.971 345.919C989.421 340.369 992.351 333.679 999.031 331.909C1005.58 330.169 1011.27 334.179 1012.72 339.939C1014.28 346.179 1010.82 352.259 1004.41 353.769C998.721 355.109 992.701 352.089 990.971 345.909V345.919ZM971.071 378.429C969.251 379.779 966.361 378.159 964.711 376.299C966.831 375.689 968.891 375.819 971.071 378.429ZM956.891 372.509C957.821 372.409 959.171 373.239 959.621 374.459C959.951 375.349 957.731 375.369 957.131 374.669C956.701 374.169 956.041 372.599 956.891 372.509ZM962.141 393.849C958.951 389.879 951.511 386.289 951.491 382.819C951.491 381.769 953.951 380.039 954.291 381.039C956.321 387.119 960.521 391.169 966.321 394.249C964.861 395.569 963.301 394.849 962.151 393.839L962.141 393.849ZM1020.26 425.519C1019.01 438.099 1015.46 450.049 1016.68 462.809L1020.01 497.519C1020.21 499.639 1019.01 500.869 1017.5 501.209C1015.43 501.679 1014.05 500.329 1013.59 498.129L1008.66 474.999C1006.92 466.819 1004.62 458.159 1005.84 449.819C1007.05 441.639 1016.48 430.519 1011.51 428.709C1010.48 428.329 1008.54 428.339 1007.97 429.629C1004.24 437.989 994.311 459.989 993.511 467.999C992.531 477.869 992.721 487.509 992.281 497.409C992.211 499.079 991.571 500.599 990.471 501.009C989.251 501.469 986.211 501.649 986.061 499.649C985.221 488.419 983.451 477.679 983.501 466.009C983.531 458.609 986.091 451.729 987.741 444.819C990.751 432.199 992.871 420.119 990.881 407.169C992.441 405.709 994.261 405.419 995.341 403.969L1012.41 381.139C1013.38 379.839 1012.81 378.059 1011.68 377.289C1010.59 376.539 1008.91 376.579 1007.79 378.079L991.701 399.639C987.651 405.069 962.751 384.719 962.691 384.659L961.531 383.389C961.181 382.999 962.051 381.559 962.721 381.819C970.811 384.959 977.991 388.959 985.721 392.739C986.581 393.159 988.391 393.959 989.131 392.969L1002.21 375.399C1003.2 374.069 1002.95 372.439 1001.52 371.509C1000.56 370.889 998.931 370.879 997.781 372.369L993.921 377.359C994.491 369.119 1000.85 364.769 1008.44 365.449C1012.6 365.819 1015.93 366.959 1017.5 371.249C1020.94 380.699 1021.3 414.749 1020.23 425.519H1020.26ZM615.541 375.859C616.321 372.479 619.091 369.779 618.291 366.649C617.541 363.699 614.171 363.909 612.281 363.839C609.431 363.739 609.211 367.149 607.081 367.839L590.611 373.209C586.221 374.639 591.131 381.729 580.001 386.289C577.851 381.629 578.181 376.889 576.561 372.299C574.131 365.439 569.091 361.049 561.791 360.099C568.121 359.429 573.081 358.329 576.711 353.779C580.041 349.609 581.531 344.019 579.971 338.379C577.641 329.959 569.611 324.739 561.161 325.909C552.911 327.059 546.931 334.279 546.871 342.799C546.811 351.249 552.841 358.059 561.631 359.519C556.741 360.589 552.421 359.409 548.541 362.369C544.471 365.479 541.751 370.539 541.181 376.039C539.431 392.969 538.241 409.969 540.101 427.029C541.551 440.349 544.501 452.919 543.211 466.429L540.171 498.279C539.771 502.459 543.031 505.489 546.371 506.439C549.341 507.289 554.871 506.999 556.061 503.149C560.281 489.449 562.451 475.689 565.211 461.069C567.421 466.909 566.951 473.129 567.221 479.429L568.081 499.659C568.281 504.259 572.341 506.919 576.251 506.999C580.181 507.079 584.451 505.089 584.841 500.719L586.951 476.549C588.981 453.309 583.631 449.579 580.431 428.579C579.291 421.059 580.231 414.109 580.221 406.129C585.361 404.529 588.551 400.379 593.331 399.599C596.701 399.049 601.531 402.549 604.831 399.639L617.911 388.099C621.781 384.679 619.041 378.549 615.561 375.859H615.541ZM603.481 374.819C600.741 378.099 597.141 377.729 594.201 379.369C591.491 377.109 604.801 374.319 603.481 374.819ZM552.691 344.949C551.681 338.939 554.951 332.859 561.341 331.719C567.651 330.599 573.251 334.379 574.661 340.369C575.991 345.979 572.771 352.589 565.991 353.849C559.331 355.099 553.651 350.689 552.691 344.939V344.949ZM579.051 400.799C577.521 401.709 575.421 401.019 574.411 399.689L558.131 378.329C557.181 377.079 555.821 376.879 554.571 377.339C553.361 377.779 552.691 379.999 553.681 381.409C559.271 389.339 565.111 396.769 571.161 404.389C571.921 405.349 573.981 405.749 574.261 406.979C574.801 414.389 573.191 421.719 574.781 429.009L580.711 456.089C581.891 461.479 582.151 466.249 581.701 471.469L579.271 499.639C579.111 501.489 576.771 501.339 575.501 501.199C574.221 501.059 573.351 499.559 573.301 497.849L572.631 473.949C572.451 467.549 571.571 461.699 569.071 455.759L558.341 430.329C557.651 428.689 556.151 427.999 554.991 428.459C553.301 429.129 552.651 430.289 553.171 432.109C557.441 446.939 563.691 443.519 557.931 470.129L551.601 499.419C551.241 501.089 549.271 501.329 547.971 501.129C546.641 500.929 545.511 499.359 545.691 497.489L548.881 464.979C550.191 451.599 547.121 439.039 545.581 425.809C543.921 411.469 545.451 397.399 545.871 383.099C545.991 378.869 547.021 374.689 548.421 371.109C550.241 366.449 554.011 365.579 558.511 365.489C565.211 365.349 571.271 369.449 571.161 376.299L566.641 371.329C565.621 370.209 563.861 370.349 562.811 371.679C562.191 372.469 562.511 373.859 563.451 375.079L577.581 393.509L601.531 381.999C602.451 381.559 603.191 381.479 603.851 382.289C605.961 384.879 581.951 399.059 579.051 400.779V400.799ZM602.861 394.179C602.481 394.559 601.181 395.009 600.801 394.299C600.341 393.429 610.741 387.079 611.481 380.719C612.251 380.129 613.441 381.149 613.901 381.869C615.831 384.909 608.431 388.479 602.861 394.179ZM907.751 376.629C905.751 369.179 900.111 364.099 892.321 363.749C884.721 363.409 877.161 363.459 869.541 363.729C861.871 363.999 856.231 369.149 853.841 376.269C851.081 384.509 848.861 392.659 847.081 401.199C846.371 404.579 848.601 408.009 850.631 409.369C853.591 411.349 856.551 410.769 860.011 409.829L858.361 456.239C857.871 470.039 857.431 483.299 858.171 496.979C858.331 499.939 858.641 502.479 860.531 504.509C862.151 506.239 864.411 507.029 867.141 507.139C872.681 507.369 875.531 503.509 876.061 498.309C877.661 482.599 878.311 467.089 881.241 451.559C883.861 464.119 884.311 475.639 885.721 487.969L887.121 500.139C887.671 504.919 891.451 507.419 896.261 507.119C900.751 506.839 904.771 503.819 904.661 498.719L902.651 410.419C906.601 410.799 909.121 410.779 911.221 408.709C912.591 407.359 914.211 404.469 913.661 401.829C911.881 393.289 910.011 384.999 907.761 376.629H907.751ZM860.211 375.979C861.901 372.009 865.711 369.339 870.071 369.339H892.511C903.161 369.339 904.151 385.639 905.711 393.799L897.171 389.929C895.601 385.809 900.261 373.029 893.531 372.999L868.621 372.879C861.271 372.839 866.131 384.439 863.861 389.279C862.111 391.879 857.991 392.469 854.921 394.329C855.641 388.109 857.641 382.049 860.221 375.999L860.211 375.979ZM882.331 397.579C886.331 403.849 892.771 403.409 892.411 406.929L869.271 407.049C868.531 407.049 868.501 406.289 868.521 405.899C868.621 404.219 875.981 403.469 878.571 398.299C880.041 395.359 879.751 392.209 878.041 389.949C876.241 387.559 873.561 386.849 870.141 387.399C869.971 384.129 869.911 381.349 870.231 378.119L891.291 378.239C891.611 381.099 891.571 383.629 891.291 386.609C887.971 386.129 884.911 386.109 883.141 388.499C881.101 391.259 880.361 394.499 882.321 397.579H882.331ZM856.511 404.679C854.811 405.459 853.371 404.949 852.891 403.609C852.431 402.329 852.801 400.939 854.501 400.189L871.631 392.669C873.091 392.029 873.861 394.099 873.731 394.929C873.551 396.049 872.911 397.149 871.671 397.809C866.811 400.389 861.821 402.259 856.511 404.689V404.679ZM899.051 497.459C899.031 500.089 898.021 501.369 895.741 501.459C893.541 501.549 892.431 500.189 892.201 497.669C890.771 482.309 888.351 452.909 884.221 439.089C883.751 437.529 882.471 436.769 881.191 436.679C879.691 436.569 878.311 437.659 877.871 439.449C875.601 448.749 874.351 457.949 873.361 467.839L870.221 499.119C870.031 501.049 868.211 501.499 866.811 501.439C865.451 501.379 863.631 500.129 863.641 498.129L863.871 460.029L865.581 412.759L893.281 412.869C894.841 412.869 895.661 412.099 896.871 411.299C898.221 440.279 899.241 468.609 899.051 497.469V497.459ZM907.731 403.849C907.001 405.099 905.191 405.059 903.851 404.369C898.031 401.369 885.451 397.539 886.881 392.969C887.231 391.869 888.781 391.389 890.141 392.069L906.831 400.339C908.641 401.239 908.211 403.009 907.721 403.849H907.731ZM651.661 224.979C651.921 205.029 652.281 185.699 651.541 165.739C651.371 161.259 645.471 157.799 641.701 156.429C627.261 151.149 611.531 151.219 597.151 156.619C593.501 157.989 587.811 161.449 587.811 165.709L587.751 225.029C587.751 229.029 593.041 232.379 596.441 233.699C611.421 239.489 628.201 239.659 643.511 233.649C647.071 232.249 651.601 228.719 651.651 224.979H651.661ZM594.201 165.799C595.841 162.689 600.471 161.169 603.851 160.309C615.091 157.439 626.751 157.589 637.811 160.869C640.661 161.709 644.401 163.299 645.571 165.969C648.271 172.129 620.451 178.789 598.811 170.999C596.831 170.289 593.031 168.019 594.201 165.799ZM593.711 174.709C606.541 181.959 633.151 182.089 645.691 174.959C646.371 177.369 646.131 179.599 645.821 182.459C635.031 191.629 601.551 190.999 593.931 181.819C592.471 180.059 593.451 176.779 593.701 174.709H593.711ZM645.511 196.509C643.941 198.919 640.481 199.959 637.661 200.829C625.751 204.519 613.021 204.429 601.141 200.579C598.521 199.729 595.391 198.469 593.911 196.319C592.581 194.379 593.351 191.439 593.701 189.229C608.751 196.259 630.751 196.789 645.691 189.319C646.061 191.529 646.821 194.509 645.511 196.519V196.509ZM593.491 203.399C608.351 210.989 630.761 210.809 645.801 203.829C645.801 206.149 646.981 209.299 645.461 211.169C643.051 214.119 638.681 215.359 635.081 216.199C625.161 218.509 614.921 218.719 605.061 216.239C601.051 215.229 596.561 213.819 593.951 210.749C592.391 208.919 593.601 205.719 593.491 203.399ZM602.251 229.889C599.071 228.949 595.571 227.469 593.861 224.719C592.651 222.769 593.421 220.129 593.511 218.069C609.851 225.119 628.441 225.609 645.531 218.439C646.231 220.189 646.821 223.449 645.421 225.229C643.021 228.289 638.811 229.589 634.661 230.639C623.711 233.399 612.691 232.979 602.251 229.899V229.889ZM782.991 267.739L771.671 278.179C770.351 279.399 768.731 279.449 767.601 278.479C763.531 274.979 771.251 271.239 772.851 268.519L721.221 268.279C719.131 268.269 715.891 267.029 714.021 268.459L644.951 321.179C643.311 322.429 642.171 323.029 640.881 322.659C639.631 322.289 638.331 320.919 638.321 319.139L638.281 267.989C638.281 265.999 640.131 265.029 641.391 265.079C643.331 265.149 644.081 266.599 644.101 268.579L644.501 314.039L711.781 262.599C717.941 262.089 723.441 262.259 729.511 262.289L759.611 262.459C764.131 262.489 768.361 262.909 773.001 262.069C770.951 258.719 764.451 256.049 767.351 252.419C768.291 251.229 770.311 251.079 771.741 252.389L783.081 262.809C784.711 264.309 784.611 266.279 783.001 267.769L782.991 267.739ZM683.901 59.0891L683.851 3.3891C683.851 1.9691 684.481 0.779103 685.441 0.359103C686.261 -0.000896871 687.641 -0.320897 688.871 0.609103L781.461 70.6991C782.361 66.9291 777.051 57.8191 782.831 57.1791C784.191 57.0291 785.601 58.1991 785.961 59.9791L789.521 77.3091C789.931 79.2991 788.761 80.8291 786.751 81.0091L770.451 82.4591C768.371 82.6491 767.081 81.6191 766.721 80.3591C765.101 74.6891 775.171 77.0491 777.551 75.1291L689.781 8.7591L689.651 60.4591C689.651 62.0791 687.501 62.4391 686.461 62.2291C685.221 61.9791 683.911 60.9991 683.911 59.0991L683.901 59.0891ZM828.631 349.029C828.931 350.709 827.271 352.039 826.131 352.239C820.861 353.179 822.911 343.139 820.521 340.059L784.811 399.809C783.881 401.359 782.201 401.479 780.891 401.139C779.951 400.889 778.321 399.119 779.131 397.749L815.251 336.769C811.531 335.829 803.851 341.739 802.861 336.199C802.571 334.569 803.491 333.119 805.271 332.659L821.721 328.359C823.201 327.969 825.021 329.219 825.291 330.699L828.631 349.029ZM560.821 256.149L508.021 302.699C506.821 303.759 505.111 303.339 504.331 302.739C503.491 302.089 502.471 299.509 503.751 298.379L556.671 251.839C554.421 249.929 545.811 253.239 545.411 248.589C545.301 247.289 545.631 245.289 547.521 245.309L565.661 245.519C567.501 245.539 568.651 247.269 568.431 248.989L566.451 264.869C566.181 267.029 564.961 268.119 563.101 268.039C557.941 267.829 562.141 258.729 560.811 256.139L560.821 256.149ZM519.151 81.1691C517.621 79.9191 517.981 77.8691 518.631 76.9691C519.631 75.5791 521.461 75.4491 522.931 76.6391L566.791 112.309C567.571 108.329 563.491 101.049 568.281 100.229C570.121 99.9091 571.521 101.089 571.801 103.049L574.201 119.329C574.411 120.769 573.321 122.389 571.841 122.519L555.131 123.979C553.031 124.159 551.611 123.259 551.281 121.599C550.121 115.749 559.871 119.059 562.821 116.869L519.131 81.1691H519.151ZM889.331 359.949C896.161 356.049 898.951 348.559 897.291 341.229C895.881 334.999 890.811 329.299 883.691 328.159C875.951 326.919 868.631 331.079 865.491 337.709C862.391 344.269 863.941 352.369 868.881 357.229C874.181 362.439 882.531 363.839 889.331 359.959V359.949ZM870.671 350.169C868.381 345.729 869.521 340.449 872.561 337.229C875.991 333.589 881.391 332.479 885.861 334.759C890.561 337.159 892.791 342.029 891.951 347.109C891.211 351.549 887.721 355.829 882.051 356.459C876.691 357.059 872.611 353.919 870.681 350.159L870.671 350.169ZM781.831 171.969L792.701 181.439C793.941 182.519 794.611 184.719 793.221 185.969L781.811 196.269C780.611 197.349 778.851 197.339 777.721 196.109C774.601 192.709 780.861 189.879 782.191 187.309L749.881 187.149C747.961 187.139 746.891 185.589 746.881 184.129C746.861 182.539 747.931 181.109 749.901 181.099L782.421 180.819C781.361 178.309 774.671 175.479 777.651 172.189C778.711 171.019 780.391 170.699 781.841 171.959L781.831 171.969ZM878.991 89.9191C878.601 85.1691 878.661 80.8491 878.951 76.0291C883.911 75.6891 888.271 75.7491 893.391 75.9991L893.361 89.9291H879.001L878.991 89.9191ZM854.411 89.9691C853.691 85.0591 854.181 80.7491 854.171 75.8391L868.591 75.8191L868.861 89.6391L854.411 89.9591V89.9691ZM828.991 89.6991C828.761 84.8391 828.671 80.6591 829.001 75.8991C833.821 75.4491 838.241 75.6991 843.151 75.7691L843.381 89.6591C838.421 90.1291 833.921 89.8991 828.991 89.6891V89.6991ZM507.751 161.789C508.561 160.519 510.271 160.149 511.531 160.949L550.501 185.769C551.291 186.269 551.771 187.139 551.771 188.079C551.771 189.019 551.291 189.889 550.501 190.389L511.531 215.209C511.081 215.499 510.561 215.639 510.061 215.639C509.161 215.639 508.271 215.189 507.751 214.369C506.941 213.099 507.311 211.399 508.591 210.589L539.631 190.819H295.981C294.471 190.819 293.241 189.589 293.241 188.079C293.241 186.569 294.471 185.339 295.981 185.339H539.631L508.591 165.569C507.311 164.759 506.941 163.059 507.751 161.789ZM176.421 204.119C176.911 204.679 177.841 205.399 178.481 205.789C180.081 206.779 181.871 207.289 183.741 207.409C184.301 207.449 184.801 207.429 185.361 207.359L185.991 207.279C187.351 207.109 188.661 206.679 189.821 205.949L191.051 205.169L193.301 209.469C191.311 210.859 189.201 211.879 186.821 212.239L186.061 212.339L185.031 212.419C184.551 212.459 184.081 212.459 183.611 212.419L182.581 212.329C178.831 212.009 175.161 210.109 172.611 207.319C171.321 205.909 170.321 204.269 169.631 202.469C169.521 202.189 169.451 201.939 169.311 201.689H163.771L165.591 198.019C165.661 197.949 165.741 197.919 165.841 197.909H168.431C168.301 196.999 168.311 196.139 168.421 195.169H163.761L165.481 191.709C165.551 191.569 165.621 191.449 165.751 191.389H169.341C170.041 189.269 171.161 187.359 172.651 185.719C175.151 182.979 178.891 181.079 182.571 180.759L183.491 180.679C184.061 180.629 184.641 180.629 185.211 180.679L186.281 180.769C188.741 181.059 190.851 181.979 192.931 183.369L191.101 187.719C191.081 187.769 191.021 187.859 190.981 187.859C190.741 187.859 188.731 185.909 184.821 185.699C184.581 185.689 184.371 185.669 184.141 185.679C183.661 185.709 183.211 185.719 182.721 185.789C180.641 186.069 178.701 186.909 177.111 188.289C176.191 189.089 175.251 190.239 174.741 191.389H189.531L188.031 194.969C188.001 195.049 187.921 195.119 187.831 195.159H173.351L173.291 195.979C173.271 196.319 173.271 196.669 173.291 197.009L173.351 197.909H183.891L186.881 197.929L185.371 201.519C185.311 201.649 185.211 201.689 185.071 201.689H182.711L182.461 201.629H178.101C177.851 201.669 177.641 201.689 177.391 201.689H174.751C175.161 202.629 175.771 203.369 176.411 204.109L176.421 204.119Z" fill="url(#paint0_linear_63_64)"/>
<defs>
<linearGradient id="paint0_linear_63_64" x1="0.00121425" y1="253.579" x2="1029.91" y2="253.579" gradientUnits="userSpaceOnUse">
<stop stop-color="#503EF7"/>
<stop offset="1" stop-color="#519FFF"/>
</linearGradient>
</defs>
</svg>
