<?xml version="1.0" encoding="UTF-8"?>
<svg id="Layer_1" data-name="Layer 1" xmlns="http://www.w3.org/2000/svg" xmlns:xlink="http://www.w3.org/1999/xlink" viewBox="0 0 1366 768">
  <defs>
    <style>
      .cls-1 {
        fill: url(#linear-gradient);
      }
    </style>
    <linearGradient id="linear-gradient" x1="168.05" y1="384" x2="1197.95" y2="384" gradientUnits="userSpaceOnUse">
      <stop offset="0" stop-color="#503ef7"/>
      <stop offset="1" stop-color="#519fff"/>
    </linearGradient>
  </defs>
  <path class="cls-1" d="M527.21,460.32c-1.23-.34-2.45-.79-3.74-.63-.46.3-.81.78-1.16,1.19,0,.28-.04.57-.15.89-.14.4-.56.68-1.04.5.02.15-.03.32-.03.47,0,.28-.01.6-.17.85-.23.35-.63.93-1.09.56-.11,1.08-1.36,1.46-1.84,2.24-.55.87-.83,1.11-1.89,1.3-.77.14-1.49,1-2.35.99-.32.29-.59.79-.93.96-.5.24-1.86.57-2.03-.36-.46-2.48-.05-4.94-.12-7.25l-.03-1-1.88-5.72c-.33-2.16-2.79-2.96-3.68-4.8-3.04-1.26-6-2.35-9.33-1.98-.39.04-.81.11-1.2.1-1.46,1.14-3.02,2.3-4.76,2.94-.1.22-.46.59-.67.71-3.24,5.21-3.29,11.28,0,16.47l.59.74c.8.26,1.36.96,1.35,1.81.13-.02.34-.03.46.02.88.36,2.06.72,2,1.82.61.05,1.21.41,1.76.62,1.58.62,3.27.95,5.13,1.8-.65,1.92-2.06,2.57-3.3,3.26-.13.07-.34,0-.49.02-.97,2.23-4.12,2.89-6.4,2.97l-.98.03c-1.6.79-4.73,1.56-5.14-.64-.09-.47-.64-1.19-.59-1.73-.89-1.04-1.02-2.78-1.28-4.36-1.57-9.45-4.98-17.98-8.57-26.48-.15-.36-.24-.79-.33-1.17-1.17-.57-1.71-1.87-1.96-3.1-.08-.38-.16-.76-.22-1.14-.34.26-.52.07-.76-.12-.39-.3-.16-1-.39-1.26-.98-1.07-1.58-2.4-2.09-3.75-1.18-.47-1.81-1.69-2.19-2.86-.06-.18-.1-.42-.1-.62-.34.28-.58.12-.8-.14-.32-.38-.44-.82-.39-1.25-1.07-.69-1.55-2.19-2.4-3.04-.83-.26-1.34-1.01-1.28-1.88-.1-.2-.51-.38-.52-.62-1.37-.81-2.56-2.05-3.06-3.57-2.74-2.89-5.86-5.54-8.17-8.74-1.2-.08-1.64-1.15-2.32-1.9-.58-.63-1.73-.86-2-1.84-.86-.12-1.57-.69-1.7-1.57-6.56-5.28-13.15-10.14-20.91-14.33-44-23.79-95.92-23.96-142.71-7.9-2.1.72-8.3-1.42-11.57,1.54-1.14,1.03-.59,3.07-1.5,4.38-1.38,1.85-4.3,2.29-6.24,3.6-2.42,1.63-4.78,2.98-7.84,3.82-12.5-10.1-34-16.13-49.15-11.57-2.04.61-3.36,1.91-4.01,3.55-.62,1.55-.38,3.82.86,5.35,9.44,11.56,11.65,20.6,14.51,35.49-8.43,11.74-14.58,24.68-18.31,38.74-.83,3.14-9.7-1.44-18.24,7.79-14.22,15.38-12.5,46.48,1.94,60.18,3.16,3,7.42,5,11.6,5.28l12.54.84c4,7.6,9.18,13.86,14.94,20.14,5.36,5.85,11.54,10.4,17.55,15.15.98.13,1.82.71,2.23,1.61.2-.04.43.13.63.12.29,0,.62,0,.95.14.35.16.86.64.48,1.1.45-.05.75.59,1.1.64,2,.3,1.8,8.89,1.9,10.51l.07,1.05c.55-.13.47.62.52,1.01.04.29.12.98-.43.93.23.74.22,1.66.23,2.42,1.64,1.89,1.43,4.86,1.34,7.3-.02.44.17.97.07,1.39l2.45,7.25c1.26.7,2.03,2.43,3.66,2.55,6.59,1.38,13.23,2.54,20.36,3.06,1.08,2.21,1.22,4.29,1.89,6.23.12.35.3.75.34,1.12,4.12,2.82,2.4,3.7,8.7,4.59,6.65.94,13.2.78,19.35,2.25.5-.12,1.09.05,1.61.04l8.01-.17,4.97-1.65c.36-.53.86-.97,1.25-1.48.82-1.47,1.4-3.19,2.69-4.29.07-.71.3-1.51.47-2.2,1.23-4.89,2.67-9.67,4.31-14.85l15.55.24,16.55-.24,2.89,6.59c.12.54.96.98,1.23,1.36,9.99,4.14,13.89,1.62,23.82,2.05,1.96,3.39,4.72,5.48,8.13,6.62,1.77-.22,3.65.12,5.43.05,6.88-.28,13.81-.02,20.98.24,4.08.15,7.7-.16,11.04-2.05.17-.24.54-.71.81-.81l2.02-4.71c1.1-2.57.31-5.68,1.52-8.06-.11-.43.06-.95.04-1.39-.13-2.43.11-5,1.21-7.19-.06-.47.13-.98.04-1.43-.41-2.03.49-3.97,1.12-6.16.5-1.74,0-3.78,1.37-4.81-.09-.34-.02-.84.02-1.19.29-2.93,1.7-11.9,4.19-13.53.23-.15.4-.41.61-.58.27-.84.99-1.41,1.88-1.35.36-.49.93-.86,1.33-1.32,1.01-1.14,1.96-2.52,3.51-2.83.32-.52.74-.97,1.27-1.28.28-.79.93-1.42,1.8-1.39.83-1.77,2.47-2.93,3.78-4.34-.25-.23,5.64-7.39,5.85-6.6.13-.55.79-.85,1.01-1.32,1.04-2.27,2.38-4.71,4.43-6.15.08-.42.31-.82.43-1.23.16-.52,2.95-6.65,3.94-6.08.09-.43.22-.9.39-1.3,3.43-7.87,6.86-15.69,8.44-24.52.29-1.6.16-3.21,1.26-4.2,0-.66.32-1.39.23-2.05-.26-1.73.34-3.51.36-5.49l.24-18.24c5.22.2,9.62-.98,14.04-2.62.34-.13.75-.12,1.07-.28.22-1.3,1.79-1.53,2.86-2.36,1.01-.78,1.48-2.1,2.65-2.22.17-.29.46-.55.71-.78.4-1.84,1.63-3.53,3.67-3.58l1.14-.02c3.44-.78,6.6-2.2,9.84-3.6.18-.08.44-.12.63-.13-.19-.31-.1-.59.12-.81.35-.34.8-.46,1.23-.4.45-.72,1.13-1.5,1.92-1.86.2-1.17,1.1-2.03,2.21-2.38.03-.19.11-.38.13-.57.03-.28.05-.57.17-.89.14-.4.56-.7,1.04-.49-.03-.15.02-.32.02-.47v-3.72c-.21-.17-.4-.36-.56-.56ZM274.57,399.93c-.13-.8,1.64-.73,2.27-.4,9.45,7.44,16.09,18.87,15.4,31.81-6.11-4.37-10.88-8.18-17.37-10.03-3.81-1.08,1.92-7.67-.3-21.38ZM246.54,404.76c-1.53,1.71-9.25,6.4-9.81,6.43-1.15.07-1.68-.69-2.45-1.69-6.28-8.14-11.49-9.73-20.48-15.36,11.88-.73,23.09,3.94,32.75,10.62ZM209,400.46c2.25-1.22,4,.4,5.83,1.32,6.57,3.05,12.44,7.05,16.53,13.97l-11.74,11.42c-2.63-9.69-4.93-18.46-10.62-26.72ZM201.62,535.42c-4.88,5.2-12.18,5.93-17.49.72-17.33-17.03-9.11-55.69,6.76-55.46,4.21.06,8.07,3.25,10.62,6.44,10.4,13,11.13,36.57.11,48.3ZM255.64,615c-2.57-.34-3.66-2.28-3.93-4.68l-2.27-20c5.76,3.3,10.66,5.76,16.34,7.98,1.56,3.5,2.25,7.23,3.02,10.96.86,2.36,1.22,4.46,1.49,7.73-5.15-.12-9.75-1.34-14.65-2ZM364.42,612.27l15.83-3.32c1.71,2.38,2.78,4.61,3.2,7.97-5.06-.36-20.62,2.61-19.03-4.64ZM460.47,552.1c-5.2,7.1-10.72,13.39-17.71,18.69-4.27,3.24-6.59,6.98-7.88,12.4l-1.64,6.91-4.87,28.19c-.26,1.51.15,2.79-.93,3.82-.88.84-1.89,1.33-3.54,1.32l-28.27-.18c-1.8-.01-3.52-1.18-4.13-2.86l-5.73-15.79c-.54-1.49-1.81-2.76-3.72-2.27-9.94,2.54-19.79,3.81-30.05,4.63-9.37.75-18.39.32-27.71-1-1.46-.21-3.13.52-3.53,1.9-1.96,6.84-3.66,13.57-6.23,20.26-.99,2.57-4.21,3.44-6.87,3.19l-24.01-2.25c-2.75-.26-4.54-2.08-5.06-4.62-1.98-9.74-4.27-19.13-6.91-28.65-.51-1.84-1.83-2.49-3.45-3.17-15.41-6.42-31.26-16.46-42.94-28.51-5.12-5.28-10.4-10.31-13.98-17.33,6.43-1.08,12.74.77,18.9-2.81,1.68-.98,2.29-2.83,1.43-4.17-1.17-1.82-2.56-1.4-4.45-.89-6.87,1.86-13.93,2.18-21.56,1.45,12.77-12.76,12.15-40.7,4.02-52.05l-5.36-7.48,15.68-1.12c1.66-.12,2.85-1.41,2.99-2.59.86-7.09-14.24-1.23-20.35-3.13,3.92-20.47,19.02-43.64,35.8-55.91,5.1-3.73,9.93-7,15.41-9.95,4.6-2.47,8.72-5.34,14.03-7.29,1.66,7.49.76,14.55-1.89,21.29-1.94,4.93,11.01,3.9,19.42,11.85l8.49,8.03c1.51,1.43,4.23-.69,4.49-2.64,2.38-17.25-2.19-29.77-15.24-42.98,6.97-.38,13.35,3.37,18.49,7.83,6.28,5.45,9.78,13.32,10.95,21.63,1.18,8.35-1.44,18.57,2.4,20,1.05.39,3.06-.44,3.35-1.93,4.32-22.63-3.37-44.16-26.62-52.85,6.79-2.9,13.16-3.32,19.65-4.78,10.19-2.3,20.25-2.97,30.74-3.18,12.65-.25,24.44.64,36.75,3.37,21.79,4.83,42.17,13.76,59.39,27.92,2.74,2.26,4.95,4.48,7.44,6.85,18.6,17.77,29.49,39.33,32.06,65.09,2.42,24.15-2.88,46.11-17.27,65.73ZM503.92,470.02c-3.4-.26-6.31-1.55-8.67-3.64-3.51-3.12-3.4-9.05.58-11.65,2.42-1.58,5.44.04,6.91,2.4,2.25,3.63,2.09,8.15,1.18,12.9ZM320.56,361.42c16.71,14.96,41.79,14.75,58.4.6,14.22-12.12,19.81-30.46,14.07-48.08,1.15-2.38,3.45-3.16,5.48-4.61l27.99-19.87,7.37-5c19.27-13.08,32.98-13.86,46.57-24.68,1.71-1.36,3.57-2.62,4.95-4.25l10.15-11.95c1.73-2.03,3.24-3.89,6.04-4.57,3.98-.97,7.72-2.71,11.98-3.29.18,3.83.89,7.02,3.2,9.17,2.12,1.97,5.45,2.95,8.6,2.45l14.36-2.28,24.6-4.21c3.17-.54,6.54-.55,9.32-2.37,2.23-1.46,2.76-5.05,2.25-7.85l-13.41-74.31-2.87-17.55c-.89-5.46-5.39-9.23-11.21-8.13l-43.8,8.31c-5.56,1.06-7.51,6.97-5.99,12.29-7.81,1.46-15.24,2.49-23.05,3.02l-31.17,2.11-20.62,1.37c-5.31.35-10.47.31-15.87.83-5.05.48-9.84.97-14.91,1.01-10.89.08-23.13,2.09-29.37,12.35l-13.92,22.88c-2.17,3.57-18.06,14.74-18.21,20.28l-.26,9.73c-.06,2.05-6.05,8.29-5.77,15.22l.98,24.17c.25,6.23,1.45,12.06,1.15,18.43-.07,1.42,1.4,3.9.13,5.24-14.71,9.17-23.33,25.25-22.15,42.89.84,12.55,5.92,22.53,15,30.66ZM507.52,144.66l42.99-7.74c1.74-.31,2.34,1.79,2.56,3.07l4.16,23.99c.35,2,.69,3.75,1.05,5.72l7.14,39.67,4.36,23.86-44.95,7.77c-2.14.37-4.27-.47-4.63-2.61l-5.98-35.79-9.33-53.98c-.35-2.05.7-3.61,2.64-3.96ZM342.63,219.2c4.92-7.8,9.36-15.45,14.07-23.38l11.46-19.31c3.38-5.69,8.83-9.45,15.58-9.91l37.93-2.55,11.39-.43,6.84-.52c3.55-.27,6.84-.59,10.44-.55,4.03.04,7.85-.77,11.87-.98,12.67-.64,25.01-1.73,37.56-3.87l4.02,21.75,8.11,47.2c.14.82.11,1.39-.13,2.01-.52,1.36-11.6,3.22-16.46,6.21-7.67,4.73-10.4,16.09-26.73,24.86-6.78,3.64-13.75,6.2-20.82,9.33-10.1,4.48-18.76,10.69-27.75,17.05l-29.89,21.15c-3.74,2.64-8.2,5.96-12.92,5.81-7.43-.24-11.57-8.22-10.53-15.1.75-4.95,3.73-8.56,7.53-11.66l26.66-21.78c4.67-3.82,7.71-8.26,9.61-13.88,1.47-4.33,3.67-8.7,3.25-13.42-.53-5.84-4.24-10.3-8.48-14.09-4.93-4.42-10.03-8.31-15.27-12.31-1.79-1.37-3.67-1.81-5.05-.15-3.49,4.21,4.77,6.09,4.06,8.51-3.06,2.03-5.72,4.24-8.53,6.76l-16.76,14.96c-2.49,2.22-5.96,4.6-7.37,7.55-1.49,3.11.03,7.07-.78,10.41-1.05,4.33.12,8.78-.54,13.17-.47,3.13-.38,6.04-.48,9.44-6.35-.31-12.21.28-18.01,2.37-.68.25-1.47.02-1.85-.27-.31-.24-.62-.91-.6-1.65.1-3.75-.45-7.27-.72-11.02l-.66-9.26-.71-13.44c-.79-14.82,1.15-13.9,10.68-29.01ZM361.57,266.74l18.6,6.15-12.89,11.52c-2.24-.36-4.41-.78-6.19-1.81-1.07-.62-.34-2.91-.18-3.93.63-4.04-.36-7.73.66-11.93ZM398.48,230.75c-3.74,4.92-7.51,9.49-11.78,14.02-1.22,1.3.83,3.57,2.34,3.68,4.77.37,9.3,1.02,13.57,3.3-.93,5.24-11.99,12.98-16.22,16.38l-14.32-4.4-10.19-3.41c-.29-3.1-.13-5.9,0-8.96,4.05-4.35,8.19-8.16,12.62-12.09l18.61-16.51c1.58.04,6.56,4.04,6.83,4.87.45,1.34-.68,2.09-1.45,3.12ZM404.75,232.85c3.66,5.77,3.87,9.65-.81,14.35-2.37.95-5.24-1.46-7.33-2.81,1.69-4.54,4.86-7.72,8.14-11.54ZM360.41,353.3c-5.93,2.55-13.08,2.55-19.39.39-12.22-4.19-19.29-16.21-18.37-28.7.92-12.58,9.98-23.14,22.6-25.78,5.35-1.12,10.54-1.01,15.21,1.83.36,9.58,6.85,17.56,16.52,18.74,3.72,13.83-3.25,27.79-16.56,33.52ZM335.35,290.77c8.99-3.88,18.52-4.62,27.62-1.34.17,1.95-.93,3.26-2.03,4.87-16.2-4.79-32.84,2.57-40.5,17.66-9.72,19.16.8,42.77,21.68,48.13,25.35,6.51,43.11-18.32,41.81-31.93l-.9-9.39c-.13-1.38,2.97-2.3,4.45-2.33,4.98,17.67-2.14,35.58-17.88,44.65-6.2,3.58-13.43,5.75-20.53,5.49-20.4-.74-36.04-16.13-37.42-36.39-1.13-16.67,8.33-32.79,23.7-39.43ZM404.31,401.74c-1.15,2.15-2.86,2.06-5.01,1.25-25.19-9.46-56.78-8.93-82.62.02-2.48-1.38-4.73-3.56-5.94-6.79,10.56-2.68,20.77-5.25,31.48-6.17,19.92-1.73,41.56-.46,60.05,7.03,2.24.91,2.93,2.98,2.03,4.66ZM253.95,460.62c2.68,2.99,2.47,7.98-.11,11.2-1.82,2.27-4.03,2.93-6.61,2.5-1.83-.3-3.83-2-4.49-4.29-1.04-3.6.11-6.81,2.71-9.32,2.3-2.22,6.07-2.79,8.5-.09ZM219.15,454.07c3.33,2.91,2.42,8.82-1.09,11.44-2.05,1.53-4.31,1.4-5.93.37-3.56-2.26-3-8.23.6-11.28,1.55-1.32,4.62-2.1,6.42-.53ZM186.37,502.18l.16,12.57c.03,2.05-1.25,3.66-2.74,3.74-5.27.29-3.99-11.37-3.72-16.2.11-1.91,1.5-3.27,3.1-3.26,1.46,0,3.16,1.27,3.19,3.15ZM203.1,514.71c.01,2.16-.79,3.48-2.23,3.86-1.44.38-3.39.03-3.72-1.85-.83-4.76-.86-9.62-.32-14.31.18-1.54,1.97-2.61,3-2.67,1.5-.1,3.19,1.21,3.2,2.96l.07,12.01ZM536.39,222.05c-.22-2.89,1.51-5.15,4.31-6.48,2.3-1.08,4.76-.25,6.44,1.33,1.84,1.73,2.1,4.68.99,7.03-.99,2.1-3.37,3.66-6.52,3.37-3.31-.3-5.03-2.76-5.22-5.25ZM1197.82,334.89l-.19-138.75c0-1.66-.76-3.34-2.69-3.34l-207.9.06c-1.57,0-4.81-.37-4.81,1.86l-.14,80.28.05,46.49-.03,74.53.06,30.5c0,1.95.81,3.58,3.67,3.58l208.64-.03c2.06,0,3.49-1.23,3.48-3.14l-.13-92.04ZM1155.9,300.71l-.04-34.91,35.92-.03.04,34.77-35.92.17ZM1191.82,341.6l-35.82.11-.16-34.77,35.95-.08.04,34.74ZM1191.73,198.83l.08,28.98-203.68.06-.05-29.01,203.65-.03ZM1107.85,259.79l-35.69.08-.04-26.15h35.72s.01,26.07.01,26.07ZM1030.08,300.69v-34.93s35.78-.01,35.78-.01l.19,34.69-35.97.26ZM1066.03,341.39l-35.92.33-.03-34.86,35.84-.08.11,34.61ZM1023.77,233.7v26.11s-35.66.06-35.66.06v-26.14s35.66-.03,35.66-.03ZM1023.82,265.74l.18,34.7-35.8.34-.17-35.04h35.79ZM1023.84,306.83l.13,34.59-35.87.33-.07-34.89,35.81-.03ZM1023.98,382.79l-35.85.34-.05-35.54h35.73s.18,35.2.18,35.2ZM988.18,424.28l-.11-35.24,35.83.03.1,35.06-35.81.15ZM1030.13,424.31l-.07-35.27,35.93-.04.04,35.06-35.9.25ZM1030.12,383.12l-.04-35.55,35.96.13v35.1s-35.92.33-35.92.33ZM1030.25,259.93l-.17-26.2,35.77-.02.22,25.98-35.82.24ZM1107.75,265.77l.07,34.72-35.57.23-.18-34.99,35.68.04ZM1072.15,424.27l-.07-35.24,35.72-.09.03,35.24-35.68.08ZM1072.08,347.56h35.71s.02,35.45.02,35.45l-35.71.09-.02-35.54ZM1072.12,341.72l-.02-34.89,35.67.05.08,34.54-35.73.3ZM1113.87,233.84l35.86-.15.04,26.1-35.88-.04-.02-25.91ZM1149.72,265.75l.07,34.71-35.54.29-.21-35.04,35.68.04ZM1149.79,341.61l-35.71.08.02-34.88,35.65.02.03,34.79ZM1114.06,347.58l35.7.02.04,35.42-35.7.1-.04-35.54ZM1114.15,424.28l-.04-35.33h35.61s.1,35.09.1,35.09l-35.67.24ZM1191.77,233.71l-.06,26.18-35.87-.11-.22-26.09,36.16.02ZM1156.07,424.26l-.27-35.22,35.97-.08.03,35.25-35.73.04ZM1156.21,383.13c-.66-3.82-.23-7.27-.16-10.98l-.14-24.52,35.86-.03.05,35.4-35.61.13ZM839.38,348.49c14.89,5.54,31.32,5.81,46.5.02,3.83-1.46,8.54-4.99,8.54-9.1l-.09-101.9c0-4.54-5.68-7.92-9.45-9.4-14.56-5.71-30.91-5.49-45.49.21-3.59,1.4-9.11,4.93-9.11,9.2l.11,102.47c0,3.88,5.87,7.34,8.99,8.5ZM888.57,339.73c-2.04,2.11-4.22,3.5-6.91,4.37-11.95,3.88-24.77,4.05-36.86.35-3.05-.93-6.32-2.33-8.18-4.79-1.49-1.97-.61-4.84-.47-7.18,13.58,7.48,37.74,7.75,52.19.4.8,2.16.44,4.21.22,6.85ZM888.11,325.67c-9.09,9.17-42.46,9.53-51.6-.39-1.4-1.52-.46-4.54-.28-6.88,14.23,7.33,38.16,7.27,52.31.12-.13,2.07,1.22,5.48-.43,7.15ZM836.34,303.88c13.51,7.18,38.65,7.51,52.06.14.39,2.2.95,4.76-.03,7.04-.74,1.71-3.26,2.78-5.1,3.5-13.52,5.31-28.25,5.23-41.76-.11-1.82-.72-4.25-1.87-5.09-3.49-1.12-2.16-.59-4.8-.08-7.07ZM842.49,233.07c12.64-4.37,26.54-4.47,39.25-.33,2.56.84,6.31,2.7,6.58,5.35.21,2.1-3.14,4.04-5.38,4.79-13.38,4.46-27.64,4.43-40.65-.1-2.08-.73-5.65-2.39-5.66-4.68,0-2.49,3.61-4.26,5.85-5.04ZM836.12,246.12c13.69,7.4,38.47,7.41,52.33.45.3,2.17.83,4.11,0,6.4-.74,2.02-3.68,3.13-5.68,3.85-12.73,4.55-26.41,4.84-39.26.57-2.55-.85-5.73-2.21-7.1-4.33-1.28-1.99-.29-4.65-.28-6.94ZM836.13,260.48c14.22,7.2,37.1,7.38,52.15.22.8,2.17.55,4.42.23,7.25-10.7,9.33-44.85,8.79-52.09-.52-1.33-1.71-.34-4.56-.29-6.96ZM836.13,274.88c14.2,7.17,38.39,7.28,52.43.15-.13,2.13,1.23,5.45-.33,7.22-3.29,3.73-8.65,4.79-13.23,5.76-10.26,2.18-20.49,1.88-30.47-1.31-2.89-.93-6.45-2.25-8.13-4.68-1.31-1.9-.36-4.69-.28-7.13ZM836.18,289.54c16.77,7.29,35.65,7.19,52.36.15.06,2.25.87,4.77-.17,6.9-1.02,2.11-3.98,3.4-6.65,4.28-12.33,4.06-25.07,4.02-37.2.35-2.93-.88-6.44-2.33-8.11-4.7-1.32-1.88-.43-4.75-.24-6.98ZM914.37,506.75l3.07-8.62c.55-1.54-1.25-2.94-2.23-3.49-4.01-2.25-7.87,2.99-8.55,3.21l-17.53,5.88c-3.7,1.24.32,7.88-10.63,13.12-3.37-12.02-2.02-21.94-16.78-26.33,6.47-.69,11.54-2.95,14.58-7.48,3.22-4.8,3.84-10.67,1.71-16.03-3.08-7.75-10.85-12.11-18.94-10.57-7.36,1.4-13.02,7.84-13.4,15.91-.43,9.16,6.05,16.6,15.05,17.56-4.62,1.11-8.77-.13-12.74,2.42-4.2,2.69-7.29,7.66-7.9,13.14-1.89,16.96-3.3,34.1-1.49,51.27,1.4,13.29,4.46,25.87,3.2,39.39l-2.91,31.06c-.5,5.36,2.93,9.43,8.08,10.05,3.9.47,7.73-1.4,8.75-5.47,3.28-13.07,5.71-26.03,8.12-39.37,2.3,3.8,1.73,7.71,1.87,11.68l.86,24.5c.2,5.57,4.13,8.88,8.95,8.86,5.39-.02,8.19-3.86,8.57-9.33l2.16-31.31c.59-8.51-6.29-28.93-7.31-39.58-.69-7.11-.05-13.62-.08-20.33l11.55-6.64c1.77-1.02,9.59,2.62,13.19-.49l12.88-11.13c3.75-3.24,1.51-9.22-2.09-11.88ZM906.15,504.21c-.91,1.63-2.84,2.03-4.86,1.89.63-1.7,2.23-2.62,4.86-1.89ZM893.97,508.07c.26-.88,3.19-2.45,3.51-1.26.38,1.37-1.29,2.03-2.41,2.33-.74.2-1.34-.28-1.11-1.07ZM855.38,482.05c-4.47-3.44-5.58-10.15-2.27-15.29,3.52-5.45,10.92-6.44,15.98-2.69,4.94,3.67,6.33,11.25,1.84,16.65-4.06,4.88-10.96,4.86-15.55,1.33ZM878.13,531.01c-2.33,1.38-4.34.3-5.88-1.72l-16.26-21.42c-.76-1-2.75-.4-3.33.13-.69.64-1.31,2.57-.41,3.77l14.2,19.02c1.9,2.55,3.94,4.7,6.61,6.53-.05,6.24-.35,12.07-.05,18.18.48,10.07,7.46,31.04,7.51,39.86.07,11.22-1.63,21.99-2.12,33.09-.08,1.71-1.11,3-2.28,3.18-1.39.22-3.75-.37-3.82-2.3l-.78-21.63c-.29-8.04-1.2-15.39-4.27-22.78l-10.12-24.34c-.61-1.46-2.25-1.96-3.16-1.72-1.63.43-2.71,1.99-1.99,3.76l7.01,17.12c-.19,10.8-2.19,21.21-4.57,31.83-1.36,6.05-2.28,11.87-3.94,17.78-.47,1.66-1.86,2.45-3.31,2.26-1.42-.18-2.86-1.59-2.67-3.61l2.88-30.42c1.32-13.91-1.34-27.01-3.07-40.7-1.42-11.22-.95-43.48,2.31-54.31,1.5-4.98,5.49-6.69,10.32-6.67,6.4.02,12.39,3.43,13,10.36-2.34-1.1-4.77-6.89-7.96-4.81-.83.54-1.14,2.1-.4,3.12l13.15,17.91c.87,1.18,2.3,1.41,3.56.79l21.98-10.73c.52-.26,1.47-.28,1.85-.39.33-.09,1.02.78.77,1.17-2.82,4.59-19.29,14.46-24.76,17.69ZM901.22,524.61c-.74.77-2.59.09-2.19-.29,3.55-3.38,10.61-7.21,11.06-13,1.67-.34,2.21.86,2.53,1.96.71,2.44-6.72,6.43-11.4,11.33ZM1186.42,493.57c-4.13-3.43-9.1-2.68-14.41-3.62,5.8-.81,10.54-4.18,12.8-8.76,2.78-5.61,2.49-11.5-.57-16.79-4.36-7.55-13.41-10.01-21.02-6.66-7.79,3.42-11.87,11.72-9.59,20.28,2.01,7.58,9.19,12.13,18.09,12.48-13.99,2.68-15.43,13.92-17.4,26.49-10.85-4.52-6.83-6.8-9.96-12.05-2.23-3.75-13.63-3.38-19.62-7.85-1.76-1.31-3.01-2.66-5.18-2.56-1.52.07-3.77.41-4.26,2.64-.7,3.17,1.63,6,2.61,9.35-3.37,2.4-6.01,8.31-2.5,11.68l11.73,11.26c3.99,3.83,12.21.03,14.42.8,4.35,1.53,7.73,4.12,12.02,6.39.24,7.7,1.33,15.38-.36,23.12l-6.87,31.38c-1.29,5.9-.16,11.86.35,18.28l1.66,20.65c.37,4.65,4.06,7.49,8.6,7.35,4.48-.14,8-2.82,8.56-7.36,1.6-13.01-.4-25.87,2.84-37.39,1.68,4.18,1.43,8.01,2.34,12.03l6.01,26.74c1.02,4.56,5.31,6.61,9.72,5.66,4.15-.89,7.51-4.06,7.08-8.63l-3.09-33.13c-1.36-14.62,4-35.18,4.09-44.25.15-14.92-.18-29.47-1.9-44.23-.6-5.11-2.41-10.17-6.22-13.33ZM1159.02,476.34c-1.55-5.55,1.38-12.24,8.06-14.01,6.55-1.74,12.24,2.27,13.69,8.03,1.56,6.24-1.9,12.32-8.31,13.83-5.69,1.34-11.71-1.68-13.44-7.86ZM1139.11,508.85c-1.82,1.35-4.71-.27-6.36-2.13,2.12-.61,4.18-.48,6.36,2.13ZM1124.94,502.93c.93-.1,2.28.73,2.73,1.95.33.89-1.89.91-2.49.21-.43-.5-1.09-2.07-.24-2.16ZM1130.19,524.27c-3.19-3.97-10.63-7.56-10.65-11.03,0-1.05,2.46-2.78,2.8-1.78,2.03,6.08,6.23,10.13,12.03,13.21-1.46,1.32-3.02.6-4.17-.41ZM1188.31,555.94c-1.25,12.58-4.8,24.53-3.58,37.29l3.33,34.71c.2,2.12-1,3.35-2.51,3.69-2.07.47-3.45-.88-3.91-3.08l-4.93-23.13c-1.74-8.18-4.04-16.84-2.82-25.18,1.21-8.18,10.64-19.3,5.67-21.11-1.03-.38-2.97-.37-3.54.92-3.73,8.36-13.66,30.36-14.46,38.37-.98,9.87-.79,19.51-1.23,29.41-.07,1.67-.71,3.19-1.81,3.6-1.22.46-4.26.64-4.41-1.36-.84-11.23-2.61-21.97-2.56-33.64.03-7.4,2.59-14.28,4.24-21.19,3.01-12.62,5.13-24.7,3.14-37.65,1.56-1.46,3.38-1.75,4.46-3.2l17.07-22.83c.97-1.3.4-3.08-.73-3.85-1.09-.75-2.77-.71-3.89.79l-16.09,21.56c-4.05,5.43-28.95-14.92-29.01-14.98l-1.16-1.27c-.35-.39.52-1.83,1.19-1.57,8.09,3.14,15.27,7.14,23,10.92.86.42,2.67,1.22,3.41.23l13.08-17.57c.99-1.33.74-2.96-.69-3.89-.96-.62-2.59-.63-3.74.86l-3.86,4.99c.57-8.24,6.93-12.59,14.52-11.91,4.16.37,7.49,1.51,9.06,5.8,3.44,9.45,3.8,43.5,2.73,54.27ZM783.59,506.28c.78-3.38,3.55-6.08,2.75-9.21-.75-2.95-4.12-2.74-6.01-2.81-2.85-.1-3.07,3.31-5.2,4l-16.47,5.37c-4.39,1.43.52,8.52-10.61,13.08-2.15-4.66-1.82-9.4-3.44-13.99-2.43-6.86-7.47-11.25-14.77-12.2,6.33-.67,11.29-1.77,14.92-6.32,3.33-4.17,4.82-9.76,3.26-15.4-2.33-8.42-10.36-13.64-18.81-12.47-8.25,1.15-14.23,8.37-14.29,16.89-.06,8.45,5.97,15.26,14.76,16.72-4.89,1.07-9.21-.11-13.09,2.85-4.07,3.11-6.79,8.17-7.36,13.67-1.75,16.93-2.94,33.93-1.08,50.99,1.45,13.32,4.4,25.89,3.11,39.4l-3.04,31.85c-.4,4.18,2.86,7.21,6.2,8.16,2.97.85,8.5.56,9.69-3.29,4.22-13.7,6.39-27.46,9.15-42.08,2.21,5.84,1.74,12.06,2.01,18.36l.86,20.23c.2,4.6,4.26,7.26,8.17,7.34,3.93.08,8.2-1.91,8.59-6.28l2.11-24.17c2.03-23.24-3.32-26.97-6.52-47.97-1.14-7.52-.2-14.47-.21-22.45,5.14-1.6,8.33-5.75,13.11-6.53,3.37-.55,8.2,2.95,11.5.04l13.08-11.54c3.87-3.42,1.13-9.55-2.35-12.24ZM771.52,505.24c-2.74,3.28-6.34,2.91-9.28,4.55-2.71-2.26,10.6-5.05,9.28-4.55ZM720.74,475.36c-1.01-6.01,2.26-12.09,8.65-13.23,6.31-1.12,11.91,2.66,13.32,8.65,1.33,5.61-1.89,12.22-8.67,13.48-6.66,1.25-12.34-3.16-13.3-8.91ZM747.1,531.22c-1.53.91-3.63.22-4.64-1.11l-16.28-21.36c-.95-1.25-2.31-1.45-3.56-.99-1.21.44-1.88,2.66-.89,4.07,5.59,7.93,11.43,15.36,17.48,22.98.76.96,2.82,1.36,3.1,2.59.54,7.41-1.07,14.74.52,22.03l5.93,27.08c1.18,5.39,1.44,10.16.99,15.38l-2.43,28.17c-.16,1.85-2.5,1.7-3.77,1.56-1.28-.14-2.15-1.64-2.2-3.35l-.67-23.9c-.18-6.4-1.06-12.25-3.56-18.19l-10.73-25.43c-.69-1.64-2.19-2.33-3.35-1.87-1.69.67-2.34,1.83-1.82,3.65,4.27,14.83,10.52,11.41,4.76,38.02l-6.33,29.29c-.36,1.67-2.33,1.91-3.63,1.71-1.33-.2-2.46-1.77-2.28-3.64l3.19-32.51c1.31-13.38-1.76-25.94-3.3-39.17-1.66-14.34-.13-28.41.29-42.71.12-4.23,1.15-8.41,2.55-11.99,1.82-4.66,5.59-5.53,10.09-5.62,6.7-.14,12.76,3.96,12.65,10.81l-4.52-4.97c-1.02-1.12-2.78-.98-3.83.35-.62.79-.3,2.18.64,3.4l14.13,18.43,23.95-11.51c.92-.44,1.66-.52,2.32.29,2.11,2.59-21.9,16.77-24.8,18.49ZM770.91,524.6c-.38.38-1.68.83-2.06.12-.46-.87,9.94-7.22,10.68-13.58.77-.59,1.96.43,2.42,1.15,1.93,3.04-5.47,6.61-11.04,12.31ZM1075.79,507.05c-2-7.45-7.64-12.53-15.43-12.88-7.6-.34-15.16-.29-22.78-.02-7.67.27-13.31,5.42-15.7,12.54-2.76,8.24-4.98,16.39-6.76,24.93-.71,3.38,1.52,6.81,3.55,8.17,2.96,1.98,5.92,1.4,9.38.46l-1.65,46.41c-.49,13.8-.93,27.06-.19,40.74.16,2.96.47,5.5,2.36,7.53,1.62,1.73,3.88,2.52,6.61,2.63,5.54.23,8.39-3.63,8.92-8.83,1.6-15.71,2.25-31.22,5.18-46.75,2.62,12.56,3.07,24.08,4.48,36.41l1.4,12.17c.55,4.78,4.33,7.28,9.14,6.98,4.49-.28,8.51-3.3,8.4-8.4l-2.01-88.3c3.95.38,6.47.36,8.57-1.71,1.37-1.35,2.99-4.24,2.44-6.88-1.78-8.54-3.65-16.83-5.9-25.2ZM1028.25,506.4c1.69-3.97,5.5-6.64,9.86-6.64h22.44c10.65,0,11.64,16.3,13.2,24.46l-8.54-3.87c-1.57-4.12,3.09-16.9-3.64-16.93l-24.91-.12c-7.35-.04-2.49,11.56-4.76,16.4-1.75,2.6-5.87,3.19-8.94,5.05.72-6.22,2.72-12.28,5.3-18.33ZM1050.38,527.99c4,6.27,10.44,5.83,10.08,9.35l-23.14.12c-.74,0-.77-.76-.75-1.15.1-1.68,7.46-2.43,10.05-7.6,1.47-2.94,1.18-6.09-.53-8.35-1.8-2.39-4.48-3.1-7.9-2.55-.17-3.27-.23-6.05.09-9.28l21.06.12c.32,2.86.28,5.39,0,8.37-3.32-.48-6.38-.5-8.15,1.89-2.04,2.76-2.78,6-.82,9.08ZM1024.56,535.1c-1.7.78-3.14.27-3.62-1.07-.46-1.28-.09-2.67,1.61-3.42l17.13-7.52c1.46-.64,2.23,1.43,2.1,2.26-.18,1.12-.82,2.22-2.06,2.88-4.86,2.58-9.85,4.45-15.16,6.88ZM1067.1,627.88c-.02,2.63-1.03,3.91-3.31,4-2.2.09-3.31-1.27-3.54-3.79-1.43-15.36-3.85-44.76-7.98-58.58-.47-1.56-1.75-2.32-3.03-2.41-1.5-.11-2.88.98-3.32,2.77-2.27,9.3-3.52,18.5-4.51,28.39l-3.14,31.28c-.19,1.93-2.01,2.38-3.41,2.32-1.36-.06-3.18-1.31-3.17-3.31l.23-38.1,1.71-47.27,27.7.11c1.56,0,2.38-.77,3.59-1.57,1.35,28.98,2.37,57.31,2.18,86.17ZM1075.77,534.27c-.73,1.25-2.54,1.21-3.88.52-5.82-3-18.4-6.83-16.97-11.4.35-1.1,1.9-1.58,3.26-.9l16.69,8.27c1.81.9,1.38,2.67.89,3.51ZM819.7,355.4c.26-19.95.62-39.28-.12-59.24-.17-4.48-6.07-7.94-9.84-9.31-14.44-5.28-30.17-5.21-44.55.19-3.65,1.37-9.34,4.83-9.34,9.09l-.06,59.32c0,4,5.29,7.35,8.69,8.67,14.98,5.79,31.76,5.96,47.07-.05,3.56-1.4,8.09-4.93,8.14-8.67ZM762.24,296.21c1.64-3.11,6.27-4.63,9.65-5.49,11.24-2.87,22.9-2.72,33.96.56,2.85.84,6.59,2.43,7.76,5.1,2.7,6.16-25.12,12.82-46.76,5.03-1.98-.71-5.78-2.98-4.61-5.2ZM761.75,305.13c12.83,7.25,39.44,7.38,51.98.25.68,2.41.44,4.64.13,7.5-10.79,9.17-44.27,8.54-51.89-.64-1.46-1.76-.48-5.04-.23-7.11ZM813.55,326.93c-1.57,2.41-5.03,3.45-7.85,4.32-11.91,3.69-24.64,3.6-36.52-.25-2.62-.85-5.75-2.11-7.23-4.26-1.33-1.94-.56-4.88-.21-7.09,15.05,7.03,37.05,7.56,51.99.09.37,2.21,1.13,5.19-.18,7.2ZM761.53,333.81c14.86,7.59,37.27,7.41,52.31.43,0,2.32,1.18,5.47-.34,7.34-2.41,2.95-6.78,4.19-10.38,5.03-9.92,2.31-20.16,2.52-30.02.04-4.01-1.01-8.5-2.42-11.11-5.49-1.56-1.83-.35-5.03-.46-7.35ZM770.29,360.3c-3.18-.94-6.68-2.42-8.39-5.17-1.21-1.95-.44-4.59-.35-6.65,16.34,7.05,34.93,7.54,52.02.37.7,1.75,1.29,5.01-.11,6.79-2.4,3.06-6.61,4.36-10.76,5.41-10.95,2.76-21.97,2.34-32.41-.74ZM951.03,398.16l-11.32,10.44c-1.32,1.22-2.94,1.27-4.07.3-4.07-3.5,3.65-7.24,5.25-9.96l-51.63-.24c-2.09-.01-5.33-1.25-7.2.18l-69.07,52.72c-1.64,1.25-2.78,1.85-4.07,1.48-1.25-.37-2.55-1.74-2.56-3.52l-.04-51.15c0-1.99,1.85-2.96,3.11-2.91,1.94.07,2.69,1.52,2.71,3.5l.4,45.46,67.28-51.44c6.16-.51,11.66-.34,17.73-.31l30.1.17c4.52.03,8.75.45,13.39-.39-2.05-3.35-8.55-6.02-5.65-9.65.94-1.19,2.96-1.34,4.39-.03l11.34,10.42c1.63,1.5,1.53,3.47-.08,4.96ZM851.95,189.51l-.05-55.7c0-1.42.63-2.61,1.59-3.03.82-.36,2.2-.68,3.43.25l92.59,70.09c.9-3.77-4.41-12.88,1.37-13.52,1.36-.15,2.77,1.02,3.13,2.8l3.56,17.33c.41,1.99-.76,3.52-2.77,3.7l-16.3,1.45c-2.08.19-3.37-.84-3.73-2.1-1.62-5.67,8.45-3.31,10.83-5.23l-87.77-66.37-.13,51.7c0,1.62-2.15,1.98-3.19,1.77-1.24-.25-2.55-1.23-2.55-3.13ZM996.67,479.45c.3,1.68-1.36,3.01-2.5,3.21-5.27.94-3.22-9.1-5.61-12.18l-35.71,59.75c-.93,1.55-2.61,1.67-3.92,1.33-.94-.25-2.57-2.02-1.76-3.39l36.12-60.98c-3.72-.94-11.4,4.97-12.39-.57-.29-1.63.63-3.08,2.41-3.54l16.45-4.3c1.48-.39,3.3.86,3.57,2.34l3.34,18.33ZM728.86,386.57l-52.8,46.55c-1.2,1.06-2.91.64-3.69.04-.84-.65-1.86-3.23-.58-4.36l52.92-46.54c-2.25-1.91-10.86,1.4-11.26-3.25-.11-1.3.22-3.3,2.11-3.28l18.14.21c1.84.02,2.99,1.75,2.77,3.47l-1.98,15.88c-.27,2.16-1.49,3.25-3.35,3.17-5.16-.21-.96-9.31-2.29-11.9ZM687.2,211.59c-1.53-1.25-1.17-3.3-.52-4.2,1-1.39,2.83-1.52,4.3-.33l43.86,35.67c.78-3.98-3.3-11.26,1.49-12.08,1.84-.32,3.24.86,3.52,2.82l2.4,16.28c.21,1.44-.88,3.06-2.36,3.19l-16.71,1.46c-2.1.18-3.52-.72-3.85-2.38-1.16-5.85,8.59-2.54,11.54-4.73l-43.69-35.7ZM1057.38,490.37c6.83-3.9,9.62-11.39,7.96-18.72-1.41-6.23-6.48-11.93-13.6-13.07-7.74-1.24-15.06,2.92-18.2,9.55-3.1,6.56-1.55,14.66,3.39,19.52,5.3,5.21,13.65,6.61,20.45,2.73ZM1038.72,480.59c-2.29-4.44-1.15-9.72,1.89-12.94,3.43-3.64,8.83-4.75,13.3-2.47,4.7,2.4,6.93,7.27,6.09,12.35-.74,4.44-4.23,8.72-9.9,9.35-5.36.6-9.44-2.54-11.37-6.3ZM949.88,302.39l10.87,9.47c1.24,1.08,1.91,3.28.52,4.53l-11.41,10.3c-1.2,1.08-2.96,1.07-4.09-.16-3.12-3.4,3.14-6.23,4.47-8.8l-32.31-.16c-1.92-.01-2.99-1.56-3-3.02-.02-1.59,1.05-3.02,3.02-3.03l32.52-.28c-1.06-2.51-7.75-5.34-4.77-8.63,1.06-1.17,2.74-1.49,4.19-.23ZM1047.04,220.34c-.39-4.75-.33-9.07-.04-13.89,4.96-.34,9.32-.28,14.44-.03l-.03,13.93h-14.36ZM1022.45,220.39c-.72-4.91-.23-9.22-.24-14.13l14.42-.02.27,13.82-14.45.32ZM997.04,220.12c-.23-4.86-.32-9.04.01-13.8,4.82-.45,9.24-.2,14.15-.13l.23,13.89c-4.96.47-9.46.24-14.39.03ZM675.79,292.21c.81-1.27,2.52-1.64,3.78-.84l38.97,24.82c.79.5,1.27,1.37,1.27,2.31s-.48,1.81-1.27,2.31l-38.97,24.82c-.45.29-.97.43-1.47.43-.9,0-1.79-.45-2.31-1.27-.81-1.27-.44-2.97.84-3.78l31.04-19.77h-243.65c-1.51,0-2.74-1.23-2.74-2.74s1.23-2.74,2.74-2.74h243.65l-31.04-19.77c-1.28-.81-1.65-2.51-.84-3.78ZM344.47,334.54c.49.56,1.42,1.28,2.06,1.67,1.6.99,3.39,1.5,5.26,1.62.56.04,1.06.02,1.62-.05l.63-.08c1.36-.17,2.67-.6,3.83-1.33l1.23-.78,2.25,4.3c-1.99,1.39-4.1,2.41-6.48,2.77l-.76.1-1.03.08c-.48.04-.95.04-1.42,0l-1.03-.09c-3.75-.32-7.42-2.22-9.97-5.01-1.29-1.41-2.29-3.05-2.98-4.85-.11-.28-.18-.53-.32-.78h-5.54s1.82-3.67,1.82-3.67c.07-.07.15-.1.25-.11h2.59c-.13-.91-.12-1.77-.01-2.74h-4.66s1.72-3.46,1.72-3.46c.07-.14.14-.26.27-.32h3.59c.7-2.12,1.82-4.03,3.31-5.67,2.5-2.74,6.24-4.64,9.92-4.96l.92-.08c.57-.05,1.15-.05,1.72,0l1.07.09c2.46.29,4.57,1.21,6.65,2.6l-1.83,4.35c-.02.05-.08.14-.12.14-.24,0-2.25-1.95-6.16-2.16-.24-.01-.45-.03-.68-.02-.48.03-.93.04-1.42.11-2.08.28-4.02,1.12-5.61,2.5-.92.8-1.86,1.95-2.37,3.1h14.79s-1.5,3.58-1.5,3.58c-.03.08-.11.15-.2.19h-14.48s-.06.82-.06.82c-.02.34-.02.69,0,1.03l.06.9h10.54s2.99.02,2.99.02l-1.51,3.59c-.06.13-.16.17-.3.17h-2.36s-.25-.06-.25-.06h-4.36c-.25.04-.46.06-.71.06h-2.64c.41.94,1.02,1.68,1.66,2.42Z"/>
</svg>