<?xml version="1.0" encoding="UTF-8"?>
<svg id="Layer_2" data-name="Layer 2" xmlns="http://www.w3.org/2000/svg" xmlns:xlink="http://www.w3.org/1999/xlink" viewBox="0 0 53.43 26.35">
  <defs>
    <style>
      .cls-1 {
        fill: url(#linear-gradient);
      }
    </style>
    <linearGradient id="linear-gradient" x1="0" y1="13.18" x2="53.43" y2="13.18" gradientUnits="userSpaceOnUse">
      <stop offset="0" stop-color="#503ef7"/>
      <stop offset="1" stop-color="#519fff"/>
    </linearGradient>
  </defs>
  <g id="Layer_1-2" data-name="Layer 1">
    <path class="cls-1" d="M26.72,0c-5.71,0-11.49,1.83-11.49,5.34v15.67c0,3.67,5.96,5.34,11.49,5.34s11.49-1.67,11.49-5.34V5.34c0-3.51-5.78-5.34-11.49-5.34ZM35.21,21.01c0,.6-2.92,2.34-8.49,2.34s-8.49-1.74-8.49-2.34v-4.08c.08.04.18.07.26.11.17.08.34.15.52.22.12.05.25.09.37.14.18.06.35.12.54.18.14.04.27.08.41.12.18.05.37.1.56.15.14.04.29.07.44.1.19.04.39.08.59.12.15.03.3.06.45.08.2.03.41.07.62.1.15.02.3.04.45.06.22.03.44.05.66.07.14.01.28.03.43.04.25.02.49.03.74.05.12,0,.24.02.36.02.37.01.73.02,1.1.02s.73,0,1.1-.02c.12,0,.24-.01.36-.02.25-.01.49-.03.74-.05.14-.01.28-.03.43-.04.22-.02.44-.04.66-.07.15-.02.3-.04.45-.06.21-.03.42-.06.62-.1.15-.03.3-.05.44-.08.2-.04.4-.08.59-.12.15-.03.29-.07.43-.1.19-.05.38-.1.56-.15.14-.04.27-.08.41-.12.19-.06.37-.12.55-.18.12-.04.25-.09.36-.13.19-.07.36-.15.54-.23.08-.04.17-.07.25-.11v4.08ZM35.21,13.18c0,.6-2.92,2.34-8.49,2.34s-8.49-1.74-8.49-2.34v-4.12c.08.04.17.07.26.11.16.07.33.15.5.22.11.05.23.09.35.13.19.07.38.14.58.2.1.03.21.06.31.09.24.07.48.14.73.2.07.02.13.03.2.05,1.72.41,3.64.62,5.57.62,1.57,0,3.14-.14,4.59-.42,0,0,0,0,0,0,.33-.06.65-.13.96-.21.07-.02.14-.03.21-.05.24-.06.48-.13.72-.2.11-.03.21-.06.32-.1.2-.06.39-.13.58-.2.12-.04.24-.09.35-.13.17-.07.34-.14.51-.22.08-.04.17-.07.25-.11v4.12ZM26.72,7.68c-5.57,0-8.49-1.74-8.49-2.34s2.92-2.34,8.49-2.34,8.49,1.74,8.49,2.34-2.92,2.34-8.49,2.34ZM10.08,6.4l-6.46,6.46,6.34,6.34c.59.59.59,1.54,0,2.12-.29.29-.68.44-1.06.44s-.77-.15-1.06-.44L.44,13.92c-.59-.59-.59-1.54,0-2.12l7.52-7.52c.59-.59,1.54-.59,2.12,0,.59.59.59,1.54,0,2.12ZM52.99,13.92l-7.4,7.4c-.29.29-.68.44-1.06.44s-.77-.15-1.06-.44c-.59-.59-.59-1.54,0-2.12l6.34-6.34-6.46-6.46c-.59-.59-.59-1.54,0-2.12.59-.59,1.54-.59,2.12,0l7.52,7.52c.59.59.59,1.54,0,2.12Z"/>
  </g>
</svg>