<?xml version="1.0" encoding="UTF-8"?>
<svg xmlns="http://www.w3.org/2000/svg" viewBox="0 0 16 16">
  <defs>
    <linearGradient id="apis-gradient" x1="0" y1="8" x2="16" y2="8" gradientUnits="userSpaceOnUse">
      <stop offset="0" stop-color="#503ef7"/>
      <stop offset="1" stop-color="#519fff"/>
    </linearGradient>
  </defs>
  <!-- Stream of ones and zeros (outline), flowing left to right -->
  <g fill="none" stroke="url(#apis-gradient)" stroke-width="0.45" stroke-linecap="round">
    <!-- 1 = vertical bar -->
    <path d="M2.2 5 L2.7 4.5 L2.7 6.5 L2.2 7"/>
    <circle cx="4.2" cy="5.75" r="0.7"/>
    <path d="M5.9 5 L6.4 4.5 L6.4 6.5 L5.9 7"/>
    <circle cx="7.9" cy="5.75" r="0.7"/>
    <path d="M9.6 5 L10.1 4.5 L10.1 6.5 L9.6 7"/>
    <circle cx="11.6" cy="5.75" r="0.7"/>
    <path d="M13.3 5 L13.8 4.5 L13.8 6.5 L13.3 7"/>
    <!-- Second row offset -->
    <circle cx="3.1" cy="9" r="0.7"/>
    <path d="M4.8 8.25 L5.3 7.75 L5.3 9.75 L4.8 10.25"/>
    <circle cx="6.8" cy="9" r="0.7"/>
    <path d="M8.5 8.25 L9 7.75 L9 9.75 L8.5 10.25"/>
    <circle cx="10.5" cy="9" r="0.7"/>
    <path d="M12.2 8.25 L12.7 7.75 L12.7 9.75 L12.2 10.25"/>
  </g>
</svg>
