<?xml version="1.0" encoding="UTF-8"?>
<svg id="Layer_2" data-name="Layer 2" xmlns="http://www.w3.org/2000/svg" xmlns:xlink="http://www.w3.org/1999/xlink" viewBox="0 0 43.99 39.65">
  <defs>
    <style>
      .cls-1 {
        fill: url(#linear-gradient);
      }
    </style>
    <linearGradient id="linear-gradient" x1="0" y1="19.82" x2="43.99" y2="19.82" gradientUnits="userSpaceOnUse">
      <stop offset="0" stop-color="#503ef7"/>
      <stop offset="1" stop-color="#519fff"/>
    </linearGradient>
  </defs>
  <g id="Layer_1-2" data-name="Layer 1">
    <path class="cls-1" d="M26.45,31.61c5.54,0,11.49-1.67,11.49-5.34v-15.67c0-3.51-5.78-5.34-11.49-5.34s-11.49,1.83-11.49,5.34v15.67c0,3.67,5.96,5.34,11.49,5.34ZM34.94,26.27c0,.6-2.92,2.34-8.49,2.34s-8.49-1.74-8.49-2.34v-4.08c.08.04.18.07.26.11.17.08.34.15.52.22.12.05.25.09.37.14.18.06.35.12.54.18.14.04.27.08.41.12.18.05.37.1.56.15.14.04.29.07.44.1.19.04.39.08.59.12.15.03.3.06.45.08.2.03.41.07.62.1.15.02.3.04.45.06.22.03.44.05.66.07.14.01.28.03.43.04.25.02.49.03.74.05.12,0,.24.02.36.02.37.01.73.02,1.1.02s.73,0,1.1-.02c.12,0,.24-.01.36-.02.25-.01.49-.03.74-.05.14-.01.28-.03.43-.04.22-.02.44-.04.66-.07.15-.02.3-.04.45-.06.21-.03.42-.06.62-.1.15-.03.3-.05.44-.08.2-.04.4-.08.59-.12.15-.03.29-.07.43-.1.19-.05.38-.1.56-.15.14-.04.27-.08.41-.12.19-.06.37-.12.55-.18.12-.04.25-.09.36-.13.19-.07.36-.15.54-.23.08-.04.17-.07.25-.11v4.08ZM26.45,8.25c5.57,0,8.49,1.74,8.49,2.34s-2.92,2.34-8.49,2.34-8.49-1.74-8.49-2.34,2.92-2.34,8.49-2.34ZM17.95,14.31c.08.04.17.07.26.11.16.07.33.15.5.22.11.05.23.09.35.13.19.07.38.14.57.2.1.03.21.07.32.1.24.07.47.14.72.2.07.02.14.03.21.05,1.72.41,3.64.62,5.56.62s3.85-.21,5.57-.62c.07-.02.14-.03.2-.05.25-.06.49-.13.73-.2.1-.03.21-.06.31-.09.2-.06.39-.13.58-.2.12-.04.23-.08.34-.13.18-.07.34-.15.51-.22.08-.04.17-.07.25-.11v4.12c0,.6-2.92,2.34-8.49,2.34s-8.49-1.74-8.49-2.34v-4.12ZM42.49,0H10.21c-.82,0-1.49.67-1.49,1.49v27.4L.44,37.1c-.46.45-.57,1.15-.28,1.73.25.51.78.83,1.33.83.07,0,.15,0,.22-.02l18.28-2.71h22.5c.82,0,1.49-.67,1.49-1.49V1.49c0-.82-.67-1.49-1.49-1.49ZM41,33.94h-21.12c-.07,0-.15,0-.22.02l-13.89,2.06,5.49-5.43c.28-.28.44-.66.44-1.06V2.99h29.29v30.95Z"/>
  </g>
</svg>