<?xml version="1.0" encoding="UTF-8"?>
<svg id="Layer_2" data-name="Layer 2" xmlns="http://www.w3.org/2000/svg" xmlns:xlink="http://www.w3.org/1999/xlink" viewBox="0 0 42.86 34.48">
  <defs>
    <style>
      .cls-1 {
        fill: url(#linear-gradient);
      }
    </style>
    <linearGradient id="linear-gradient" x1="0" y1="17.24" x2="42.86" y2="17.24" gradientUnits="userSpaceOnUse">
      <stop offset="0" stop-color="#503ef7"/>
      <stop offset="1" stop-color="#519fff"/>
    </linearGradient>
  </defs>
  <g id="Layer_1-2" data-name="Layer 1">
    <path class="cls-1" d="M41.95,9.82L22.14.16c-.43-.21-.94-.22-1.38-.02L.95,9.12C.39,9.37.02,9.93,0,10.55c-.02.62.32,1.2.87,1.48l9.07,4.73v4.54s0,0,0,0h0v7.83c0,3.67,5.96,5.34,11.49,5.34s11.49-1.67,11.49-5.34v-7.79s0-.03,0-.05v-4.17l9.02-4.4c.56-.27.91-.84.91-1.46s-.35-1.19-.91-1.46ZM29.92,29.14c0,.6-2.92,2.34-8.49,2.34s-8.49-1.74-8.49-2.34v-4.08s.08.03.11.05c.23.11.47.21.73.31.06.02.11.04.17.06.25.09.51.18.77.26.06.02.12.03.17.05.28.08.56.16.84.23.05.01.1.02.15.03.31.07.62.14.94.2.03,0,.06.01.09.02.35.06.71.12,1.07.17,0,0,0,0,0,0,1.13.15,2.29.22,3.44.22s2.31-.08,3.44-.22c0,0,0,0,.01,0,.36-.05.71-.1,1.06-.16.03,0,.06-.01.09-.02.32-.06.64-.12.95-.2.04-.01.09-.02.13-.03.3-.07.59-.15.87-.23.05-.01.09-.03.14-.04.28-.09.56-.18.82-.28.04-.01.08-.03.12-.04.28-.11.56-.23.82-.35.01,0,.02,0,.04-.02v4.08ZM29.93,21.3s0,0,0,0h0c0,.6-2.92,2.34-8.49,2.34-3.54,0-6.01-.7-7.34-1.37-.76-.38-1.16-.76-1.16-.98v-2.97l7.74,4.04c.23.12.49.18.75.18.24,0,.49-.05.71-.16l7.79-3.8v2.71ZM21.45,19.12L5.32,10.7,21.4,3.41l16.13,7.86-16.08,7.84Z"/>
  </g>
</svg>