<?xml version="1.0" encoding="UTF-8"?>
<svg xmlns="http://www.w3.org/2000/svg" viewBox="0 0 16 16">
  <defs>
    <linearGradient id="storytelling-gradient" x1="0" y1="8" x2="16" y2="8" gradientUnits="userSpaceOnUse">
      <stop offset="0" stop-color="#503ef7"/>
      <stop offset="1" stop-color="#519fff"/>
    </linearGradient>
  </defs>
  <path fill="url(#storytelling-gradient)" d="M11 2a1 1 0 0 1 1-1h2a1 1 0 0 1 1 1v12h.5a.5.5 0 0 1 0 1H.5a.5.5 0 0 1 0-1H1v-3a1 1 0 0 1 1-1h2a1 1 0 0 1 1 1v3h1V7a1 1 0 0 1 1-1h2a1 1 0 0 1 1 1v7h1zm1 12h2V2h-2zm-3 0V7H7v7zm-5 0v-3H2v3z"/>
</svg>
